<mxfile host="Electron" modified="2023-09-09T15:05:28.818Z" agent="Mozilla/5.0 (Windows NT 10.0; Win64; x64) AppleWebKit/537.36 (KHTML, like Gecko) draw.io/21.6.5 Chrome/114.0.5735.243 Electron/25.3.1 Safari/537.36" etag="vVf5OtkV7GvpLFEcAesH" version="21.6.5" type="device">
  <diagram name="第 1 页" id="Ku7rGSH6ahA40yERtkHX">
    <mxGraphModel dx="-1889" dy="964" grid="1" gridSize="10" guides="1" tooltips="1" connect="1" arrows="1" fold="1" page="1" pageScale="1" pageWidth="827" pageHeight="1169" math="0" shadow="0">
      <root>
        <mxCell id="0" />
        <mxCell id="1" parent="0" />
        <mxCell id="Ttfk6c4jHyExXrdg_O_r-92" value="&lt;b&gt;Compute Vison&lt;br&gt;&lt;br&gt;&lt;br&gt;&lt;br&gt;&lt;br&gt;&lt;br&gt;&lt;br&gt;&lt;/b&gt;" style="rounded=1;whiteSpace=wrap;html=1;arcSize=8;fillColor=#fff2cc;strokeColor=#d6b656;gradientColor=#ffd966;" parent="1" vertex="1">
          <mxGeometry x="3546" y="343" width="210" height="110" as="geometry" />
        </mxCell>
        <mxCell id="Ttfk6c4jHyExXrdg_O_r-93" value="Object&lt;br&gt;Detection" style="rounded=1;whiteSpace=wrap;html=1;" parent="1" vertex="1">
          <mxGeometry x="3656" y="368.5" width="92" height="35" as="geometry" />
        </mxCell>
        <mxCell id="Ttfk6c4jHyExXrdg_O_r-94" value="Image Segmentation" style="rounded=1;whiteSpace=wrap;html=1;" parent="1" vertex="1">
          <mxGeometry x="3554" y="411" width="92" height="35" as="geometry" />
        </mxCell>
        <mxCell id="Ttfk6c4jHyExXrdg_O_r-95" value="Image Classification" style="rounded=1;whiteSpace=wrap;html=1;" parent="1" vertex="1">
          <mxGeometry x="3554" y="368.5" width="92" height="35" as="geometry" />
        </mxCell>
        <mxCell id="Ttfk6c4jHyExXrdg_O_r-97" value="&lt;b&gt;NLP&lt;br&gt;&lt;br&gt;&lt;br&gt;&lt;br&gt;&lt;br&gt;&lt;br&gt;&lt;br&gt;&lt;/b&gt;" style="rounded=1;whiteSpace=wrap;html=1;arcSize=8;fillColor=#fff2cc;strokeColor=#d6b656;gradientColor=#ffd966;" parent="1" vertex="1">
          <mxGeometry x="3776" y="343" width="210" height="110" as="geometry" />
        </mxCell>
        <mxCell id="Ttfk6c4jHyExXrdg_O_r-98" value="Question Answering" style="rounded=1;whiteSpace=wrap;html=1;" parent="1" vertex="1">
          <mxGeometry x="3886" y="368.87" width="92" height="35" as="geometry" />
        </mxCell>
        <mxCell id="Ttfk6c4jHyExXrdg_O_r-99" value="Translation" style="rounded=1;whiteSpace=wrap;html=1;" parent="1" vertex="1">
          <mxGeometry x="3784" y="411.37" width="92" height="35" as="geometry" />
        </mxCell>
        <mxCell id="Ttfk6c4jHyExXrdg_O_r-100" value="Text Classification" style="rounded=1;whiteSpace=wrap;html=1;" parent="1" vertex="1">
          <mxGeometry x="3784" y="368.87" width="92" height="35" as="geometry" />
        </mxCell>
        <mxCell id="Ttfk6c4jHyExXrdg_O_r-101" value="..." style="rounded=1;whiteSpace=wrap;html=1;" parent="1" vertex="1">
          <mxGeometry x="3656" y="411" width="92" height="35" as="geometry" />
        </mxCell>
        <mxCell id="Ttfk6c4jHyExXrdg_O_r-102" value="..." style="rounded=1;whiteSpace=wrap;html=1;" parent="1" vertex="1">
          <mxGeometry x="3886" y="411.37" width="92" height="35" as="geometry" />
        </mxCell>
        <mxCell id="Ttfk6c4jHyExXrdg_O_r-103" value="&lt;b&gt;AIGC&lt;br&gt;&lt;br&gt;&lt;br&gt;&lt;br&gt;&lt;br&gt;&lt;br&gt;&lt;br&gt;&lt;/b&gt;" style="rounded=1;whiteSpace=wrap;html=1;arcSize=8;fillColor=#fff2cc;strokeColor=#d6b656;gradientColor=#ffd966;" parent="1" vertex="1">
          <mxGeometry x="4006" y="343" width="210" height="110" as="geometry" />
        </mxCell>
        <mxCell id="Ttfk6c4jHyExXrdg_O_r-104" value="Image To Text" style="rounded=1;whiteSpace=wrap;html=1;" parent="1" vertex="1">
          <mxGeometry x="4115" y="368.5" width="92" height="35" as="geometry" />
        </mxCell>
        <mxCell id="Ttfk6c4jHyExXrdg_O_r-105" value="Text Generation" style="rounded=1;whiteSpace=wrap;html=1;" parent="1" vertex="1">
          <mxGeometry x="4013" y="411" width="92" height="35" as="geometry" />
        </mxCell>
        <mxCell id="Ttfk6c4jHyExXrdg_O_r-106" value="Text To Image" style="rounded=1;whiteSpace=wrap;html=1;" parent="1" vertex="1">
          <mxGeometry x="4013" y="368.5" width="92" height="35" as="geometry" />
        </mxCell>
        <mxCell id="Ttfk6c4jHyExXrdg_O_r-107" value="..." style="rounded=1;whiteSpace=wrap;html=1;" parent="1" vertex="1">
          <mxGeometry x="4115" y="411" width="92" height="35" as="geometry" />
        </mxCell>
        <mxCell id="Ttfk6c4jHyExXrdg_O_r-108" value="&lt;font style=&quot;font-size: 12px;&quot;&gt;AI&lt;/font&gt;" style="text;html=1;strokeColor=default;fillColor=none;align=center;verticalAlign=middle;whiteSpace=wrap;rounded=0;strokeWidth=0.5;" parent="1" vertex="1">
          <mxGeometry x="3440" y="383.5" width="90" height="30" as="geometry" />
        </mxCell>
        <mxCell id="Ttfk6c4jHyExXrdg_O_r-115" value="&lt;b&gt;&lt;font style=&quot;font-size: 14px;&quot;&gt;Resouce Pool&lt;br&gt;&lt;br&gt;&lt;br&gt;&lt;br&gt;&lt;br&gt;&lt;/font&gt;&lt;br&gt;&lt;/b&gt;" style="rounded=1;whiteSpace=wrap;html=1;arcSize=8;fillColor=#dae8fc;strokeColor=#6c8ebf;" parent="1" vertex="1">
          <mxGeometry x="3546.26" y="473" width="210" height="111" as="geometry" />
        </mxCell>
        <mxCell id="Ttfk6c4jHyExXrdg_O_r-116" value="Parallel" style="rounded=1;whiteSpace=wrap;html=1;" parent="1" vertex="1">
          <mxGeometry x="3656" y="496.5" width="92" height="35" as="geometry" />
        </mxCell>
        <mxCell id="Ttfk6c4jHyExXrdg_O_r-117" value="Memory Pool" style="rounded=1;whiteSpace=wrap;html=1;" parent="1" vertex="1">
          <mxGeometry x="3554" y="539" width="92" height="35" as="geometry" />
        </mxCell>
        <mxCell id="Ttfk6c4jHyExXrdg_O_r-118" value="Thread Pool" style="rounded=1;whiteSpace=wrap;html=1;" parent="1" vertex="1">
          <mxGeometry x="3554" y="496.5" width="92" height="35" as="geometry" />
        </mxCell>
        <mxCell id="Ttfk6c4jHyExXrdg_O_r-119" value="&lt;b&gt;&lt;font style=&quot;font-size: 14px;&quot;&gt;Directed Acyclic Graph&lt;br&gt;&lt;br&gt;&lt;br&gt;&lt;br&gt;&lt;br&gt;&lt;/font&gt;&lt;br&gt;&lt;/b&gt;" style="rounded=1;whiteSpace=wrap;html=1;arcSize=8;fillColor=#dae8fc;strokeColor=#6c8ebf;" parent="1" vertex="1">
          <mxGeometry x="3776" y="473" width="212" height="111" as="geometry" />
        </mxCell>
        <mxCell id="Ttfk6c4jHyExXrdg_O_r-120" value="Task" style="rounded=1;whiteSpace=wrap;html=1;" parent="1" vertex="1">
          <mxGeometry x="3886" y="496.5" width="92" height="35" as="geometry" />
        </mxCell>
        <mxCell id="Ttfk6c4jHyExXrdg_O_r-121" value="Packet" style="rounded=1;whiteSpace=wrap;html=1;" parent="1" vertex="1">
          <mxGeometry x="3784" y="539" width="92" height="35" as="geometry" />
        </mxCell>
        <mxCell id="Ttfk6c4jHyExXrdg_O_r-122" value="Pipeline" style="rounded=1;whiteSpace=wrap;html=1;" parent="1" vertex="1">
          <mxGeometry x="3784" y="496.5" width="92" height="35" as="geometry" />
        </mxCell>
        <mxCell id="Ttfk6c4jHyExXrdg_O_r-123" value="..." style="rounded=1;whiteSpace=wrap;html=1;" parent="1" vertex="1">
          <mxGeometry x="3656" y="539" width="92" height="35" as="geometry" />
        </mxCell>
        <mxCell id="Ttfk6c4jHyExXrdg_O_r-124" value="..." style="rounded=1;whiteSpace=wrap;html=1;" parent="1" vertex="1">
          <mxGeometry x="3886" y="539" width="92" height="35" as="geometry" />
        </mxCell>
        <mxCell id="Ttfk6c4jHyExXrdg_O_r-125" value="&lt;b&gt;&lt;font style=&quot;font-size: 14px;&quot;&gt;Process Template&lt;br&gt;&lt;br&gt;&lt;br&gt;&lt;br&gt;&lt;br&gt;&lt;/font&gt;&lt;br&gt;&lt;/b&gt;" style="rounded=1;whiteSpace=wrap;html=1;arcSize=8;fillColor=#dae8fc;strokeColor=#6c8ebf;" parent="1" vertex="1">
          <mxGeometry x="4004" y="473" width="212" height="111" as="geometry" />
        </mxCell>
        <mxCell id="Ttfk6c4jHyExXrdg_O_r-126" value="Infer" style="rounded=1;whiteSpace=wrap;html=1;" parent="1" vertex="1">
          <mxGeometry x="4115" y="496.13" width="92" height="35" as="geometry" />
        </mxCell>
        <mxCell id="Ttfk6c4jHyExXrdg_O_r-127" value="Postprocess" style="rounded=1;whiteSpace=wrap;html=1;" parent="1" vertex="1">
          <mxGeometry x="4013" y="538.63" width="92" height="35" as="geometry" />
        </mxCell>
        <mxCell id="Ttfk6c4jHyExXrdg_O_r-128" value="Preprocess" style="rounded=1;whiteSpace=wrap;html=1;" parent="1" vertex="1">
          <mxGeometry x="4013" y="496.13" width="92" height="35" as="geometry" />
        </mxCell>
        <mxCell id="Ttfk6c4jHyExXrdg_O_r-129" value="..." style="rounded=1;whiteSpace=wrap;html=1;" parent="1" vertex="1">
          <mxGeometry x="4115" y="538.63" width="92" height="35" as="geometry" />
        </mxCell>
        <mxCell id="Ttfk6c4jHyExXrdg_O_r-133" value="&lt;b&gt;&lt;font style=&quot;font-size: 14px;&quot;&gt;Inference&lt;br&gt;&lt;br&gt;&lt;br&gt;&lt;br&gt;&lt;br&gt;&lt;br&gt;&lt;/font&gt;&lt;/b&gt;" style="rounded=1;whiteSpace=wrap;html=1;arcSize=8;fillColor=#d5e8d4;strokeColor=#82b366;" parent="1" vertex="1">
          <mxGeometry x="3547" y="593" width="670" height="111" as="geometry" />
        </mxCell>
        <mxCell id="Ttfk6c4jHyExXrdg_O_r-134" value="OpenVINO" style="rounded=1;whiteSpace=wrap;html=1;" parent="1" vertex="1">
          <mxGeometry x="3656" y="617.5" width="92" height="35" as="geometry" />
        </mxCell>
        <mxCell id="Ttfk6c4jHyExXrdg_O_r-135" value="PaddleLite" style="rounded=1;whiteSpace=wrap;html=1;" parent="1" vertex="1">
          <mxGeometry x="3554" y="660" width="92" height="35" as="geometry" />
        </mxCell>
        <mxCell id="Ttfk6c4jHyExXrdg_O_r-136" value="TensorRT" style="rounded=1;whiteSpace=wrap;html=1;" parent="1" vertex="1">
          <mxGeometry x="3554" y="617.5" width="92" height="35" as="geometry" />
        </mxCell>
        <mxCell id="Ttfk6c4jHyExXrdg_O_r-137" value="..." style="rounded=1;whiteSpace=wrap;html=1;" parent="1" vertex="1">
          <mxGeometry x="4119" y="660" width="92" height="35" as="geometry" />
        </mxCell>
        <mxCell id="Ttfk6c4jHyExXrdg_O_r-138" value="ONNXRuntime" style="rounded=1;whiteSpace=wrap;html=1;" parent="1" vertex="1">
          <mxGeometry x="3776" y="617.5" width="92" height="35" as="geometry" />
        </mxCell>
        <mxCell id="Ttfk6c4jHyExXrdg_O_r-139" value="NCNN" style="rounded=1;whiteSpace=wrap;html=1;" parent="1" vertex="1">
          <mxGeometry x="3886" y="617.5" width="92" height="35" as="geometry" />
        </mxCell>
        <mxCell id="Ttfk6c4jHyExXrdg_O_r-140" value="MNN" style="rounded=1;whiteSpace=wrap;html=1;" parent="1" vertex="1">
          <mxGeometry x="4013" y="617.5" width="92" height="35" as="geometry" />
        </mxCell>
        <mxCell id="Ttfk6c4jHyExXrdg_O_r-142" value="TNN" style="rounded=1;whiteSpace=wrap;html=1;" parent="1" vertex="1">
          <mxGeometry x="4119" y="617.5" width="92" height="35" as="geometry" />
        </mxCell>
        <mxCell id="Ttfk6c4jHyExXrdg_O_r-143" value="TFLITE" style="rounded=1;whiteSpace=wrap;html=1;" parent="1" vertex="1">
          <mxGeometry x="3656" y="660" width="92" height="35" as="geometry" />
        </mxCell>
        <mxCell id="Ttfk6c4jHyExXrdg_O_r-144" value="CoreML" style="rounded=1;whiteSpace=wrap;html=1;" parent="1" vertex="1">
          <mxGeometry x="3776" y="660" width="92" height="35" as="geometry" />
        </mxCell>
        <mxCell id="Ttfk6c4jHyExXrdg_O_r-145" value="TVM" style="rounded=1;whiteSpace=wrap;html=1;" parent="1" vertex="1">
          <mxGeometry x="3886" y="660" width="92" height="35" as="geometry" />
        </mxCell>
        <mxCell id="Ttfk6c4jHyExXrdg_O_r-146" value="AITemplate" style="rounded=1;whiteSpace=wrap;html=1;" parent="1" vertex="1">
          <mxGeometry x="4013" y="660" width="92" height="35" as="geometry" />
        </mxCell>
        <mxCell id="Ttfk6c4jHyExXrdg_O_r-148" value="&lt;font style=&quot;font-size: 14px;&quot;&gt;&lt;b&gt;OP&lt;br&gt;&lt;br&gt;&lt;/b&gt;&lt;br&gt;&lt;/font&gt;" style="rounded=1;whiteSpace=wrap;html=1;arcSize=8;fillColor=#ffe6cc;strokeColor=#d79b00;" parent="1" vertex="1">
          <mxGeometry x="3547" y="712" width="670" height="60" as="geometry" />
        </mxCell>
        <mxCell id="Ttfk6c4jHyExXrdg_O_r-149" value="CV-CUDA" style="rounded=1;whiteSpace=wrap;html=1;" parent="1" vertex="1">
          <mxGeometry x="3656" y="732.5" width="92" height="35" as="geometry" />
        </mxCell>
        <mxCell id="Ttfk6c4jHyExXrdg_O_r-151" value="OpenCV" style="rounded=1;whiteSpace=wrap;html=1;" parent="1" vertex="1">
          <mxGeometry x="3554" y="732.5" width="92" height="35" as="geometry" />
        </mxCell>
        <mxCell id="Ttfk6c4jHyExXrdg_O_r-153" value="NN" style="rounded=1;whiteSpace=wrap;html=1;" parent="1" vertex="1">
          <mxGeometry x="3776" y="732.5" width="92" height="35" as="geometry" />
        </mxCell>
        <mxCell id="Ttfk6c4jHyExXrdg_O_r-154" value="CV" style="rounded=1;whiteSpace=wrap;html=1;" parent="1" vertex="1">
          <mxGeometry x="3886" y="732.5" width="92" height="35" as="geometry" />
        </mxCell>
        <mxCell id="Ttfk6c4jHyExXrdg_O_r-155" value="AUDIO" style="rounded=1;whiteSpace=wrap;html=1;" parent="1" vertex="1">
          <mxGeometry x="4013" y="732.5" width="92" height="35" as="geometry" />
        </mxCell>
        <mxCell id="Ttfk6c4jHyExXrdg_O_r-156" value="..." style="rounded=1;whiteSpace=wrap;html=1;" parent="1" vertex="1">
          <mxGeometry x="4119" y="732.5" width="92" height="35" as="geometry" />
        </mxCell>
        <mxCell id="Ttfk6c4jHyExXrdg_O_r-175" value="&lt;font style=&quot;font-size: 14px;&quot;&gt;&lt;b&gt;Data Container&lt;br&gt;&lt;br&gt;&lt;br&gt;&lt;/b&gt;&lt;/font&gt;" style="rounded=1;whiteSpace=wrap;html=1;arcSize=8;fillColor=#fff2cc;strokeColor=#d6b656;" parent="1" vertex="1">
          <mxGeometry x="3546" y="780" width="670" height="60" as="geometry" />
        </mxCell>
        <mxCell id="Ttfk6c4jHyExXrdg_O_r-189" value="&lt;b&gt;&lt;font style=&quot;font-size: 14px;&quot;&gt;Device&lt;br&gt;&lt;br&gt;&lt;br&gt;&lt;/font&gt;&lt;/b&gt;" style="rounded=1;whiteSpace=wrap;html=1;arcSize=8;fillColor=#f8cecc;strokeColor=#b85450;" parent="1" vertex="1">
          <mxGeometry x="3546" y="847" width="668" height="60" as="geometry" />
        </mxCell>
        <mxCell id="Ttfk6c4jHyExXrdg_O_r-190" value="X86" style="rounded=1;whiteSpace=wrap;html=1;" parent="1" vertex="1">
          <mxGeometry x="3661.81" y="867.5" width="92" height="35" as="geometry" />
        </mxCell>
        <mxCell id="Ttfk6c4jHyExXrdg_O_r-191" value="ARM" style="rounded=1;whiteSpace=wrap;html=1;" parent="1" vertex="1">
          <mxGeometry x="3551" y="867.5" width="92" height="35" as="geometry" />
        </mxCell>
        <mxCell id="Ttfk6c4jHyExXrdg_O_r-192" value="CUDA" style="rounded=1;whiteSpace=wrap;html=1;" parent="1" vertex="1">
          <mxGeometry x="3773" y="867.5" width="92" height="35" as="geometry" />
        </mxCell>
        <mxCell id="Ttfk6c4jHyExXrdg_O_r-193" value="..." style="rounded=1;whiteSpace=wrap;html=1;" parent="1" vertex="1">
          <mxGeometry x="4116" y="867.5" width="92" height="35" as="geometry" />
        </mxCell>
        <mxCell id="Ttfk6c4jHyExXrdg_O_r-194" value="OpenCL" style="rounded=1;whiteSpace=wrap;html=1;" parent="1" vertex="1">
          <mxGeometry x="3884" y="867.5" width="92" height="35" as="geometry" />
        </mxCell>
        <mxCell id="Ttfk6c4jHyExXrdg_O_r-195" value="OpenGL" style="rounded=1;whiteSpace=wrap;html=1;" parent="1" vertex="1">
          <mxGeometry x="4002" y="867.5" width="92" height="35" as="geometry" />
        </mxCell>
        <mxCell id="Ttfk6c4jHyExXrdg_O_r-198" value="runtime" style="text;html=1;strokeColor=default;fillColor=none;align=center;verticalAlign=middle;whiteSpace=wrap;rounded=0;strokeWidth=0.5;" parent="1" vertex="1">
          <mxGeometry x="3440" y="966" width="90" height="30" as="geometry" />
        </mxCell>
        <mxCell id="Ttfk6c4jHyExXrdg_O_r-214" value="..." style="rounded=1;whiteSpace=wrap;html=1;" parent="1" vertex="1">
          <mxGeometry x="4081" y="801" width="130" height="35" as="geometry" />
        </mxCell>
        <mxCell id="Ttfk6c4jHyExXrdg_O_r-215" value="Buffer" style="rounded=1;whiteSpace=wrap;html=1;" parent="1" vertex="1">
          <mxGeometry x="3908.57" y="801" width="130" height="35" as="geometry" />
        </mxCell>
        <mxCell id="Ttfk6c4jHyExXrdg_O_r-216" value="Mat" style="rounded=1;whiteSpace=wrap;html=1;" parent="1" vertex="1">
          <mxGeometry x="3730" y="801" width="130" height="35" as="geometry" />
        </mxCell>
        <mxCell id="Ttfk6c4jHyExXrdg_O_r-217" value="Tensor" style="rounded=1;whiteSpace=wrap;html=1;" parent="1" vertex="1">
          <mxGeometry x="3554" y="801" width="130" height="35" as="geometry" />
        </mxCell>
        <mxCell id="Ttfk6c4jHyExXrdg_O_r-221" value="nndeploy" style="text;html=1;strokeColor=default;fillColor=none;align=center;verticalAlign=middle;whiteSpace=wrap;rounded=0;strokeWidth=0.5;" parent="1" vertex="1">
          <mxGeometry x="3440" y="674" width="90" height="30" as="geometry" />
        </mxCell>
        <mxCell id="Ttfk6c4jHyExXrdg_O_r-226" value="" style="rounded=1;whiteSpace=wrap;html=1;arcSize=8;fillColor=#e1d5e7;strokeColor=#9673a6;" parent="1" vertex="1">
          <mxGeometry x="3545" y="926" width="670" height="50" as="geometry" />
        </mxCell>
        <mxCell id="Ttfk6c4jHyExXrdg_O_r-227" value="" style="rounded=1;whiteSpace=wrap;html=1;arcSize=8;fillColor=#60a917;strokeColor=#2D7600;fontColor=#ffffff;" parent="1" vertex="1">
          <mxGeometry x="3546" y="981" width="670" height="50" as="geometry" />
        </mxCell>
        <mxCell id="Ttfk6c4jHyExXrdg_O_r-232" value="" style="shape=image;verticalLabelPosition=bottom;labelBackgroundColor=default;verticalAlign=top;aspect=fixed;imageAspect=0;image=data:image/png,iVBORw0KGgoAAAANSUhEUgAAAHwAAAAeCAYAAADuInrvAAAG8ElEQVRoge2ae0yU6RXGf7Osq+7CBpjiBV0iTegmYkQji1DYOmNSiSS4M0mhXpKNbS3T6GiCAUlNCEP0H7UiibZK2HbNVoNlVHS5uSSGcbeDQmOhVFw7zIZhwNRdhlkW5DKA0D/IfOFzvrmBbGlnnv++857znId5mPc77wuy6enpaYIIGLz23xYQxPeLoOEBhqDhAYag4QGGoOEBhqDhAYag4f9jGHgxMq/6RW94cXExMpkMpVK5YD1SU1NZsWIFN2/e9CnfYDAgk8mQyWQ+9/i19U9zlSfg0+9aaXz+5bw4Fr3hCw2DwUBTUxN9fX2cP39+wfokvBnDJ/a/zrl+YvoFF213+Unou/PSsegNX+iLQIVCgUqlIioqirKysgXr84vI9/nkWyN9k4Nzqr9ou0vG2wnIQ0LnpeP1eVV/D/Bn25wrqqqqFrzHW68t5Tfy7VyyNVK46gMAmobNtIx8Rc94P93j/QxOjfLOEjkxb0TyzhI5GW9vZNWScMyOr2l8/iV/WXdo3joWveH/T1f9Pwt/j19aP+J339Tx6Xetkjmdjmd0Op4BcNn+BbFLo/hBSCgfRqTxhmz+dvm8pefl5ZGcnIxcLmfv3r3o9XoMBgNKpVI0UOl0OlHMWbdmzRpyc3Pp7e2V5G9paUGj0RAXF0dcXBwajYbHjx9L5s7uYTabOXfuHEqlEp1O55KnVquJiIggOTmZvLw8bDabC5+T6+V6mBkaMzIykMlkZGRkSOb4guEpB3+w3cXs+Nqt2VLocvTxt5EuPrZ/Pq8ZwAmffmViY2OxWCzCc0VFBRUVFZw5cwaDweCS74xlZ2ej1+uFeGlpKaWlpXR3dxMTEyPEq6qqOHDgAHa7XYiZzWb0ej1HjhyR1GQwGFAoFBw9epTq6moAtm3bJqxv2LCBjo4O4bm5uZnm5mbKy8upq6sjNTXVRe/sepPJhEajEf189fX11NfXu/uY3KLT8Qxt758ZnRr3u9aJgRcjfNR/j46xp5yK/vmcebwanp6eLphdVFTEpk2b6O3t5dq1a+Tn53us1ev1Qs3t27e5fPkyAAcPHqSmpgaAwcFBCgsLBbNPnTpFUlISLS0tFBQUUFxc7LFHdXU1arWa1atXizQ7zX5Zs9FoJC0tDZvNhlwud8t74sQJwezZHDdu3PCqaTas4/38yvpHn/O94f6wmavfNrEv4sdzqvdouE6no6GhAYDKykqysrKENa1WS2JiIg8fPnRbn5+fL2yBKpWKZcuWcenSJWpra7FYLKxbt46SkhLBnNnva4VCwbFjxzwOba2trZSVlZGTk+O3Zo1Gw/Xr1yV579y5w5UrVwBc+LVarcvu4Q4jU+P89t+VXvP8RZmtkR8tXcV7b/7Q71qP7/Curi4AsrKyRB+cE/v27fNIrlKpRM+zt1HnrnHv3j0ASkpKJDncxQFCQkJEZvijuba2FofDIcnr1BQVFeXCD1BeXu5W02xctN2lZ9wuiv00bINPtd5qzn3zGf0vnvvN5dFwq9UKwPr16yXXN2/e7JF848aNoue1a9e65Di3TXdcnnrExcW5xHzVPDY2xv379yVzHjx4AEB8fLzkekpKiltNgo7xfuoH20Wx90PfpXDVB1T6cbxyV9M7Yef2wN995nHCo+HR0dHAzAAlhSdPnngkDw31fkngHN7ccXnqsXz5cpeYP5q3bNkimeOMd3Z2Sq63t7dLxmejfqid8elJUeyL5//i2cQA9UP/9FrvS03NYJvf33KPhjvNuHr1quQRqa6uzq9mnnpcuHBBct1d3BufN80pKSmEhYVJcmzduhWAp0+fCsPlbJw8edKjhrHpCZdvtxPZlt/zcf/nHut9rbFNDvl1xAMvhh8/fpyVK1cCM9tbTU0NAwMDtLW1cfjwYeE4NB+cPn0agI6ODpRKJUajEQCj0YhSqfRpOJqL5rNnz7rlyMrKQqFQADMnilu3bgkcOp1OdNSUgsVhwz7p//t1LvjHiNWvfI9TelhYGA0NDSQkJACQmZkpWt+/f79w1JorUlJSKCoqori4GIPBQFpammjdueYrvGmGmUne23s4NzeXtrY2enp6UKvVojW1Wu3xOrZ7wvVyZ6HQPvYKDYeZwauxsZHCwkK6uroYHR0lPT2dHTt2kJSUJLqQAUhMTBS+HS8jOjqazMxMhoaGRHGdTkd4eDgVFRWYzWYiIyPZvn07e/bsoaenx4UnPj7ebQ+nZqvVilarxWQyYbFYkMvlxMbGcujQIXbv3i3Kz8nJwWQyiWK7du2iubmZgoICHj16hNlsZufOnSQlJZGdnY3JZHK7+zwY/sqttleNyekp7JPDRL7+lk/5suD/pQcWFv2fR4N4tQgaHmAIGh5gCBoeYAgaHmD4Dy7E9mWWR9MoAAAAAElFTkSuQmCC;" parent="1" vertex="1">
          <mxGeometry x="3830" y="935.73" width="124" height="30" as="geometry" />
        </mxCell>
        <mxCell id="Ttfk6c4jHyExXrdg_O_r-234" value="" style="shape=image;verticalLabelPosition=bottom;labelBackgroundColor=default;verticalAlign=top;aspect=fixed;imageAspect=0;image=data:image/jpeg,/9j/4AAQSkZJRgABAQEAAAAAAAD/4QAuRXhpZgAATU0AKgAAAAgAAkAAAAMAAAABAG0AAEABAAEAAAABAAAAAAAAAAD/2wBDAAoHBwkHBgoJCAkLCwoMDxkQDw4ODx4WFxIZJCAmJSMgIyIoLTkwKCo2KyIjMkQyNjs9QEBAJjBGS0U+Sjk/QD3/2wBDAQsLCw8NDx0QEB09KSMpPT09PT09PT09PT09PT09PT09PT09PT09PT09PT09PT09PT09PT09PT09PT09PT09PT3/wAARCAEKAdoDASIAAhEBAxEB/8QAHwAAAQUBAQEBAQEAAAAAAAAAAAECAwQFBgcICQoL/8QAtRAAAgEDAwIEAwUFBAQAAAF9AQIDAAQRBRIhMUEGE1FhByJxFDKBkaEII0KxwRVS0fAkM2JyggkKFhcYGRolJicoKSo0NTY3ODk6Q0RFRkdISUpTVFVWV1hZWmNkZWZnaGlqc3R1dnd4eXqDhIWGh4iJipKTlJWWl5iZmqKjpKWmp6ipqrKztLW2t7i5usLDxMXGx8jJytLT1NXW19jZ2uHi4+Tl5ufo6erx8vP09fb3+Pn6/8QAHwEAAwEBAQEBAQEBAQAAAAAAAAECAwQFBgcICQoL/8QAtREAAgECBAQDBAcFBAQAAQJ3AAECAxEEBSExBhJBUQdhcRMiMoEIFEKRobHBCSMzUvAVYnLRChYkNOEl8RcYGRomJygpKjU2Nzg5OkNERUZHSElKU1RVVldYWVpjZGVmZ2hpanN0dXZ3eHl6goOEhYaHiImKkpOUlZaXmJmaoqOkpaanqKmqsrO0tba3uLm6wsPExcbHyMnK0tPU1dbX2Nna4uPk5ebn6Onq8vP09fb3+Pn6/9oADAMBAAIRAxEAPwDqyhzSYPrUh6misdTtViPDCj5qkNJxS1K0IyWpOaeRTaLsNBuTRk07FJimmxWQzJppJqTFN2VSZDSGZNNJNPIppFO5NhhLU3JpTTAapCY/mnoajyKXeKdxEoA655oywHHWod5pPMp3Fyk3nNnpR5zZyRio/MXINBkU000FmSmRcfKeT2NNBJ61AZFHelEhI4p3sKxKX9KQytUf1pHJ7dKLhYl884xTd7ZNRg0ZoETiRgOtAkaod5pQaLDvYn3t2pp3cEmm5pjy+9CTE2TpIc8mh5CO9VvMNIZCafKK5K83bNQu5xxTc5pwAqkrEt3IwW5oBYU7ZTSccVe5Gww8555qPnNPAzR5Z6jFUtBbkZHvSYankNTMtzTJsIcjnNNJJpxBppBpoTE5x1qMmnbTSFKYhMijI6Uuyl8ulcLMYR6UzBqfyx3oIWncLFfmk5qchaacU7isQc0nNSmmUXYrDDmmkmnmmkUAMJNNOafTTTuBGc03mnmmkUXAZzS80ppeKLgegc5pcUuMk07AryWeshlG01IMU7jFJ3KTRBsNNxU5xTCKlNlaEVGRTimaNlUiXoMzSGnYFIQDV7Ge5GajOTVjZUbpRcpIgINNINWUjx1oMQNLmCyKm00uDVnyqQx0cwcpVOaYc1aMRzSeSTRzA4oq4J6UhDVb8nFNMZqlInlK2xu9OGRTyDSbGPY07k8rF6il2cU4RN6GniNvejmDlbK+00uw1OYmpBEx6c4p86FyMaImPpR5L/3fyqQRt6U4RvnGTR7QPZsrlHHY1GQ3oa0Rbv2Jo+zN3NNVEJ02Z4jJ6g0piPbp71fMNRyRACrU7shwsUTGaXYakcUzmrTIasIUPrTSgp+xs9KQqM9adyWhoi9DQYyOtSiJhjH6UpjboR0pcw0ittqPHWr2xajITPSmpA4lIg0mKtybewFQELk1alchqxCaQ5qQ4ppxVJkMjyaCTS8UhpiG80nNLRTAbSGnU096AGkUw080UxMjNNp9NNAhhFIRT8U0ii4DDTCKkNMxQAwilxSkUuKAPQyME0zB61O6DJppSvLvqeq9iOm5xUmykxT0ZN2hmfajOaXHHSk2miyBNjaMU7ZRsosHMMxSYPNSYpMU7BzJDB70pRTS4Ao4pWYc4mKYSR0FPckVExb0oUbg5WDLd6UY71CXYUnmGr9mS6lixsB70vToKq+YaPOal7NjVZFg/SoXHtTPMc0ZPemqTE6yHiMdxUyBcdAaiQr3P504Sqh65FN0yfbE2cY+WnCRccjp14pBNEeN2M+oppeMdJOfap9m+xftuzHZR6UbR0xUXnDafun6jFAlj6Hg+xodIFWJw43c4p5KegzVbKH+Ij9aa8cmPlcMKFTXUTrMsGXZ3HtUf2gnrgVVIYHnOaTNaKmjN1WTmRs9KYQz+tM8zFIbgjpT5Gthc6e44wmmGM54pDMx6mmea1UkyXJD/LPrQUAqEyMe9HmGq5WLmRLvI6dKjeVumTSb80hdRQkJsaZDTTIT0FOJX0pC69hTSFfzIjk1Gc1MSPSmGqWhL1IiKTFSde1NIqrk2I8UYp+DSbDTuKxHxSVIUpvFFwsMINJinmkINFwGYpuKk2mmlKLhYYRTCKl2n0o8pj2P5UcyDlbICKQip/Jak8vFK6CzK5FNIqd0AqI007g1YiNP4pDS0wPTDEckmm+VnpU8jkHIHHr1pTIqJuY/TArx22j1tGVfKP8AkUnkGh75d4x0pJLrIzGMk9jTTYWQvk+oo8vHaqkl42/G7n2pv210xxn0q0m9iG4rRlsxmmbKg+3ynsoz0FN+1PzyK0jFvcycoonKE9qbsNQm5k9aY8zHqxzV2aRnzK5YKAdaaSBzUYLHGX7cUmwv1YfU0lFvcbklsKZAe9MJzUqWrOfkKt9DTZIXj5ZeM445qly3tfUTcrXtoQkMe1NMbdxUyBvbHvSnHOR9MGtFoZN3K+yk2VLzxim855qiLsbijFPCE9KUxkUXCzIsUlSUmKLjsMwaTFPxRii4rDQKMU7FJigaAOR3oDsOhoxRikF2BkY9/wA6bzTsUYoHe43mmVJSUxEeKQj2qXApCKLgRYFAFP8ALpwQd6LjSG7RTTEtTDaDSna/Q1N3ctJFcoo60hC1MY6YYyO9FxWITj0pCB9ae8bDmmYaqExDGKYU+lTbG9M0uxu60XCxWIpuyrZiBHvUZjI4oUkJxZB5dHl1dihzwVNTi1Qdql1UtDSNFvYzBFml8oelaZhXsopPLUdQKj2xaoszfL9BR5Q7irr7ewqJ8nsBR7S4ezsVsAcgc+9NcnHJqcxk0ww8cijmXUXK+hVcgeuajLsegxVsxe36VE8Tnv8AkKtTRDgyk6GoyKuG2b0P40w27elWpruZuD7FQilwas/Zz3p32c0+dB7NnoskokBTDDAz061kXN/cISiIdqjHTND6ts4ACkdxzTE1WI58wqxPXIrzlTle9jvc4pWuUvttzv3GMnJzjHWnRPLNISY2G3kr0q8mrWgJ2xDjgYFRvqMcmS0TMGOFyMVauugm09mOS4TeQ8SITxkCg/Z353OWzxkdaqpJEcsQozwFByasRcg8kA8HHNO1tkTe61Yn2dTljxzjr1pDHjOCOKf5XOSxNO2D0rWKfUxlJdCIfSl2VIRnmjFWZ3IwgFLin4oxTEKHaIh1G046jmrMd4siFJwM4+961GkYRAyuMnsaikRzk7VJ9jisZqMnb8TohzRV/wABskewnacqeQRUZBHUEfXil/egjgAfWnHJ6kn61rFuxhJK4zFNIqTFJVXJsMHFBz1p9NoAbiinUUXAZiin0UrgMxRikklSP7zVH9sh6bj+VZOtBOzaNFSm1dJkuKTFNE0T9HX8eKf16HP0q1OL2dyXGS3Q3FGDTqKq4hmKMU7FFAhpFNxT6Si4DaTNONNNML2GE03fSkU0imF2OEpFIZW9cUw0lFkLnZJ57etJ5inrUVFHKh85L5qilEgqCilyoamyz5oB5o80Z6Cq/PSlG/3x71PKi1NluOTkCp9/SqAOO4pXkbs35VlKF3obRqWRoF1A61EXX2qiZH/yaieRs0lR8xut5F93QdxzQroR2rNyeSaPN/CqdISrWdzQfGDgioi6hDkiqMkzHgce9ReZQqL6sTrq+hfMi44wT3qEyqMmqnmMM4OKYXOMZq1SsZutclkuCc4qM3DY5NQkmmnNaKCRm6jbJjMcil8/61W5pcmjlQudm7JZ3LgfMuAcgikSyn3guDKD/CDXTyRRjIVCo+lMSJgf3fX1HFcik+51OydrXOc+wyh+IXVT0yelSJY3ZOFyEHQE8CugeFhy3Oe9MKEVSlfqS9OhRhsGHM0iknjgYxU4iWPhen86mwKTFUkQ3cZ+VJin0VRI0Ivf9KdsXPHSkooAcSn93p3zTDt7D8+aSihILiHFJS0UxDaSnYpMU7iG0lOxRimA2kp1IcDqcCk5KKuxqLbshlLiopLpE4B3H2qvJdHqzYHpXHVx0IaR1Z008JOWr0RaeRU71VmvAM44qlLeE5CVASznmvOqYmpV3dl2R3U8PCHS7JJJmdic0wBjShKeOK5+axvYQBvWngsOhIpryLGhdmCqo5YnGKzpde02M/PfQ59Ac/yq487+FEy5Vuan2mUdJG/Omm+nHSTP1Gaxn8SaSP8Al7B+iE/0qI+KNIHWeQ/SM1snWW1zNqi97G5/adwO6n6inJqdwf4EP4YrnH8Y6ZH9yG4kPuAtU5vHjci2sUX0Lvn+VbReIfcycaHkdql/cP8A8sV59zUdzqyWab7uWCEY6MeT+Fed3Xi7VLkEed5Sn+GIbax5bmSZy0jsxPUk5zW8Y1n8UrGMvZLZHdaj4+UZj06Lc3/PWUYA+i/41NpnjqGbCajF5THjzY+V/EdR+tefRh5ZFjjVnkchVVRksT2Hua9W8J/CTfHHd+JHZWYZFnGcY/329fYfnXRG663MJKL6WNCG4huoxJbSrKjdGQ5qUxSY/wBW35GuwtdO0vQbUi2t7WyhHVsBc/UnqfrTE8SaK7+Wur2BfP3ROtbe0MeTscaR27+lNrv5La2vYwXiilRhwwAOfxFYOpeGiiGWwJYDkxE5P4H+lVGonuS4s52m04ggkEEEHBB7UYrS5NhtJnFTW9tLeTpDAu6RjgD/AD2rq9P8N2lqA1wonm6ksPlH0H+NS5JbjSb2OPQu/wB1Wb6DNJIJerIw+oIr0Rpba1AVnhhHYEhaEurabhJoX9gwNRz+RVn3PNt5PekJNdzrenWH9nzTzW6h0XKsg2knt0964faapNMTTQ3e3qaPMPelKGmkVWgtRPMNRknmnmmHNCsK7e42mmnHNIRTuIaaaadimkUXCww001IRTCKLjsxhpaCKXFK4WPQ3dS5y2R9MVMksQ6H86qHqaSuRwT0OlTa1LhEcjZ8z9ajeJP73Hsc1XoqPZW2Zftn1Q57dc8S/nTMe+felpK1irdbmTd9lYMUmKWiqJExRilptACUU4ikwadwsJTa0/wCxJMZ85OmehqjFbyTSeXGpZu/tRcLENJWvHonGZJsHuFGaSbRCEJglBYdFcYzS5kgUWzJqOSeOIfMwFZmpXt3a3LW80bRSDqvr/iKZp2nXmrzEQISqn5nY/Kv/ANf2rini5N8sFqdkMLFLmm9C1LqS9I1z7mqsly78yOceldDF4MGwedetu9ETGPzqteeCZQha1u/NI/gkG3P41z1KdeWsjenUox0ic890BwgqE7pDliama1e3kaOSNkdTypHSnLET0Brjemh1LUiSOpAlXLLTZ72TZboXI6kdB9TW5D4RmwDNcpGfRF3EfnWkKM5/CjOdWENGzmRGepwB6nio5biKIHncR+FdZJ4KikHN/Nn12CsLVvAmoQxtJZTpdADOzG1z9Oxq/qk1q0QsTB6JnM6neLdwNBIqmJuq9K5S505QSYTx2BrXuXeN3SRWR1OGVhgg1SkOa3pXhoTUtIxpLd425BFREEVqv3q7o/hPVPEkhGnWpaIHDTOdsa/j6+wzXXGd9GjllBLW5zZppzXq9n8FCUBv9XCseqwQ5A/E1Yk+CdgR+71i7Df7USmtLGV0ePU3pXceKfhdqHhvT5dRW8t7qziwXPKOMnHQ9eT2Nc94W0U+IPE9hpxB8uWTMpHZBy36DH40Bc9N+FHgpLSyTX9QiBupxm1Vh/qk/v8A1P6Cul8ceNLfwhpykKs1/cAiCEnp/tN7D9eldITFbW5PyxwxJnjoqgf0Ar5o8Ua9L4k8Q3eoyE7ZG2xKT92McKPy5+ppvQlasZq+v6jr90bjU7uSdychScKvsF6AVTDgdh+VQUuaRR0Xh/xbqfhy5ElhcN5WctA5zG/1Hb6jBr3Xwx4ktPFGkreWnyup2zRE5Mben0PUGvmvfXVfDrxG2g+KrcO+LW7IgnBPAz91vqDj8zQgauj2DxJpQwb2BcHOJVHf3rnMCvQbi3S5t5beYZjlUo2PQ8V4RJ4g1LQNVudOumFyLaVoyJeG4Pr7jB5zWsZ20ZlyX1R6/wCF7NYrNrkj55TtB9FH+JpfEOrSWQS3tztlkGWb+6Pb3NJ4N1KLVvC9pdQqVB3KVJztIaqHiqFhexTYOx49oPuP/wBdCabB3SMJ3ZiWYlmJySec0zJqQ02tCNSV766e1Ns0ztCSDtJzjFVSD6mpKbRsG4zaaTZ6mnGkNFwsJ5a92/TNHlp/eP5UYpNlJ+o0vIDGnrTDGv8Ae/SnbTTTGaV/Mq1+gwovZqYU9CKl2Uuyhyt1BQv0IPLpyW5PWpggFTJtFYVKzS0OmlQTepT+zgdeal2r/dFTSjjpTMH0rH20jp9hFFGTx1fGYYgtwgPK4Jz+NQ6n4yu7xHSAC2iJ42nLH8fT6YrkZJmEgC9QOcHrSecTwSeOK7FHqedc6/RfGFzZYiu91zB0BJ+dfx7j612Wm6xZ6qD9kl3OoyUZdrD8PSvIElI71ZhvpIXDxuyODkMpwRScQPY8GivKhrl6Jlm+1zmReAxc8VbtvEeowzCUXbuVGSrtkEfSpsOx6TRXFHxvdiQnyLcqQMLk/L+PvW1beLdMuBmSVoGyBtkHX8R2oE0bdNqjDr2m3LlIbpXYHHAJz+lWJb6GLq2T6ColUjH4mVGnKWyJqCQASSAPesqbWxyI1A9zzWZc6nLKD8x6VzTxaWkVc6IYST1k7Hp6cxqfVRWbd3lp4fsDLMcljwB96Rvb6Vftv+PSE+sa/wAq4DxXcPe69MhJ8uD92q+nr+ZrWtU5IXW7M6NPnnZ7ItS+OrwyZht4ETPCkFj+db+geJI9Y3RSRiG5UZ2g5DD2+npXApbmtLSQ1rqdtMuQVkAP0PB/nXFDEzUld3R2VMPDldlZnZa7oiaxBGAQkqMMPjovcf1+tMvb+08OWUdvBHuYD93EDjPuT71sY5xXnOramLnUriTGTvKjPYDiunES9muaK1Zz0Iuq+VvRGuPFl+Xz5MG3+7g/zrf0rVotVhJUbJU++mc49/pXnEl43PNX/C2otF4kt13fLNmMj1yP8RXNRrz50pO6Z0VqEOVtKzR1HiyzU2BvlRTJDjcfVf8A61cLLfseM8elen6rEJtIvIyOGgcc/SvGDMW/KqxVNc6a6iws24NPodP4b8TR6LPcG6DvFImQqjJLjp+fNSX3xE1CUn7JFDbp2yN5/WuPeTrUMko7nFTGc0lFOyLdODbk1qdMnj/W43DGeKQA8q0QwfyruPC3imLxJbSAxiG7hx5kYOQQf4h7fyryKK1urn/j3tp5f9yMt/Kur8Aadqlj4ojkmsrmGB4nV2eMqOmR+orelOd9dUYVoQs7aMv/ABO0NPIj1iBQrhhHPgfez0b6jp+VeZua9z8aQrN4P1RWAO2HePqCDXhRzjjk9h61VWNpXXUmjK8bPodP4I8InxLftNdbl0+3I8wjjzG/uD+ZNeuXNzp+gaUZZjFaWVuvAAwF9AAOpNV/DGkrovh6zs1UBwgaQjqXbk/4fhXmXxO16TUdeOmxufstkdpUH70h6n8On51qrQV+pk71JW6F7Vvi/cmRk0ewjSIHAkuCWY/8BHT9azI/i14gjcF4rGRe6mIr/I1xhFNIqedvqX7NLodd4u+Ij+KPDaaebI20pmDylX3Iyjpjv1wefSrHwasRJ4kvbsjm3ttq57Fmx/IGuGIr034MAeZrB74i/wDZquLu9SJRstDrviFfNYeBdVlQ4d4vKUjtuO3+RNfOeMV7/wDFUE+BbgDvPFn/AL6rwmS3PpVN6kRTtcrUlPdCKbimMM0b2T5lOGXkH0pvNGaAPqXRbz+0dDsLzvPbxufqVH9a8R+KtuLTx7dsowJ445fxK4P8q9f8E5/4QjRN3X7IleU/GRx/wm0YHUWcefzahkR3LXwr8ZRaRdyaRqMgjtbp90UrHiOTpg+gbj8RXsV1axXkDQzruRh+XuPevlXNd14S+KWo6BGlpqCG/sV4UM2JIx7N3A9D+YoTsNq532paBqdgS9vD9vt85zFxKv1U/e/A/hWRFewXEhjSTEq8NE4Kuv1U811+h+N9B8Q7Vsb5Fnb/AJYTfI4/A9fwzV/WPD+na5H5eo2qyMo+WUfLIn0YciqUmTyrqcOaSs7xLpWteDCLiOc6hpTHAeUZaP2bH8+n0qlZ+LrO4wJw0Dnrn5l/On7Qap32ZuEUhFRRXkcwBR1dT0ZTmpSRT5r7C5bbiYowKp3mq2tiUWeXBY4GBnH19qil16yidR5jMGPVBnFDuxqyL5FII3c4UEn2qrJrenoCY2aY4BCqev41i3Xiy+MZhtNtuGbBdVwfzNReT0SLtFat/cdLJbSx/eXHGTz0qL6nAHUnjFcg/iPU4yW+2vJkYJIBBqhdarc3h/fTMwxjaDgVSjJrUlyinpc7W41OztRmS5jHoAdxP5VkTeJ5ZCy2saxxgH535P5f/rrmHlMmFY4APUDpToZgEkQjlhgNQ6atd6jVV7LQuSaneid3W8mDOvJ3+tVPt15/z8T/APfw0kg2WxJzk7VFM86P+6ado9iXKXccZfkG0YBP1zTQ/NEpGQAMADgU1PvAnPoAO9UtiepKHz/WnbzVq20W/vOYLWTH95xtH5mtS38JNwb67RPVYhuP5nj+dZTrQhuzSNGctkYG9hj2qxaxXVydtrDJKx4+QZxXWW+j6Za4KW3muP4pju/TpWgJW2BVwqDoqjAFcs8alpFHRHCP7TObtvDV9Jg3U0VuvcE7m/IVsW2kafbABw9yw5y5wPyFWtjH1qQRE1yzxNSfW3odMaEI9LjhcCNNkKLGn91BioXkZu5qwlsx7GpRaj+IgVg5dWbJW2KGxjS/Zy+eO1aGyKPrz9ajkuVjBC4HHalfsFj0i34toR6Io/SuC1gRJrN2zHJMp4Fd7bnNtCfVFP6V5l4huMa7ejPSUiu/FJuCOHC/GxXulT7oAqOK9Y3kIz1kUfrWVJck0WsxN7b/APXVP/QhXHGGp2yejPaf4q8dvLj/AEyf/ro3869i/irxG8P+mT5/56v/ADrtxSukcWFdmxXmY9DV/wANMf8AhJdO5/5bisZ5lFaPheUnxRpo7eeK5oL3kdU37r9D1+9/48Ln/rk//oJrwozAAY54r3S+/wCQddf9cX/9BNeConyADrjiurELVHJhbq5t+HPDV54luiIz5NtGcSTEZx7D1Nel6b4T0XRIfMFvG7qPmnuCGI/PgfhVzQdNj0jRLW0jUDbGCx/vMeSfzrzbx3rtxqWtTWSuy2dq2wRg8Mw6sfXnirSVKN2rsTlKrJpOyO4ufHWgWJKfbhIV42wIWA/LijSvHOla1qUdjafaTLICQXjwOBk968cxiui+H4/4rG0/3ZP/AEE1MarbSHKjFJs9L8Vf8ipqn/Xs9eH2EYl1K0Q9GnQH/voV7j4p/wCRU1T/AK9nrw2Bzb3MMw/5ZyK/5HNVVeqJo/Cz6J/5aY96+ddakabW7+RuWa4kJz/vGvoeOVZUSVDlXAcEdwea8I8Yaa+m+KtQhYEK0pkQ+qtz/Uj8KursmRR3aMAimkVP5ZpPKY9qxTsdFivivQfg7ciPW9QticGW3DD32tz/ADrhTER1rX8I6muh+J7K8Y4iD7JT/sNwfy6/hVxlZozmrpnrnjyya+8F6lGoyyRiUAf7Jz/LNeEIg/CvpeSNJomjcBo5FKkdcg/4ivANd0OTQtbuLGQHbG2Y2I+8h6H8uPwqqumpFHW6MWW1GCwGQOoHaqj2+RlcEeordjj6Vn6latalZoxiOQ4K+h/+vUU6l3Zmk6el0ZjxkVGY2chFBLMcADuTV0OsnUYNdR8PPDR1zxVBI65tLIieUkcHH3V+pP6A1umYNdT2/SLP+ztGsbP/AJ97dIz9QoH868I+Kd4Lzx/fhTlYFSHj1C8/qTXvWo38Wl6dcX1ywEVvGZGJ74/qTx+NfMF9dS6jqFxeT5824laRs9iTn9KZKKuaUGjFFBQueh7g5B9K9A8EfE290i5hsdYma605iEEjnLwe+e6j0P4V59SE8EUC3Pq24t4L+0kgnRZredNrKeQyn/Oa+b9f01tB8Q3umsSRbylVY916g/kRXvfg6SWXwZo7z58xrSPJP0/wxXjnxWK/8LAvNuM+VFux67f/ANVDEtzn7a9ltzmGRkPcqcZqzJqU1wgWSeRlznBYmsgPUgekm1sVvuXDIcnGSPzpyOxw2WwOF571UEh9akEnAHbOa0VR21J5F0FFw0eRnknJ9qDM0mfmJzzjNNMYckg8k55qMoydj9atST2IaaJZCYyVPpnjkUgKnr09qjyeDnOOmeaSqETI6jJIzn9KZnqfembzRvHuaVhXH7j05x9aMj3p8PlFx5h6noeMVJ5kf/POL86LjsdVD4W0+E5uJprg/wB0fIP0rTt7e1swPstpDGR0YLk/manEJJ6VMlqT2rw51pS+Js9eNOMdkQGSST7xJ+tKImPrVtYVTqR/On7407ZrLmNCulsT2NTJbY64H1oNzjpxUb3NLVjLAjQdTmjzUToBVB7r3qCS8HrTUbhc0nusd6gkvD61mPdE1C8x9apQFcvyXXXmqst1kH6VUeX3qF5hg/SqUBNnudr/AMecHvGv8q8j8SyH/hJNRHpM1emWmuaWLO3DajaAiNQQZRxxXlHiS4E3iTUHgdXjaZirKcgiu2vZxRxYe6k7lQye9OtZV+323P8Ay1T/ANCFVfLJ6mprKNUvbdmOAsqEk8Y+YVzJJM6m3Y96/irwa93G9uOf+Wr/APoRr2v+29M3f8hG0/7+rXjVxHvvJ2HIaRiCO/NdGIaaRy4aLTdyr5da3hZMeKNN/wCu4qokJPWtTw+Et9fsZJGVEWUFmY4Armi/eR1yXuv0PVb3/jwuf+uT/wDoJrw1ECbTj7uDXtF5qtg9ncKt9bEtGwAEg54ryMW52jjtXRiJK6szmw0XZ3PareVbi2hmQgpIgYEd8ivIvGWly6f4iumdCIrhzLE+OGzz+YOa6Xwl4oWxgXT9RJEKnEU2M7fY+3vXZSJZanbbXFvdQtyAcMKt8taKs9TJc1GbutDwsp+vAr0T4f8Aheaxd9VvozHI6bII2GCAerH0z0rpBp2h6RmcW9lbled5ABH51z+o+O7STVrSC2ulS2Ey+a5PL8/oPrUxiqbvJ3ZcpuorRVkdF4lBfwxqajqbdxXin2NiOley6rrekz6VeRLqVmzNCwCidcnj+teNvrTYHlwovHU80Yi7asPD2Sdz1XwHq/27REs5z/pNoNmD/EnY/h0/CpPGPhKPxJbJLCVS+gGI2PAcf3T/AI15Fba/qFleR3VtcGOWM5BA4PsR3B9K9M0D4naZqMax6oRY3OMFj/qm+h7fQ/nWlN80bSM5x5Zc0Tzm/sZ9MnMF1ZyxSKcESDGfp6j6VQkMj8DaueODX0ALjT9RhGJbS5iI4G5XFR/ZdIssyeTp8BH8RWNcUlRtsx+301R4NJpF5Hard3EEyW7NtWRxtUnrxmmJbL/eX869F+JniXQr7w3Lp8F/FcXokV41h+cAg9yOBwTXj5pum3sxqppqj3bwD4kGo6emm3Uim8t1whJyZUH9R0rR8VeFoPElmBkRXkQ/dSkZ/wCAn2P6V89Q3EtrPHPbSNFLE25HQ4Kn2r1bwv8AF6CSNLbxGhikHH2qJcq3+8o6H3GR7CtErqz1MW7O8dDAvPD95pEhXUYvIVTjex+U/Rq53X7+1eBba3kWQq25mHT8K+gLXVdK1qD/AEa8s7uNh90OrZ/A0g0PR438wabp6t13eQg/pWSw6Tvc1eIbVrHz/wCG/B2r+JblVsbZlgz89zKCsaj69z7CvefDXhy08MaSljZ5Yk7pZiMNK/cn+WO1JqfirQtEhP2zUrWLaOIkYM34KK8w8XfFm51WGSy0JHtLZhte4fiVx7f3Qfz+lb7GGrLfxS8ZR3rnQdPlDwxNm6kU5DMOiD1A6n3rzQxg1EDTt5xSZSsjpbb4d61qHhuDWLCFbhJdx8lT+8ABxkA9QcHpXN3VlPZSGK7glgkU4KyoVI/Ova/B/wAR/Dz6TaafPIdOkt4ljCzcocdww9evOOtdmLjT9SjBEtndRkcfMjinYV2j5ZyvqPwrrfCHw+1LxNeRyTwyWumA5knkXbuHcID1PbPQV7uunaXbnzFtLCNh/EI0Uis3V/G+gaIhN3qULSAcRQnzH/IdPxxRYV77GvJJa6VpzO7LBZ2sWSTwERR/QCvmnxDq7a94hvtSYEC4lLKp7L0A/ICt/wAb/ES88VZtLeNrTTA2fKzlpcd2I9P7o4+tcdQxpWFBpQ9MozSGTA08PUANKDQFywHp4kNVw9OD0DuWPlPb8qb5foc/Xiow9OD01JrZiaT3HpbSy7tq8KMkk4qSK1DxtI7fKq52r3pgkNSx3BjBHBUjBBFV7RiUELa20TurM5YYJC464rQ2xf5FZtqRDJknK9R7Vb+0xf3aTl5jjHTY9EMygnAFMe496z3uhk81CbknvXjKB6lzSe4HPNQvcqM81QMxPeojITVcoXLr3lQvcse9V8k0lNJILjzKx70wuTSGmnNVYQpeonkp+KYU9qdhETyMelM+Y1YEWe1KLcntTukK1yukee36VKkZ9KtJb1Olv7VLkUkUxCxp627d6vJb1Olv7Vm5DUSglqP7oqwlv7VdS29qsR2p44qHULUSgLY+lPFrntWmLZRUgiX0H41m5jsZYsvb9KmFiO9X/wB2vU/gK57WvFkVnuhsFWSUcFzyF/xNOCnN2RLcYq7NC4FtYw+bcyLGnYscZ+g71g3XiXkrp8QQdPMfkn8P8a5y4vLi9nM1zK0kh7sc4/8ArUB67YYfl1b1OaVbm0Wxcubq4uzuuJmkPoT0qDpTPMNNMhrZRIuPOPQU0mojIaaXq1ElscSaaXppemF6pIm48EjkEj6cUyQl/vEn6nNMyaSqSJbExSU6kOKZI3FJinUGmAzGDkcH1HFKZZSMGWQj0Lk0tIRQIjwB2FJT8UmKAExSU7FNoEFPRyhyuQfY4plOoAkMrOMM7EehJNJhewA+gplGaBilKjIqTfS0AQ4ppqYikIoERUtLikIoAUGlzTKWgCUPS76hpQaAJt9ODmoAaeDQO5MHp/mVACKXNAHbknNHJqXyuad5YrzT0iHFLg1NtFGygCHBowam2Uvl0AV9lG01ZEdOEVK4FXyqcIatiEVIkPtSch2KqQmpUt6tpDU6W59Pz4qHMaRTS39qlSEelWcRR/fkX6Dmmm9gj+6pY+9RdvZFaII7YnHFWEtQOW4+tUJdXYcLtUe1UZdSeT+JmpqnJ7i5kjfMkEXVh+FRPqMSdOawk8+Y8ZA9TVqKFARuYyN6Cj2SW4XbNAX7ynEa/kKeXKAvM4woycnGKiJS1gMtwyxRKMkZrkda1yTUiYYcx2wP3ehb6/4U4U+Z2WwpSSRJr3iR7rdb2TFIejOOC3/1q58A0/YKXFd0EoKyOSTcndjMUvNOxSVdybCc0UtNNUJjTTDTzUbmmiWMJpKdRVkjc0UYooEJRRzSUAFFFFABSUtFACYpCKdRQAzFIRUmKbimIZiinYpKAEptOxRQA2lyaWm0CHZoptJmgB2KbinZpKAG4pKfSUANop1NoAKUGkooAkBp2aiFLmgD0YnmjNVBf2hJxcxfnU0dxDJ92eI/8DArzuVroejzLuTUuKVEU/8ALWP8DmpBHGOrk/QVI7oYBTgKf5kKdifqaab1U+6qj6DmjlbDmQ9ImPRT+VSi3PfA+pqlJqZ/v4+lVZNS6/MTR7NsOdI2cRR/ekB+gpDeQR/dUk+5rAN6z9ATTkNxL91W/Kn7NLcOe+xsvqTD7oVaqy6iT96Qn2FVRZzHmRgo9zThbQJ95i59BQopbBdsR70n7qkn3oAuZexUe/FWI45DxBb4/wBoinm1c/8AHzcqo/uqc0XQWZUMEaczS5PoOanhTJAggJ9yKljS2j/1cTSN6tUs16tsmbiVYV7KOppNsa0HR2bnBuJMD+6KLzUrTSY8AZlI4Uck/wCFYV74kY5SzUxjoZG5Y/4VivI0jlmYlickk5zTVJvVkuaWxc1HU7jUZN0zfKD8qjoKp4o5orVJJWRk227sMUUU0mqEBIphNBNMNUkSxSaYTQTTCatEtik01zTSaYTWiRDY7NGajzS5qiR9FNzS5oAKKKKQCUUUlMBc0UlJmgB1FJmloASilpKACjFFFACYpMU6g0CGYop2KSgBuKYakpMUCGUUEUtACUUmKSgB1NoooAKKKKAClz/nNJRQBczTsio80oNIu5KHI6Ej6VKlzKn3ZXH0Yiq2aXNKw7mgmpXI6Tv+JzUg1O47srfUVmh6eHpWXYfM+5qJqf8AfhVvoSKtR6rbD71qfwOaww9OD1LgmNTaOjj1iz/55sn/AADNWBq1ketw49hGa5YPT81LoxZSrSR1I1LTOplyf9rNP/tjT0+7NGv0QmuTzRU+wXcftn2Ook16y7zyP7BSKqSeILZM+XbyOfVjisEigHHUUexig9s2aU2v3coIjCwr/sDn86z3d5SWkZmY9STnNKMHpTttHKlsg5m9yPFOAp+ylxUspDaQ04000DuNJphpxppppCuNNMNONMJqkiWMJqMmpDUZrREMaTTM049Kjq0ZsdS02jNMQ7NLmm5ozQMdmlpmaWgB1FJmjNABRRSZoAWkozRQAuaBSdKKAFpKKKADNFJRmgBaKSigQUlLRQA3FJinUlAhhop2KaaAG0U7FJigBtGaMUlMBc0ZptFAFrNLmm0tSUPozTaXNADs0uabS0hjg5p4eoqWgCYPSiSoM0uaALHmUvmVBvpNxoAs76N9Qb6XPvQBMHxTxcEdarZpN9FkxptbF0XCnvS+aKo76N5HQ1PIiudl3zBSF6p+a3enCYVLgNTuWCaYXqPzM96TfRyhzDyaYaTcaaTTSFzAaYadTDVJEtjTUdPJptUiWJS0lFMQtFFFABS5pKKAFopKKBjqTNFFAgo5pKM0ALmijiigBaKSigYtJiiigQUUUlABRmiigAoIpKKACm06m0CE5paKKAG9aTFOooAZikxUlJgUAS0tNpaRQtFFFAC06m0CkMdS0lLQAUlLRQAUUYooAM0ZpKMUAOzRmm0UwHZpM0lGaBC5pKKKADJoEhpKSgB+/wBaMimUlFguPJppNFJQFwzSUppKYgoNJRQAUUvWjFABRRikoAWkpaDQAlLRR0oAKKKMUABpOaWkoAXNFJS0ALRSUUALSUUUAJRRRQAUUmaWgBtFFLigQlFFJQAUUUUAJmnUlLQA6ipJv+PmT/eNR1JQtFFLQAUtFFAxaWkp1ACUtFKPu/jQAlJTqSgBKKX1oNABSU4Uf4UANpKdRTENop1FADaSn0hoAZRS0UAJRQaKBBRSiigBpplSUGmA3mloooAKMUtFACUUvpRQAlFLQKAG0tLSf40AFFFHpQAhopaKAEpaSloAM0UUUAJQaWigBlLmlptAhc0lFFABSUtFACUUtJQAUtJW5b/8e8X+4P5UAf/Z;" parent="1" vertex="1">
          <mxGeometry x="4009.73" y="930.73" width="71.27" height="40" as="geometry" />
        </mxCell>
        <mxCell id="Ttfk6c4jHyExXrdg_O_r-235" value="" style="shape=image;verticalLabelPosition=bottom;labelBackgroundColor=default;verticalAlign=top;aspect=fixed;imageAspect=0;image=data:image/jpeg,/9j/4AAQSkZJRgABAQAAAQABAAD/4gIcSUNDX1BST0ZJTEUAAQEAAAIMbGNtcwIQAABtbnRyUkdCIFhZWiAH3AABABkAAwApADlhY3NwQVBQTAAAAAAAAAAAAAAAAAAAAAAAAAAAAAAAAAAA9tYAAQAAAADTLWxjbXMAAAAAAAAAAAAAAAAAAAAAAAAAAAAAAAAAAAAAAAAAAAAAAAAAAAAAAAAAAAAAAApkZXNjAAAA/AAAAF5jcHJ0AAABXAAAAAt3dHB0AAABaAAAABRia3B0AAABfAAAABRyWFlaAAABkAAAABRnWFlaAAABpAAAABRiWFlaAAABuAAAABRyVFJDAAABzAAAAEBnVFJDAAABzAAAAEBiVFJDAAABzAAAAEBkZXNjAAAAAAAAAANjMgAAAAAAAAAAAAAAAAAAAAAAAAAAAAAAAAAAAAAAAAAAAAAAAAAAAAAAAAAAAAAAAAAAAAAAAAAAAAAAAAAAAAAAAAAAAAAAAAAAAAAAAAAAAAB0ZXh0AAAAAEZCAABYWVogAAAAAAAA9tYAAQAAAADTLVhZWiAAAAAAAAADFgAAAzMAAAKkWFlaIAAAAAAAAG+iAAA49QAAA5BYWVogAAAAAAAAYpkAALeFAAAY2lhZWiAAAAAAAAAkoAAAD4QAALbPY3VydgAAAAAAAAAaAAAAywHJA2MFkghrC/YQPxVRGzQh8SmQMhg7kkYFUXdd7WtwegWJsZp8rGm/fdPD6TD////bAEMABQUFBQUFBQYGBQgIBwgICwoJCQoLEQwNDA0MERoQExAQExAaFxsWFRYbFykgHBwgKS8nJScvOTMzOUdER11dff/bAEMBBQUFBQUFBQYGBQgIBwgICwoJCQoLEQwNDA0MERoQExAQExAaFxsWFRYbFykgHBwgKS8nJScvOTMzOUdER11dff/AABEIAyAEsAMBIgACEQEDEQH/xAAdAAEAAQUBAQEAAAAAAAAAAAAAAgEDBAUGBwgJ/8QAVBABAAEDAgAHCA4HBwIEBgMAAAECAxEEBQYSITE0QVEHEyJxcoKxshUyQlJhYoGRkqHB0eHwFCMzc4OiwiQ2Q4Szw9IWUyUmVGNFZHST4vJERlb/xAAcAQEAAQUBAQAAAAAAAAAAAAAABgEDBAUHAgj/xABKEQEAAQQAAgUHBgoIBgIDAAAAAQIDBBEFBhIhMUFREyJhcYGRsjJCobHB0RQjNVJicnSCg5IVFiQlM0NT4TQ2RHOTosLxB7Pi/9oADAMBAAIRAxEAPwD7LAAAAAAAAAAAAAAAAAAAAAAAAAAAAAAAAAAAAAAAAFqu5RRTmuuKY+GcNVf3e1b5LUTXPbzQDdLdddFEZqriPHOGh77uupjwaO909vtfW5U6dprqnjX9RMz14++oGfc3LSUf4vGn4sZYdW80c1Fmqqr4ZiPV4zJt7do7cfseN8NU5/Bm02bVHtbdMeKIBpfZLXXPaaT+WZJvbtc5rE0+KMetLoAHOTTvNXvo86I+1XvW89tf04+90QDne9bz21/Tj7zvW89tf04+90QDne9bz21/Tj7zvW89tf04+90QDne9bz21/Tj7zvW89tf04+90QDne9bz21/Tj7zvW89tf04+90QDne9bz21/Tj7zvW89tf04+90QDne9bz21/Tj7zvW89tf04+90QDne9bz21/Tj7zvW89tf04+90QDne9bz21/Tj7zvW89tf04+90QDne9bz21/Tj7zvW89tf04+90QDne9bz21/Tj7zvW89tf04+90QDne9bz21/Tj7zvW89tf04+90QDne9bz21/Tj7zvW89tf04+90QDne9bz21/Tj7zvW89tf04+90QDne9bz21/Tj7zvW89tf04+90QDne9bz21/Tj7zvW89tf04+90QDne9bz21/Tj7zvW89tf04+90QDne9bz21/Tj7zvW89tf04+90QDne9bz21/Tj7zvW89tf04+90QDne9bz21/Tj7zvW89tf04+90QDne9bz21/Tj7zvW89tf04+90QDne9bz21/Tj7zvW89tf04+90QDne9bz21/Tj7zvW89tf04+90QDne9bz21/Tj7zvW89tf04+90QDne9bz21/Tj7zvW89tf04+90QDne9bz21/Tj7zvW89tf04+90QDne9bz21/Tj71OLvNPuap86J+10YDn+/7tb57E1eOnPqyr7Kau3+10mPkmn1m/AaSnebFU4rt1x80sy3r9Jc5r8RPxvB9ZkV2bFz29umrxxDDubZpK4zFE0+KZBn01RVGaaomPgnK45+dqv25zp9VMePNP10o/pG56T9tb49PbjP10/aDohqLW66e7yV5on4eWPnpbOmqm5TmmqJjqmAXAAAAAAAAAAAAAAAAAAAAAAAAAAAAAAAAAAAAAAAAAAAAAAAAAAAAAAAAAAAAAAAAAAAAAAAAAAAABGqYiMzOIjraXU7ny8TTUceqeSKuePN7QbS9ft2KeNcrimPhai7ud69XNvSW5me2Yz9XV8pa229eq75qrkzM+5ieX5Z6vkbq1Zt2aeLboimOyAaOnbL96rj6q7Piicz9za2dJp9PH6u3ET288swAAAAAAAAAAAAAAAAAAAAAAAAAAAAAAAAAAAAAAAAAAAAAAAAAAAAAAAAAAAAAAAAAABhXtDpb/LXbiJ99HJLV1aDV6Wrj6a7NUdcc0/NzS6EBobO6TTVxNVbmmqOeYifrhubV2i7TxqK4qjtW71i1fpxcoieyetpq9DqtLVVXpbkzHXT1/NzSDohp9Nulu7MW70cSvmzPNMtwAAAAAAAAAAAAAAAAAAAAAAAAAAAAAAAAAAAAAAAAAAAAAAAAAAAAAAAAAAAAAAAAAAAAAAAxdRqrWlo41yfFHXLH1uuo0tPFjFV2eaOz4amBp9Dc1FXf9ZM9sUTycnxuyPgBb/te51cngWM/J+MtxptHZ0tOLdHL11TzyyaYpppiIiIjmiIXAAAAAAAAAAAAAAAAAAAAAAAAAAAAAAAAAAAAAAAAAAAAAAAAAAAAAAAAAAAAAAAAAAAAAAAAAAAa7U6C1qYzMcWvqqjn+Xtayi/qttq4l+Jrt80T/wAZ+x0i1dt0XaeLXRFUT1SCFm9bv0U3KK8wyHN3dPf0FU3tPVNVHXE9UfG7fG22k1lvVUZp5KuumeoGcAAAAAAAAAAAAAAAAAAAAAAAAAAAAAAAAAAAAAAAAAAAAAAAAAAAAAAAAAAAAAAAAAA1Ou10WMWrXLdnk8Suv1saenvdHLdnm+D4VrQ6GaJ7/f5b08sRPuON9oGi0ExV37UeFcnlxPLie2fhboAAAAAAAAAAAAAAAAAAAAAAAAAAAAAAAAAAAAAAAAAAAAAAAAAAAAAAAAAAAAAAAAAAAAAAAAAAAAAAAHP6rRV2Kv0jTckxyzTHV5PwfA6ABrdFraNXTjkiuOePtpbJoNbpK7Vz9J0/JVE5riPTT/UztFrKNVbzzVxzx9wNiAAAAAAAAAAAAAAAAAAAAAAAAAAAAAAAAAAAAAAAAAAAAAAAAAAAAAAAAAAAAAA1+s1dOkt55ONPJTH3su7dos26rlc4piMy0Gnt17jqKtRcjwKZxEdU/B/yBe0Glrrrp1V/M1zy08b01f0t8AAAAAAAAAAAAAAAAAAAAAAAAAAAAAAAAAAAAAAAAAAAAAAAAAAAAAAAAAAAAAAAAAAAAAAAAAAAAAAAAAAADnNZYr0l2NVp+SPdR1R+FTo1uaYmmYmMxMcsAs6fUUai1TXT4pjsllOa8LbdVmM94ufn56XQ01RXTExOYmMxILgAAAAAAAAAAAAAAAAAAAAAAAAAAAAAAAAAAAAAAAAAAAAAAAAAAAAAAAAAANbr9V+j2PBnFdXJHwfCDXa25VrNTRprU+DE+FPVxqevzW+tWqLNum3RGKaYxDX7Zpv0e13yqPDufVT1Q2oAAAAAAAAAAAAAAAAAAAAAAAAAAAAAAAAAAAAAAAAAAAAAAAAAAAAAAAAAAAAAAAAAAAAAAAAAAAAAAAAAAAAAAMTU2KdTZqtzyZ5Ynsnqarbr1duurSXeSYnwPtj/AIugaHdNPMcXVUclVE08bHZnkq80G+GHptRGosxcz8Ex2VU87MAAAAAAAAAAAAAAAAAAAAAAAAAAAAAAAAAAAAAAAAAAAAAAAAAAAAAAAAAc3H/iGvzz2bf1/wD7NluV/vOmqiJxVc5I8XX9SO26fvOmpmYxVc5avsj5gbQAAAAAAAAAAAAAAAAAAAAAAAAAAAAAAAAAAAAAAAAAAAAAAAAAAAAAAAAAAAAAAAAAAAAAAAAAAAAAAAAAAAAAAABbqoiqmYmOSYxhcAc7pZq0Wur09U+BV7Tx9X3OiaXdbE1Wov0+2tzy496ztJfi/Yor6+afK6wZgAAAAAAAAAAAAAAAAAAAAAAAAAAAAAAAAAAAAAAAAAAAAAAAAAAAAAALF+5Fm1Xcn3NNUg0uo/tm5UWfcUck+tP3OhaPabUzFy/VyzVVjP8ANP1t4AAAAAAAAAAAAAAAAAAAAAAAAAAAAAAAAAAAAAAAAAAAAAAAAAAAAAAAAAAAAAAAAAAAAAAAAAAAAAAAAAAAAAAAAAAC1XTFymumrliYmJho9uqmxqb2lq7cx46fwdC53cYmxq7Ooj5fHT+AOiFuKoqiJjliYzC4AAAAAAAAAAAAAAAAAAAAAAAAAAAAAAAAAAAAAAAAAAAAAAAAAAAAA028XOJp4oj3c8vip8JuXP6z9fuOns88Rxcx/NP1A2mltd509m38FOfK9tLMAAAAAAAAAAAAAAAAAAAAAAAAAAAAAAAAAAAAAAAAAAAAAAAAAAAAAAAAAAAAAAAAAAAAAAAAAAAAAAAAAAAAAAAAAAABrNytRc0tzHPR4cebz/U2a3VTFVM0z1xMAwtvu980trPPT4E+b+DYtBtMzbr1FieeKs/R8GW/AAAAAAAAAAAAAAAAAAAAAAAAAAAAAAAAAAAAAAAAAAAAAAAAAAAAAc/o/wBdumouc/F43L8vFj6m8qni01T2RVLS7NGf0ivrmaY9NX2g3wAAAAAAAAAAAAAAAAAAAAAAAAAAAAAAAAAAAAAAAAAAAAAAAAAAAAAAAAAAAAAAAAAAAAAAAAAAAAAAAAAAAAAAAAAAAAAOfo/U7vMRyRc4380cb0ugaHcf1Wv0l3t4ufNn8W+AAAAAAAAAAAAAAAAAAAAAAAAAAAAAAAAAAAAAAAAAAAAAAAAAAAABi6qeLptR1eBVj5mBs8f2eqeua5/liKWTudXF0lz4UNrjGjtT2zVP80g2YAAAAAAAAAAAAAAAAAAAAAAAAAAAAAAAAAAAAAAAAAAAAAAAAAAAAAAAAAAAAAAAAAAAAAAAAAAAAAAAAAAAAAAAAAAAAANBvEY/R6o581fZU3lM8ammY64ajeI/UWp+P60S2Wlnjae1PwAyAAAAAAAAAAAAAAAAAAAAAAAAAAAAAAAAAAAAAAAAAAAAAAAAAAAAard+i+f/AEyu7b0Kx53rSs7v0Wny49Er229Csed60g2AAAAAAAAAAAAAAAAAAAAAAAAAAAAAAAAAAAAAAAAAAAAAAAAAAAAAAAAAAAAAAAAAAAAAAAAAAAAAAAAAAAAAAAAAAAAAANRvHRqP3tP2snQT/ZLU/BPpljbx0an95Holk7f0O14qvTIM4AAAAAAAAAAAAAAAAAAAAAAAAAAAAAAAAAAAAAAAAAAAAAAAAAAAGp3fotPlx6JXtt6FY871pWd36LT5ceiV7behWPO9aQbAAAAAAAAAAAAAAAAAAAAAAAAAAAAAAAAAAAAAAAAAAAAAAAAAAAAAAAAAAAAAAAAAAAAAAAAAAAAAAAAAAAAAAAAAAAAAAGo3jo1P7yPRLJ2/odrxVemWNvHRqf3keiWTt/Q7Xiq9MgzgAAAAAAAAAAAAAAAAAAAAAAAAAAAAAAAAAAAAAAAAAAAAAAAAAAAand+i0+XHole23oVjzvWlZ3fotPlx6JXtt6FY871pBsAAAAAAAAAAAAEcxl8p90fut7hd12p2fg5q50+m09dVu/rKP2t2unwaqbc+5ppnkzHLPVyPBbmu1927327rtRXezmblV6ua/nqnKdcK5Ez8/Gt5GRk040XKYqoomnp16nsmqNxrbT5PGLNmuaKLc3NdsxOo9ni/SgfEXAzur8IODWpsW9x1d7cNtzTTctXquPct0++orq5eNT72ZxPwc77L0Ot0246XTazS3ouWL9um5auRzVUVRxoqaDjnAc3gN2im/wBGu1c35O7Rvo1a7vRLMw82zmUzNG4qjtplsgGkZgAAAAAAAAAAAANRrt023a7XfdfrrGmt8/Gu1xR63O853Huv8FdFmnS/pGuuf+1RxKM+Vc4v1RLLxeH5+bMxjYd27HZ0qafNj1zPUxb+bi40fjr9FHomev3PXR8067u17xfmY0OzaazT1TdrquT/AC8Vyuq7pfDXV8nsv3mOy1aoo+vFU/WkFjk3jF3ruRZs+iuvc/8ApEtPd5n4bb30JuXPDo063/Np9gD4ju8J+Empn9fv+4V/BOoriPmpnDX1azW3Zzc1t6v4arldXrSz6OR78xHT4hbp9VG/rmGvr5wsx8jCqq9dcR9kvurjR2wrl8JRdu/9y59KfvXqL+opnNOou0z8Fcx6svc8j1RHVxKP/F//AEs/10pjt4dP/lj7n3QPimxve92JzZ3bV0dnFvV0/a3mm4c8LtJOaN81FXwXMXfWipi3OTMun/DzLVX60TT9W12jnTD3HlMS7T+rVE/Xp9dD5v0XdY4R2aojUWNLqae2aJt1fPTOPqdhoO61td7FGs27UaeffW5pu0f0z9TU5HLfGLH/AE0XI8bdUT9Ha2Vjmjg1/UTkzbme65TMfT2PYBze28Jtj3aKI0e5WrlU0+0mriV/Qq4tX1OkaSu3ctVTTct1UVR3VRMT9Le2r1q/RFdq7RXTPzqaoqj6AB5XAAAAAAAAAAAAAAAAAAAWprpppzMxER1zyOW13C/YdDx6atd325Ee0sRx5+76zcR2zpYv5OPjU9K9eotx+lMRv1bdcPJtZ3RrkzVGj22Ijqru15/lp+9oL/DThDf5tTTbieq3REetxpWar9umJ62nu8ycNtzMU1V3J/Qp6vfOnvA+cru9bze5K9z1U56uPNMfNTLEnUair22ou1eVXM+tLHrzqad+ZM+1h1c02t+ZhVz66oj730vlV8z8e5/3KvpVL9u/qKfa6m7Hirmn1ZWKuKU0/wCTv95WOZ4ntwp/8n+z6RHz5a3fdrP7PdNTHwceZj5qpbSxwr3+zj+1xdjsroir1Ypl5/pjHj5VuuPVqWTb5jxqtdOxdp9Xnfc9vHl2l4d6imMarQUVx11W6pp+qrjel0mj4V7PqfAqv1WKp9zdji/zU8n1sm3xLCuTERfppnwq8362xs8Uwb8xFN+Ime6rzZ+l1oxrV2i9Rx6KqaqZ5picxLJZ0TvslsInfZIAAAAAAAAAAAAAAADUbx0an95Holk7f0O14qvTLG3jo1P7yPRLJ2/odrxVemQZwAAAAAAAAAAAAAAAAAAAAAAAAAAAAAAAAAAAAAAAAAAAAAAAAAAANTu/RafLj0Svbb0Kx53rSs7v0Wny49Er229Csed60g2AAAAAAAAAADmOFWquaDgzwg1dr9rY0GouW5jqroomafrdO1uu0dnX6TV6S9GbOos12rkdtNcTTL3aqt0XrNdynpUU10zVT40xPXDxciqq3XTTOpmmYifS/OCM47fhVw6HhHwe1/BjeNXtetomK7FdXe7mPBu0Ve1rp7Yqj5p5Ggw+lrN+3kWrd21ciu3XTFVNUdkxPXEufXKKrdc0VR1xOphHD7K7iesu6rgNprdyrMabVX7NEz7zMXP5eNMPj/T6bUazUWNPp7VV3UXa6aLduiMzVXV4MRTFL7s4B8HZ4K8GNu225idRTHfNRMcsTduzxquL8FOcfIgn/wCQcrHjheNjVVRN6u/FdNPfEUxMTV6uvTdcDt1zkXK430YomJ9c9kO6AchSoAAAAAAAAHNb7wi2ng5ov0rc9ZFmjliij21dyqn3NEc9VT5t4V91fe98m7ptu423aOeNHg1fr7lPxq6facbsj55bjhPAuIcYrjyNvoWd9d6vqp6u6PGfU12dxTFwI/GVdKvXVRT2+3we78IeH/Bvg1TNvVarv2qp/wD4unxXcz8blxT8svD9+7r3CTcprt7bFG3WJ5ImjFd6Y+NXVGI+SPleSREzOZ5czmZnnmU3R+H8o8KwejXdt/hN6Pn3I832U9iGZvH83I6UUVeSo8KJ6/bLK1Go1WsvVX9VqLt+5PPcu1zXX9KqcoLbpdp4L8IN74s7ftGovUT/AIvF4lv6dXFj62/uXbGLaiq5XRbt099UxTEeho4pu5Fc00U1V1z3RE1TP1tCnEPZNu7jW834pr3DcNNpox7W3E3q/wCmPrl22j7jvBzT4q1Oq1epnsmqLdHzUxn60fyOa+CWNxGTN2d61bpmr6eqGxtcvcWvxvyEUR411RH0dr5qiE4w+ubHc+4H6anwdhs1fvKq7vrzU3Nrgxwcsx+r2DQR4rFH3NVXzxhR8jCvz+tqn6tsyOUMyr5WZZj1RM/Xp8YRjtXYx2vtONk2eIxG06P/AOxR9y3Vwf2GuPC2PRT47FH3LH9eMfvwK/54+56q5LyJ3rOo9tE/e+NYhOIfWl7gXwVvU5q2DSxPxKeJ6vFaXVdy7grfiZtWdRp5/wDbuzP+pxl61zlw6ufxli/RPqpmPrYV7kzicbm3fsV+jdUT9T5oiF2Ie063uRzGatFvGfe271v7aZ+xxe48BOE22Rmrbar1uOe5p575H0aeX6m0scd4XlTFNvLoirwr3RPs6WttFl8A4xiRVNzCuTTHzqIiuPX5u9OPjknMcnZLsdp4acINpxFGum/aj/CvZuU+bNU5j5JcnxZpqqiYmmYnljGOX4wysixj5Vvo3rNFynwqjbVWMvKwrnTx79dqvxpmaffp7/svdI2rXVU2tfTOiuzycaZzZn5er5Y+V6RbuW7tui5brpqpqjMTTOYnxPjl0eycJ932C5TOl1EzZzmuxXxqqK+3weqr4YRDiPK9qd14NyaKu3ydc7ifVPd7U14Vzteomm3xG306ezytEaqj1x2S+rRwnB3hpte/U0WeP+j6vi8tiuefyJ6/Fzu7Q29YvY1ybd63NFcd0uhYuXjZtmm9j3qblueyY+3wkAWmSAAAAAAAAAAA4zhBwr0GyUd6jN/VTT4Fmnq7Kq56qRYycmxiWqrt65FFEd8/Z4y6fU37OltVXb96i3bp9tXVMU0x45qedbt3QtPamq1tuni/VzTerzTbjyY55+p5xuu97hvd7j6u/M08bNFqOS3R5MfbPK1ilVWkG4hzRkXpqt4VPkqP9SeuufZ3Nnr953XdKqp1etrrpznvcTijzYp5GviCIZ2i2/XbhXxNHpbt6euaaeNHnTzR8ssWuqZ6o60djy+Tciapru3Ku/rqqliRC47rRdz/AHS7GdVqLenjHtaf1k/0x9bqdPwB2izETdru3564qqimP5YWZs3q+yNetusfgHErsRM2Itx+nVFP0drx+ITjHa94tcF9jsfs9ss5+NE1+tLYU7bt9EeDobFPit0/ctzgV1dt2mPZLaW+V8jq6eVbj1RM/Xp885p7YTzT2voj9C0v/prX0I+5Zq2zb6o8LQ6erx2qfuWa+FV1dl+P5ZXv6tVx2ZdM+umY+14FEJvbrnB3ZbvttutZ7aYmj1WovcC9puxm1Vfsz8WrjU/NUwrvB8v5tVFXtmPreKuAZdHyardftmPreVxCcQ7PUcCtdRHG02ot3eymqJon+qHNavbddop/tOlro+NMZo82aeRpMrFy8eJm7YrpiO/W498dTDuYOTj/AOJYqiI79bj3x1KaTWarRV8fT6iu3PXxZxE+VHNLstv4Y3Ixb19njRzd9txifOp+5w8QmxLPEsvDq3Zv1RH5s9dPuXsbJyLE/i7kxH5vbT7ntuj1ul1tvvmnv0109eJ5vG2LwrTajUaW733T3ardfbE9XZVHNMeN6DtHCezq5ps6vFu9PNXHJRV90pTw7mTGyqqbWRHkrs9UTPyKp9E93tSPF4lbvapuRFFfr6p+52gCStoAAAAAAAAAAAA1G8dGp/eR6JZO39DteKr0yxt46NT+8j0Sydv6Ha8VXpkGcAAAAAAAAAAAAAAAAAAAAAAAAAAAAAAAAAAAAAAAAAAAAAAAAAAADU7v0Wny49Er229Csed60rO79Fp8uPRK9tvQrHnetINgAAAAAAAAAAADkeEXBPZOFGmp0+6aGm9xeW3diZouW6u2iunljxczyivuBbLXciq3v2uotZ9pVRRXVjysU+h9CjZ4XGuL8Oo8ni59y3b/ADO2mPVE70xr2Hi5ExVdsU1T46+551wW7nfBrgnMXtFpq7mq4uJ1Wonj3Ijrpp5KYojyYh6KDCyMnJy7s3cm/XduT21VzuV63bt2qYpt0RTTHdAAsvYAAAAAA8o4cd0jQcFrVek01NGq3SaeS1nwLXG5qrk0/wAtMcs/A0fdH7pFOy03to2e7TXuPNfvxy06b4vw1+jxvmeqq5drrrrrqrrqrqqrqqmZmqqqeNNVU1cs1VJvy7yrVmxbzM+no4+ulRa7Jr8JnwpRri3G6cfp2Mad3I6qq+6n1elsN13bct81tzW7jqq9Rfq655qafe0xTyRTT2Q18QRDoNg4N7twj1tOm27TTcnwe+XavBt2qffVz1eLnnqdKqqxsHH3PQs2LVHopppiPqQz8dk3dR0q7lc+mZmZaJ6Zwc7mfCDfYtXr9H6BpJ4sxdu0zx6o7abfP8s4h7bwT7m+zcHKbWovURrNfHhd+rp8C3P/ALdHNHj53p7n3FudJqmuzw2iNR1eWrj6aafv9yUcP5ajquZte99cW6Z7PXP3PNth7m3BnZOJXGk/TNRTy9+1WK8eTR7WPmz8L0OmmmmmIiIiIjkiOqF4QbIysrLuTcyMiu7X41zv3eHsSqxj2MajoWbVNFPhTGvf4gCwvAAAAAAAAOd3Tg9s+8UVRrdFauTxcRciOLcjxV08ryneu5jqbFNV3aNR36MZixdmmmvzZ8GJ+XD3gbDD4rn4Mx5HImaI/wAuvzqZ9k/Y0/EOBcM4lE+XxqfKf6lHm1e+O32vjjVaXU6S9XZ1Fqqzcjkqt10zTVHyVLD6s3XYtq3uzFnW6WLmKfAr5q6Z+LPPDwrhJwI3LYKqtRZzqdDz99pjw7flxTzeOOTxJlw/mDHztW7mrV2eyJnzav1Z+xzjjHKubw2Kr1ufL48dc1RHnU/rR9riozFWYmYmJzExOJzTzVUzS9b4K90CqibWj3uvjU+DTb1c88fBX2x8b5+15LAys3Ex823NF6jevk1d9M+hp+G8Ty+F34vY1zXZ0qJ+TXHhMPsO3XReppqpmKqZjMTE5iWQ+c+CPDO/stVGj1tdVzQ1VY5fCqs+T2x76Pme/wBi/Z1Nqi9arprt3KaaqKonMVRVzSgGfg3sG70K+umfk1x2T/v6HX+D8ZxuL483LXm3KdeUtz20z4+mPSzQGE3AAAAAAADzXhnwoq2217H6O5/a7lPGrrj/AAqPg+NV7ns5+xWI2xc3MsYGPXfvVapp7I75meyI9MrfCzhjTt83dBt1UVarmuXeem18Hw1eh5BVVVXXNddc1VVTVNdVUzM5q56qpqQ5ZnM8vXMzzzUnEK1VRTGocs4hxLJ4nfm5dnVMfIojspj7/Sk2O37Xr90u970mnmuY9vV1Ux76qauSHR8GuCN/eOLqtTxrWj54x4Nd3yeyn4fmezaPQ6XQWKLGls02rdPuaYx86zETX2z1Nvwnl67mxTeyN2rPbEfOq9W+yPS4naOAeg0cU3dwr/Sr0cve4zFuPk56vld5Zs2bFFNuzbpoojmppjixHyMse6YineoTvFwcTCo6OPZpo8ZiOufXIAqywAAAAABammLlOKoiY64510U1scfuHBXb9VFVdin9GuT10R4Hy0/c4fX7Nr9un9fbzb42Iu08tE+V2fK9oY9yii5RNFyiKqZjliYz87RcQ4BiZlNVVuPI3fzqY6p9cNdkcNx725pjydXjT2T64eHRC47TeOC+Iq1G30TPXNn/AI/c4vExOJjExyTDnPEsLK4ddm3kUa3vo1R101R4xLRXcW5j19Cun1T3T6nV7Lwgr0s0afV1zVY5ouTyzb8r4voeiU101001RVExMck9UvFYh1Ow7zOlqo0uoqzYmcUVT/hz/wAfQ3nL/M02K6MPNubtTqm3dqn5M9kRVM90+Pc2uDmTTq3dq3Hzap7vX6Ho4DpDcgAAAAAAAAANRvHRqf3keiWTt/Q7Xiq9MsbeOjU/vI9Esnb+h2vFV6ZBnAAAAAAAAAAAAAAAAAAAAAAAAAAAAAAAAAAAAAAAAAAAAAAAAAAAA1O79Fp8uPRK9tvQrHnetKzu/RafLj0Svbb0Kx53rSDYAAAAAAAAAAAAAAAAAAAAAAPF+6Xw/wD+ntPO1bbcj2UvUZrrjl/RrVXuvLq9zHVz9jqOHPC3T8Etmr1PJXrL3Gt6Sz76v31Xxaeer5ut8c6jUajXam9qdTdqu371dVVy5VPLM1Vcaaqky5U5f/pC5TnZVv8As9urVFE/5lUfZH0o7xziv4LT+D2a/wAbVHnVR82Pvlj5rqqmqquZmZqmZqnMzNXhTVVNXPVUnED0XgFwG1HCvW99vxVa22zXT367Hgzcqp8LvVuffe+nqj4XTMzMx+HY1y/frii1bp/+oiO+ZQuzZvZd6m1ajpV1Tr/efQjwJ4Ba/hXf77XxtPt1uvF6/jwqpp9xRxuer3080fU+q9o2fbNi0NrQ7fp4s2aOqOeqrrqqnrq99LN0ei02g01jS6WzTasWqKabdumPBppp6obBxvjPHMrjF7zpm3Yon8Xaiez01eM/U6Fwzhdjh9vqiKr0x59yY+iPCABpW0AAAAAAAAAAAAAAFmqiK6aomImJjExPLleAeJ8LuANNPH3DZrPJ4Vd3SU/Smq3/AMfm7HkGH2W8e4ccDadTTd3bbbWLscaq/Ypj9p210x2++jr8aTcL41VE0Y+VXuJ6qLk93oq+9z7mPlamabmbw+3qY3NyzTHV6aqY+uHi70LgTwtq2a/RodbXM6C5XyVT/g11T7an4tXuo6uftefQN3lWreTartXI3TPf3xPjCD4GbkcPybeRYr1VTPXHdVHfE+iX2HFUVU5iYx1SuvGO59wom5Tb2XWXPCiP7LXM88U89qZ+L7n4OR7OguTj1412q3X64nxjxdp4ZxGxxTEoybM9vVVTvrpqjtiQBYbAAAABzXCLebex7dd1NdNM1zxqLVE+6rq9r8nvnzvevXtVeu379c13bk1V11fGq9s6zhru8bnvFy1bqzp9LxrVGOuvPhz88Y+RyUQ9TPRp9LmHMHEas/Nqt0T+IszNNEd01dk1fZCsQ73gjwX9k66ddraP7JTV4Fuf8Waf6afraDg/s9e9bhRZ5Ys0eHfqj3nG5o+GrmpfQdqzb01m3ZtURTbt0xRRTHVTTHJC3HnTuexm8u8Hpyqvwq/RuzRPm0z2V1en0Qv00026YppiIiI5IXQenQgAAAAAAAAAAAAABx2+7HTqYq1Wmo/Xc9dEe78n43pdiMLPwMfiWPXYv07pnsnvpnxj0rd21ReomiuNx9TxFOIdVwj2zvVz9Ms0Yt3KsXIj39Xuvz1uYhxPimFf4bmXcW98qnrirXVVTPZMetH7lmbNyaKu7snxh3HB3c+/2v0S9Vm7bjwZn3VH3uweO6e/c0uotX6OemrMfD2x50PV7F+i/Yt36Pa3KYmHR+UOMVZ2HVi3qt3seIiJntqtz2TPpjslt8K95S30ap86n6YZYCZM0AAAAAAABqN46NT+8j0Sydv6Ha8VXpljbx0an95Holk7f0O14qvTIM4AAAAAAAAAAAAAAAAAAAAAAAAAAAAAAAAAAAAAAAAAAAAAAAAAAAGp3fotPlx6JXtt6FY871pWd36LT5ceiV7behWPO9aQbAAAAAAAAAAAAAAAAAAAABr9Xq9PodNqNTqLkWrNmiq5crq5qaaPCmZbB8892bhVNFuzwc0tzwrkU39ZMdVHtqKPOmM1fBHws/hfDrvFM6xi29x0p3XV+bTHXM/cxM3Kowsa5fq+bHmx4zPZDx7hfwkv8Kt71GurzTYj9XprU/4drjcnJ76rnq+FzYv2bNy/dtWrVE13LldNuimmMzVXVPFppp+NVLudm1Zwse3ZtxFFm1RFNMdkREQ5jfv3Mi7XXXM1V11bn1y6Lgpwa1fCfdrWhsZot/tNRexnvVrPLPlVc1Mdr7J2rbNHs2h0+i0dmLdizRxaaftq7avfS5rgNwUs8Ftlt6aqmKtXe4tzV18+bnvYn3tPNT8/W75yDmTjdXF8uaLdc/gtmZi3EfOnvrn193oT/gvDYwceK7lP4+5G658I7Yp+8ARxugAAAAAAAAAAAAAAAAAAAHgnD3gtGiu17rorWNPcq/tFFMcluur3dPZTV7rsnxvNH1xqdNa1Vi7YvURXauUTTXTPXTVGMPmbhHsd3YdzuaWczZr8LT3J66KquTjfDTzVJLwvPm7R5C5V51MebM98ffDl/NfBIw734dj06s3Z8+mOyiv0eiWjoruWblFdFc0V0zTVTVTOOLNNXGiqnyZfSfBXf7e/bVReqmmNRb4tGopjqr99T8WrnpfNjqOCW+Tse8WrlyvGmvcW1qI6uLVPJX5s8viyucTsRkWZqiN10ddM/Y1/LfFZ4ZnU0116sXtU3PCJ31VezvfTYhExMZicxKaLOwAADm+EG4exez67WUziuKOLb8uvwafrnLpHlfdJ1k06fbdFR/iV1Xa4+CiOLHpViWu4tkzicOyr1M6qiiYp/Wq6o+mXksRPPM5zz560xttk0Xshuuh00xmm5dpmvyKfCn6oWq6pmdQ5TZtV3blq3THnV1RTEeudPYOB+0+xm02qrlP6/U8W9c86PBp82HaqRGIVXI6oiPB2DFx7eJj2bFv5NFMRHp9PtABfAAAAAAAAAAAAAAAAYl+xb1Fm5ZrjNFcTEx2vKNRYr02ou2K+e3NUZ+DqnzoexOC4UaamjUWNRHuqaqK/HT4UIRztw6m9gUZlNPn2J1Vrvoq6volg51qKrcVxHXT9UuWdrwX1U12b2mq/w6s0eKrn+txbcbHe7zuen7LnGtz50cnohBuXMycLjGHX0tU3KvJV+qvq6/RHaw8aroXqJ8er3vTQHcG6AAAAAAAAajeOjU/vI9Esnb+h2vFV6ZY28dGp/eR6JZO39DteKr0yDOAAAAAAAAAAAAAAAAAAAAAAAAAAAAAAAAAAAAAAAAAAAAAAAAAAABqd36LT5ceiV7behWPO9aVnd+i0+XHole23oVjzvWkGwAAAAAAAAAAAAGg3Lfdm2X9Hjcty0+k77xu99+rijj8XGeL288Nd/wBd8Dv/APSaD/71K/bxMu9TFdrFu10z2VU0TMT7dLNWRZoqmmq9RTVHbE1REuwHKaLhXwa3HU2tLot80d/U3M8S3RdiaquTjTxfkjLq1u5au2qujdtV26tROqo1Op9b3RcouRuiumqPGJifqAHh7AAabdNz0207drdw1NWLOmt1Xa/hinqj4ep8O7puWq3ncdduGqnN3UXarlfZHG5qafi0xiKXv3dp33vGi0OxWasVamr9I1ER/wBu3OKKZ8qvl+R86Opck8MixhXM6un8ZkTMUeiimdfTKC8y53lMmnGpnzbUbq9NU/dA9w7kHBf9L1d3ftTa/V6ae96bPurnuq/NicU+P4Hj2g0V/cNZpdFp6ONev3abVuPjVTxY43xffPtvY9p0+xbVott0/wCy09ri8b30+6qq+GqZmXvnLi04mDTiW6tXcncTMdsW47ff2LXLuB+E5c37kbt2dTEeNU9nu7W+AcqT8AAAAAAAAAAAAAAAAAAAAAAcNw02Kne9pri1TFWr03Gu2O2Zpjlo86Prw7ke7ddVq5RXTOqqZ3DHysa1mY97HvU7ouUzTP3+uHx1C5h2fDnZfYre7ty1TjT6vjXbeOaK6vb0/Py/K42ISmm/Fy3RXHZVES4jlYlzDyr2Pc+VbqmmfTrsn29r33gDvMbls1Onu15v6Oqm1VM89VHuKvs+R6G+a+Bm5ztW/aWqurFm/wDqbniqnkqq8mcPpRHcyiKL9XRjqq649rqnLOfOdwy3Fc7u2fxdXpiPkz7YAGKkQ8L4f3uPv0W/+1prcR46qpqn0vdHgPDbM8JddE9VNqI+hDzXV0aUa5qqmOGUUx8+9TH0TP2OUiHedz2xFe9Xr0xyWtNVjx1VRT97hHp3c4pjv+61fEtR9csaid3aPWinArUV8UwomPnzP8tMy9aAZbqAAAAAAAAAAAAAAAAAAA53hHa75tldXXbrpqj5+L9romDrNPRq9NdsVTMRcpxMxzwwOKY85fD8zHiN1XbNdNP60x1fS8XKZrt10xHbDyhfsVTav2rke5rpn6NUVOy/6W0v/qb3zU/cf9L6X/1N35qfucrp5R4/RXTXGPb3TO4/GU9sNbGLfiYnox73WCERiIj4E3YobUAVAAAAAAGo3jo1P7yPRLJ2/odrxVemWNvHRqf3keiWTt/Q7Xiq9MgzgAAAAAAAAAAAAAAAAAAAAAAAAAAAAAAAAAAAAAAAAAAAAAAAAAAAand+i0+XHole23oVjzvWlZ3fotPlx6JXtt6FY871pBsAAAAAAAAAAAAfOXd6jM8F/wDN/wC2+ecPoru88/Bf/N/7b56w7Ryn/wAv8P8A4nxy5zx6d8Wy/wBz4Iegdyn+/Wyfx/8ASqfZz4y7lUf+etk/j/6VT7NQvnr8r2P2Wn46kk5Z/wCBvf8Afn4YAELSIBxHDjd52XgpvGronF3vM2rU9ld2e90z5uc/Iu2LNeTfs2KI3Vcrpop9dU6hbu3KbNq5cq+TRTNU+yNvlfhnvP8A1Bwn3XXU15td+qtWf3VrwaeL5XP8rmYgiMRhcxiHerFm3jWLNi3HmWqKaKY9FMahyTIv1Xrly5XPnVVTM+2dvZO45sdOr3fU7vco8DR0d7tTPN3y7mmeL5NGfnfTrg+59s/sLwV2yzVTi9fo/Sb3bx7vhYnyYxHyO8cZ4/n/ANI8VyrsT5lFXk7f6tP3z1+10vg2L+CcPsUTHnVR06/XV93YANM2gAAAAAAAAAAAAAAAAAAAAAAADguHe1eyWw37tFOb2kq79RjnmKfb0/Nn5nz/ABD62rpprpqpqiJiY5c9cPmHeNuna9112imOS1dq4meuirwoq+aYbDEvzTbrtzPVHXH2ue844ERfxs2mPlx5Ov109cT7vqaymOzk7JfSnB3cvZXZtDq6pzXNHFueXR4NX1vnCIes9zfXRFG4aCqrmqpv0ed4NX2LeRXFUx19jG5VyfwfPm1M6pv0TT+9HXH3PWgGG6WPBOG9vicJNbPv6LUx9CKfse9vF+6Fp5t7vpr+PBu6bGfjU1T98LV75HtR3me30+G0zr5F2mqfbE0/a4KIekdzq7TGt3K176zbrjzapp+1526rgbqv0XftNEzyXoqtT51PG+yGvouRF63vxRLhFcWeI4dc9UeU1P70a+17uA2rp4AAAAAAAAAAAAAAAAAAAAAAAAAAAAAAADUbx0an95Holk7f0O14qvTLG3jo1P7yPRLJ2/odrxVemQZwAAAAAAAAAAAAAAAAAAAAAAAAAAAAAAAAAAAAAAAAAAAAAAAAAAANTu/RafLj0Svbb0Kx53rSs7v0Wny49Er229Csed60g2AAAAAAAAAAAAPnfu8c/Bf/ADf+2+ecPobu68/Bn/M/7b5+w7Jyp+QMD+J8cubcfn+9sv8Ac+CHfdy2P/Pexfx/9Kp9lvjfuW/352T+P/pVPshDeePytY/ZafiqSXlf8n3v2ir4aQBDUkHgXds3KaNHs22UVftbteouR8Fqni058qap+Z76+Su6xrp1fDDUWYnNOksWrMeOqO+T9dSS8p434RxqxVMbps0VXJ9nVHumWi5iv+R4ZciJ1NyqKI+ufqeZxDfcHNsq3jfdp2/ni/qbcXPIpnjV1fNEtI9g7j23fpPCTU6yqM0aTTVTHwV3Z4sfVl0zi+VOHw3MvxOqqLVXRn9KeqPpQDh9n8Lz8Wz2xXcjfqjrn6H01FMUxERGIxiIhcBw51wAAAAAAAAAAAAAAAAAAAAAAAAAAeKd0fb6bW4aLXU8kXrdVuvy7XhR9U/U9rcFw90f6RsV27EeHp71FyPO8GfS9U1dGd7abj+NGTwrKjXXRHlI/c65+h4dEOp4H6r9E4QaCqZ8G7VVZnxVRxafrw5uIZFq5XZuWrtPJVbrprifjU1can0Ma9f1O99jnOJXOPfs3Yjrorpq90vqEYmnv0X7Vq7TzV0U1R4mWvuvRMVREx2TG/ePPe6Boov7VY1NMZq017M+RX4M/Xh6EwdXpbWs0uo092M0XaKqJ8VXI8XKenRVT4wxc7GjLxL9ifn0zET4T2x9L5viE7VVdq5RXROKqa6aqJ7Jpq40VMjVaO9odVqNNejFdquqifN5qqfi1RyrMQj9yuYme6YcyiiqirozExVTOp8YmPtfQO07jTumg02qonHfI8KPe10+DNPztw8T4Lb5TtWpqsX68aW9VTmZ/wAOv2vG8XVU9pieNiYnk6m6xcinItRPzo1FUOj8LzozsamqZ/GUxFNyPT4+qUwGS2IAAAAAAAAAAAAAAAAAAAAAAAAAAAAADUbx0an95Holk7f0O14qvTLG3jo1P7yPRLJ2/odrxVemQZwAAAAAAAAAAAAAAAAAAAAAAAAAAAAAAAAAAAAAAAAAAAAAAAAAAANTu/RafLj0Svbb0Kx53rSs7v0Wny49Er229Csed60g2AAAAAAAAAAAAPnnu7c/Bj/N/wC2+fcPoPu5+24M/wCb/wBt8/4di5VnXAcH+J8cuZcwT/e+X+58EO/7l39+tk/j/wClU+xnx53L/wC/Oy/x/wDSqfYaG87flWx+y0/FUk/Kv5PvftFXw0gCHpMPh3hHrPZDhBver54u6y7NM/F4800/VEPs7cr8aPb9dqv+zYu3PoU8b7Hw1yz4U8szyz46k+5FtRNfEb/fEUUR7dzP1QhfN97VGFa8Zqqn2a0rS+ju4zoot7PumrmOW/q4tx5NqiPtql86PrbubaanS8Dtnp67tNy7PnVzVH1YbXnO/wCT4TFv/WvUU+yImr7Gp5Wt+U4pNf8Ap2qqvfqn7XfgOWOlAAAAAAAAAAAAAAAAAAAAAAAAAADUbtpv0vbNw02Mzd09yiI+GqmW3B4uURcoronsqpmJ9r5apjkpyuxDN11j9H1+usYx3u/cojyaa5ppY8Q0l+7MTVuXKIszRXVTMddMzHue6cF78ajYtsqn21NviT5kzT9jp3BcBrvH2m9b437PU1R9LFX3u9bXHr8pYtVeNMOm8Or8pg4tXf5OmJ9nUALzNeb8M9inUW/ZLTUZu24xeoj3dFPNV46fR4nmMQ+lJiJjExmHkPCbg1VoK69bpKP7LVy10x/hT/wq+ppuJY1WpvURv86PtRPjnC56c5dmncT/AItMd36X3uKdzwc4TzoYo0murmrT81Fznm38Wrtp9DiohNoaMq5jXIuW6tTH0+tpMS/exLtFy1Op747pjwl9C2rlF63TcoriqmYzExOYmGS8N2jfdbtFeLU8exxuW1VPg+b2PTtr3/bty4tNu53u9zd6rnl83qn5Ejw+K42VqmZ6Fzs6NXVv1T3prh8TsZeon8Xcn5s9/ql0gDaNkAAAAAAAAAAAAAAAAAAAAAAAAAAAA1G8dGp/eR6JZO39DteKr0yxt46NT+8j0Sydv6Ha8VXpkGcAAAAAAAAAAAAAAAAAAAAAAAAAAAAAAAAAAAAAAAAAAAAAAAAAAADU7v0Wny49Er229Csed60rO79Fp8uPRK9tvQrHnetINgAAAAAAAAAAAD587uXPwZ/zf+28Bw9/7uPPwb/zf+28Dw6/yt1cCwf4nxy5fzFP98Zn7nwQ73uX/wB+Nk/j/wClU+wXyB3Mf78bJ/H/ANKp9fofzp+VbH7LT8VSU8p/k69+0VfDSAIgk7j+G92dPwQ4Q3KZ5Z0dyiP4ng/a+OYh9Zd02vvXA3d8e7mzR9K7S+Uoh0vkmjo8Nya9fKyJj3Ux97nfONz+3Y9O+yxv31T9yOOSX2nwbsRpdg2SxHJxNFYifHxIy+M6aKpqpiOeZpiPO8F9x6eiLNmzR72imIYnPFz8Vw+3E9tVyfdEfevcmUbvZ9z82m3HvmfuZIDn6fAAAAAAAAAAAAAAAAAAAAAAAAAAAAPAuE1uKN/3OI5qrtNX0oir7WmiHWcMrfE3/UVf9y3an+n7HMRCKZtyKb16N61VLnGXa6Oblxrqi7X9b0fgBV4O52uqKrNcedE0z6HpTyvgLONZrqO2zTP0KuL9r1Ru+F1zXh25numqPdKZ8GmZ4fZ9E1R/7SANg2gs1U010zTVETExyxzxMLwEvL994JTRNep2yjNE+308c8eR2x8X5nDcWYmqJjE8bExPgzFT6Jczu/BzQbpxrlVPer8c12iOWfK7Wgz+D+U6VeNMRVPXNE9k+rwR7O4JRXNVzG1TV2zb7p9Xg8diE/ez2czcbjsO47ZNVVyzx7Mc12jNUed1w1cQh2TTds1zRdoqoqjumNNDVZuWaujXRNNXhMOi2/hNueiiKaq/0i1725yzj4s8/wA+XY6HhTtmp4sXZmxX2XOb6VPI8vTXsfjufh6iLsXKI+bXG/dPa2WNxDLsajp9Onwq69erve6WrlF2jjUVxVTPNMTmF94bp9TqdLVxtPfrtz18WqaY86OaXS6XhXuNnixfpovR1zMcSfpU8n1N7jc24NUaybVdqe+qPPp9fjr2Nxa4raqjVyiaJ9HXH3vTRyOn4WbdcxF6i5anrmY48fy8v1N7Y3DQ6mP1Gqt1/BFUZb3G4rw/L15HLtVTPzelqr3TqWwov2bmuhdpq9rYgNgugAAAAAAAAAAAAAAAAAAAAANRvHRqf3keiWTt/Q7Xiq9MsbeOjU/vI9Esnb+h2vFV6ZBnAAAAAAAAAAAAAAAAAAAAAAAAAAAAAAAAAAAAAAAAAAAAAAAAAAAA1O79Fp8uPRK9tvQrHnetKzu/RafLj0Svbb0Kx53rSDYAAAAAAAAAAAA+f+7fz8Gv83/tvBMPfe7dz8Gv83/tvBcOucsfkLB/ifHLlvMc64zmdX5nwQ7ruYx/532X+N/pVPr58idzP++uy/xv9Kp9dohzl+VLH7NT8dSU8pTvht79oq+GkARJKXmHdXrxwQvR7/U2I/m432PmCIfTnda/upH/ANZa9EvmZ1Hk6IjhFXpv1/VDmPN9U/0pTHhZp+uWVoqOPrdJR769bj6VcUvuF8T7XH/ie3R/8za9eH2w03Os7ucPjwpufY2vJPXa4jP6Vv6IkAQdOQAAAAAAAAAAAAAAAAAAAAAAAAAAAHkHDenG8Wp7dNR600uRiHa8OI/8V08//Lf1S4+IQfilzo5eRG/noNn0f2/K/X+x2PAnk3S/Hbpqv5a4ervKeBkY3e7+4uetD1ZveAVzXgeq5V9PWknBv+Cpj9OoAbttQAAAFJjMOV13BjbNZPGot94u8/Gojix50OrFjIxrGVR0L1qmun0x2epbu2bd6no3KIqj0/Y8k1fBfc9LMzbojUUR10c/nRVy/Nlopproq4tdE01dcVRMfVU94a7VaLS6ynF+xRcx76M4RfN5UtXJmcXImifza/Oj3x1w1d3hFueu1cmn0VdcPG1x6BqOCWguznT3rlmez28fzcv1tHqOC+5Wf2fEvR8WcVfzfeiWZwDi+PufwabtP51qen9HawquH5Frtt9KPGnrc5EJ/CyLuj1On/b6e5R8NVMxHz8yzCMXouW6ppuUVU1eFUalbijU6mmY9bYWNz1+l5LWruYjqmeNHzVNzY4UayjixfsUXe3i5oq+5zIy8XjPFMPXkM67TEdlM1dKmP3atwyqL163ro3Jj0f/AG9AscJdvuRxbnHtT8aMx89Lc2dbpNRH6nUUV/BEvKFevk5MdaQ43O/EbUayMe1ejxjdFX2x9DLozbkfKiKteyXso8ssbpr9PxYo1Vcx2VTx/WbzT8J7kcmo0sVR110Txfqq+9J8TnXhN/UXqbmPM99UdKmfVNO/piGVRmWqtb3T9P1O3Gm0277fqcRRfimrsr5JbhJ8bLxsy35THv0XKPGiqKtevXYyYqpqjdNUSqAyVQAAAAAAAAAAAAAGo3jo1P7yPRLJ2/odrxVemWNvHRqf3keiWTt/Q7Xiq9MgzgAAAAAAAAAAAAAAAAAAAAAAAAAAAAAAAAAAAAAAAAAAAAAAAAAAAand+i0+XHole23oVjzvWlZ3fotPlx6JXtt6Fp/O9Mg2ApkyCopkyCopkyCopkyCopkyCopkyDwPu28s8Gv8z/tvB8Peu7Zz8HP8z/tvCcOs8s/kTC/ifHLlPMs64zmfufBDue5p/fXZv43+lU+uHyT3NI/86bN/G/0qn1rlEucZ3xOx+zU/HUlnKH5MvftFXw0qimTKJpU8x7rFPG4KVz73VWp9NP2vmaIfUXdPo43BDWT7y/Yn+eKftfMUQ6ZyfVE8Jrjwv1/VDl3OXm8UonxsUT9Ms/beTcdDV2am1P0a4faj4m088S7bq95XTP0Zip9rROYzHNLV86R+MwKu6Yu/RpteRq92+JU+FVqffEpimTKDp4qKZMgqKZMgqKZMgqKZMgqKZMgqKZMgqKZMgqKZMgqKZMgqKZMgqKZMgqKZMgqKZMgqKZMg8p4bcu66f/6an15cnEOq4XzFW7xEe509uP5pc1EOa8Yu/wBvy4j8+fo6kNzY3m5M/py6vgbH/it2f/Yq9aHqbzDgZH/iGqnssetVD07KV8txP9GU1TPyrlU/YkHCo1iU9XzqlRTJlv2yVFMmQVFMmQVFMmQVFMmQVFMmQRmMxiYau/s+3aiJ4+koz20xxJ/lbbJlj38XHyaejesW7lPhXTFUfS81U01RqqmJ9cbcje4LaWvPeL9dE9lWK4ae9wa3G1y0cS74pxPzVfe9GyZaHJ5R4Jk7mMeqzV42qtfRO4+hYqxLEzuKdeqXkd7R6vTz+t09yn4ZpnHz8y3D2CWqv7XoNTnj6WjPbTHFn56Uby+Q7lMbxM6Kv0btOvpp39SxVgz82v3x9zzRV1+o4M25406e/VTPVFfLHz08rTajZ9w0/LNjjx7+3y/Vz/UjGZy9xfBiqbuHXVRHz7fnxrx6uyPWtVWLlPbT7utq8M7TbhrNL+xv1RHvauWP5mDjE4nk7YVamzfvY9yLlm7XbrjsqoqmmfoUp3E7idOx0vCO1XPF1dHEn31PLT98Ojs3rd+jj266aqZ5picvLWRp9RqNNXx7NyaJ68dflRzSmPDedMzHmi3nUeXo/Pp1Tcj7JZdu/VGoq64epjmNBvtq9xbeoiLdfVV7ifudNl0fh/E8Pilny2LeiumNdKOyqmZ7pjuZVNUVRuJVFMmWeqqKZMgqKZMgqKZMgqKZMgqKZMg1O8dGp/eR6JZO39DteKr0yxN56NT+8p9Esvb+h2vFV6ZBnAAAAAAAAAAAAAAAAAAAAAAAAAAAAAAAAAAAAAAAAAAAAAAAAAAAA1O79Fp8uPRK9tvQrHnetKzu/RafLj0Su7Z0Kx4qvWBsAyZADJkAMmQAyZADJkAMmQeD92v/APr3+Z/23hWHuvdo5+Dn+Z/23heHVuWvyJhfxPjlybmadcbzf4fwQ7jua/302b+N/pVPrR8n9zf++mz/AMb/AEqn1hlFOcPynY/ZqfjqS3k7r4Zf/aavgpAyZRRLHD8PrffuCO9xz8W1RXHmVxV9j5YiH19wls06rYN7sc816O9xY+GKJqj0PkWmOR0Pky5/Ycu3+be3/NH+zmXPFPRzcS5+dZ6P8s/7qY5H2Vt1zv8At+gvf9yxbr+lTFT46iH1dwS1H6Twb2OuZ5Y0tFuZ+G34M+hZ5zp3j4Nz825VT/NG/seuRLv9qz7cds26Kv5Z19rqQyZQJ0sDJkAMmQAyZADJkAMmQAyZADJkAMmQAyZADJkAMmQAyZADJkAMog8i4TTE73qo97Tbj6NMVfa0TZbxX33ddwr5479VEeKmri/Y1rk2dX5TMy69/KvXJ987QzIq6V+9V411fW7bgTT+v3Cvsooj6UzU9GcLwMt402uue+u00x5tOftd1l0HgFHQ4Vi/pdKr31TKS8Np6OHZ9O598gZMtwzgMmQAyZADJkAMmQAyZADJkAMmQAyZADJkGu1Og0erie+2Imce2jwavnpc1q+D1ynl0tzjR7yrwZ82eZ22TLS8Q5f4XxKKpv40Rcn/ADaPNr98dvteK7dFe90+15RctXLVfe7tE0VdcVRgelajSafVW+JftRVHV8Hicdr9nu6PjV25m5Z55nrp8r73N+Mcq5vDoqvWJnIx465qiPPpj0x3+uGPXZqo7OuGmw3e27re0c8S5mqx2c80+T9zTwI9h5uTgX6b+Ndmi5T4dkx4THfDzRM0zuJem2rtF+iK7dcVUTzTC+4Dbdxr0N3E5mzXPhx2fGpdxRXTcppqpmJpmMxMc0w7HwDjlnjONNURFN+jXlbfh6Y9EsumrpRtfDJlIHoDJkAMmQAyZADJkGo3jotH7z+mWVt/Q7Xiq9MsXeOi0+XHollbf0O14qvTIM4AAAAAAAAAAAAAAAAAAAAAAAAAAAAAAAAAAAAAAAAAAAAAAAAAAAGp3fotPlx6JXdu6FZ870ytbv0Wny49Erm29Cted60gzwBXQAGgANAAaAA0ABp4V3Z+fg94tT/S8Pw9z7s3Pwd/zP8AS8Mw6ly5P9zYf8T45ci5nnXG83+H8EO47m/98tn/AI3+lU+rXyp3OY/847P/ABv9Kp9VotzdO+JWP2an4qku5M6+GZH7TV8FIAiyX6WblEXrdy3PNVRNM+dD43vWatNfv2Z57VdVufHRM0/Y+znytwv0k6PhPvFrmiq/VdiPguxFz7Uw5PvRTkZlnq8+imv+WdfagfPdneNgX/zLldH80b+xzEQ+i+5tqe/8GbVqas1ae/dt/S/WR6Xzs9j7lOsxXu+hmeq3eop8mZpn7G85ot+V4VcmO23XRX9PR+1GOTb/AJDjlqnevLW66P8A5fY9rAczdj0ABoADQAGgANAAaAA0ABoADQAGgANAAaAA0ABoWrt2m1brrnmpjM+JdaTfr/6PtOurziZt8SPHX4P2rGRd8jYvXZ7KKKqp9kbW7lUW6K65+bTM+55FVcm5crrnnrrqmfOq4yIrPM5HMzMzMyhXjM971HgpZ4mz26p57ly5V9fF+x1DVbVYjT7dobXNNFqnjeVVHGn0tq6xgWvIYWJbntptURPr0mWPb8nYtU9mqIgAZa/oADQAGgANAAaAA0ABoADQAGgANAAaAA05Pddo9vqNPRjrrtx61P3Obh6g4veNB3ivv9uMUXJ5Yjmiv7qnM+bOXKMemriOHRqnf4+3EdUb+fGu7x96zXR2zHuaV0Wya2Yq/Ra+bwptzPb7aaXPJ01V26oqpnFVE0zHlUofwriN3hedYyre5imdV0/nUT2x93pInUw9KGJpr0amxbuxyRVTTMx2T1wy3eLV2i9bouW6oqorpiqmY74mNroAuK6AA0ABoADTVbx0Wny49Esrb+h2vFV6ZYu79Fp8un0Sytv6Ha8VXpkUZwAAAAAAAAAAAAAAAAAAAAAAAAAAAAAAAAAAAAAAAAAAAAAAAAAAANTu/RafLj0Subb0K153rSt7v0Wny49Ep7f0Kz53rSDOFAV0qKAaVFANKigGlRQDSooBp4h3ZOfg/wCLU/0vD8Pcu7Fz8H/Fqf6XiOHT+XZiOD4f7/xy49zTP9+5v8P4Idt3OP747P8Axf8ASqfUz5Z7nf8AfHZ/4v8ApVPqVGObPylZ/Z6fiqTHkr8lX/2mr4KVRQRdMNKvAu6jou9bzpNVT7XU6biT5dqri+iYe+PNe6XoP0ng/a1cUxx9Hfprqn4lXgz9cw2/Asn8G4rizM9Vczbn97s+nSPc04v4TwTLiI3VbiLsfuTufo2+fna8AtfGh4T7fmcU6jjaevzo8H64hxa9ZuXNPdtXqKsV0V01UT2VUVcaPrh0XNtU5WPfsVdlyiqn3w4/g5FWJl42RT22rlNXriJ632KNbt+tt7jotJq6IxTetUXI87wsNi5JMVU1VU1RqYmYn1w79RXTcoprondNURMT4xPXtUUFHvSooBpUUA0qKAaVFANKigGlRQDSooBpUUA0qKAaVFANKigGlRQDSriOGWo4um02mifb3eNMfFpji+mXbPJ+Euq/SN2u0081mKbUeOnwp+uWi5ivxZ4bcp313ZiiPV2z9ENfxO55PFrjfXXPR9nbLQMjQ2J1et0tj/uXKYnyaqvC+pjuo4J6Xv26VXsclm1nzqvB+9A8Gx+E5mNZ/OuRv9XvRzHt+Vv2qPGqP9/oen8kckfIqoOspnpUUA0qKAaVFANKigGlRQDSooBpUUA0qKAaVFANKigGlRQDSooBpVjamxRqbF21VjFcYz2fmWQLd21Ret1266YqorpmmqJ74mNTBp5vVTNFVVFUYmmqqJ8dPgjabxZijXV1RHJcimv5faz6GrhwHPxpws3Kxp/yrtVETPbMRPVPuWtdcup2C7mzesz7ivNPiq/GHQOP2Svi6zi9VVFUfRxU691vlDJnI4JjxVVubVVVqf3Z6o9y5EdUKigk6ulRQDSooBpUUA01e79Fp8un0SzNv6Ha8VXplibv0Wjy6fVll7f0O14qvTIozgAAAAAAAAAAAAAAAAAAAAAAAAAAAAAAAAAAAAAAAAAAAAAAAAAAAand+i0+XHolPbuh2fO9aUN36LT5ceiVdu6HZ871pBn5MogrpLJlEDSWTKIGksmUQNJZMogaSyZRA08V7sHLPB/xX/6XieHtfdf5+D/iv/0vF8Om8u/kfD/f+OXG+ap/v7O/h/BDs+55H/m/aP4v+lU+osvmDue/3v2f+L/pVPp1Gea/yhY/Z6fiqTLkjr4VkftVXwUpZMoiMJlpLLWblo7e5aDW6Ovkpv2rlufg43g8b7WxFYmqmqmqmdTTMTE+mHiu3TcoroqjdNUTEx4xL48vWbli7dsXacV266rdcdlVNXFn60Xfd0Pav0Df7uooo/VayjvsT1cenwa6fnxPyuBdTxsqMrGs34nqrpifVPfHvcFz8SvBzcnFr7bVyad+MdsT7Ye89zTc/wBJ2i/oK5zc0l3NET/27k8aPozl6dl8xcEN39ht90l65Xixd/U3fJqxiavJnEvptA+OYvkM6uumnVF7z49ffHvdV5Sz4zOFW7VVW7mN+Lqj0fNn3dXsSyZRGnSjSWTKIGksmUQNJZMogaSyZRA0lkyiBpLJlEDSWTKIGksmUQNJZMogaSyZRA0lkyiBpLJlEDTD1uqo0Wm1Goqjkt0TXjt7I86XjFVVddc11Tmqqapme2aquNLuuF2t4tuxoqKuWue+XPJp8GKfncGgHMuX5fLpsUz5tmOv9art+jqRrit7yl+m1E+bbjr9cj0vglpZs7dXfmPCvV1THk0+DT9rzexZr1F61YojwrldNEeVVVxXtljT0aaxasW/aW6Iop8VMYe+WMXymTeyJjzbVPRj9ar7oXOEWeldruzHVTGo9dX+zIyZRE8SHSWTLzHdd23TT7lrbNvWV00UXOLRTERiIqpiqOphxv28f+vr+aPuRa/zXhY925arxr+6KppnUU9068Wrq4pZorqom3XumqYns7nrWTLl+DWsv6zTaidRemuui7iJnGeLVTFUe1dM3+Fl287FtZNuJii5EzET29U662wtXIu26K46oqjsSyZRGUuaSyZRA0lkyiBpLJlEDSWTKIGksmUQNJZMogaSyZRA0lkyiBpLJlEDSWTKIGnNb/RT3zTVdtFUfRmKvtaF0e/82k8dX2OccT5spijmDiERHbNuffRCktltfJr7Pw8aP5ZdnlxW2R/btP5VXqy7NNeQ5meFZUd0ZVWv5KVdJZMoibmksmUQNJZMogaSyZRA01m79Ho8un7Wbt/Q7Xiq9MsLd+j0eXT9rN2/odrxVemRRnAAAAAAAAAAAAAAAAAAAAAAAAAAAAAAAAAAAAAAAAAAAAAAAAAAAA1O79Fp8uPRKu3dDted6ZU3fotPlx6JV2/olnzvtBm5MgK6MmQDRkyAaMmQDRkyAaMmQDTxbuvc+w+Tf/peMYe1d1vn4P8A8f8ApeMYdK4BP90Yn7/xy4xzZOuP5/8AD+CHY9z/APvbtP8AF/0qn05l8zdz/wDvbtP8X1JfTKM80TvPsfs9PxVJpyN18JyP2qr4KTJkEbTPRkyAacLw92ed12O7Xbpzf0n663xeeafd0+dHL8j52h9hcnNMZ7Yl8y8LdknY951Fm3RjT3eNd089XEr56fNnkSrl7M1RcxKquv5dH2x9rnPO/DJ6VjiFunqmPJ3deMfJn7HL46n0XwH3v2Y2e1RcrzqdJxbV3PtqqceBX50R88PnZ0XBffK9i3WzfqqmbFX6vUUR7yqr23jpnlpbDi2L+GY1URG7lE9Kj7vajvLnE/6M4jRVXV+Ju6ou+qZ6p9k/Q+n8mWPavW79u1dtVxVbuUxNNUddNUZiqPKZCCuzx1xExPUZMgK6MmQDRkyAaMmQDRkyAaMmQDRkyAaMmQDRkyAaMmQDRkyAaMrGov2tPZu3rtWKLdHHmfgp8JfcDwr3Smcbfaq+NemPpU0/bUweI5tGBi3L1XbEapjxqnshj5V+MazXcnt7KY8Z8HI6zVXNZq72oq57lXGiOyKfBiPNhjCVNNdyuiiijNUzTERHXNU8WKXLaqrl65VVVM1V11bmfGZn70Qmaq6pmdzVVPvmXWcEtD37VXdXXHg2Y4lHw11Ry/Rj0vR8tbtmio2/RWdNHPTGa5jrrq8Kqr52ydN4Thxg4Vq1MefPnV/rT93YluHY/B8eiiY1PbV65MmQbNlaeY8JrPet3u1Y/a0UVx83Fn0NFEO24W2ImNJqae2q3M+V4Ufa4tx/mCibHFcynuqr6cfv+d9qL5dvoZd6NdtXSj2uu4JXsX9XYn3VFNUR8NM8Wr0u7y8q2rURpdfprkzinj8WrxVeDL1VM+Tsum/wyqzvrsXJjX6NfnR9My3PDqulj9HfXTMx7J6zJkEtZ+jJkA0ZMgGjJkA0ZMgGjJkA0ZMgGjJkA0ZMgGjJkA0ZMgGnMb5Vm7Yo97RVM+dP4NKztyu991t6Y5Yp4tEebz/WwnB+PX4yeM8Ru0zuPKzRE+MUebGvR1KxDY7TRxtdRPZRVP1cX7XX5c1stvNy9X2UUxHnTxvsdK6XyVZm1wSmv/WvXK/dqj/4lXaZMglqmjJkA0ZMgGjJkA01W7dGo8un0Sz9v6Ha8VXplhbt0any6ftZu39DteKr0yKM4AAAAAAAAAAAAAAAAAAAAAAAAAAAAAAAAAAAAAAAAAAAAAAAAAAAGp3fotPlx6JNu6Ja871pN36LT5ceiTb+iWfO9aQZeTID0ZMgBkyAGTIAZMgBkyAPHO61yzsPk3/6XjmHsfdZ59h/zH9Lx/Do/AKv7pxf3/ilxTm3/mDP/h/BDruAMf8Amzav4vqS+lcvmzgD/ezav4vqS+k0b5n68+z/ANin4qk15E/JOR+1VfBSZMgjibGTIAZcfwy2L2d2mumzRnVabjXbE9dU45aPOj68OwFy1drsXbd2idVUTuGNl4trNx72Pejdu5TNMx9vrh8gcsTVExy80xPPFST0vug8Gp0Wq9ltNTjTX5/XUxzUXavdeKr0+N5snNjKoybNN2ieqqOuPCe+HEOIYF/huXexr0ddE9VXdVTPZMPXe57wl5Lezaur336LVVPP7qbX20/M9ey+Raaq6Kqa6K5pqpqpmKqZxPGpq40VUz8V9A8DuFVrfNL3jUVRRrrUeFHte+RT4PHpj1o6kd4rh9Gub9uPNn5ceE+PtTzlPj0XbdPD8mv8ZTGrNU/Opj5vrj6nc5Mg0ieGTIAZMgBkyAGTIAZMgBkyAGTIAZMgBkyAGTIxNZrLWgsV379WKKY+eeqKfhqea66LdNVVdUU00xMzM9kRHbLzVVFMTMzqIjcyw943SjbNJNfJN2rjRbp7Z7avgp908mrrruV1111zVVM1TM9czV4U1M3ctff3LU1X7viop6qY9zTT/UwHNeMcUq4jkebMxYo6rcfXM+mUVzsv8Ku+b8in5MePpkdnwU2zvtyrX3aPBt8aLUT11+6q83mc1tugublq6LFHJHPXV1UUU8//AOL1+xZt6ezasWqOLRbopiiPgpZ3LvDfwi/OVdp/F2p8yJ+dX90MjheL5W5F6uPMonzfTP8Asu5MgnySGTIA1m76b9N2/UWYp41XE49Hjp8KPpczy+IexvN960P6Hrq5pjFu7xqqOzjVe2p+dz/nfAq6GPn0R8n8Xc9ET10z7+pquI2Ol0LsR2dU/Y08Q9I2bW/puiomqfDteBX25p5p86Hm8NrtOvnQarjzmbVXJcj4vvvNRXlvi0cL4lRVcq1Yu6ouejr6qvZP0MXDuxYudfyZ6qvv9j0vJlGK6blPGpmJiacxMc0xV1pO0xMVRuOxvu0yZBVUyZADJkAMmQAyZADJkAMmQAyZADJkAMrGq1FNixdvdkckds1cy+5jd9VF27FimfBt1eHPbP8A+LScwcTp4Xw27e6WrtUTRZjxrmOr3dskRtqfCmapnlzyzPxkhe09ib96ijtnlnsp91U4hbt3L92i1biarlyqKaY8ZqnT3EOk2u13vS28xy3J40+L2sNjkiKaaaaaYxyYiPgpHfsDEpwcPGxqey1bpp34zEdc+2XiesyZBmBkyAGTIAZMgDWbtP8AZ6fLp9WWw2/odrxVemWBunR6fLp9WWft/Q7Xiq9MjyzgAAAAAAAAAAAAAAAAAAAAAAAAAAAAAAAAAAAAAAAAAAAAAAAAAAAand+i0+XHolHb5/slnzvWlLd+i0+XHolHQdEted60gzcmUQeksmUQEsmUQEsmUQEsmUQEsmUQHkPdW5Z2Lyb/APS8fw9g7qv/AME8m/8A0vH3ReAz/dWL+/8AFLiPN3/MOf8Aw/gh2HAL+9e1fxfUl9IZfOHAL+9e1fxvUl9Go5zN/wAfZ/7FPxVJxyH+SMj9qq+GlLJlER1NksmUQEsmUQFjVaWxrNPd02otxXZu01UV0Vc001PnDhLwe1PB/cKrFWa9Pc406e776j3tXw0+6+d9LNVu+06LetFd0WqpzTPhU1xz0V081VM++pZuDmVYlydzu3V1VR9vrR/j/BLfF8eOjqnJtxM2qp7/ANGfRP0PlxlaXUX9HqLWo096q3et1ZoqjqqZ29bLrNj11em1NGY57d2PaV0e+p/qjqalJfKUXaOlExVTVHvcjuW7+Leqorpqt3bdWpjsqpqh9BcGOFen361Fm7xLWuoo/WWubjRT7qjjc8e+jqdtl8m2bt2xdtXrNyqi7bnNFVM8tM0+6pml7PwY4dWdfFGl3W5TZ1Hg00Xva27k/D2VfVKP5mH5OqarXXT29Hvj/Z0fgPM9GTTTjZ1UU3o1FN2eqm56/CXpeTKI1qapZMogJZMogJZMogJZMogJZMogJZMogJZMogJZMotTue8aXbLf6yvjXao8G1Tzz90fCtXr9rHt1XLtyKKKe2ZW7lyi1TNVdUREd8s3V6yxorM379zi0R9c9lMdcvLd13W/ul/jVeDZp43e7fVFPvqu2qpZ3HctVuV7j36/Bj2lunmpj4v3sBAOMcbuZ8zZtRNOPE9nfXPjPhHhCN5ufVk+ZR5tv6/9hO1buXrtFq3RNVdU0xFPXM1KU0111RRRRNUzPJGM8tXuaXpOw7JG32+/X8Vam5HL1xRFXuafh99LC4Zw29xG/FEebbid3K/CPCPTKxiYleVciI6qY+VV4f7s7Ztrt7XpaaOSq9VxZuVds9lPxaW5yiOmWbNrHtUWrVPRopjUQldu3RaopoojURGoSyZRF1cSyZRASy1O7aGNfo6qIiOPR4dufjU/8uZtBj5WNazLF2xep6Vu5TNNUev7XiuiK6ZpnsmNS8mmmaZ4sxMTE1ZjsmnnpHW79tvHzq7FOav8WmOuPf0+T7pyUOH8W4Xf4TmV492Nx1zbr7q6e6fX4tFes1Wa5pnr8J8YdNse7RYmNLfr/V5/V1T7mfe1fA7XLyV0m1b1NiIsarM2vc3Ofi/Fq7YSvljminHpowM+ufJ9UWr0/Nj82r0eE9zOxcmKYiiuerun7HbZMoRVTcp41MxMTGYmPCiaVXTImKoiYnqbFLJlEVVSyZRASyZRASyZRASyZRASyZRASyZRASyZRa3W7jRpaaqacVXJ5o6qfjVMTNzsbh+PXkZN2KLdPfPbM+ER3z6A3DXU6ejiW/2lccnxY99/xcwVVV3auNVM1VTOZmRxTjfGL3GcubtXm2qNxat/m0+n0z3vcR6R0W1aXiW5v1R4VyMUfBT/APk1uh0f6Tc41X7Oj289tXvXVYpiMRydkJTyZwSq5cjid+jzKdxYiY7Z7Jq9UdkFU90K5MojprwlkyiAlkyiAlkyiAlkyiA1259Hjy6fVlsNv6Ha8VXplr9z6PHl0+rLYbf0O14qvTI8s4AAAAAAAAAAAAAAAAAAAAAAAAAAAAAAAAAAAAAAAAAAAAAAAAAAAGp3fotPlx6JR0PRLPnfalu/RafLj0Shoei2vO9aQZgA9AAAAAAAAAAPIe6rz7J4r/8AS8fewd1Xn2TxX/6Xj7onAfyVi/v/ABS4jzd/zDxD+F/+ul2HAP8AvVtX8X1JfRz5y4B/3q2r+N6kvo1HeZv+Ps/9in4qk45D/JGR+1V/DSAI6mwAAAAADU7vtOh3vR1abV0Zp9tRVHJXRX1VUz758+77wf12w6niXqOPZmr9VfpjwKqfe1dk++h9MMXV6TTa6xc0+os03LNyMV0VRmmfx+FlY2ZXjzrtontj7ke41wDH4tR09xbyaY825rt9FWu76nyxELsQ7/hBwD1Wgm7qNupq1Gm55tc9y3H20+LlcJTT+LNryablPSipzPJ4dlYF7yWRZmirunuqjxie+HX7Fwv3DaIos3s6nSx4MUVT4dNPxKqvRPI9e2rf9r3m3TOm1EcfHGm1V4NynzavTD55iF6nj01U1U1zFUVZiaZmmYq+LNLVXq6NzOm/4Xx7OwIpt1T5azHV0Kp64j9Gfs7H02PF9s4Z7xoooov1RqqI5MXOSvHxa6ftiXdaHhls2qimLlyrTXOuLkeDnyqeT58LMXrc9tWvWm2Jxzh+X0Y8r5Oqfm19Xunsl1wsWL9jUU8axeouU9tFUTH8q+uR1ttExVETExMT2TE7gAHoAAAACcRGZ5PhnmajU77tek5K9VTVV7234dX8vItXb9mxT0rt2minxqmI+t4ruW7cbrrimPTOm3WdRfsaa3VXfuU0UdddU4hw2s4W3p8HRaeKI9/d8KfNinkctqdVqNZc4+ou1XKurjTzeTHNCO5nM+JZiacembtX53XTT7+2fY1l/i1mjqtRNc+PZEfa67cuFczxrO3046pvVR6tNXplxdddy7XVXXXNVUzy1TOfC+NNSIh+ZxDLzq+lfu7j5tMdVNPqhor+Teyaulcr34Ux2R7Bcs2buou0WrVE11zPJTDP27Z9ZudX6qji2eN4V2rmjye2rxPSdt2nTbZa4tqjNcx4V2rnq+6PgZvDOC5GfMXKom3Y7657avRTE/WycPAu5Oqpjo2/Ge/1MDZdjt7bT369ivUzTyz7mimrqp/ql0YOhYuLZw7NNmzRFNEe+fTM98pNatW7NEUUU6pgAZC4AAAAAAplx+8bNNqatRpaM0z7e3HufjU/FdiNXxfhONxjFmxf6pjrt3I+VRV4x9sLV21Rdp6NUeqfB5XA6/c9kovTXe0tMU1882/axV5PZU5Oqmu1VxLlE01RyTExiYcc4rwfN4Re8nkW/MmZ6FyPk1e3un0NVcs12atVR1d0s7Q7lqNDViirjWpq5bdXN5vY7LR7ppdbERTXxa+u3V4M+b2vPyGbwnmXiHCujR0vLWI/y657P1Z7l21frtxre6fB6iOG028a2xyVV99pjqq5/Nnnb6xvuju8lfGtz8blj56XRcDmzhGbERVe/B7k/Nu+bG/RV2faz6L9FeuvU+luxatXbd2njW66a47aZir1V1I6K6blMVUVRVTPZMTuJ9S729YA9KgAAAAMS7q9LY9vdpieyOWfmpWb+RYxqJuX71FuiO2quqKY98qMtC5cotUzXcqimOvM4hpL+8+2psW/Oq+6lpbt+9eqzdrmrsz7WPJhEOJ868Pxoqow4nJuePybcT657fZ7xuNXuszxrenzHbcnn82Gk5ZmqZnOeWZkSc24jxTN4pe8rlXpq18miOqmmPCmO57iN76xl6PSXNTXiOSnrq/Pul3R7dc1E8arNNHb1z5LpLVqizR3uijFPVCQ8vcq3uI1UZOZRVbxY1NMT1VXfV+j6fcrNSVq1RZoooojFMc0Jg61bt0WqKaKKYpopiIppiNRER3Q8AD2AAAAAAAANdufR48un1ZbDb+h2vFV6Za3c+j0+X/TLZbf0O14qvTI8s4AAAAAAAAAAAAAAAAAAAAAAAAAAAAAAAAAAAAAAAAAAAAAAAAAAAGp3fotPlx6JQ0PRbXnetKe79Fp8uPRK1ouiWvO9aQZoiD0kIgJCICQiAkIgJCIDyPuqc+xeK//AEvIHsHdSpqqnZOLRNXJfziJ+L715L3m7/2bn0avudE4FMRwrFiZj5/xy4nzdTVPMGfMUzP+H2fqUuq4B/3q2r+L6kvo1868BqLlPCnbJqoqiP1nLMTT7iX0QjvMsxOdZ1P+RT8VSbch7jhGTuNf2ur4KUhER1NkhEBIRASEQEhEBJym9cEts3iar0Ufo+pn/FtxHheVHNPj53UisTpj5GNYy7c2r9qmuie6fs8JeC7nwY3baZrrvafvliOa9bzNGPjRzx8rSRD6Vc7uHBXZtwmap0/ers89y1iiZn40c0/MsXbddcTNMopmcq6masO7vwt1/ZP3vEYhdiHaazgNr7M1VaW/b1FPVFXgV/zck/O5u/t2u0VWNTortv4aqZ4vz08jTZMXre5qomI8dNHc4flY06vY9dOu/W6ffHUx7NVyzVTVauVUVdtMzE/PS3un4Rb3p8RTr66ojquRFfrRlpIheiGnryrlvc0XKqfVK7YuXrX+Hcqp9VUx9TrrfDLdaf2lvT1+bMT/ACyzaeGl/wB1t1ufJrqp9aHExC7EMa5xnOt/JyqvbET9cNra4hn9X9pqn16n7Hcxw0mf/h0f/c/Anhjc6tBT8tc/c4mIVYtXH+LT1Rl6/co+5k/0lm99/wD9afudXVwv10+00tin4Z40/awbvCPeLvNqIo8iiI+urlaIY1fFeJXI1Vm3PZPR+HS3Xm5dfbkV+ydfUyL2s1WqnN/UXK/KqmqPmY4nRauXquLaoqrmeqmJmf5WDNVy5V51VVdU/vTLG3VXV17mZ9qA32l4ObnqOLNVqLNPbcnE/NTyum0nBTRWOXUXKr9XZPJR81PLPztpjcD4jkzGrE26fzrnmx7u2fZDMs8Pyr2pi30Y8aupwem0eq1lfE09iqueuYjkjypq5IdptvBS1axc11cXKueLVPJRHlTzy621at2aIt2qKaKI5qaYjk+SlcSrA5cxMbo13p8vXHjGqI9Ud/tbnH4VYtaqufjKvT8n3d/tRoootU000URTTEYiKYxER8WKVxESOIiIiIjsbNIRBVIRASEQEhEBIRASEQEmFq9Dp9ZTi9R4Uc1Uckx5zLFnIx7OVaqs37dNy3V8qmqNxLzNMVRqY3DitZsuq0/Gqop75RHXTHLHlR9zT4emsLU7dpNXE1V24ir31Pg1fPTzoHxPkaiqarnDr/Q3/lXJmafZV1z72LXjR1zTPslwKTfX9guUcabF+K46oq5Pr5mqu6PVWJ8OxVHw4zHz08iE5nBuKYE1fhOFcppj58R0qP5qdwtTbrp3umVmmuaZzTMxPbE4n+Vm2ty11rm1FUx2VYn1mBCbCsZeVjTuxkXLU/oVzT9Uq0zMdkt1Tvmrj21Nur5Jj1ZXqd+r69LHyVT9zn0m1t8zcdtfJ4jcn9aIq+KJXorr/OdH7Px16WfpfglO+x1aWfpfg5xVf/rbzBrX4dH/AI6Pue+lV4t7O+3J5tPTHjmamPVvGtn2tVFPk0/8mqSYt3mLjl6Jirid6N/mao+GIeulM97Iu6vVXvb365jsziPmpWhOmiap8GiZ+CI4zU3Lt/Jr3cuV3a57OlM1VS9KKthZ2zVXeWaIop7auT6uds7G02LfFmuqa6uzmj5m6weWeM500zTiVWqJ+fd8yPZHbPue2isWL16rFFEz2z1edLe6XbLdrwr0xXV2dUfe2dFFFummKcRHVjwYST7hHJ+BgzTdyKvwm9HX50aoifRT96u0hETFRIRASEQEhEBIRASEQEhEBr9z6PT5f9Mtlt/Q7Xiq9MtZufR6PLp+1s9v6Ha8VXpkeWcAAAAAAAAAAAAAAAAAAAAAAAAAAAAAAAAAAAAAAAAAAAAAAAAAAADU7v0Wny49ErWi6La/PupXd36LT5ceiVrRdFtfn3UisMoMmRUDJkAMmQAyZADJkAMmQAyZADJkAMmQAyZADJkAMmQAyZADJkAMmQDnjE8ueeJ5jJkGtv7NtWpmqbugtTV28Xiz89LUXOCW018tHfbU/FrzH80OpyZY1zDxbv8AiWKKvT0YY1eHi3N9PHon09GI+pxdXA2x7jX1x5VEVerLH/6NuR7XX0fLRMfa7zJlg18C4Xc7cbXqrqj7Vj+jMH/Q16pn73Bf9H6r/wBZZ+jKscD7/XrrceKiqftd5kytf1d4V/oVfz1R9qn9F4f+nP8ANLi6eB8e718+bR/yllUcE9up9vev1/LER/LDqsmV6jgfCbfZhUz+tNVX1yuU8Pw6f8iJ9czP1y1FnYNpseFGjpqntrma/WnDa27Vu1TxbdFNEdlMRHqpZMthaxsexGrViij9WmIZNFq3b+Rbpp9UaAyZXlwDJkAMmQAyZADJkAMmQAyZADJkAMmQAyZADJkBVTJkGPc0elvftNPRM9uOLPz0sOvZtDVzRXT5NX/JtMmWvyOFcMyt+XwLFc/nTRHS9/a8zTTPX0YaKvYrfudRVHjiKlr2Br6tVHy0z97osmWsucp8AuduBr9W5XH0bU6FPg5v2Cvf+oo+aUvYO516in6MuiyZWf6ncBj/AKWv/wAtf3qxTTHc0VOxR16j5qfxXqdl08e2rrn5o+xt8mWTb5W4Da7OHUT+tVVV9cq6jwYNO3aOjmsxM9tUzV6zMpoopjFNER8ERj1UsmW2x8LExf8AAxbVr9SiKfqVAyZZQBkyAGTIAZMgBkyAGTIAZMgBkyAGTIMDc/2FPl0+rLZbf0O14qvTLWbl+wo8un1ZbPb+h2vFV6ZFJZwAoAAAAAAAAAAAAAAAAAAAAAAAAAAAAAAAAAAAAAAAAAAAAAAAAAA1O79Fp8uPRKzoui2vO9aV7d+i0+XHolj6LotrzvWkVhmi3kyKrgt5MguC3kyC4LeTILgt5MguC3kyC4LeTILgt5MguC3kyC4LeTILgt5MguC3kyC4LeTILgt5MguC3kyC4LeTILgt5MguC3kyC4LeTILgt5MguC3kyC4LeTILgt5MguC3kyC4LeTILgt5MguC3kyC4LeTILgt5MguC3kyC4LeTILgt5MguC3kyC4LeTILgt5MguC3kyC4LeTILgt5MguC3kyC4LeTILgt5MguC3kyC4LeTILgt5MguC3kyC4LeTILgt5Mgw9y6PR5dPqy2e39DteKr0y1m5fsKPLp9WWz2/odrxVemRSWcAKAAAAAAAAAAAAAAAAAAAAAAAAAAAAAAAAAAAAAAAAAAAAAAAAAANTu/RafLj0Sx9F0W153rSyN36LT5ceiWPo5/s1rzvWkVhliOTIqkI5MgkI5MgkI5MgkI5MgkI5MgkI5MgkI5MgkI5MgkI5MgkI5MgkI5MgkI5MgkI5MgkI5MgkI5MgkI5MgkI5MgkI5MgkI5MgkI5MgkI5MgkI5MgkI5MgkI5MgkI5MgkI5MgkI5MgkI5MgkI5MgkI5MgkI5MgkI5MgkI5MgkI5MgkI5MgkI5MgkI5MgkI5MgkI5MgkI5MgkI5MgkI5MgkI5MgkI5MgkI5MgkI5Mgwdx/YU+XT6strt/Q7Xiq9MtVuM/qKPLp9WW12/odrxVemRSWcAKAAAAAAAAAAAAAAAAAAAAAAAAAAAAAAAAAAAAAAAAAAAAAAAAAANVu0Z0nn0sTRdFted6zYblTnSXWu0XRqfKq9YVhliuTIqoK5MgoK5MgoK5MgoK5MgoK5MgoK5MgoK5MgoK5MgoK5MgoK5MgoK5MgoK5MgoK5MgoK5MgoK5MgoK5MgoK5MgoK5MgoK5MgoK5MgoK5MgoK5MgoK5MgoK5MgoK5MgoK5MgoK5MgoK5MgoK5MgoK5MgoK5MgoK5MgoK5MgoK5MgoK5MgoK5MgoK5MgoK5MgoK5MgoK5MgoK5MgoK5MgoK5MgoK5MgoK5MgoK5Mg1+4fsafLp9EtvoOi2fF9stRuM/qrUfH/pb3SxxdPaj4BSWQAKAAAAAAAAAAAAAAAAAAAAAAAAAAAAAAAAAAAAAAAAAAAAAAAAAAMfUxxtPqI+JV6Gi2/lsVR2V1fzUuhqiJpqjqxhzehzRVetz20/y+CKw2QiKbV0kIhs0kIhs0kIhs0kIhs0kIhs0kIhs0kIhs0kIhs0kIhs0kIhs0kIhs0kIhs0kIhs0kIhs0kIhs0kIhs0kIhs0kIhs0kIhs0kIhs0kIhs0kIhs0kIhs0kIhs0kIhs0kIhs0kIhs0kIhs0kIhs0kIhs0kIhs0kIhs0kIhs0kIhs0kIhs0kIhs0kIhs0kIhs0kIhs0kIhs0kIhs0kIhs0kIhs0kIhs0kIhs0kIhs0124cs2ae2qr7KXTxGIiHM3Y77rtLR2TTn6XGdQqpPaACgAAAAAAAAAAAAAAAAAAAAAAAAAAAAAAAAAAAAAAAAAAAAAAAAAA5eKe87jep5uNNUx53hQ6hzm50961di9HXFOfNnwvqkGWKCm3rSooGzSooGzSooGzSooGzSooGzSooGzSooGzSooGzSooGzSooGzSooGzSooGzSooGzSooGzSooGzSooGzSooGzSooGzSooGzSooGzSooGzSooGzSooGzSooGzSooGzSooGzSooGzSooGzSooGzSooGzSooGzSooGzSooGzSooGzSooGzSooGzSooGzSooGzSooGzSooGzSooGzSooGzSooGzSooGzSooGzSoojVVFNNVU9VNU/RNmmPo477uVVfVR/x4v2ujaDZ6ap7/AHp65pj+qW/VeQAAAAAAAAAAAAAAAAAAAAAAAAAAAAAAAAAAAAAAAAAAAAAAAAAAABqN1td80/G67c5+SrwW3Wrlum5bronmqjEg0li53y1RPxcT5VPgruWBo6poru2KuSYn66fBlnj0ZMgps0ZMgbNGTIGzRkyBs0ZMgbNGTIGzRkyBs0ZMgbNGTIGzRkyBs0ZMgbNGTIGzRkyBs0ZMgbNGTIGzRkyBs0ZMgbNGTIGzRkyBs0ZMgbNGTIGzRkyBs0ZMgbNGTIGzRkyBs0ZMgbNGTIGzRkyBs0ZMgbNGTIGzRkyBs0ZMgbNGTIGzRkyBs0ZMgbNGTIGzRkyBs0ZMgbNGTIGzRkyBs0ZMgbNGTIGzRkyBs0ZMgbNGTIGzRli6yrFjHvpx/VUymBdpnUay1Yj2sVcvrT9SpLd6C13vS2omMTMZ+kz0YiIhIeQAAAAAAAAAAAAAAAAAAAAAAAAAAAAAAAAAAAAAAAAAAAAAAAAAAAAAHObhT3jWUX45quWfHT4M/UyImmYzDM11jv8Ap66Y5ao5aPG02ju8a3ieej1fcisM3JlEeXpLJlEBLJlEBLJlEBLJlEBLJlEBLJlEBLJlEBLJlEBLJlEBLJlEBLJlEBLJlEBLJlEBLJlEBLJlEBLJlEBLJlEBLJlEBLJlEBLJlEBLJlEBLJlEBLJlEBLJlEBLJlEBLJlEBLJlEBLJlEBLJlEBLJlEBLJlEBLJlEBLJlEBLJlEBLJlEBLJlEBLJlEBLJlEBLJlEBLJlEBLJlEBLJlEBLJlEBLJlEBSquKaaqp5opyjtNrjXLuoq6+SnzvCliauuapos08s1TTyR/LS6LT2Y09mi3HVHLPbL08yyQBQAAAAAAAAAAAAAAAAAAAAAAAAAAAAAAAAAAAAAAAAAAAAAAAAAAAAAAcvrLdWj1vHinwLnL9Lnp+fldQwtbpo1NiaeuOWAa7n5Y5jLC0l2cVWquSqnmiefi+981mqPZkyCgZMgBkyAGTIAZMgBkyAGTIAZMgBkyAGTIAZMgBkyAGTIAZMgBkyAGTIAZMgBkyAGTIAZMgBkyAGTIAZMgBkyAGTIAZMgBkyAGTIAZMgBkyAGTIAZMgBkyAGTIAZMgBkyAGTIAZMgBkyAGTIAZMgBkyAGTIAZK6oppqqnm4uZGBfqrvV0WKOWZmnPlKksnbbdV/UV6iqOSPa+Or/AIw6RjWLNOntUW6eqOftnrZKrwAAAAAAAAAAAAAAAAAAAAAAAAAAAAAAAAAAAAAAAAAAAAAAAAAAAAAAAAAA53ctPNq5+k2uurwvglW3ci5TTVT188dlTe1UU10VU1RmJjlhzFy3XodRVTOZt1csT2x/ypFYnTNyZRzExnn7B5eksmUQEsmUQEsmUQEsmUQEsmUQEsmUQEsmUQEsmUQEsmUQEsmUQEsmUQEsmUQEsmUQEsmUQEsmUQEsmUQEsmUQEsmUQEsmUQEsmUQEsmUQEsmUQEsmUQEsmUQEsmUQEsmUQEsmUQEsmUQEsmUQEsmUQEsmUQEsmUQEsmUQEsmUQEsmUQEsmUQEsmUQEsmUQEsmUQEsmUQEsmUQEsmUUKpiKaqqquTrkEb16LVGeueSI+Mydr03Fpq1Fft7nNns995zD01iddf75XGLdNXLHb8X/k6aIiIenmZ2kAKAAAAAAAAAAAAAAAAAAAAAAAAAAAAAAAAAAAAAAAAAAAAAAAAAAAAAAAAAADE1Omo1Nqq3V44nsllgOSomvT3JsXuTwuSer/8AWpms/W6SjU0dlcc0/wDL4GjtXa7VVVm9GKo5pn1R6ie5mZMg8qmTIAZMgBkyAGTIAZMgBkyAGTIAZMgBkyAGTIAZMgBkyAGTIAZMgBkyAGTIAZMgBkyAGTIAZMgBkyAGTIAZMgBkyAGTIAZMgBkyAGTIAZMgBkyAGTIAZMgBkyAGTIAZMgBkyAGTIAZMgBkyAGTIAZxyyxYpua29Tao5KOufi++q/pRqquaqvvFuOTr7PKq+K6LS6WjTWuJT8s9r0pMp2bVFi3TbojEQyAHkAAAAAAAAAAAAAAAAAAAAAAAAAAAAAAAAAAAAAAAAAAAAAAAAAAAAAAAAAAAAAAa3W6KjV05jkuRHJP2S2QDkrdyuzX3q/TMTHJEz+faspttVpLeroxVyT1VR1Ofqi/o6+JejNPVPwfFHqJ8WUKU1RVGYnMT1qvKoAAAAAAAAAAAAAAAAAAAAAAAAAAAAAAAAAAAAAAAAAAAAAAAAAAAAAAAAAAAAAAAAAAAAAAAAAACNyqi3TxpkEvBiMzOO2WLNVzV3O92va9c9WO2r4Erdm/rq8UxxbXXM/nlqdDp9Pb09viUU4jrntenmZQ0ukt6S3xaeWZ56u1mgKAAAAAAAAAAAAAAAAAAAAAAAAAAAAAAAAAAAAAAAAAAAAAAAAAAAAAAAAAAAAAAAAAAC1ds271E0XKIqp7JXQHL39Ff0k8ezmqjrjsj4yFq/Rd5Oaeyf6XVtVqdstX/Co8Cvtj2s+VArE6a8Y9UajSzxbtEzT1T1ebK7Tdou808vZ1qPSYZMqAGTIAZMgBkyAGTIAZMgBkyAGTIAZMgBkyAGTIAZMgBkyAGTIAZMgBkyAGTIAZMgBkyAGTIAZMgBkyAGTIAZMgBkyAGTIAZMgBkyAGTIAZMgBkyAGTIAZMgBkyAGTIAt3L9FrnnM9kc63atarWe0o4tHXP551TceJc1MU8lPLV9TK0223L9UXdRMxHVT1/g2Ol2+zp/Cxxq/fT/T2Nkq8zO1uimi3TFNMRERzRC4AoAAAAAAAAAAAAAAAAAAAAAAAAAAAAAAAAAAAAAAAAAAAAAAAAAAAAAAAAAAAAAAAAAAAAAAAAt1U03KcVUxMdcS09/ardczXYr4k9k834N4A5KunV6af1tueL2/jSlTft1dePgl1OImMS117btLd5e98Srtp5PwFelLWKq3Nq1FrlsXIqjsnk/BjVfpdj9pYnHbjk+enkU0rtkDGjVUTzxMfzJxetz7uPl8EV3HivCHGieaYkyoJiGTIJiGTIJiGTIJiGTIJiGTIJiGTIJiGTIJiGTIJiGTIJiGTIJiGTIJiGTIJiGTIJiGTIJiGTIJiGTIJiGTIJiGTIJiGTIJiGTIJiGTIJiGTIJiGTIJiGTIJiGTIJiGTIJiGTIJiGSaojnmIBMWe/W49383hLU6qj3NEz/KqbjxZanJEZmcQtU0ay/7S1MRPXjEfPUybe0Xrk5v3sfBHKaU2xKtRbjm5Z+DmSos6zVe1o4tPb+edvLGg0tnli3me2rllnqqdKWo0+1WLXLc/WVfDzfM2uMRiI+ZIFAAAAAAAAAAAAAAAAAAAAAAAAAAAAAAAAAAAAAAAAAAAAAAAAAAAAAAAAAAAAAAAAAAAAAAAAAAAAAAAAAAGLXpdPd9tapn4ccrEubVpKo5KaqfFP8AybUBop2Wj3F+Y8cRKzOz349rfz9KPtdGA5eds13VOfO/E9jdf+avxdQA5f2N1/5q/E9jdf8Amr8XUAOX9jdf+avxPY3X/mr8XUAOX9jdf+avxPY3X/mr8XUAOX9jdf8Amr8T2N1/5q/F1ADl/Y3X/mr8T2N1/wCavxdQA5f2N1/5q/E9jdf+avxdQA5f2N1/5q/E9jdf+avxdQA5f2N1/wCavxPY3X/mr8XUAOX9jdf+avxPY3X/AJq/F1ADl/Y3X/mr8T2N1/5q/F1ADl/Y3X/mr8T2N1/5q/F1ADl/Y3X/AJq/E9jdf+avxdQA5f2N1/5q/E9jdf8Amr8XUAOX9jdf+avxPY3X/mr8XUAOX9jdf+avxPY3X/mr8XUAOX9jdf8Amr8T2N1/5q/F1ADl/Y3X/mr8T2N1/wCavxdQA5f2N1/5q/E9jdf+avxdQA5f2N1/5q/E9jdf+avxdQA5f2N1/wCavxPY3X/mr8XUAOX9jdf+avxPY3X/AJq/F1ADl/Y3X/mr8T2N1/5q/F1ADl/Y3X/mr8T2N1/5q/F1ADl/Y3X/AJq/E9jdf+avxdQA5f2N1/5q/E9jdf8Amr8XUAOX9jdf+avxV9jNdPPXjzvxdOA52Nnuz7a/j5Jq+1ejZbfur9U/JEN4A1dG16SiOWiavHMsujT2LXLRapj4YjlZIAAAAAAAAAAAAAAAAAAAAAAAAAAAAAAAAAAAAAAAAAAAAAAAAAAAAAAAAAAAAAAAAAAAAAAAAAAAAAAAAAAAAAAAAAAAAAAAAAAAAAAAAAAAAAAAAAAAAAAAAAAAAAAAAAAAAAAAAAAAAAAAAAAAAAAAAAAAAAAAAAAAAAAAAAAAAAAAAAAAAAAAAAAAAAAAAAAD/9k=;" parent="1" vertex="1">
          <mxGeometry x="4131" y="930.73" width="60" height="40" as="geometry" />
        </mxCell>
        <mxCell id="Ttfk6c4jHyExXrdg_O_r-236" value="" style="shape=image;verticalLabelPosition=bottom;labelBackgroundColor=default;verticalAlign=top;aspect=fixed;imageAspect=0;image=data:image/png,iVBORw0KGgoAAAANSUhEUgAAANgAAAAuCAYAAABK69fpAAAAGXRFWHRTb2Z0d2FyZQBBZG9iZSBJbWFnZVJlYWR5ccllPAAAAyhpVFh0WE1MOmNvbS5hZG9iZS54bXAAAAAAADw/eHBhY2tldCBiZWdpbj0i77u/IiBpZD0iVzVNME1wQ2VoaUh6cmVTek5UY3prYzlkIj8+IDx4OnhtcG1ldGEgeG1sbnM6eD0iYWRvYmU6bnM6bWV0YS8iIHg6eG1wdGs9IkFkb2JlIFhNUCBDb3JlIDUuNi1jMTMyIDc5LjE1OTI4NCwgMjAxNi8wNC8xOS0xMzoxMzo0MCAgICAgICAgIj4gPHJkZjpSREYgeG1sbnM6cmRmPSJodHRwOi8vd3d3LnczLm9yZy8xOTk5LzAyLzIyLXJkZi1zeW50YXgtbnMjIj4gPHJkZjpEZXNjcmlwdGlvbiByZGY6YWJvdXQ9IiIgeG1sbnM6eG1wTU09Imh0dHA6Ly9ucy5hZG9iZS5jb20veGFwLzEuMC9tbS8iIHhtbG5zOnN0UmVmPSJodHRwOi8vbnMuYWRvYmUuY29tL3hhcC8xLjAvc1R5cGUvUmVzb3VyY2VSZWYjIiB4bWxuczp4bXA9Imh0dHA6Ly9ucy5hZG9iZS5jb20veGFwLzEuMC8iIHhtcE1NOkRvY3VtZW50SUQ9InhtcC5kaWQ6QTAwQkM2Mzk4NDBBMTFFNjhDQkVCOTdDMjE1NkM3RkQiIHhtcE1NOkluc3RhbmNlSUQ9InhtcC5paWQ6QTAwQkM2Mzg4NDBBMTFFNjhDQkVCOTdDMjE1NkM3RkQiIHhtcDpDcmVhdG9yVG9vbD0iQWRvYmUgUGhvdG9zaG9wIENDIDIwMTUuNSAoV2luZG93cykiPiA8eG1wTU06RGVyaXZlZEZyb20gc3RSZWY6aW5zdGFuY2VJRD0ieG1wLmlpZDpBMkM5MzFBNDcwQTExMUU2QUVERkExNDU3ODU1M0I3QiIgc3RSZWY6ZG9jdW1lbnRJRD0ieG1wLmRpZDpBMkM5MzFBNTcwQTExMUU2QUVERkExNDU3ODU1M0I3QiIvPiA8L3JkZjpEZXNjcmlwdGlvbj4gPC9yZGY6UkRGPiA8L3g6eG1wbWV0YT4gPD94cGFja2V0IGVuZD0iciI/PgQJy/MAAAxESURBVHja7FwNlFVVFT6PN8MMM8AIjPxomEyggCYgajIaguCkaC5AEocif9CIiLLyp9IMC9NgVRqrGpMSwcFSIs3URHERJoJCSlIgMQk0YCS/MjAww8zrbO/36rz99rnvzpt3Z6Z551trL5hz3z3n3HPO/t/3Rg6NL6lXIeCWXhfk0r99Ji05Hkb/IxojI8vK6lfbrk+fPl05OLQ2OrglcHBwDObg4BjMwcHBMZiDg2MwBwfHYA4ODr7IaW8PNOfliNryeKnqpM50u+vQXJRoGqlpmKZiTUc0HdT0hKa1Wclg+9/urWqqe6pOPf8vpjtYU39Nb4Mc2g6+oukWTSdZLL/sZLDDu4tU/ZE82+VZmko1NQgL9oymymYMPUTT7ZoaWXtU0wuafmm00QS/p+kLmvIhGedpmu3OdauDCiR+gLNiw7GsNRE75DSqSIeY7fJYTVdarp2u6TeajqY5NDFXueXaUcZgozV91fi7QNNdml7U9Cd3xlsVs1IwV1xAZieDpYCf5DlD0wWaVqTRbz9Nl/hcr2N/jxJ+E8H4jsFaD700fVFo365pIfwvcu7/xq53hWV0tqalmrZkK4OlkkrXpMlgE+EEB8V6S/tf3Ta0KiiYcSpre1fT5WxvOkAgfkLTJAjG09D+sslgLkyfiAlNZJQ4Y05t4j2/1/QQa7tf0x/cFrQqBoFxTDwpCD7ysztqukfTNE0DwUs13L93GiwRPTRN0fTjJtxThgBHU1CraYamRzSdrOmfmtZoirktaFU0Cm1vNMH0z3ofLAhI5T+ogkeKbhA2KYhlQJLuFbfcbZ7B6n32L2ZpdwwG7NB0GKZBHOdqGqqC5TnINLiIta1IEfDgdnwcMcsGSyhSXn6mGHtI972vaZem3QHHihkHpLumPvh/NZx5G05AMID+LcAB3K/pPU3/TmMPOmk6BX1SSuM4xv9XE/ujQENvzKsQ/dC89qCvVPvQgPE5cvFvlK1frkWQJvw+2xmMwucLNX3faKO81OSADEZBkW7G3xs1PRuAwegw/QSMorDBFJn6cgozcQhMy3OUV2XQjUnarZr+oulhTc8bG/5d3BMzJPUEHJA7NV2K/mJ4bko37GVjj0H7UAQCehjXDoExyZz6tabfBVg7YuqZCBQMZP1RXnAb5vINi9CI43xN12oarrxorulD12BemzUtUV4FBmfue5UXGazHGnDcrLwgVg5jsCjmzfv7oaZ9uB7Jdgaj518OM+90ZibehQ2yoQAba4LyaDsDjFuIyFS+0XYiGC1mOYxzNF3P7uGScxCIDtpKmLnERBTlupD9/sOafqqSUwbn4qDEQZryATBk1DJ2F2PscgQGvqbpHcvvidkpL/hRn7UdDJpvYbBiY006WvrpDCYgGg/rgnJcm4z9vwhCw4b4PIIgivVLUI/ZDNqYKhwIE30htfxwhUoM6RIzPi5EoWy2PmfeI5bfUtHXUmiu/IDPFROCKnys+5Scj6s17ieN+RIETjTg2BEw43ImtOIgbbHMh7lMHLOYzb2wJtN9mEvCGGj2YQHWPSPIdgaL4OBUCs7sZJ9DRe3Xsbb1MPMKMqxhf6a8yg8J+2CWvpXCjJI0xJU+QqcePs3DFiZR0E5kjm63XKcaywWGGRxftzkQYDwa9xLM6xWGeZonCCxqe0TwfePYjnnZtGdfCMJijFsYtomU7cjHAaV6wXFG+2iYBm8J9wwTDv2CEOY2zaJJKaw/D1piHzQOOffnKa9ANa8JwvN5+Ey1eN5SaI3bmKSP42n4GVW4pwD+z23wh0xcCC0zF3+XwFzlUbcvwWSsh6lbAu06Q2CwuN/GQRHZu5VXNH0EZu5H4GOOEZifinnvgKDsargGvEyK5v6MRRA9wMzHWqz/xv8yWPzrT2Hh3aVT0mbiiopFTb6nIT0tpiCtxzGHdaKFwa5h5to2I6iQKXTHAeDYAH9iG2vfgyAHMcDFKlhObTYOJT84A5Rcj0fpi88L7Tvg8y0TzM6bNP1c0wFNH1LJify16NcM1sTfLljErIhuYEaOF2Bx7BcE0ToEOD7Jrt2AQNObzN/iIG24yrJ+fDyKXK42+2x3JmLj3/Ue5qb1pbiVKvmVkc+o5MLOIjCYid8qL0ydSVwmmFLkt00VmEuxiN5TKnXRMh2a7wjtdZD4XVn7VkT0lM9hmyH4NKQtzjKEGWf8bsJYpkYwfdUyBGdMvAdm2W/powbz4vvTG9qam5+ShSMhT3AhItxFyFkwcn5DGAf9xlWzPhi8YuKSurQ7Wb7EfklFRknfRbxiQLWav+vEdEbbA0b5utHWDwf9Saa9TmaOeGUIS3ip0PaQRaOmgwU+Wk7ybxb6HOI4NkNQjWPtI8DQVNf3PvPLKPL4nPKitqnqQKWgDEVuq1PctxN7eBNrH4tgiQtyhGgimlikEstfSEhcbawTmU9T2D2vKnvxbrrIRbTNBDFDpmoV4/kuG3h+h3yyNQH7flVoiyfyqyzjlsLPIQYrhz8pYbBFEwfB60LbSWGfR1fsm4hNsOdNXG6YauT0f0xgykzjBJWYRI5r2OoM9d/oo41Iu3QRzMaDAfuWoopRo59vKa96RjK5Loa/RO/FfVYwvwqF5wgaPd0ltJ3iGKzlsUAl5l66woEmXMvs9G0qnAp4qWzqqErOZ4Wx95SczWnGWWmwPE8crykvT+b3ag5FJSkUP9dgziLBV2tUwcvLpJRLgWOwlgdJT/5C3VXKSypfleQKen5FphFRyeHpQhVyzgY4LvhmERW80r9TgN+QlUBpjtnKi/TZcKv6X9TwkEXzRZrxrNWOwVoeNYLjS5EwKisqZlL5FyHNoVbQBN1bwqRRXoHtQcF8C/qe3AChTSq2pagepQjoTfLPKS+cLoG+W9IT68EjlDkq+QVJG/oHNGcdg7UAHmXmGPlDl7H1WgVzJywmlzZ/Ugs8OwmOrUJ7WcDzJEU/1/ncQ5qJoqOUGpgnmHyUdD4N/98s3H9JwOcaK7S9FsLaxRyDpcY/lPfWsZ8ZsjjkOSwX2iiCWdoCwvNpoW1qAA1KTHiWwECvBJgThe+pGmSt8BwFhvnOQcUA56eY1wiBwSi9sroZa9QgCIMc7us5BrNLokofB3q7Cv/1/idUckEwmWqPQZsqi9P+aQRq8poxNvlIe1hbDwQeSnwO8YOCMHrU8FM/DvN7UAofkO9F3PeiMP47wprQ8w6z9EftVKWTKwiwjc30VQ8I/ucYznEO9kNGSd0hlms7Qx6ftCh9n+/brJ20yLNgNPrAShWk5lAwHh3iDSp4dE3CNuWVN32TtY/S9EeM/QYCFKdCg0xRyamFvczsy0OgiOZJCWIq8H0Tfh8l9amciadBdhhMRb+jOsj57DdngPkoxL8G8+8L5qJwfy/Bx71HNTttKqYIbgZf0ToNdAxmxxFosSGCRF3cQnOgV0rOVMnRS0I5qA5aI5cdoOaCXkQ8TzCtqJ7wVmONCnxMqFlM4zQamnYqiAIqlILoYumL8oxmDqsCQuRq9jti7pkgv3nR/t2hAn6ZNwWoOuR61kY5zDuxRnnORPTHYyo5okYSsqW+XUgH7zrllXDZ0FEwfzKR36mB9PcrYi7w8aemYf1MSLmoImgYqS8yw+cKphnVHv4qjXkdg4b5UYb25zkfRs1rlz5YLBbxS9h0FqSN3xqQGchfVahMYX5Jvk+h4LjzcqCuPgf9U8p7vSLI9+spqLBSJZZ8dREOepC9J9+JXiy9PeDYtfCxRsJf49inguUNyfSi98bGK/mt8sMwSamIN8i3JOuxJlSV4/fFsPyA+2n2e6NKrMhX7doH65jToKIRK4vRtykWMjNwb4pgB6n7pwyzJ1VBKkn8yaytSjhAk9jm7VX2ZC6Nez80Ah1ees+K6vK64x7SdFvge1HEbh07BMQgvdlz7Q+4pMehRYhhRiOYQS9h9oSgOYbno0O2WvnXLK5HH2fD9Ka3mvsY/WyEb0f+y6YAgagKBIOoxGo4668OPuKfsSarA/ily4Qgyusp7qE5U2piAnzUAUZgZkMkWnmg7VbT+8BWTd/wYgc1c/FYFcvv197N14hhcjWlZChTyDEOekMb6Ces/tId/4M9aXcmYjQaU+XnbM4G/zAG7XK8FZhLGWM3tJF+wuov3fEb26UPRss6vP9u5eDQFtD+GEzLjc6d69zOOjgGCw21bmMdHIM5ODgGc3BwcAzm4NAm8R8BBgAGrc+T79nGEQAAAABJRU5ErkJggg==;" parent="1" vertex="1">
          <mxGeometry x="3656" y="935.73" width="140.87" height="30" as="geometry" />
        </mxCell>
        <mxCell id="Ttfk6c4jHyExXrdg_O_r-238" value="" style="shape=image;verticalLabelPosition=bottom;labelBackgroundColor=default;verticalAlign=top;aspect=fixed;imageAspect=0;image=data:image/png,iVBORw0KGgoAAAANSUhEUgAAAHsAAABwCAYAAAA+AA+8AAAgAElEQVR4nO2deZwb1ZXvv1Uq7b2pN/fqhXbbGG8YbDA2mMUscQJMXmAGBpIJEByGgcF82AmPYSCEz5AFGCAEJ8CDhIeBJGA/CAYTwIkNGBNjA8Fr2223e3UvarXU2kpV9/1RUrkX9S6p3bz3+3zqI6lUy7n3d5dzzz33XEkIIfj/+H8CyngLkG5EIhHa2trw+/3moaoqc+fOpaysbLzFyyi+lmRHIhHWr1/PmjVrePPNNwkGg0mvKysrY9GiRZx55pl8//vfJz8/P8OSZhjiawJd18U777wjrrrqKpGbmyuAER0ul0usXLlS7N+/f7yTkjZ8Lciuq6sT55577ogJTnbY7XZx5513iq6urvFOVsox4cl++eWXR1WTE4csy6KsrExUVFQIRVHM8zNmzPja1XJJiImrjW/YsIFvfvObaJo26mc4HA6WLVuGx+OhubmZPXv20NzcDEBxcTFvvPEGp5xySqpEHldMWAWtpqaGyy+/fExEA7jdbkpLS6msrCQvLw9FUVAUhfr6eo4cOcLZZ5/Nxo0bWbRoUYokHz/I4y3AaHHTTTfh9XrH/JysrCzsdjvhcJhAIGCey8rKAiAYDLJy5UpisdiY3zXemJDNeE1NDTNmzCAVok+dOpU5c+YQCoVobW2lo6MDn89Hd3c3uq6b1z388MPccccdY37fuGJcNYZR4pZbbkmJ5g2I/Px8MW3aNOHxeITFYhnwOqfTOeEVtglJdnV1dcrIHsmxcuXK8U76mDDhmnG/309ubm5KmvCRoqCggObmZhRlYuq1E05B2759+7gQDdDe3s577703Lu9OBSYc2X//+9/H9f2vvPLKuL5/LJhwZIdCoaTnPR4PVVVVFBYWjviZVVVVXHPNNaxcuXLIa9euXYuqqiN+x7GACUf2QONdn8+Hx+Nh2bJlnH/++UM+Z8qUKZx22mmcddZZeL1e3n77bbKzs7n55psHvc/r9bJ169ZRyT7emHCaRl+L2bRp07jwwguRZZmtW7fy+eefs3jxYubOncuXX37Z7363282qVasoKyvDbrcjyzLBYBCv18vDDz/MFVdcwemnn87mzZsHlGHnzp0sXbo05WlLNyYc2T1rdkVFBTfeeCPTp08nKyuLFStW8NVXX7F69WpkOXmjdf/997Nw4UJcLhdWqxVFUdB1HZ/PR2lpKStXrmTOnDmDyrBr166UpiljGN+R38jxH//xH+a498UXXxQHDhwQPp9PhMNhEQ6Hhc/nExs3bkw6Tn7wwQdFZ2enUFVVxGIx81BVVYTDYdHc3Cwef/zxIcfbK1asGO9sGBUmHNk/+tGPzExPzDm3traKSCRiXqOqalKS/H6/eY2u62Lbtm3i008/Faqqmue8Xu+QZM+dOzeziU4RJpyCluizjz/+eNxuN88//zzFxcUcd9xxvPrqqwAoisITTzzR675LLrkEl8sFgKqqLFmyhJNPPpnnnnuORYsW0dHRgSRJ5OTk8L3vfW9QGdxudxpSln5MOLITffbMmTORJImf/OQn5OXlcdddd7F161b8fj8AZ555JgDz5s1jypQplJWVIUkSAM8//zxbtmwBjH7/2muv5cEHHwRAlmUeeuihQWXIzs5OS9rSjQlHdmImKqFp19TU4PV6iUajlJSUsH79egAsFgtWq5Vp06axaNEi3n33XfMZPYdO99xzD/v372ft2rWmZW4oMh0OR0rTlClMOG08QURjYyNCCMrLy2loaOC9995j4cKF7N69GyEEd9xxB6qqsm7dOvNeTdNQFMWs/Qk8+uijAHR3d5OVlTWk0cRms6U4VZnBhKvZCXffcDiMpmmmAeWtt97igQceoCQnRt0fZP5w15+IfgTRjyCyGUKboOt9Kx+tXkZeXl6/55aUlJh9+kBWugSG+v9YxYQj2+PxmN+DwSD33nsvOTk5AFx/rswFk3/Mlg+g8TBYbcax5+/wynPQWAennbyJX/zzah68/OgzFUXhpz/9qTk2/+CDDwaVYefOnalPWAYw4aY433jjDS6++GIAfvWrX3HdddexefMmmv54HsvOjeJthd1fwP/4HoAbLMeBXse2D324smDWXOM5ug7hINQdlGnxPMWZF18HGC2G0+kcVAZJkujq6jJdlyYKJhzZmzdv5owzzjB/H2nYz7anprPgNEFRMfQynFmmg5wDag3Q1ftBwgqyBYiiazrRCOzbpfDQ+5fy8ssvDynHJ598MuG8Tid0Mz65ALavruLEU5IQDSC5AAFSH6LlYlCqQa4CqQxZlnA4Yc6CGE9d9TJWy9ByjPdU62gwYcm2KfDf34eZs6G4JAnRwgbIoPsNuxcYn1IRyKUgO0G2AxaIN26SDDkeePS7Q8uxadOmFKUoc5iwZH9rrkFyUWm8Ne4LSz6IAGg1Pc55wFIKkgII0PygN4IEP/4xrHkJJAkqh7G484033hizz3qmMeHG2U6nE7vdTlluhKxcGHDIKyKgdx79LWWDXAmSFYQGegtoTbz8KuzeCSu+BaeeAjEVHnltaDna29vZvHmzaambCJhwNRuM2v2/PoRgAAa0f4guIBz/4QS5HCQL6CGI7Wbb1ib+571wpAn+836DaACfF/6yp/ejLrzwQnME0BNr165NVZIygglXs8EwrDQ3N1NTIxNVdZxOWNTPl6BHEyspoHeB3kL9YS/PPWcUkmtXwtQp8at16PLCls1WZFnrtUAgPz8fh8PBNddcQ21trTkOX7dunWl9mwiYkGTn5uYC8KnlX7E3rcaVrfHMU1A5BS74VpIbhJ9fPe3nSAu4XHDtNVBWYfyl6xAMwr6dcPBgFh0zHuOf/unPvYZfbW1tVFRUoCgK1dXVeDweXnvtNWpra9mxYwcnnnhiBlI9dky4cTYYS3YOHTrEfffdhycvl6J9d1M9I4K3G6wKtLZBSwuEwkfvKSyAf/k+JFy+NQ1CAairhd17cpj0rdew2N2EQiH27NnD9ddf3+udV199NVarNX6vxrPPPgvAlVdeyYsvvpiRdI8VE65m+3w+Dh06BBjKWnlFJW32R9n5xZ3MqPIzbQYsKwFLEg1dFxCNQrcfGg5BbY2FvLNe4ISlJ5Obm4uiKIRCIRRFYc6cOb3G0lu2bOG0004z3ZgSWLNmDXfdddeQrkzHAiYc2T2dCB0OB4WFhbhcLg5oD/HVzp8QjTYTjUJRCciSMZRCgnAIvG3Q2QENdRCruJ7qq/4dj8dDTk4OdrsdSZLQdR23281tt93GVVddZb5r165d7Nq1i/POO4/PP//cPK/rOvfeey+vv/56JrNhVJhwZCfmq8HwGCkrKyMajRKNRjksfsSne39PsHsT2bmGocVqNYwl3X7o6oKAspQpF/6U4uJiiouLcbvdWHo0A7Isk5+fz1lnnUVlZSWHDx/u9f6e8+IJrF27lq1btx7z5tMJ1WcfOHCA2bNnEw4bnfG6des4++yzAdi/fz8HDhygoaEBf1cnYX8rTrpx0YXDouKefj6FpcdRUFBAUVERRUVFuFwu03ulLzRNMyM7DAdnn30277//fmoSmiZMKLIvuugi3nzzTQDsdjt1dXUUFxcDhvP+nj17qK+vp6uri2AwiNVqxel04nK5yM/Pp6CggIKCAgoLC4flbeL3+5k0adKw56+ffPJJbrjhhtEnMM2YMGSvW7eOb3/72+bv9evXc/7555tz0Lqu09jYyKFDh+js7CQYDGKz2XqRXVhYiMfjMbXqoaDrOq+88gpXXHHFsK53Op1s27aNWbNmjTyBGcCEILu+vp4FCxbQ1tYGwIIFC9i0aVM/L89oNEp9fT1er9ck2+Vy4XK5KCgoIDs7u1f/PBz4fL6kni0D4cQTT+STTz45Nl2XMu68PEKoqiqWLl1q+mxbLBaxb98+oet60uu7u7tFfX292Lt3rzh06JA4cuSICAQCA14/FDRNE48++uiIFu3ffvvtY0ly2nDMk33HHXf0ysinnnpKRKPRAa/XdV1Eo1HR1dUlwuGw0DRtzDK0t7ePiGxZlsUHH3ww5vemGsc02W+++aaQJKlXrW5qasq4HKqqipNOOmlEhFdWVgqv15txWQfDMUt2XV2dKCgo6JWBq1at6rXMJ5PYsWPHiGOwXHbZZeMi60A4Jqc4Y7EYl112Ge3t7eY5SZJYtmzZiBWsVKG6unrE97zyyiv87ne/S4M0o8MxSfbdd9/Nxx9/3Ovc8uXLcbvdaY2nIoRA13UikQjBYNA8wDDN3n777SN+5o033sjBgwdTLeqocMwNvd555x1WrFjRj9QbbriBxYsXs3z5ckpKSpJavmKxGJFIpNeQLBKJYLVaB1yvnbinZ/D5aDRKLBZD13VkWWb+/PlkZ2fT1NQ0qoD0K1as4K233hrxfanGMWUb1zSNW265pR/RNpuNrKws/H4/O3fuxGq1kp+f349ARVHYt28fra2tCCGwWCwUFRUxc+bMfu8SQuD3+2lvb6etrY2Ojg46OzsJhUL9fMs6Ozs5//zzKSgowO12093dPaJ0rV+/nj/+8Y9ccsklI7ov1TimmvEXXngh6WqL6dOnY7PZsFgsRCIRGhoa8Pl8SZv0WbNmkZ+fj91uZ+HChUmJBkMHyMrKIjs7G7fbjcvlwul0YrFYzNkvTdPQNI2mpibeffddrFZrr9UiRUVFprl2KNx8881mbNTxwjHTjIfDYaqrq6mvr+/330033cSCBQuYMWMG1dXV5ObmYrVaB5zEGA1isRidnZ10dHTg9Xrxer1mDNNYLIYkSVRUVHDOOedQVFRkBt9LRCvevn17L4UyGW699VZ+/vOfp0zmkeKYIftnP/uZGQhWkiSz1ubm5vL000+zePFiysvLh23XHgtisRg+n4/Ozk4OHz5MXV0d4XAYWZY59dRTUVWVk08+2bz+zDPPxOl0cuDAAfbu3TvgcxVF4bPPPmPu3LlpT0MyHBNkRyIRysvLaW9vx+VykZeXR2NjIwD33nsvP/jBD6isrBxQyUonAoEAe/fuZd++fXR1dWG327n00kspKSnptfR3/vz5ZGVlcfDgQRoaGgZ83umnnz5uCwyOiT77tddeM5vAqVOnmktnHQ4H5513HuXl5eNCNBixxxcsWMDChQvNgHqfffZZP+36888/59ChQ1it1kEnQTZv3jxuITGPCbJ//etfA4bLrtVqpampCYAHHniAk046adwDw0qSRFVVFaeffjqVlZVomsbs2bPN/xVFIT8/n87OTlP2wYw/49Vvj3szvm/fPmbOnIksy8yaNQtJkvjyyy+xWCwcPHiQ8vLylCpiY4Xf76epqYnc3FyeffZZ7rnnHnJycpg0aRJgTIlKkmQ6VwyEL774IuN997jX7GeeeQYhBEVFRVitVlpbWwHD1Ngz6M2xguzsbKqqqsjJyTHdjRPOipIk4XQ6icVilJeXm0ECkuEXv/hFpkQ2Ma41W9M0Jk+eTEtLC7NmzUJRFHbs2AEYNWSwzDoWoKoqNpsNm83G5MmTASPWSzAY5IILLiAYDA6ojFmtVmpraykvL8+YvONas999910aGxvxeDy9AtvceuutEyLWmMViYcmSJUSjUWpra6mpqTFt6aFQaNA0qKrK448/nilRDWR0jq0PLr/8cgGIyZMni/nz55tTg4cPHx5PsUaETZs2JZ3eLC0tFStWrBh035G8vLxBHTFSjXGr2Z2dnaxduxZFUbBYLKYpccmSJcM2QR4LOOGEE5Keb2pqQtO0QeOfd3Z29pvdSyfGjewnn3yScDhs7qmVGLLcd999o7aSjcfeWwmbQDIEAoFeS4WSYcOGDakWaUCMC9mBQIDHHnsMMDxC/X6/2dfNnz9/1Bp4Y2Njv4B26cZgNoDOzs4hA+h97cl++umnTYuZ2+02V3jYbDZzOe5oUFNTk/EtHQYrmB0dHUPKs23btiEnUFKFjJMdCoXMMaaiKEyePJmCggIArr322jFNdLS0tBxTTXlHRweRSGTQe3Vdz5j5NONkP/LII+Yutg6HwzSmAFx++eWj9jELBAJDZmw6IEnSgGPlgoKCYRW+TDXlGSW7paWFhx9+2PztdDp7rXceixYeCAQQQgyqMKULVVVVSc8P12CSbC+TdCCjZN9///29FKieZkYYW2jnBNmZmO/uiylTpvQ7N23aNEpLS4d1f0dHR6pFSoqMkR2NRvuFo4jFYgghzBptt9tH/fyuLiOKYabJliQpqRPiSOKsfO0UtA8//LDfsMjn8xEOh03Dw1iISvikjce8d7Kuw2azDdtgkqkp3IzlTM+YowmEQiG6urpMpWwsCwDG05lP9JlLKigoIBQKmatOh0KmJkMyRvacOXOS9sk1NTVomsbixYvHNJ05lKUqXRBC9HItnjp1Kqeeeiq7du3CZrMxc+bMIeetEzNm6UbGXEAURWHevHmcU7WVu68FpwtCIcg9x09NTQ1lZWVjigWanZ1NW1sbQoiMzoFrmsZLL72Ew+Fg+fLl5OTkEAwGiUQi6LpuhvNI1N6Wlha2b9/e6xk9gwykExmdz677g5XKqTF6cqHrsOY1uO4JN7///e/5xje+MSqyduzYwbZt27j66qsz2m/7/X5ycnKorq5GVdUBl/pIksQZZ5zB0qVLiUQiPPLII4BhQWxubs5IoPqM1ey617OYPC1mhC7CET9UZNnPFZeA1dbNqlWr+Pjjj02L2kiQn5+PJElEIpEhdwIYC4KBWrS/VeGwAzKoXrjwVIm3t9UOakARQvDXv/6VSCTClClTKCwspK2tjUsvvTRjOxJkhOyu1lrKyrrjr/OAnAeS3YjzrXcgiSb+8SLYvm8fFRUVZrM+khru8Xiw2+1pDwvt2nsieOYbAdaEIL9U441fHkBaOLwlQQ0NDQQCAVzWAIG/QEPjO2mVtycy0t5FtlYZYSSlfCOKv5xtkC07wFIMch6SBD9eZawMqaioYNeuXSNSulwuF5WVlWld0uut+wykRK8nG1GOJRtYhu9Vc+TIEWMxwesq7pw5zJhVRGhTZrqdtL/lzw/mkl8kAAWkHINgetRYSTEi+wsbigKBvxinZ8+ezcaNG4ddUy0WC1OnTk1r4JovX19lxDEXASNmOYDQ2PvlkWE/IxqNsv3pEHbbccZOBpINZ9bXYOj17s+XcMriLiOOqOQ2tmpIKoUT5EKQwO2G7c8Yp5cvX85jjz027GnLdNfsmG5BU6NGOGvRBbqXkH8HB2uGvjeBq86AGSc4wJKFuZ+Fpb8NIh1ID9lCsPmZqyjP/5isXEAHpKz4dg3JIIGcH9/ABebNg9nTjH9uu+02Tj/99GEZTdI55IpGo4QjMaIq8e0oGhCxA3R5QY3C3GFUzlsvgP+6HSRLCehh0FqNzwzZCFKmoKmRbnZt+G8OblmNwmGKigXTTkps1GIDycmgZUu2gZYPeghZFmx/CWynGX9t3bqV3Nxc6urqxsWXPDGk6uoKoEbA6QiCFNcvdcjzwI8uhqf/DH/ZlyRpEjz0HTjvLCgusQIB0A7F+/9cEJmZqRvTOLtt/1Z2/mEJcxdoOJ2GgqoDWszYu8NqS0QFzgW5It5fDwI9AnpdfMsHaGmEkj67NXz00UeccsopGYutous6zc3N7Nmzh7o3/43zzthNWaXxnxDQ6YXGg9DUBL42aO+E3Y2wtxny3FCWB4tmQGklnDAP8otkQI/vRJR4i8zhzvOpXL4+uRApwqhr9safz2He3K9Yenby2N4mJKuhmEnDmOSQbSA8QAiESnEpTC2Cg61HL1myZAmPPfYY119/fcaiCKqqSiQSQVU1Aj7Qy40WS4rrGHmFoAkjAnJ2HpSWwlk6KFbjKCiE8smQmw9IOsgzQXZhsC1AC1Kanf4h2KjJrq76ivxeXrJWzKIqY2zRITtBygM51ximDAnJ2GFPC4JoRZJg91pw9Nn/4+abb2bHjh388pe/TLuzgiRJWCwWIyIDgnDY2IUgYaSz2aFwkrHdlMMOkSioEcN2lGjd8ovAUwAW+wxDd+k5GkECSxaKNJvwhzKOpenrv0dNdq6pQNqNoZPkxmA53iso8aIvWeiduCEgWQ1lTQ8AIex2+OQpOPXfel/2/PPPs3v3bt555520LxMyA/DogmjEUMh6zsba7VBYBO4sjv5vM7aosDnA4YjvPdaP6B6Q7Tjcs/G/L5N9TnoIH7U2Hk24e8lZxtBBdhjNsGyPH9a49j1SZUoymjhLoXlrjyAHvbBlyxY2b96c1nBZkiShKIpBttCIxSAS7n+d1QY5uZBfCMWlxmeux9iARpYBqYoh80K2k51/Ah0b0tNajZpsb2KqNpYOP23ZqN0YzYfFAv4Bdjl+4YUX0m4itVqtCCHQ9BiqapA9UPmSZUPeRJ9u8GuL99HDgOwgf1I12qepX+s2erK98eGhHAUtDY4DkgLypPiemkYT+dDK/pe1tLSktWYncOTIEbzt7WgxY0+wfkNjAUavaDVMqJINcAJuIx0D2hiSQLJisc+E7ZMJtqbOGXHUZMei0tHSLdqPmg9TCdll2NIxasntP+h/yckDtfEpRCQS4f3330fEQuiasYVjL7IlF1gmg2UGWKpAKgVpEshF8bkADyPPahksRbga/pmuD1JTy0dNdijUo/8RGoh0OOdLxgaqkmFmVRRoetNw47nzzjvZuXMnDz30UFqdDGOxGGvWrOE3v/kNBdlgiW+7baZeshnEWgrjZl83WApALohbBXOHN+xMCglkBzl5UyDSOvTlQ2BU2rgQgkjEDoRMmY7uW5xiSPFpURECCYqL4dXH/5VT/+HujBhW9uzZw6pVqwBwO40CZ1Hi0/IA5BrDxb7DqWENNYcJi4PoZ+XYTouO6TEjrtm6rqOqKp78SFzLBHCMrE8aEaS4xm/UblmG2bn3Eo2OLeFDQQjBvn37zM3ZbBZjuKUooFjiyhdWowlPJbHJhcHrG/7WFQNhRGRrmoaqqqiqyvTjhZFgYTHmptOZYMkG4qg3R3YObH8qK22L+FRV5bvf/S4zZswwz5XmGmRbrUZTbmjaLpD6TNmmA3qISd8Y/jTqQBg22ZqmEYvFzCMrJ95sS3IGEpxoFo0CJctw4kKdP/3iGyn1KlVVlf3792Oz2XjppZd6/Tdz0lHzp1GzE4U8nYsSBOghmrwlKXnasMjuGbQ1QbapEwmRtu76KBL9xdECZbXD5Oz32bljy5gI1zSNYDDIhg0bsNlsTJ8+Pel1M0sMohNjaKPw9bAYphQC9DBq9x70eV9Ses7GlDx1WGQniE4cobr/w1EHzhiII6D5QI/Gh2CpzgCpn6hCGM353361lI0bN9Ld3Y2maQOOuYUQZmENh8O0trby9ttvc/zxx+N2u7ngggsGlaAi39DCZSVu+hSJAphK06YOehgtsptD0n8RO7E1pQajIbUqXdf7Hfbm66DngkvRCYRBOI1hkhT3HpXiG2H2qZUjhtSfbF03alhpCVx72XIOtkv88Ic/ZOnSpVRXVzNp0iRsNhs+n48DBw6wa9cuPv30Uz7++OOkkY+HgifLUM5kKTHLF0+PEPF56dGkT8SHrVEQXsLBVv729zM4/pKN5MZXtyaOVLhHD4tsYWwcY36X5SSlWYRBCoPuj/djVsBmfEr2uEXJFnfSkxmZbijFn3f0Hk2LE26B82bBrzcJVq9ezerVq0fw3OHDaTNIPjraExi1ejg1Ox4gSSQ+Yz182Xy0Hwnxt635HH/Vfo6bZjXzuednRsgGTLIT36Ozd6M1VvefxxZgNOsxzDF4AnpcwZIcgNuYAZITQ7bBar6Idw9+41M28kyNGoRLElRPGm5yRwdFNvprSTYKWCQELrdq1EjCIBTADn09aES8MIgIoIJQjUpBEC0WpqFOY/fnMsXf3EDVldPMfO57pCwdw7morxuQkF1s2nIq82Z+gmKN62g9C68UH4/G+zeLDJKsIUkashwFuow+T8Rtx5IrfiTRbEUIdC/QYVbsaNTIcDViEO4e/UrfYSHXaRRFLWYUskgEwmENhyPuK65rRuslemanHi8M0TjZYYQeIdCl01QP9XUQyb+a8n+8OWPLjIckO0F0YtF84jju26/S3F7PrpcuxWltxu4UOB09hieKoTErijH9lxij2p3G/K5i1ZHlbiSpO94iWONm0URzIQExjBphtBJCGDNO/i5jP+yoatip/cF0ZM1R+ELGe2KqUdDCIQh0AXoUh1MDKRIvqIm5exGXPYrQIkQigg6v4bbU1gJHmmSKv7kGT3F1r2AEffO453+pwLDIlmXZfHHiuyzLuDxlzPvhX4jFYnR3NtGy7X/j3/82llgzVpuOzWF4cthtR8l3uow5XrsLnE5wOI3CYLGoSAxsJNG0o5kc6IIuH3QHjJrWNsJZVkmSsNls2O127HY7NpsNq9VKe3t70tBaMd3wQImpxjx+sNtQDnUdoqqGYg1itcWnNTFagHAEwkEIBiDgh84O6GwHf7SCKZetwWZ3Istyv6NvHic+U4EhyU4IYbFYTEXBYrH0U9pcuSVULltFbMkNxGIx1EiQzv1/pW3PG+jNu5ClIA67wOGKE+42iE78dsQLhs3e0+4MCIhpRpPdHYDuLvD7we8zSA92w8e1xqVz587l3HPPpaCgAJfLZW70kvhMEGu3282xeV9jUUtLCwcOHKC2tpba2loOHTpEfX09/pBKQdR4n0UxuudYDKJhYzimKJgjTjVmdDPBAAQC4O8EXwdYpl7J1KU3mlEd+x6JvE1WCFKBYXmXCiEMAlW1V8YMdPTMwMR3LRYj0LCNwJe/A/8uHE4dlwucbqNpd8UJtzsNjVeSjuo7mmYcoWC8ZvuNpjzgg/f2ZsNxl3LRRRcxbdq0XpMjPfcaSQZd15PK3deuEIvFaN34ALmxz8nJBXeO0SrZ7EbXJMcNLQnXYi1mFIruQKIVUii54Amyyk9EUZQBD6vVmvR3RslOljEDkTtYpmmaZlrjwq178X35W/S2bbicMRwuo6Y7XUYmyvJRbw9dM2qRqhp9daAL/H6JosC1VfIAAAG9SURBVKX3UDT3H8yakagxicwZLGk9jSwDyZqQV9d1YkEv7X/6F9zumFFAHYnu56icCbJV1ajV3X5Q5QqmfOc57O68XjL2JdpisfQjO3E+VRiR37gQAlVVByV3qIzrmYGJriDia8S347dEGj/AaY/icBqTDYrl6HBHi8X77W7oDto47jvPkFU2p1cz2LN5HKg2JJKbjOTELn19iU7I2vnV63R99gT2eJejxKc6LRYMj2DdGG3FYhAMyHgW/jvFJ105oIw9CU1W01M9hTviRQLJakSyTOtJbt+M65mBib4zIUa4bT9HtjyF2rodiTCWuFaRIFx2TWbWFb/FllXQq5/reyiKklSTTXRJQ8marFAKIQi27KLh/R+j+Q9hkYXZAuk66EICbNjyjmPaxY9hzykeUMahSE9HQIFRrwhJNOt9M61vhg1FdE9jTb93qCG6G79A7W7FYnORUz4Pp6eil+IyGOGJzEuE3hhI3pEWSuPQUQOtRP3NxIKdODwVuAqmYrE6emnRfRWvoUhP7BiYDow5zMZQzXWyDOyryUNysvuON3tm4kgITyhqgxXK4cg6mJyJz4FkHErOgVqiVOL/AurFGAg5tYUtAAAAAElFTkSuQmCC;" parent="1" vertex="1">
          <mxGeometry x="3570" y="930.73" width="43.93" height="40" as="geometry" />
        </mxCell>
        <mxCell id="Ttfk6c4jHyExXrdg_O_r-255" value="" style="shape=image;verticalLabelPosition=bottom;labelBackgroundColor=default;verticalAlign=top;aspect=fixed;imageAspect=0;image=data:image/png,iVBORw0KGgoAAAANSUhEUgAAAjsAAADXCAYAAAD8z5CLAAAgAElEQVR4nOy9d5wcxZn//67q7pnNWatdxVVGQgiZHAzGxgFzNsEB+7DPxuccL/ic7nzZ9s/fO6ezcT7nwJlokslCgAQIJCQUUM5hV6uVNoeZ7qr6/VHdk3ZWOazk/vAadjXbPVNdXV31qef5PM8jjDGGGDFixIgRI0aMMxTyVDcgRowYMWLEiBHjRCImOzFixIgRI0aMMxox2YkRI0aMGDFinNGIyU6MGDFixIgR44xGTHZixIgRI0aMGGc0YrITI0aMGDFixDijEZOdGDFixIgRI8YZjZjsxIgRI0aMGDHOaMRkJ0aMGDFixIhxRiMmOzFixIgRI0aMMxruqW7AsUKHP2X0LxPyN1H8eKM0QgiQJu/M3KoZQoicTxaZn8YYhABjdPY8UfhF+S2SmX+T936MGMcF0bAtHIYm+152tB4aOhyvMh6nMWLEOINw2pOdQ8FoEDnztnAkOgC0QBuQDmgNGIGQEHEXpexJQoIjQGkQUmAMIBxE+Lm5tOjQiBeQGKMb8QiNESPGmQjxZ1EINNzlBn5IfDRoA8oYuroNB7oMPT0GpbKnuB5UVAgaagRVVQLHCVmQAClAShAmn0hZ5Ft28qlQvJTEON4YaXwVjsPovfwxWPTs3BlhBAtpjBgxYpxOOOMsOxrsZK3DH8bO113dmtXrFG3t/ezf38emrW1s27Wfrr6A3sGAvsE0gdI4josxGkcaKkoSVJQI6mtLmNhcR0tLE+ObaqmrTTJ3lkNNlcARAkILjyVCcoQFIiY6MU4mrAPVKMCQcU5lEBIaI+xwlRK0iEdpjBgxzkyc/pYdbazvKSQYgQJjwCjDmg2KBc8ptu7sYu3GTWzctYchJVA4eG6S0kQpCS+J53kkXA+I9DpWw6N1QBAoBlID9KcGSQcpklIgTJqZ45qYe9ZUWibUcvWlSc6a5ZDwBFKE60jYHolBCIEJt9DDLUExYhw/WF2ZQBkwAezbr/nxb9oY9MFxPDzPQxBxHclQSiHMAT7+vimMHyuRrrVcxogRI8aZhNOf7EDG/aQ1bN6uWLh4H48+uYINuwZY1xVQVjqGsdVjKE9WgnQRQiJDEbLRPgJtfzcGKR1LToxAa4WRDtoIhHCRQqK1QgpBd/9+OrpbGUx3M7XKY86kCq68eAbXvG4C01ochGP5joh2y2K4fihGjBMBo63Fpn2f5j2feJgF6/dSUjmGUjeB1gYnlCEbJEZIejo38/pZVdz2k3dTVyORDhR3g8WIESPG6YnTmuxoA0EAGMPKVxS/umM7Dy1ewf4UlCUraKxuxEmUgUhgjEZKjyCMxjKh9kYYMCbI+1whJCAxRoe/WxijQbgINNJoEBqJYTDVR0f3PgaHumkqd7n6knN4942TueBcF1eCE32EgOFy5ngxiXH0KEpJjN0A3PlAKzf/y33Mn30tEoVSaQQCIbJjUAiJJ9IsW/c0P/uXD/KX1ydwzjjndowYMf7ccfpNa8aSHGOsJefF5QG/u3MZjz6/jb1+OZMaz2ZKSRXCKAQaIQzGmNAt5SMwSOFgBGith1ENy/10zu8BQsjQ2qPBpDMuAIFDgMFN1tPc1IiDoG+wm18/uY57n1rCmy+Zwc1vfxWXXeAiwy9yHMmRxG/FiHEwFBu/woiQ8LjUVIxBiyQYH1cKlAkwSCK/qjYGhItX2kRXr0EDzkm/ihgxYsQ4sTjlZCe7My1uNlcYnDDHDUZgsLvWHTsV3/3FTu5Z8AL9JsmEMbOYXVKB0gJ0CtCZVCNG61BCI0LSApjhRAeymp3s7/Z4Y6JQLRm2S+dEraQxCgKgrKSE2ZPmkBrq4f8Wb+bhJdu54aoL+Mh7JjJzml1GhCMRobYimw8l5/pzcqTEiHEkiMaUEOA4Lq4QGKUwBKiQuJuQ6BgMIlTwSCFIJuJBFyNGjDMTp5zsHI4TRxkQRqCV3Yn+7+9a+dHvFrOuW3DW+Pk0JEqRaLTRVpWZYznROU46KfL/fXCMlIptBKtMtFPWoJG4yXqmT6wj7ae59ZGXeOyZRXzqfW/kQ+8dYxcgIUCHeX1CcnMkyd9ixABGTiqIHUs2d+ZBLInCpg90jHXpytPWqR0jRowYI2MUra0yfOVPzCK0rAQK2vdrPvHFtXzhB0/RL5s5b9r5JBJJHGEwJsjsWO2JMpzI7X+OlDnrgc75voPhCHLkhN8nwkQ+Vh8RUJJwuGjqfNLJaXz+B4/y0c+vorVdW1ecNRwNv34Ru7lixIgRI0aM44VRRHZyoTP/18q+Hn7S563vv4PbntvMjCmvpqJ6Aillj1IqDYTC4ugVQUiEdMFIslxI2kgUJAYXg0uWbOSSoNzjct43BycjNvzXYIxGKx9fC6pqJnHW1Mu547nNXPf+e3lsoU/gG3ROIkNZ5LcYMWLEiBEjxrFhFK6qWfuL1BD4hh/9pp/3f+n3tPnNzJ08Dykt/bDC47DWldEYHSBt3KzNFWI0Go0yGi2s/scYgXA8kB7IJEomSGuHIS3pTWv60gH9gWYwEAwp8I1jj8MhwMFmEJQ2i3LY1CigLdJDWK2PJUdaSOuG02mM0ZzTMo8Ov4Z3f/EObv15PyokcxjQOmBU3pIYZyyiZ8g+G6e6NTFixIhxYnDKNTuFOhVjLGnQCoLA8PXv7eJrv32EqRMvpqpyDFqnMajwzOFChbxIeiHRxubNEdisyKlUF73dvQymBhj0BymVkvKEi+dISjw3c36gAob8gP50wICGymQ5ZSWVVJZW4CXLbR6e8KvEsGKgucgvG6G0pHnMdMoqx/HZH95Od9dlfPnvZyGlQIpTfjtixIgRI0aMMw6nfHXNVCsPIYREaUinDV/99na+fedCzp56Ga6ThGAQHebEsWUZhm9FM7od4aA1CCdBoHz2HdhDV28rkyskZ0+opnlMDRPHTeas6RMYP66MsjKB64LrWBFzKmUYGoKdu/rZsGkX23cdoG1/io17OtjVGlBV0cSY2nEkHY+MRie0JmUKcBXWjjYaIyGtUlSUJJnbcgHfuGs5B3rgm/82C9cVmQSEMWLEiBEjRozjg1NOdvJEwEYSaMsX/ulr6/j+/c9y9tTLwClDoFE6ZTMRIxHF0hELiTHCZkFGIVQfW3ZvpdIJeO38Ocw/ex6XX1jKvDkOrgOOI5DGEhxlshXPM80BLppfjTbVCCBQhmUrFYuXDrFq3R4WLH2BtHFpaphEWVk9BoHJa1Px+CqBQSufZLKSGZMu4dY/PQOmh2/++4W4jrA5eWLCE+MooYUVv+vw9xgxYsT4c8coIDuWDBhjbISSgq/+z3b+5/7nmD/tCmzuequ5kY6HzuTMIcyVE2Xr89Da4DpJ0v4QG1rXMiE5wKeunc01rz+Li893QYY6m2wB88zvTpFFQQvLp6QBDEhHcOl5LhfNL0eKmTz74lSeWLSV2x9axvr97bQ0zcL1vDBZoS0/4URia4EVSuuozRp0QNLxuHD6hXz/kZeoqprAv312nC0oGrVNK0DayC0jMDK312L82eMYyYx18UocxDCyHyNGjBhnCk452ckmC7QamD/cn+a/bnuCOS0XYZzSMNlglO11+PnRzlUiSTqaLbtXIvxu/vp1F3PLTROYP8fFkSBcUIHCcQ4/P2zGxSZ0uKhIkBKhrPXl8otcLrlgOtdfM4Vf3r6Tu55cinErGT92GggPYwRo63YTQiJ0YSi7RmsfSDB/6hV8444naZlwLbe8uxYZ3RkZbtFNvBLFiBEjRowYR4NTbiAQIiv0feY5n09//feMbz6PspJKHGGFyEYHaO3bLMa54eWhy0hKj6G0z7LNL3DJFMlv/uttfOtfJzP/bBfpggj5jeMebSL8wpB0K6R2XOsKm3uWwzf/ZQq3f+tGLp1ezsotLzCYGgLhhaHvZIiOyE14KCRCRtdgmDXhbD75rXt4/Bnf1vwCS5jiMtQxYsSIESPGUeOUkx2jLXFoa9d86p9vo6xqGtVVTQRKo4PAVh6nWEysJR8J16OzZw87di/hyze/kdt+/AauutTDTQhcD2zZiGONqc0nOtLJyoUcBxIJgZeASy9w+e33X80//9Wb2LPnRTo7tyGERpnQjSWifD1Zi5RSUdi6IVlaQ+OYc/jb/7yPvfs0SoM2tlSGkBQVZMeIESNGjBgxDo5TS3ZMKKI08MWvr2F9fzWTGidjlG/zfwiJIxyEcGy15lCg4AgXKT1cx2Vb+076Ojfz4396G1/6VA3JhMB1ssYQKeUhQsMPhZG6KBTymOyvUlji8w8fr+f7X74J3beW3R07cbxyNBIfMFLmi0alQAvQykdrxcSGcewZ0Hzpq8/j+5bcmLD9QogM7VKYuJxojBgxYsSIcRg4pWRHY2tJ3f3gAH9YtJJzWi7EVwZM2i7sMsftFJpShJBoNI6E7W0bqRMHuOt77+LGa5JIFxvJJDOffgJbH7GcqH0apMagcV3BDW9KcOcP30+t28XO1jV4jkRKNyu9MTqbiTnnZ9pPM3viPH6/eD13PeCjApP5c6B1NoFhHK4VI0aMGDFiHBZOKdkx2ta7+o/v3c+Eusl4QqPD+glCgDEBOpewCInWPlIYdnbsosJ08tvvvJkLznVwE7YietZqIrGhS8UIz3EkQXn1rawlSUpIeoJz57r84da30iBb2dW2BSE9QOZHvRTU85JSoGWCKePP59++ex87WzVCgNLHw0oVI0aMGDFi/PnhlJEdbewC/rXvbmFbf4KxDRPDyCSdKbugtc5YQGRYkTnpldDRtYd013p+9+3rOWe2i+vZsNli4ePHGza9fvaVDxmGnVsLk+vAzKkOv/zWuynTHRw4sB1pgoJcPCGi94zCGKiuamT7oOHbP1xKOm3ivDsxYsSIESPGUeIkkB1d8LIkJ9CwekPAXQuWMq15Hinf/l0IkcmCLKXMiIuldBDSpXtgiI4D2/npv9/MBee4yJDkZEt35kAMe6fYUUcEIUT4slqiws90Zc5nh4kKz53rcuu/3kB3x0qGhroB18bCGzGscKmNTNOYYJD5k+Zwx5PrWblWIUzxVucE5o/Q4oNZsXTmvxOGjLfPfkeGJGpDXhXUQ56f82/s5x2fdg8fn8W//+DH6dz3TZFX0e/KTahZeGxeOdwRPu/IYXIsiafGFXqIfi7or5F7/US7qXO/p1j7in+3Hd8qM84PMbo45PgbJTjIyC0+Ho9xnB41Cp/VYvctbNeo6O1ic0XR+aPgeo7TeCl6L4/ovhWZx4p97ijASbfs2EkAtDb88OdL6KOU0pJKu/gXgUAgpcTXGkdo1u1ezufe82auvdpFylCjM1ohwJFWxHz1FS6ffe8b2bj7lUwRU0ceLBReo0gw5Dbyk99tJTgIL5A5/y/8jPyfw/+WH2f2ZwhziKsvcFMePY7s0c8efabdoTPpeka6p0d7faO3X4Yn3wgx0sJ43J6b4ww9evv4kDjUXHXKMFrblY+T0EqZ9xLChmCtXKN4cPFmZjVPJQgGIax5NQxCImUC4STZ1raRN80o5x8+Vot0xLBqEaMRRggrnHYE//CJSbx+7jR2tG/BkYbAHMKyIVxaxp7Fg4uX8/KawBpDCg4ZuQsOd3E9wYuPCJMyHq2FrXDSzNFkyePR7oz1r6Afhk3i+eO4cOcyzKI44mR/iP7OnFOwW4r6MdOfo3HvdGgc0jKQ128SiR55oY3OPaEWBJnfrkMs4lpE5To0RuiCUTPS5w//66i8u1HUKQcZwSfZmhPZdzN9lavZRA6/ZyebgB2qPwrHVdFXOH/mXcvxmbeHfUr0+Yf9XBWWbBrhc0cBTnp7Ai1R2nDXnzropBrHK7XWj4M82kpr0Gn8oX38yz9cg3Rs0c5RuXMYAY4DUgq+/JkLSfduIUj3IaV30HMMEtcroVc53HnfGoZSRdjOYWEkonEybn/x7zHiNEgKrW20oNKgVPblq/x/Kw1aS/s6bFfTwfo+srqFNzuPAI26JfCoocP/mbCfdUE/qwCUknnvaRUea2R2pztsHJ3kPgqnL63BKIFRAq0ctHLyrye3/ZojGCujDAdrb3gvTtZIzX2KdNF3c1BAeE7a4lcs8z9H0j+jjTYcBkbhuD6p5SI0VsPS3Wd46OllTGuajdICOJiFQyKFYvm25XzodRdy/jzXEh3DaUF2coepdGD+XIe/vvZcfvzIBmZPfTUoQmG21SXlayo04DOpYQKPLN7CX++ey/QW6/qKtEwakfcdxpgwYksWeS+rmZGnyP+X2w6rzzKHHWGmtT5x7daRKErY/E/aLkwmbOv+LsOeNk1vP1lhuhDUVgvGNwkqKwSOtEJ5I8CJmikAsmJ2kbMY5FqmDCrTD8XtYIXvnH4ToDEGKcIc4uFkqMI+Doyhp9fQutfQ1W1d3QLr7pZSUF8jaGgQ1FWH40eAI+2mp7AmsDECIXQ4to42a/pIFxH+zPtCO3wyGSSAvn7D/i7NwCAEviHhCsrLobZaUlZqNz4C61UxRYIrRKRtGyV++txgjGHPa5QgFZPRgRkMzkmZoKXtqzAHmc68C8aoYXMhIjtejmTuOWoYK9ws/K7w7YOfmtfOXOZQeKXHF0c0J6OReaazaIM2OsZtLk5ubaxwEXnw8f3s6OxjaksF6BQH831rI0gNHOCsavjsR6fhyNO3eoIUkHAFn/7wq7hr4Wb6+rsoLynJLPpaq4JBptE6TUV5LUs3b+aBx4b4uw+V2z8ZMWJGZU3WK6jDY4WMHh47MP2Usa5AbDkNIU7O8mnCiQkh0BqEERk9kiPtJJA91rZLhBZc6ZyAFka5IY0g5JyklGHZCsULL21j774+drd2s6O1k56BgIG0Dh0rgNCUu4ZxjbVMbq5iTF2SuXMm8uqL6xg7xk4BrgtaCKRw8haMzHQVLvZSOKSD7AQY0X+jbSfI0HTtOoRm7dMH0aStjb3nKjAECpatVLy4bCvt+4doa++mdV8P7QcGGPSNvR+h6U8KRVWJR1W5y4SxlTQ3VdFQX8E5c6Zw0XwnSzRDXqO0wHNOQGFTY8ekCa8pUAYBtO83vLSij3UbdnOgK01rezd72rsZTGn6hgKUAU9oShIODTVl1NdV0DSmivq6Us6ePY7z55VSXSlwPNs/CTd0f4+SNBNBQJakQpj13hJSNyT4ykTPrkE4AscRI5D24wxDaCaGdLhfUYElyIYCohs+f44Q1qJoToKHQAgQ2WCAwAckaHVws4eInnljSxKByCFvx5Po5HxWSNoRAuWDPgTp0cYgpLS1J6Ul6KNkyBbFCSc7UcSMBNASP2W4574Xqa8YgzMsoiafsRokiUQJa7dt5IvvOpfJk5yczjxxzPbEQIf6IxjfJHn/Da/nq//3JPMnzwXcDOEpdp7GYWztVJ59aSOfVueSCLeBeTun0NIlQhLhB4af/b6b5at3kSipQToCrX1cx7VumUDjiB4++t7ZzDnLwYjhm8jjMlkV6DGi9hkDQWD45vd3smVnP6VJS/qiQq1KKYJgiKoKj7/5yBTGNkqkPgEbhjCHkQoMq9Yp/nDfHpa/spPNrR20D6Yp80opS5ZTVtJEosylsjw3ek5i0Gza38+KXd34/gD63nVMG1vLvJktvOfGaVxxoYvjCnBydsThvTLaRiXecX+aJ55eQ3lZbc4OTgIOfqBQ/gE+8O5zuOBcBy0FchTumkaCxo6rtG8ve/ELPn98eA9rNuxgY+s+Ood8pFtGTUkZpck6SsuaKRc2n5QlgbY/lFK0DaXYsr6PgZU7SQVpKrxVzBzXxNTxVfzFG87imqtckkmbQf24LbQFj2QQAAI6OjUPLwx49KmVbG/tYVNrB4FxcR2PsmQZpYl6Eq6LKHVxEWgMPYHPvvY0Q7sHGEx3kvIHqHCXM21sA1PG1XL9NWfzxqs8RElI3OSpnd0y5MbAfY/6PLRwO47nhtGoEimy8XxaKQKlMEbx7uuncPlFLs7J2EoLS4wD37ByneJXt68n0BUIaZDSybqCAYxEa0Pa7+Etr5/FNVe5aCNO6OY514KTShtWr1X84g9bCLRd20TYruzxBt/30UZz7Wsncu3VXsZKnLVSHk8amf2cKB3M1u2Kn/52Mz39Lm4inzBGQTWBCgjSvbxq7iRuuamK0qSwu/lCbcIoIj/CFF9hjxtyyY5SknUbFTd+9E4q6maBU1Uwudszcv8dKMHAgRXc/aO3MnuGg3Tybg+nFdkBMBKlYd1GxZs/9AcaxswFtxpHijBkVRc5S6Lx6Nz7And/9zrOm+fa9TJ3Msxx6/kBfP5fVvCdPz5DQ/0MhFtBoAOEEKQCn6TroRH09u6iJbGfP/zo48w/x6XQcHIiyA7YXeDAgOHTn3uEXy3cSH392bjSQQqBrzVeyLrSwSD7+/Zx1ZQqfnXrW5gwTmY8TcfaJh3uRJWG514M+M3tS1j08h52DLqMrZlCVWUDSAcHgTYaodNIEdpbMn4TCdIl0AZXumitEVLQ29/JrgM7GCP7eM05DXzgPVdw5SVeNhdU+PIVfOPWbfzjj+6hqnY6nleZVyjWIDEG+gbbqfJ3cdcPPsPlF7s4h/DMRC6VO+/v5DP/vZDmcRchCRDkBAFE40xIXDQbdq7hvz99LR+4KYFzcCnZYUET9q+yDfrjIwPcce9zLN3YRUe6hMaa8ZSV1eI4CTAGgTXVu4AyASrcVcqCzQ8yuxU3OqCvv5sD3btxgw7Om1rHNVfP5abrJjCm3u5UZU7pmGO5GK3tuN2yXXHb3et4+Om1rG8fRJSOpaF6AhWlNSiEJTY6QBiNKwXKBFm3gHAxwlqrHekQGA3aZ2iwl/1du0iobuaMS/LGq+bwrrdNo7lJ4pDznJ/khUNrSAWGH/18K5/77v04ldMoLylDC4mMPLnG5kVzEWij6BjspSy9k99+/Rbe/PoKPPfEWuJNqPNa9GLATZ/8Pl2ykcrKcYBdkL2cCcgIiZQeA6kuhvq284PPv5+//stKPIcT3rcpH55fGvCev/0FraaemtIqTJEgC4lNbdKdHiTds4mffemdvPedjTju8M3o8YZS8Mp6xbs+9nPW9iSpr540zHugjcELo6NNMEBX13Y+8qYLuPXrF+MVmzdGEdk54dzb3kxjkwQCjy8OaEsnOcsrQ2mFyISc57LbUL5lNG37d/Gmc2dy1lRr1ZF5Wp3TheiQYe8GgyMFs6Y6/MUlM7j9+d1MGD8Go1JIoZHhIqSjiu5IEC5CSHpSPqtf6eRVZ49BuEVU9NiFbsNGxd0LljNn2lWUJEvI+LDyjpc4DfW8tOkF/rSgjXlzJyAKNDHHpXeHWeJAGMmjCwP+8MwGLpr9GrQoK3qqFpIp8mwWvvIgf3xgPZ/44Gw4VrKr7U5QaVj5SsB3f/YKD7+4FiPLaKqfxryxtShjrWBG2bIlDgxzHQkCjJGgtX2ItAqtl5qq0lLmjJuBQ5pHV23lT3/7O95/7Wv44qcnU18brlwGensMdz60lBmTL6W6qh6tGaZJ0gaEbuSVHYY/3Lueyy88m0Lr/LHAGINBozAc1bYno2GBUJWHDm+6HxgeeCzgl394icVrt1BaWsuEMbOpF67tO6HApPI+y9JJHe6GcxsUfqpOZ94RaGrLK2iomImvJrFuXzuLfvIcv/ljJe97+2v5yM0leEKgQhdtrkEsb0sVRbsR6X2icBSREafvadPc+os93LfwJfYO+DTVNDGzpQFlRDgOUjhIa41CW4uhKbgWk0YYS2CMsiQToKK0hKqSqQgCtnfv42u/fYnfPrCOm669lI/cXEd9jQQvO9pPitYE+5xs26H51i8XMGvyBZRXNtlgkVxkiI9t3RTpsKfN47s/fYxrXndD6G4/Fjt84Zn5ngAjLCH7+veeIVU2i/njp4KQmNDCoHPbmxkA4+jtn8RXfvBHrr78ZqZMdnAcW47HldnPPl5Q2rqt/u2/7iZwx3DRpPNI+6nhz7rWOFJitMZxXbq6yvnajx7hsktuZnqLgzoBOqhoU+IIS25/+MsNrO0t59KzLsLXRfqwAKZpFr947DGuu2Y+174umdkDjkaceJeqsZOGENa2vHTlZrxkLcXz6mTLRYDEFRqT3s+bXzsdQSj6PMlq/+MNIUTGCnPFJdNJpboBcB13BDeWJX8CQ0VpFU89twYVCgeGHR/6rLt6DDJRg5OozvZzlLwwJ4mhIkF5eTOBLkcHJ0e0bIyt9dXTZygtn4ARCbSQRV8Gl0CUUF7eSKATBR6Fw7/7GeGoAq0FgTJ876c7+MtP/x/3LNtN87hLmDjhPJxEHcqE2hoTAAF5I62AMAoRhhIZbY83QfbfQqJEGRMnnE9Ly5V8/6EXue6We1myPAi1SjCYMriJWrRbhcHFYGx6gZyXEBKcUiorxtM76IzqMa+RKCVQCvZ1aP7+y0v40L/dzos7faa2vJqJzeegRIklB4DNjB4gM30X9ffI35D3MhqERhkBspya2qnMnHolnWosX7j1bt72gcd4bmmQjXw6DAghrLVAi0wE1a/v6ODGD93Lt+9/HrdiFtMnX0555UQUyey1oBEZ61luO4tfgygYW1pIlCihum4601peTb+cwFd+/Rg33nIn9z3q4weRTggwYtje5XghmxneMpT7Hkmxy6+goqJx+HeG84gO9WTRdTQ3TuGlnf08tCCwi6k+htjP3Ki7YX+zn/380oCnNuxh1qTzUCKJNsJaRTPaOhnOg9ayg0hQUdlMe5BkwTMdGfeNcwIIpNYaNDy/LGBtq8+EppmkAwWOG85xNoIzCE31RjhoIwg01FQ3s6nf5d5Hh+xccALMJIZwLQE2b1c89sJGzplyOb5JoLUONTyy6MuIBNKrora6hTvufc6SuuPewuOHE766ZSJMDKQDQ1t7JzXldfiBQubZy3Xm+GjnnU4PML5acPlF1oxxgj1uJwjhhJYrWBfWvP6aK6qZ1dTA0GAvxvg4UmQW+tzzBQHCBNSW1/HK5nYOdIXRKsUeTgGeB650Dmv350mJ4zjIE15rw053QjhgrAjTPZQ/BqvZSDgOzvmlyBMAACAASURBVDABwJFPnwartXj/3yzlH/93IU7lbGZNmI0QJrSsWZF45ErMTi45k2b40xgZWidGeEVQaRzpcN7UC9nWU8oNn7yNxxf6GA1JFxKei5PJGi6zZClqc87viaJ24tECnXELPv2sz5tuvodfP9XKtEnn09I4EUwaPxi0h+b0U2a8F/SbNFkrZx4Kasmp8DkQlmqBGqC+qpZzp13My7sUb//k77j93vRB4z0Lr0OElrfObs0H/m4Zn/zWI3TrBi6edgEVJSU4JhVa9vTw+304KLjHuWM5CFIYlaK2soZXTb+IXYNjeO+Xf8Nn/3WdLRsTuY+O08xdlJKZrGXuyedWMql+OgESIyV5/+VMx1F+IYyPFhK3pIl7H96ADkwmouj4QGZeURL2J57aSFmyAm13Mwe1UGrth2MloLmyngcfX4FRJsdbE342x2nhlnaMPvB4G4OyBuFYd7bNqxBkqwWEhysVIBwblRsYSXPtZBa9sAY1jK0fnxY6Vj1NEMBDj+9kc08viUQJfqAOOcgEGqWHGFffzNJ1HWzbpY7OOnyScMLJjq1vBRhYtUaxvXUvlSVVSKcEpYbfLBsW7SAdlwO9HcycWEVDvY0mOhOKYGqtLZuWUF8rmDWpia6+doweIalipjaYJuEm6Bp02L1XM1JXKBUGAEh5WBOMr3UY8n4MF3WEiCJqD6d9gdIEWttQ3aO8/QarY3plo+KGv36A+1bs4expV5Asb0Ybx5JJYbALtjXf5y9iRSaVw1rkNEb7GKMZUoKWCfNIVs3ig1++nVc2KkpLBYHx0GF5gWIQQmasnaOS7Ec6LC1RAdz9YJr3/cOvaUvXM3fKpQhZitJRGPhxeH7z+jyyUBrrLRGgdRCWafCY0HwOybq5fOmb/8eGzcruniFjAc24sKLPMmGuJAXrNytuvOUO7nphO2dNuYL6usmktcEIgyGwZWryxCiHGgsF5DxH5J4Lz3Us+dYBKSVoGDOLGVOu5CcPL+cdH3yc1nadyf10IiCEnWuVghdfVjy/fhMNtc02Oq5YeZcC4mZ1a0nG1E1k1cbdtO0LO9gIzHFutDHQ1aN58rm1NNU1Y0z0/Jp87aPJJwa27qJPQ+1YVmzZz6p1KjzkOD9f4ThLpQwvrNpGY91ktJFIMbIVPVuOyOr1xtaO4/m1m1i+SlnDZwEpO1YorKXdDwwvLN/OhOpmlPJxDyvyVeMKg+OVsKk74MEFwXHvwuOJE052pJBhqCKsWLWdfQMpXC8BRFYcHb6iyEBr2hPCoau/i9dcdjauM9xsO4pdg3ko5N+5lculI5gzcwKDgx0IApRWOcfLzP+tnz7A8RK0DWhWr9Mjlo/IXU/0YS6O5hSEDGqdjbQ5GGTOgnI0a73GLgyrXwl418fvYUtXgnNb5ltSrYesjiKyh4Ml2tJBCGldSOSa9rP/zrbPQ4SaKuv+0sgwMMH+bl1iUhj8IMXExvG4pWP55JcfZ+VaRVPTDLTyRyQCxlgyKjgxZD+aWB2OnkymFSjf8Nu70nz8P2+jvHYuLeOnkQr6McbuXqO2R/2a7d9svxXzzcgw+iM/z4sMf4ITuieMAWU00k2EJn+D1j6NdePYO5hm85aOkTI1ZF3jCtCwaEnAjR+5nbX7K3jV1Pl4QqFUGq19tPKteV9rjLLttpoGnTdm8tsq87QuQto2izxXvv2MKOeWPdfgEpBwPeZNv5hFW3q57oMPsH6rOm4ug8J5NNqc+oHh/kdWI9xy63V3hO3TyIIzEtEXNuKpsqyal9v28qfH2wjSDBu/h12TL9cintvO8LXg2YANHT4VpZWghzJ1CyHfKpo9y/4UBEjh0alKue+RA6HWROQddazQ2HnuTwt6WbVzD1XlDdZdrQzoSM9a5Lwc67JCkCbBI0+sz+ZyOo6EQiDQBl5epXj65W001Y9F4mMil/whoFSAI0tprGlhwbOrUX5O40YZ8TkJIo1QHwsc6EojZBKlc0TIGWTdWPZmQ1IaJk+ssQ11R+nO9pAoRssiNwlc+KpyKqUf5lBwhh0TnRtlrRBuOavWto/qfAajBdrYyWbjFsU7P3UH+00DLePOxle2bIlAFXmgiz/gVlMTmc9FARHSobXKQ8hE+L3RPdZ5nxsEARPGTmd3Xymf++Z6eoc0VWUVGYvm6QRNJMKF2x/w+ex//5axTedSWT2RgVSajK4mg+HTTUQGhHRD92BIGKW1/gksecwko8TF4CKEizEU9K4ME086+DpAOpLWfVu4qGUCV17aWPyZESazgGgNTy8JePunfkqPGMfUyefja4HRAQJbyy6z2JP9KUMrqtYmHAfJsH0iQ9A91wuP9ex7ws1xTRTXhGE0RiuU0fhKMqvlIrb1l3H9h+9kzXpFEBx/Y4SUNlq0t9fwxLMbGVc/PjOGhZSZNuqc689rcnjBaeUztqqJRc9vQhtzDJao/HVCa22TfRpQyvDggs2IRANauCFXOUz3jtEo4VJXM4nFL20gCKzl8bjanowNN1/03Ca0LA2jCzkiH6TnSJrrxvPYM2vp7TXHnT9IAG14bFE33abCvhMRncNopzB2U11fO46nV69j6UplE4Wqo9ucnkiceLIjslbEzu4hPK8Eg7EPkMl5AVHkgutIlBqiJukypi5hEwmGfx/dEqjDRaT9gEnjJGOrSwiUj29y/jbCeeXJCvZ1dNnJGRj9/XFs7RNGc7RTkNFwYL/mvZ+8k15dycSxLfg6jREKmbNoDXdJhfqZ6CUsiUF4DPqansFB2rs72dt9gM7+HvqGhvC1AzKBxsPg5ojA8zJ9YIQgrQ211WNp70nR3nkAz3WGZc8+LRCav597MeDjX/klzWPPo7qiDnSKUte1Vpdh/ZoPI7DWGFyGAsGBvm72dO5la+t2trZuZWPrFrbv201b1z66BgZsjiYchHBwHRewNagyn6exWZedMgaHeujpfIXPf+JqKipE1rKTE+QQGnNIpw3rtyg+9MU7KaubR0vTFJTfn7G0OMINiUWOKNfo0EqD3agIB2SSwDgM+oruwUH29XTS0b2f/b2ddPb3M+grhEzmu0hz0gBkEI5JWz9PY4xCBT4zx8+kS1XyV5+5h9bd+tiFyib/ZbRdqBYsDtjWbSgvqQYdgNYoFViyByNaZRysldiVhsbasSxatZvV61Se5eRIUNwybtu4d59hxbptNNRPspn4tc5qvXICBTLRqAV6L5DUVTXz8rbdPLkoQPkcV2uEMbBnj+apFzczZcw4VDCYXfcyVxdeV67+Kec3pVNUVNSwvt1n0ZIge2p0z44RGpsC44nFLzOufipKJI5Qh2ajJKV0CGQJTzyzFT+wFsDRlg7sxKd9Cn31vjLs2duL63g226mWRZlfNOEPpAZorq9hWouTySsiIuVgZjE6vSGBqkpBVSm0Dg5RkWxA68JcKKGpH7vL9dwSBlIqJ3fT0feDEEdPJEYzdPg/pQyf+fIyNvQkOKdlNr7JZqpWURHWouUEsguRY4Zo72yjd6ALB5/xdTWMr6mkNOnhSIdUeoCu3iH2dHTTkwooLamkoXosrlda5Gm3Lg8hJIYE5WUuEpswj9AFcroQHo2dzDv2Gz7xxV9TXzebyqomjE4hjSZQh9KCSUAj9RA7926jb7CTqfX1zBtXT111A9VVlZSWJFAK+voH6Bvop72jmw27NtM+kKaxupGG2mZrQcGSHgkgbT96jmDZtpf4/Dtfwxuv8qx1KOd2RL0srH2Prh7DB/7udrpMDTPHziSV7stxbdpwYGO0NTflEB4nvA6XgK7efbR3tSNJM7a8jMkNNZQmXZLJJOn0EANDPrs7ttLa1490Shhb00RZWTUKN69PcpFxM0q77Kd8w/QJc1m/Yx0f+cLT3P+r11irlzwOM6IIv17A7+5aRln5eBvpFpbecN0kgfaJ5t9is7DS1kWkjcbxStnnJ3jiOZ9z5rhEeY+y13qUzZQ2Cej9D+9k7b79nDP9XIROMWIx6YNAOpJBEixYtJarLj8H1x0WlnDU0AaeWarY0Bkwr6YcLUPzof3rYX2DQKC1i/YauP/xbVz7+hnk5lQ7JoTNWfJSwIY9HTSNn06W/h9Er5gDKQQKjcQwqWEidz+yjFveM43mRtuPo2mVPuFkxwirmRgYgL37eykvrbdmf62G+bchEigL+ga7mTSliYry3L+O4MAdxRjpZkvswzCmRjCmpoSdvX4mVDJzjsixCoS7Ssfx6B0YIAgMrjuSzsP+dOTwybMQNitKkWMKdsFHj2Mf7uIwCEB2p2m/L+0bfvjLNu5csprzZlxFSimkzGpHnJDkCCEz4nBtwHGspkrhsK1tI87gbl57bgtzzzqb2TPHMOesKsY1SspLQEhByjd0dRk2bdMsX72bdRsP8NRLG1jf5zKzeQ6lJeUEKnTpEC6Oxi6UIiwFQcYlVtx0HOWoMiewTMTIeXYi+6GMDgTH9lWgDP/41RVsTdVybtMEfJ2yvv7IcqJVRpgsjd39aa0w0sUIl217NyEGd/Gm86dz2QVzed2rm2ztt/B8I7K6M1cK+voNK1YrnluylSWrW1m4cgmJihYmNk6zOapC040g4JWdq3njnKn8++dm4DrDuzV6MiJ3yCf+8QXWdlVyzuTZBP4AxijAEo2obJojspE6ERyZoLWjlc7urVzQ0sDbr5jFWdPrmTenjskTHMrK7C1WCvoHDVt2aNas6WDDlnYWv7iZF7ZtY1zDTBprm0gHvk2qqFVoBbGtzCXArhSkA8XMCbN5YsPTfPn/reMrXzgLNynCPCyFN/Ewnz+RdYmtWhuwYsseGpovRBqbzVcAgfazOpMRnkkRRk1anaGksW4KDy14kU/ecoXNJH5krRqua4ksUAYWLdnK+JrxYJQVpxtGNCfkL93R3dcYnaJlzAQefX4LH9s3l/FNgoQXuqc5Ap1cRvxuQNoZNQgM9z6ymrrqSSiRCLlkoRUvIs45Vp7McVGWOoex9S08v2oT7fum0TxWHrvVxNj+MgoefGQlaZJI6drnzWRHuSw6J2QRRQ5rnaKitJrlbZrHnwn4q7cnwrng5FakOhhOeEuivDIHujUDQxrXkRgThIK1XOtOVrOjVJpU4FNfV533gJxxCC+tsa6K/o0HqEYcfBIQEuF4DAz10ttrKCk5tr6Rxr6EOfSgPj1gey8IYNtOzTd+/ifOmjgfJROgUiOeJaSbyWXkSUNrxzZ6+lq55vzZ3PDGy3jrmzybxdaxqeWjZUhIcDxBaYlg/DjJZRdNRqtJvLT6HO75Uwf3PPEc24Zg9sS5CCeBHwoXRiI1oxnR8iAduxs0Gh58POD3z7zMvBmvI8BgdHrYdQkhrBZJKbRWSOkwlOpm3Z41vGHOVN5z4zu54RoPTwpkbrbdyF2iDW4YuVJTIXj1xS6vvmgGqWA6t993CXf/6SWeWLWAsTUTaKwbh5QunT17qQra+M5/3IzjiPxM47nQ4CvD7+7q5p5lmzl3+pWktUaE2cYLLW0Cu6Y5QiKlpq//AKv3rOe1s6fy1ve9jXe9xaOiXOC4VuwtJYjwVmvASwjOnyc5f24TWjext30ut93Xz/0LVrB00zPMHD8HmSgH6dhcWsWEuVohpYdvYO6kefzgnsVceel03niVh+tFm8EjJMXR94RE4v6H19MXCOoJ0wKYnIXviKYcSVVFA6/s2szLqxUXzndtUtBjnNIDBU8/F/DY8s1MmXQx2mgMNiHqSBomDSNEV2rKSqtZumUjDzzh87H3JtEqDIwY4R4cDMbYnYwBXlqlWLhqLS2Tr7ARdiYoau09GESYI6i8rIJVuzq57e7NfPrD0zMlg44JGgaHDEtW7KGxptlerqH45vcQkEYTIKmumsRDT6zlvW87l5NdevNQOCkzrhDQ3W3oH/JJegnr6x4WGhEKFYXEkQ7GBJSVJk9G804phBRUV5cSqMKwvRzNSA4cx6N/cIjePnPc/LanMyKffpR4Pcwzx7/810v0ueMpLasHnUYIG51TqBPL5LeRCaTjsmb7aiZU9PPjL1/Pz799Du94S4JEQpBwBa4EV5IpfAc50XLYvyUSgovmuXzti0384Ttv5W0XTmTjthfp7+/BdUpsXpnQmmYOIxrtlCMnqZvdrds2Dw4Z/vsH99NUOxFHOigVFNVG2JBl68N3PY99PR3sbl/Lf7zvEu7534t5x1sSJD2B4wxfVyRkiE5kXnGFLa6a9ATvfUeC239yMT/9p7cyvd5n1eYlvLBlOeu3v8DXP3c90yc7OGLkSc4Y2LVT85VbH2Rm0wycMDhCCzJER2c0FtoSHelihGFH2zYGuzby1Q9cxp0/vpiPvidJVbW0bpBwnBiT6To7Tpxw7DjguDBunORvP1LJnT+6nM+98yL2tb1EW2cbRnp4jleQKDt7FXYcByRLqqhvOJt//H/30d9vLBkxMGISvmLI7XRj7+vTS3ZQVz02dPDlWCKEzGpiRsorBTljQOM5EiUS3H7PCkwo4D4m+2S42Vjw7D76RS3SLQktOwVEp6hGZzik0RgcGionsGTZxoyrzQZfHgGhiHimtGkQjIanF21FyKS1aGb0XvntsBvOAv2q0Zn5TGsFJkBrn3G143h6yRaAUKR9GPPHQdYIY+CO+31ebu2jqrwWFx+nwBWo0fnaRgh1WznvR6RYuIyrb+H5tZvZtDW0th26hScNJ5zsRGHNvg+DaauTiHIMFMvboLWyugY0nueNOkX3iUBFWQJtlA3TL3pLshOKXVgMab/IYX+myPRYyHweecrnvqVrmTb+bLS2488YNUIGUhm6WdIs37iY6y6YxG0/eBM3XltCwhPZBUqYonOfzSsSWnqETU7meuC5MP9sl59843z+8+M30tq2kq7uXZbkC2nrIp2GUEYQBIbv/6qHlXt9JoxpQWs/1OcUe1ituDbpJdjTvhUzuI1f/Mfb+LuPTcFxwHNCHYe09bEKYTLaKpGREhhjkA540laEvun6Gm7/8Rv41t+9iw9edRb3feeTvPMtlbaeULFbHprwtYJv/HgLrX45NdWNGTGyjaSKQsoj2FEmCNi442VmNBh+/5138DcfbaG0JGecSPudCjOMaNnFS4d5VmzEmedCQ73kn/6mhR//581U0c6utleQQo2YMdxaywR+oGiom8z6zhT/85NXSPvmmDY/xsBjTwWs2HGAhuoxiNCZoocRhRHmqCJQymdc3TieemEz+7ty21coPT6cBtr71tGleeaFNUxunIE2zsifU4zgFOYFCj9zXN1EFixbxeoN6pj6MHJ79Q8Y/rRwFfVVYwE7JrLPx/B25b0TtTu0Ntv5K6C+ZixLN+7jmSUBIyaVPRyEBEgbePSZtZRXTEQbiVJWjzUsmWduf434lXbtcqRLrw9/fHBTWBfv6Jp4InDiLTtGEHEa1/EKwquhcNBHmXL1aM5OdJyRSCSKLBQjTQaSQAf4I0QO5E7up2eo/pEhM4CN1Yb5geF/f7uQmoqxYfp3bUOHhVNkNypBuig1xKrNz/H3N1zKz79xLuMin7jI3gUzQlhqNjmYDl0fZO6L40DCE3z4PSX8+N9vYt++5XR378Vzy3GEi3taubLswickdPYYbrt/EWPrZxHgEelKik2+wkBCSnZ27EEG+7jt2zfwpqs8HCfspvAUK7IV2R1yOCELnKwgM1oDRNbdm5DgCaiuFHz4L5N8//+by7Wv80i4UZhv1PrwXGPsrljDilcC7ly4lBnjzsFXNvAhcjdoou+TGKyuypGCV3a+wsWTK7nrR1dx4XxblNWRdofuCDIEJ6+GUc7u2o6XfOmmNOA5gmuu8rj7x29lSkUXW1s3I9zSzHHZ3EJhLhitEELgGMXs8Wfx+weWs32XRhls0lKy9aEOeWeVbZ9Shoef3kE6UYfGCUP1c6wRRod5pSSu9BgYSjGU9sP3sm3MtfZINF6ygi29gvsfD1DavqeRWR3YwVuX95vRsOj5PpbvbKOivA5twqzsOe0UwqYykNJhYChFOu3jOjYXlgw3jtFzbYMFXFyvhK7A4cmnd9rSHBzd/BmVw3nmhYC1bSmqKuoQJrDSDREF1+Toc6TD4FCK/lQKV3o4wg0tdGHyWaz12VqgXA5QyWOL9lnN3DESiVc2KVZs3EFddbPtr5znN5I4GAye6zKkAgZ9u6mxYn83R3MbSlDQCHwaK8fw5OKNqCA/VP5Ur0cnzY0VBOAHwfBCchmEpuK8hG2n02JwdMjOD7bQ23DkPxw6PObPoGuODMKOs2eWBCzd2MGkxkmHkVTR7q7X71zFu189h699cQquO9ylUtyhWIiCvwoN0rqqEknBdW/w+O6XbqF9/0YGBw/YnB6nFReVdjeo4N6HWlnT3kVdTfMhr8EIGEz10HNgHbf+8/WcP8/F9RhZRxNBFP9dF24CQt4gXesa8sKfI2kthLBWGKXht3esIJBleIlSa0HO29GGgnIRneOytW0zk8sG+Nm3r6K+RtrkkRF3GYlXmBF+z0Xo2nIdaJns8LP/eTsVdNJxYHu4q4+SrxZaBjRK+5SV1bBlIMHv/tiJUgZzhDt+Ke0uf1er5umla5jcOH1EV5jCoLTP0FAXYyoTlCUEfrrPumWLWCu1DpBOEplsZMGi9eEzabWahz+FhZ9r7Gbm0YWrqSq3RVgjZEq8ZHSgkiA9QJXTRyndpFP95FrIs+dF5xiaqpt5+MnVGF3cvn44EMKxiQSf2IHvWjfbSBGW0mj8dD8VpR51FR7pdPdBEq1qEC6TGqbz5JI1dPfoMHHp4TQq+6sxtv6er+Gxp3ewqbuPitJylNE55CV79UI4BMEQTnCAEtGDnx7IPPMj3e/qqjpW7+rj4YUB6CzJOdUVEE74kimkXYQSCfswG6PyzcMFvkq7C9cYIfGDIw8lPN2glSGV8odbsopmlJVIBI508LyY8ECWCmpsdNDDC1rpVGVImSQTipo7weX2q9Hsad/B3MYyvveVV+GEAmQoIDhF/N4jGuEzC1+kQbPZvwVw03UJvvD+v2DDzuU4JghDpkf5TcxdyDWYwLDw2S00h5qO/LwhhZBIp4xNe9byub+8jDe8xsvTOmUySRTVFYTiq4L5Mbonuff9UO0OvV+AnXiDsIr5g0+vZ0rjJBu2HApci32MFNDd34sTHOBX//M2msdItKSo5mpYu0TBq8jxuV/mOjB9isN3/vV6DnSsJkj3IaRH/jjJcWlJQUoZWhpn8fDCZfQN2a5U5mAuh4I2GCv6fXJxJ1u6+kkkylChRdQWw80+R0YHJFzDht0r+fA7J3HLdS1s3buekcK+jXTQwqW5fjIvrd/Gth06LLo57OoP1Uqbt6ZN89SybYytGRPWKMsvnWMMaCPQeOzYu5Fb3nYun/mrV7Fz7yZcJ4kKR1B286LBpEGnqKuqZfWObp5bZjNUH/HibKx4v6tb8/zKTTQ1TEEPI405FigCtu/dwAeun8LHb5rCpl0vY0wqPEoizHByVllZz8u79vLMi2mbU+pQbSq4BCGsszjlGxYt2czk2nG2HptRGKHDWnX2WC0kRpbQeqCVN18+hU+8ex67O7aBSGS1RhnYUS8lSKeUHipZsGjPaPJinaSZVkBpmaAs6ZJbv0TkhN1GUFqFPnPD4GDqzBfgGujq7ifpHl6RR18FlCYTlJfZYqnHEhoeZYM14vAnxtEICRgFbfsMT724miljZ4bZaQ/2qEkc0gx2beC/v/QGykpFqB0pOOxwduaHgJBWxyMF/O2Harh69lhaO7Yf3YedQkQRJs+u3E5TfTNKWZIwMjR7O3dywaQxfPaT00Ptk3VjZKwUIiQ10RdkzhyJ0Bx6yhq+Rci9CGtRu+uhFHtSHl6yHCktyc0XkdqzlLaZtje3ruRfP3Ejc6ZLHCfSaOU+NEV2uYdsaXSUziFDBgFcfYXLR2+4lE2t65BCjJhh27oPXaorx7C+7QCPLNhv6+NR4EobASYMNU4NGe5+cAnja5oRiDB/UZEB7yToHehmel2C69/o8ZpLXFz/AMIEFLs3rnQJgoCSRAmbuvu4/7HtNtXMEQmp7f3QBh58MmDPoEeypCrTd7nZ+G3JDoFWPmUizU1vSfD2t3jUJBSD6YEw0ih7Z6K1SAqNI5MMiGrue2SPHQtH+LxHbrYHH9vHmr0dlJdUFtE7hd8b5oZygy6uvNjhrW/wmFzlMDDQk0lUOfwcm++puryBhx9bke3HI4Q2tu7Z06u20VDdEFoonUy5Inst2T7a293GZefX8+7rPMaUuvjpQRtZVuyztUYbh5bGGTz94hp2t2pbhX4UsJ6TQnaMgdpqQdIzKBXguolMaKc0Ec+2cKSD1jYhVf9QasSyCEchbzsoCmu1HPbnFz4UIz4khZ+Y/X1fZz9lXhJZrNBeBraP0kGa8lJLdvJCRqNPNXZBQYgR3GKFzR9hCOQuQqcYpuiEYdsmIWNWXflKig37OkmWVo0oqjRYgbBwkqzbsZqPXXcel11gtRdFfcoj7MwP7dbKaWek13BsFNEXPnkV3b2tebWUiuWcGg0Iy/hYaHh5raY1beuBudH4CCPMrKbD6iKEcPGEor19NR9415U2J5SIdvQyhyiEPTmsf6P/iss5D+ZaPFhPGmktgA88sYSGuikgXDBqBHeci3BK2duxk9e0lPG+d3g2FUboMs1/vGTm/4fn9iy8kggC17H5dP7p72czo76cAz37cIVAjjAjGaNJK4WXqOSJhWvQweELlaP78OKKgOc37qehZgwizJckhJN3Fwwuxkj2dXVwwaxGHAemTpRcOWcSB7o6MFFOlVxLvfJxpQ1PmlTTzOLnN6MCYxfqw9pgRaTTriMLFq8mWd6MMgWxaqGlwaY1sQkez5s+maoKgecILp07iz37dyML5rSo8KY2ECAZUzuZJSs3kUqbrHas6LoQ/pYz34dF13lu6XZqSmvtHzJEzPajg51zhfTY29nB5WePZ8oEScKDi88ez4HeAyjhoYVEOE6e1VRgCwuPr23myRe3Wp7RdQAAIABJREFUsXu3IrtkmFDMP7xd2ZZny7ssfLaHQW8MRibI6BrD1Ccio7nSDA71Ma+xngvOdfAcwRXzZ7O9Y5stHZI7bjNRZHY+LiutZP2+ThY/32O5vMy5lFNkwDgpM6x0oK5WUFeVJOWnM19bVPIZdnR5opQ9rfsJwlnooDzgtECR6c/A4BDs3z9ASaIUyEnwN2KoZJrSkgSlpSEXOdMtXwdF1iKgNaxcswfXK0eZKEdKsc6xBGNwaICmMo8P/dVcIqPaCfEp5+xeJda6c9F5Dm+9ZD672zfjytFBKA8HGlj84ibqK8djoGi0UvSeNrC/s403zW3h5us9HGmFvMDJHbOZSV9ndt5btmt27OujpqIRbZxD6o76BvbzofdebXP2nGALaDRmXQdKEoL3v+1q2g5sQRBgimb7tkg4kvqqMWzY1sPQoF14D2c3bbS9V48s3E/KrbeEJW/Xnj9vSekSpHt48+vPI+EIPCm45FWT2dm5u0jwidVdaq1wBYypGcOza/ewdIU6ooKWJiQ6q9YGvLxpJ40144mK72YRXazERdN2YBNvfv38TI21q6+cTk/vTlyhD7KxkFRXNbBqdxsPPNbFwVUUYb9kK1iDgOWrAh5dspHxDRNQOUVds27UyKop2dW1m8sunIbjCBwpuPaNF9Gf6rEfNUIbhfZJJMvZly7hwQVBJpP+4UZnOQIGhgyPLVrB2NqW0MJEZt2Nav1J6ZCQkvaOrZw/p4X6aqu8v/LisZDuQKJQB2GrxmjG1Yznjw8tQykTJnz8MxAoK9+GmE5oqmcgNYSJMpMWEStHA6GirJate1rZsTPcwRc8R4e/sz44/n/23jvOruO68/xW1X2hc05AowE0ciQSSRAgiUgwW1mypXUOu5K9I40tzYy1Mx/Lku2PZmUreFe2NJ6x7JUsWYFKzARJECAJkgBJkCBB5NgNdM7phXur9o+6977QrxGIBkDv7OHnEQ30e+/WrVt16oTf+Z1MROey0QC5kh8BuRhYMU+MgP4BTc/QOEopJHkWXY45bEfremnKi4txpJg0J/+zihSQnDDseekYlSVVGSZdIfI8MRuudSSc6T3N9o3raJml7BTnlIZeI/HBtBFH8P57FpEab0O74+R2vw6U6MWwMNdPlMgs74FBzbEzbZQVV+CoaBbGxY/NConBYKSDkBHa+s9z79YlOCrTEBO4qtTrFUs2hsrYg/35lzroHh3DUZFLGDqa0bFB5jdUcc+2YlR2q68r2OdXNNysA0tJ+PD9EeaVaZKpEbygm6bRWVrKx0rgUV5SyeGOUV7Y5/rfdYmL+QGgoWHNzr0HmFs/r0CkN3MlgcvY2ABzasq5a1OZ39cMHrxnHrPKikikEgQg4OA/g7R9k7wUhigTspJn945cwYzYkgztGn7w0BucH00Si8RsdESosGrIYk0kQsYYS4yysFKxZYOtNDDAltscVtRFGRkfxDMqs+cK8G45ToltYKrNpYsIpF9F6E/VE7uHaE9EUZESlAnqzTL72cMghSGRGmdBVTn37phjyTQVbL2jiAV1VYyODwHaUiHkG3RSkDaC8vKZ/PiJly3dADCpOUMeZi1IA7ppeHm/y5GOPipKavwpyFh12RQSnjdO1BvgfXe3WkMfuH9bhNUzSxkY7oVsLFlWBZ7ABZ2isqKG595qZ++rHtrNWts3CDJxXYwdC1IW1NeVkXQTYUmkzQlPVuhCSGJOjP6xBO2dFtD27rvmXlwKhcg1EmMsql/ri7xycvzvQgwMjhoGEhCLxf1FdvEbTSTHKC+N3fAyvveSGA2Hj3m0d49RWVrlV4a4U7QjAc9LEXEHuP3mRjxjwvZYmYPm2hoZ2sD2Ox1WzKpmZHzY5uINeUbPe0eEsOu9o9swPJYkGikm7eXz0PjvRaB1GjedYnZFKZs2NkB2VOdGirEA6zfeOkVRNLsPzVSD05wfOMe9m9cTjwd4o+swTGPCua2tFty+rpWO/k5Qk0lWpbT4RtvFUpKQpbywr9v+8hKHisZGzHfuHuZ476CPg5n6DgUu7b2n2LZhNaUlAsdfrgvmKdYtnkdPfxvG5BKA2UiGb5YJycy6Bfx85146+6xev2R0R9tS7okkvPp2B3NrZ4Px/D1eINwvBB1957ljzVzmzvKbhmqorxPcsW4u53vOo1QkZPPOnxGjXWbVzeLZl49y4rQOK7umktAw0LYdyJ79R2muXWA5MKWgkOMsBPQOtLN64WwWzVOhnVBcBHfdvooLvScRuEg5GccZBANqq2byTlsXr79pwdSZK+SONefKBrQx/OtDLxKJlOGofOC7zzkmI2ijGB8fYWFDEZvW+33NJBSXCG5Z1UznUGdBbJHF4kqUNDgqTsqp44ndAzbAeoN9t2u+d40xIadGRVkUz0v7gLvAGgWw3YMDbgSwBs+4a+gbSIc4lGt1wGdPgucb+V7a4KUNbt7Lcw2ea5WEsc2A3/VVDfDmO5rucQ0i4m8Ocjw3k6WxlIB0apS5sxp9Dpn/X4IeNp09hoGExlEK4Rs6BUs+hcPY+CCL6+Ns2ejgFKRdz47wTf94HQXFccGSudX0DfUipGMVVnauthAz7Q0S108jnDs/Qf9EkkjE8r9kcwwFIqX15AfG+lnaOpuFc5Uf9cn/1mszvxcVX30MDKYoiZdOia2zh6hNh0S8IdYsjdtIatZ7rqXYA8dyPUUdwZ3rFzOeHEEb33sPmIyxmYHASDdCUhqv5HxnbwFMUa4YYxmXtTY8/vRBiouqCoxDZgctwLg4qT62bagN4whKgtGGLRsXk5jowMGylGthy9SDyIsVSWlxJUe6+9m7b8IevpeYiwCv99TuNAfaRigvq/bdURehXTztAtrHfoICJpIDbN20CBmx+CrpQCwq2LRxCcIbR2gTtiUKMUkBL5DQxGOlnBp1eGLXBNr45faYgvF/IQSunzJ89aDLq6faqCivxxiB0G7IOB0wDgshECZFYqKL7XcswujMdzpKcNcdVUTdHoyXpNDxHHSdd7UmTYRfPvFWAaByXuo8fObQ0WnYf6iLGdVNeDqV17pGW5oDJEJGOdvXxpaNC4gXiSAwCsD9O1YSwyWZ9g1bY/eMFNgm31hQsicc6mta2PXSAcYThsukfbpmcn16Y2EjfXNaanFM0DXX/70MgKP4lQUSJSWuhoiK8Orrx3lwx0okwq/eAsJlN30i8Q0XDbtfGudHP9tL2osTi+Ra/9qzaSvX9Vi8oJHf/LWFVFfJkDl1smRyyZDJPwcex743L+CpMhC+FV/ggA5YqNEpikmwakn8f26oTpYE4MKBYUOKTHi6MLeFVWrD4yOsWVZJZaW4pPd7rcYrgDXLZ/OjF85jjEApBxPm+G98+ipbpATtwulTXbjGGpHSBzDmG5We9lASEqlRmhrm+GD5Gzb0STI0YugfSROPlkFQOk8mjRF4q0JKkokxZhQrWmdLBBaPdD25vyS272pLc4yqeASjvUlzmT33RkM0UsTQWNqS9xXQ7tmcJ56G46c0r7zTxYyaJfbwF4SkdmHWwSfgHBjq47ZFTdy21kHKjF5yHMGD2x2+/V1FMjmOEy/Grg0xyeDSGMqKa3jy2Td4/70bUYaLrg+BsGSHu0+jonUYlMUv+V6m4zjhz1IILvS2sXnpQnZsLc1E4oydxx2bi1jZMoNzw51Ul1cVZOc3RpNG0VA9n+f2HeNTv20pKWw6bPJgA/yxMfDUrsMg4yipwG+TIvOcUi0ckhP9tJR63LvVyT0zJKxb5XDH0mbePN9LZWXppDPFpuws235dZRMvHjjH8PAqKisuhp8xYIRt+rkrzblRWFgTB2kweSmTwPhJuyniwuOe7YtQjr0/JUBF4ObViqWzGjgx2EVTZbXliPPyKGX81HFZSTWHTx/k6T2jvP+eMvSU5+S1l+uyczW26GH1TeXMqatmIjGGApRwwEjfAMjkTLUxKOFRW1HPvjfOMDFujQMhry2uwhjYd8DlI3/0bX7wQjePvTHOL14dznk9fGCURw4kefTNFJ/71jN84lOPMTycVf2QXRk1aRYyRnTgeZ1u66a8pBapIjZ3moWEB+1byjY0mE4nqC9TtM6RNi3wb4uV7hqJVcrDo4Y0Niybi4PLjSBYluUU9bW+Z38DNp714mDVynqq4wo3nfBxRjcg2nEJ0VqH89Te2e+zoFsDx5Zl68wBCUgZwTMuieQQrXMaLKVBzhwHSJPLZdC9yvFn/8VAR4eha2CceDSedVJlOV9ZVWKjY0Msba1hQauNwoaGjrl2kb8c8XVeS7NkRnUlqfS49dSNX9sT4GJ9bhQtJEXxUgaGxxgYmnpswi9lNx48/PQYp0YFQlgjgqy7CkDoQiiEiNDW386HHlhLUYnFC9rvsdwqdTWCO9e2cr6/E0/ErNPhR3hC3hY0Co+m6kZeeLOdc+e9ggZHKD7G6nS75oXXDtFQ3Wy5Z7SNfHsYPGNNViEkjvA4P3CKzRuWE49mNYfxqwAjjmD96gV0D5zF6OQUgGqFwaGmagZ7Dh3llddttDXXd8p21u2rd1Cz88VjNFU3onXCjkdFQyxRwNiuVIwL/R1s37iAmhoJMoO7EgLiMcHmDQs519eGcmIER3QQIVPKwREKjEt5SQVvXxjlkafTuRViWdVYgaETPM+duw9SWjoTRBTjZSIzobEvAJOiZ6CNLauXs2aFY6Nj/jwabefxIw+sZ2T4HMZL2ojjFL3SlBTE41X88jELVM6cj9df110XY0di9V1zo6S5oYqBkW487WXlc7PeKxVap9HaJR4r4XR3giPHvetTjWXg8AnNmKphcetGmhpXUle/IudVXbuUmvpl1DfcxLrlD7LzaB//+kg6TH9dXHwPxO8c/dKrLm+faqO2os6SChZIW3jaAyHxtGF4YoTG6iiN9Vb5XvPSkH8DYoxVeJ19o0Sc+EXtP+NXYrlukuamagu6uxH2op8DaJ4haaisJOkm8LyUr5guayFdNxFChF3OBwbGcVQ0/J30aSIATBChNRq0S4Qks2dc/8hZvoQ7yn/OF7o1g2NplFKQhfkQPgpba8+G4A2MJkaY0VBuySZV7vdcLzFY3E5zQw0jE8OT14YJyP+sSBVleHyC3gFLnpg/3sCY87QgmTbs2XeYGVVzUDKa4eXJIpYD8DyXVDrJrLJiNtxSmaOmgmi7cgQ7tq0klRpG4vlG0OTEn+eliMdK6ZhwePSZ9EX3q03XwAuv9HBueILy4sqwNWnIASQlUkZwjWAiMcqC8gh3b4rbTvN5kQYp4Vff10BDNAnaYpzy+cVs41ptY36yiOdeOG6rskQub1F2Atf1DHtecTk16FJWUoUUFjPoepPLuTzXJUaKj33gJn/+gm+TYVrwgbuamVdVQTI5PnlO/INQCRAySqSoiedfOWMrngrgR4UQfpDAVrMdOtNBdeXMkDk6fz0ZA0oaugfP8Cs7Ftp0J1lOutQI4MEtEZqLPFw3cdHWTq6XorG6iTeO9XK6TV/cuL3Gcu2NnWBNYh/svNmNjE0MgDB2QWVZ/oDf80WiBDiREgZ0KU8+PwrSxw4I4XuF02UXZi0QAcuXSFpKJankEOAhTRpp0iiTRJkkUeGidAplEmjtUV3VyrMvHM48RJH7zYWu4/l8DM+/dJKeRBollA19hXMWdL2VvlfloFWMvpEBbr95MfG4sGHkAprXNpzzQ8yXedJM2Xz0+tjCVyVCKIyB0dHxkD4+my8pwxNiRQuQwlBfW3GJyM403f9UaRwD5aWCirJiUm4SIQSxiPOewuqAH1H1Q/hJVxOJRG3EwY/uSL/KI5uuXxhNeURSUymy8BqBZBT79blLX1MIW9WTSAMyYvdHThVOZjRCCIxPbFpXWxrSX9yIogDbb0tQW1VFMpUI9WXwCuue/KEpKUmk0oxNGHvgTzrMg+odSyz3ytFT1FbNyGLOzUQSjNY+jlLQ0d/OpjXLmT9b5TG3yxC8um6VYsXMeoZH+y27riY03gPsihCCtFGUlTTx3EuH0J4Jd2u+PjcGPNfwxLNv01Ben2meKwK9aL1Gg8RTMTqGerh5cR1L5tnorpOXchTA0oWKmxfW0tV3HmTUkidKi00K1rSjJEqnmFnVwNN7TzCRsA1+w3J5P7IXfLtUgkefPUE6UpPhGoIwX2OxPfYzAyNdLG1uYOUSZZvgmqx94PsGs2cptt+6gjPdJ1BC51Sb2XmxPdBcI2mqncueA0c416at7R4Aqv0qYWM8PM9GtJ/e08aZoTFi0bg10ow3Sd8Y4TA+PsDq+hh3rHOIqABknXnejoIZDZINN82ke6AHoeK26EjnO2sahaY4WspbAx6PPJMKC4305RMtTZtcH32TZfBs3dBIEWNg0mHTz0lv9yM+BoeqilnsevkQqZS55oEMAaxcorh97Twu9LajpLR05FgQXPASuGHId2ZtC3sOHuHNQ7YTrX3O+ds2azEZ2w15eFiz55XTzKlpxvjVBYWrh2z5o4MAnWD50llhP56r5YUxZqou69dYxPQFpQLcQDKVJKKcyzKANVAUj1IQm3yNJWBsReC3/JC4nvXW3pvtUez8agOpdNAVXPh/Tl47QttDLSqhKPreizxOJAxpPzUjCzC450txPIZEZHhMwlu6vvsmFnFsKfIlon7SgKu9KatXLTAXtGd4/Kkj4BSHmzHHmMtKvWBSpMcvsPnWFpuyzN9l/pxUV0nef8/tnOs9hgz4bArOr6S2ciavHT3NwcOZqL3B5I7BwJETHq8e7aWmqtEH7eqcq1unThORgonEIPftWINwROHqP2nTKndvXUkiNXX5uzGW76ysuJLDF0bZvde1UbL8LzMWy3au3eO1d07TXDsXjUBnRdo8jB/hsgZV9+A57ttyM7GgNU3+FhEGKWD7Hc3E3H7QKTzEJEM7cBaKY0WcHBpl94t9ltSwQCTPYNf97pdP0FzdnHFMJl1cEnGiXOhpY/PNc5nZaLFq2VxhITBbwj1bVjEw1mujQcqZhE8CH2NkFDOqW3lu76GwnN9WEf5/LY2V/UAF3HKToqUKEslRdD43QJ5oA9Xl9bx+pp1Hnh7H8zJR2enyDHMiRBJURHDXnYsYGu+/rM7rUSfKqCt4ateZTCorJ6cf5PntKwAG7nnZY/fxLiorahEmhRB5iibwiKRCScHYxCAL6mq4bW3UHj7TcO83XKZhsdsu1RCNRMOU3+WsjNxyzWspk2OQmc7VuQdMQXr+Gy3ZEY/gn7LxdXleX/bP74k1amTOPVhHweakdCY2n/X+LGJPsFEdQW668wYYPK5J5821lewoz9SS+zlPw8lzml/sPszM2lloL2UdLjHZi08bwfj4MMsai3hgeyS8d13gZYBtt0Wol2N4eiLDGpaF5bDXkThOhM7xFE/uOmUrnjybJtJZus11DT99bIAetwgVKULZ0q9MdRPad5g1Y2MDNJfH2LGlZHLPwOzsgoJtm2upL44xkRjDOq/ZmK2AjFRjZJSkU81jz7UVjEFo7Bn1+M4LHO8bIh4pZlIayf+kERLPS1DvJNh+R2TKUmzho6rv2eKwYmYxQ6MDIOPhms0X100yv2YWDz16gNHxbExM1ncaeOWAy77j3dRWVCN0ys5HAQR72vVQpNm+dXnY1zL75rW2GD2h4PYNRayc2cjw+CCel7Lr03/OAcZIKImLZEbNLHYfOspTzyXRvlFWCDN1LeU67NbshQSVlZLbbppFZ3/7Zd2sh6G0pJYf/vxlS252DTWoFBCRcO+2Kta3zmZguPuSF/S8NM01zTy5+xATCasYL3ZouZ7tt/OPP3mTuur5pINQL0xp6Srhcbb7OLetXkB1lbzhJXzvJQlKuYuKikheJrDLNTASdEy85pJrfGUwE5BMQ8r1QhzM5aYdr6uITCVGxFE+pkWjtedHqApEI6UipWF45L1nvJUXC4qU1TsXS0sJYzBIRkaSPtDzxqSxNOAZw8REmoiKX1aKMyIFjuSiruTz+zxOjxqKYmWZw76A/nFUhPP9bdyyYgbFJdkYk8kiBSxdrNi6Zh49fZ2ZUvksEQiMcTHGo7mmmRdeOUliIqMxhR9rtoUE8Mju15hZMx+Dg/bS+Ve0fDnCo3fgLDtuX0V5qY3ChXeSb6QaaKqXbFy1iL7B85avJ2eMOuOMGMnMmtnsf/sUI2OTCQYtZ5fhpdfbqCmtt5/RWQ5ucFmhcLXhQk87d65sZtF86VezFZxGMBCJCm6/pZULgx0IKcI0WHjnBpsWRFNd1cgrJzrZd8DN+05bBKANPL9vnDFViZQx+7mgt0U4SD/NNtTBspZGtmyIoBTovEcd4rCEbQF1583LaOs5gaMouDbTrjVuPa1RqoTn9x6x++kGeELX3NjR2R6eDxL7xEduxjHpEGwV9AjKVyYCjTQpmuta+MWBC/z8yZTllQjyftMwvsxR5AMUPSgtEmzbsIIz3ceIhGy8haZKo4ShsqyGty6Ms+cVN+RSsOsoa4EaEz7gX+5M8cTBd2iomw0iggiIwfJFSFxt8LwUJd4g2zbMsFwGYvoenONXVFjiuGu/AsMyevAje1crdjNXV5Za0KHJ93/9ELKx60kYQ0w5tLV3h8rveosGENDRrekeGKI4XuLzW4icdfZeIo40BirLikm5KSybSaE0qvbxD4rhtKazx+IxwtTdDRV7+peVCqLKwlxN9vgDj1T6RHTGJR4tor1jxFaRTEPa+N2K58H5rn5KiyoJ2iRkE/dmS9JNUF5cQl2NzBx8eWkIgId3HqS2sgXX11HC3whaZ9oZIGyqoUi4vP++m4g4kwHnOaa8AKUEd6yfT/dIDzIAsxcAVWNS1JTX8NyxHh59Jh1GzgKyVs81PPNimtN9w8SKK9FG5R2mgdaWeG4CN9HJPZsawYAjp9aPUljmsh2b5zIy2o7CVoRZYs8Ad5Z5f0lxBUe6evnBQ+dxPVsMEZhmngd797s8/fpZZtbMsBxDBbSP8TwiKsLIeB/b7lxM1BGWfXoKX18o+2w/+OBSypX/PEwqbx59SIWwzpuJ1/Hkns6sOHLm3O3s1fz86ReYXT8/7CkWRPGkIcx9RYShd6idretX2gyEyb5STp7CB1MLtm6soUqM4LkJHzOZ79zZsQuTpqVuJs+8dJKzbX6F23XWCdc18SyxC2nVcodbF8+la+A8oEOMTiHlqYRBG0lDzSK++t/3MJGwFnbQGG56R2eNMQHct6WUBeUO44lR2z/HB05PFo0WDtGiRr7/08Noz0ZvsisRjDEgba48mTR8/duP0Fg1B1ebS/DCgFQxOnrbuHPFLO7d6lySLOxKJW00ESeSwSRcYwm4N1LTBE8JDMuaaoUx6bCqZmqxkZTOnlGLp5ueYVyZ2Cg5x08m6RgcJqIUUqobdpheSoQA6QhqakpIpBMAWeyzecoNy5TriTjHT/f7AGcRljvfaGluklSXOKTTiSnT6JZHyFAcL+XEuR4Gh27MQrGGIpw8qznX1eP3z7v4JzztUlVeQnXVZMMkgIQefMfl1WOnqK2cgcWeZIC/1tizRrdA0zvUyeLmOm5Z44Td3qeSAAJ1/44GltTXhm0PCkajjNWbpqiRZ15sC8uSpZGhwfPwY/txVAmOUCEHW65IpHQYGh1gw+Jm1q9xJmN1CqRhBHDHrQ5rZlb6bQ+iU0bujDZUFtfwzPNvh+eNEALXv62dL44wRDnSiWOMOyUP0+j4EEsaarhnaw3Sn8ep9oM1JGDZQsW6JfPo6m+fZDCGBohOI4SioWoWT774OkNDOoRMSKxBtnvvEMd7BikrrsBjMo5KqQgGh2RqjBpnnA/dV+5js6Za9Doc6OYNDuvm1zE00otSGcbn/NSq0Sni8VIO9SV57mXbVctcPPc67XJ9UXb+ZjACPnjvKjp6j6KEF0Z1JtN3Y4m0kDRWz+TA+V7+7jsdGO2HaKdTAfkLBOwYly1RrJpfxcBwH1JFLYV2mCbJRq9LjIzQWDubvW8f59RZL2OQBMh4Yw94jeHv/znBax2aGTUziQjPJ8ia6uS3Ea/O4W4euGuZ9QameX0IBIlk4hoaO9l+QUYSCTNtLUCEgLISKFG58VG7PrKvrVECimJxOruHbXfoayyTK0wsAFFreP2Nk3jYDuIZ0OBUGJgbJwbrXLS01Pnjl37OPRubFrzXtlopipfT1tGP9m6wgZOHGayvF9RWxRhPjuUBKnPnWgooKy6lrWeUYye1PYyvt/hGcWeXpndklEgklvUrW1wQzr6P8ZtITVBWEicWywIa+bdpjO2N9MhTRxhJG79dADlgZBs5CvpGJegfOsv9224lEoDN/T+mQsZJCdXVgtXLWukZvJC1H/PeLSSGKK21c3nlrRO0d2jLJiztvu3pMbx+uJfG6kaESUOIKcoVFYlxsreNO2+dS7xIoHKOEDs72cgyoeyrukKw6dZWzg90oE0QxTIhODlY28Ikaahq4PUTA7z5jt/60o8eDQ5rnt//FjNr5yJEJCxbzy+5NyZNe99ZVi6eTVWVDAG+U+nbDPEj3L1pGZ2DZ4g6inw8ohA6TMMVFVfSPpzk2RfG0a6ddu0BHjyz+xA1pTUW0+iPKdNTLAAcR+gf7mXdwlpa51iohBAifM7By86oDKPTQsGalQ10DHaiVDRrxvNESFzjUF85m6d2H8J1TXbA8brIddemWmscAfdvc9gwu4qBwS5bGSFVLl1+llgjSLBo5lL+9rtP8c4Rz3rl1+Js9lNtQsA921YynuizOWAdbLa8fKyBtKdxIkX0peCxnW0WgJV1K0aA68KR45ov/9PPmTfzJtKexujk1Kkjf7P1DbSzdmYNH3yw1rY2uMx7FnnAu6kk7sQYHByxlvY18bwLec4+XkWoDEj0Kr5bSKiuFERMgqmTmxmDp6K0irdPd/HW4SzE+zUT/zjKMqZthabh6Kl+yorKEcJMETW88eJqjZCWBLF1dh3lEQfP86ZcK1p7IBzKi6o439lPKn3t+tpdqQjsfVSUS1KpRMHHiJrUAAAgAElEQVRKRJvGsWkuqWIMuA7n2vWNac/iY0LePnyBNKrgGgmPPyERQjOWGKK8LFbYKTKQSBp2v3SSpprZpN1U4cv6hJHaS9EYTfC+u2MIAWmvkH4Ojr/MWCyj8hy8ZJdftZo17qwKLYMkFi3mVF8/L+4bzlQuG/jlzjRv945TWlQBxkUI468tP93of93ExDhzy4q4/645KBmCEcj+KXukQtgcl1SCzXcspFi4SGHCzEJ+vy1pNBGniLZkhKeeG7WVbD6g+qX9KV49c46qsmrSng6NA0vEmEn4CONSogf5yP3z8ua5QCTJmNAIUhK23ubQWuIxNj5oU3nBvQRGp9+4UwpFLFrOI0++Zo0238g/0+6x92Ab9ZVNCO1OeSYIIega6uD+HWuIRITF4FxChABHCn7jo8tpLithdGwo5/eTDR6H6somXjl8kmNnrXF7PVXDNdew+R6A4/d8qSqX/NaHbuF07zmM8BuSFTJ2jO3+anQaJ1qGWzyXT/6XpxmfMDk5xauWvHBnJCK4d2sVsyqLSSaHiSjHMj7n3ZkxLsrY8HF1SS07dx/xCQIzuV2jIe0afu8//AKnqI54vBipIkjhZOYn5KOw321wiEho7znCb39kC6VFWaWK2Yos6+9a2I0Y8PB4l8LgCEksUkR7R48d5zVrhJm1CrTF7AyNJJEymsNvUkg8SwXoAxsn/95oEB4sXaCYWekwkRgL0xM5/E2B8tEuTqSEU2OK3a8ks0CHvhs9zTIpqi4ERsM7xzxeP9ZHRVkN6BTG+Oy1Jvu9Nz7to/w+dkpCU72gsjiG6yVRWX3cchlYBQiHkuIq3jzTznN7EwiswZPryV7jaoNJov3IsqClsZrRxDhKRHyDJxf8KRDg2UO6vLiBJ549nDvSaXwsF5sFrSHlwRPPvU1tRQNaJ/GMxjOZ1L8V6eN4BOMTfSxbNNs+szzPyHjwxK40b7SPU1NeQyQr5Rt45Ma4IBy0cOjsO8+mVc3MmWF5a2SQIzLkGO+ZCwDa9sPassFhWZ1jD0AZxeJDdE40XqBxpKC+vJHHnjmI59lD2gP27D9BVcVsXJQ/Mv8Sfk8vYwwRaTjRcZi7b13NormKTKPWjOmV+S90jezPCjavj7DlpqV09Z5DGRdHChwZgNctQkULcJHMrVvAcy+/xcSERT97ruHJp9+mqqQW7aV941KHVw8+r2SMvqFe1s0pZ8uGTCpQQy5mLJiTvH9rna34wNblnO9tQ6poiG+VfgQ1zCiZNI1Vjbx2uIfjpzSuD6d4+Jkk5yccItFishmNQp4mH582NjFMa2UpW2+vCqNXhSQ/0uNImDNTsX75fLoG2okpEMbD+K9sniWwKbO+hMdPHz5qdd1F8LfX4hS6/qKth/XxDzVw86wazvecsgj9i3i3AheDZFbjIo50J/jdz+y0+Bj/oUwruttfBLU1km23reB87ymEcQtOvk2/CZRxqams5bUz/ex83ufc8cvM067h9z77God6NC0NrRjjTRnF0sazPA1C0tl3njtmV/DrH4xgPGNP9SmWQPivAkqKoSQex9P51Qv5IikqqqB7YJT+wetB3g8I61uca+uhOFpWOJ9/2eL375FQVyO5ddU8uga6cAp0C85cXuJ60FLTytPPHySZNIHmmdQnZvrEv8fAKNXw8NOjnBrxiEWKCJ7eewHTki9CiJCPaGajpLGqjInEsHVACgFPfZFSYESUZ/ccwXUtt9SNu78Ak2L39cb1KxC46CmKAgIxSGoqZ/DioWMcPu5dXpfuaZAQQmNg7z6Xg2dHKC+tLsgLFThgQti2I3NKHbauz0R2widibMTkmefP40Xr8Iz0YeaZA9riJz0QGiUlfWN97NhyE1IIhPCNp0n3n2UA2YEgJcRj8MC2lXQOtId4m2C+s0k+jfGorajl5UPtvHPCdkJ/87DL7jcPUV89K3RwcrREkHLTSeKpXnbcMdOmv64g+BYAvDfevJDuwdMo6U06Q7SfzhLCobysjv2nzvHK6y6eNrR3aHa/epzaCtsUNaxOzBNtoH+4g223LyKirrDeUlgn467NizHpESZNvr9Whd8MNR4t4fCwy6PPJkLIyK4XD1JeOhMX6QOvc2/SupIuF3pO8P67NtBUPwX/zxRitEYpuHfrPEj1YrwUQiiUioSGY9ZsgNE0Vs7guZdP4bmm8PO9RnIdrpGX0zcGIW3MIxYRfPYPtjE0eBx00m9pbxdy+Cn/gUoDCg1ekgXNK3joQD+f++JJ3JTt8RIaxIU8jnchlmEVdmyagTvRhRCBcs+9HymVj7nRKBVnhDKe29uF6wPuUinD5//yBD956SgrWm+2oUi/G67RetJ9CmlwHNt/6GzPSf73372biGP5f0yBUs5JIqCqUlJdFsdLXyytYyUWLeF83yBdPZZePlB90+V353yPDyxvv+Cx7+1jVJfXc7VL0PjxMwOsW9VKKj0OCJSQBTFdNh2paKyeyfNHTvDciy6Z6PxkDMpVi5GETM3GGjqjo4ZHdr3GgqYleCFA/b1n6GSL0bZz9LqbltIz3JWJ7BQijjMuxkvQ0jCHx144wcmzmpSX7bVe54iOLzbdAyuWOswsLyaZHCFsBJrtr4acMBCJRBlMC77/0OGQH4Tw0Lj6+8iPfAd4joAg7vs/O8m4qkWqYqJKEnQUy96nBomHYmCkn8XNpSxfnBvT0YBn4Pgpj12vvk1LTQtGRPDQOV3JZeigpRmdGGZpQw0b15eBwyWAvzLzd2ED9JGI4FceWECZY9Ce3yYgOPyyGHYxLlLF6UnHeeRZF1cbdr90nuE0xCKRcFzhZX1nCRlhcKSPFc2l3LUpF5g8WUtPPfk7NjssqJQkkqOgImS7fBIbfdLaRm6cSAm7XjxMyoNnXvRoH5Nhmk1KURBzqr0ktXHFfTtmh1VWlyvSN1huWe2wZt4cBoa6IA+eEDArG6PxhENTdSu79x/FGDh6wuONE2001syy1Z4FIgLGgDQuUbeXrRurbC/GK1DJQtl53rbRYU6FYXRiCINjnfOsvRRE1qXQVFU2cODsCI/sTPuO5hT3f/nDuCy57pGdICcpJKDg/u0On9i8jMNtb+M4Uzdh1xa+jeelMcJh1byNfOuxfXzxK4fRngW7ho75VaTXc0jeBNy62uGORQ109p3Pw5fY7WS0i1LKgk4NtNS28tgLb1gelZThL75+nm89+jIrW2/B04EXFhg2gcfvGxfCpq8coTl87g1+Y9PNPLgjhhO11vbldlwuKxEUFxfheoVz8tniOA494wmefb497It4rSRQ5PsPpjjZN0A8dqnqkssTqcCJwPJFZVRGJdq9eETLGEPa82iqnMXXv/2E5dDQ/nO5hhUC2tiD4O//+RRvnu+muLgamwo14bjeqxKQB69bUYqb6EXoVEEMiZICKQWgicbLOT4q+OZ3Tts9WqBX0zWXvDSpkpbqfvm8Jrr7z4DJw5RAzt9T2mVu03z+5fFXOXHWs6lzQ4HPTJ9oY1/P7U3z2MtvMq9poeV0CZqUmSxkil8lqo2gb6SH1ctnhKy5wXrS2q67x54+y5nBYUqKynE9nQEih5EvuxYjwnC+5zib1y2ntubKohFGg3TsQb1ormL9knl09rdho0aFHr6t3qssa+LgsT76+g1PPXeE2XWzp4x+CyGRUtE12MmmW+cRLxKTCDovR4SAObMk6xY30dnfiaYwUMWmnj0aKpvY9cop3DTsPzROLF5LSmcc7UnjNS7dA+e5Zel8FraqEEdzRWPEUFwk2LJhBad7T4QZjkJiDDRUNrDnnZN0dWsOHvboThrAYmILGWNSRugd6mX9ohncttaZirvwImKdubIywbYNi+joPYeUEYImsZPvR2NQ6Fg9v3zyxDRXVF9ypNfjElnWctaBLQQ4SvD5T6+ludSha6ArVJQSwjxf8D1aSIRSeMZD6RTLZ6/iqz97k0//l2OMJ/wOuFc5eRkqfBuOLSkRfPR9t9E+cAFDEHnKvTvjeT7WQlJaVEz3mOBff57mv303xZd/tJtFc27ByCieTtp0nbYpMc/vPWPnxQHhIFQx3f2dtER7+eLnlqIkl1V1lp1HNcZQXlxEIpXMOUiDfG/2y5g0teUN7NxzjLSbS5w1PYy+uRZUKmX4xeMHqCytmxZQbgAKBFixxOHOlcvo7GtD4mVl+rPXn7JrzKSorZ7Js2fG+Op/68V1jT+B9vkbY6bH7stScEbDG++4/N2PXmFR8xLQmfYLdr3dmKzy5YqQcMtahzUzShgfH0biZJ6h/6fneSH5m6cFy2et5EfP7uO1g15IGZG7Wq9O8jl8ApWR23Yg91raM3z8gysQ6X4UbrgX/N+SWa8aZVxisQpGnWY+96V9uK4hU8R39YZxbq2QH1v0YGTU8Kdffph4cX1YNSYmYfC0TRfqNFqnKVWaB+5eYlNOfjWN1jYdNj5h2PXSSWbXziGt0z6wVecwFgM2AuBNUKqHuOuOhjCFFUq4ngvW3GSiAj5+5u7NyxkePY8U2la0isCfyHoeWtNQWc2FvnE+/zcj9IxVUFpSjdEpAnxJdgQKbHPSEmX4wANLwRB2Yc/95kuIgIgS3HfXahKpkTBybsgwAKPxObpcSkurSYsZ/NnXkpy8MEhDdWOGITmPOsUW4miGRtq4Z+tSawS+C3UqhG1WfO+mEhaVCTx3HM9YpyIoX8vgmTykgLqKmXz5W8M8uquD1vp5CJO0zzqnaiYwmAVne8+x7faFRCLiipGLRttnHnEEd21ZhkmPodA4UvlwgkymBmwU0pI1zuH1I6c5fXZy+tB/47Q7RjdUu0oBjmO7P3/pMw9w5sIBjE6GHofIobO2SsjzXLuwJDhOMUvmbOBbT7/Jr3/ycTq6dBjhuYxOD5ceH9YT3HhzOa2VZXjpiSnfGS5k4bCgeSlf+ed9fO1f9rBm/nocp8TfDFMPyvMsmEu7E5zpPsIX/v2v0dQgwj5YVyJKCObNmcFIYgApvJDDJew5Fr5sjWJNZQOvnOjm6T2u9QL97zHTMIkSgUTa5+LBi/tdHtt/jJm1zdMKtJKAlLDx5nn0D59FysCQLLzEpQBPOKycfQv/94938tLr9jAOyCCNENPWviGo3kimDZ/9y+dJRxuJxsqmMVl4nURAfa3ktjUtnO45mwXuDX6f9bMP0HQiJRQXN/Cf/uLnpNMZwP50PfqQwyfvO0Nen3xv2kA0IrhzvcOypjgDw70ELLOFjG9HSVKux4Lm5Tx+6Ax/9bUjYVnv9PGEZOFetDXGPveldzg8YGhunIPR6TzHL9ux0TgKegbaWLOgmVXLnBBzEZRyexpeft3lxWMdlJdV+Q/AzRiEWZVDjhNnZHSQ1XOr2HqHM2Xa5ZKPz1hndvNtitYySTIxQm7cw36DEBKDQQvFeErzwlvHUfEG/+4yOMns6iMhDJ39baye38LKxQ5OhEk68nJMaQkoBzZvKGFOVRkTyZHJdxZUjmmrG02kiodefJPuwXFi0aK8M4rwnhwnxvjEEK3lik23+Kjkd1NwoA1SWmbqVQtquNB7ASltRWTgHGXfpzEudZWNPLnvCK8d76G4qDy8J1OgfHkiMcb86kq2b24Oq5CvVKQApWD9Goe18+fQO9SJ0R6u54Yl/MEYjechgaJYEScGhnhiVzvaPxuudWT7Bho7mVCsEPCBeyL84b3Lee3ka6BiIKKZMJjJdM0NmUONxPPSKAXr5q9hzymPD/3BE/zk0RTptJkeZSqssmidq9hyywrO9py0Ye+sCpTs1JYEMC4ugmiskpqqGWjPw5gMs2aQrgo8HC+L8Tem4MDpfXzq/jv44H0RohExWVlPmsF8sQr+trVlVMgJv+/N1IvI4KGcYkrK5/NX33zWVkToAGk/HcvDZpgFtoz2i994keLyBSCjSN9zmx6xYOUP3B9heV2UwZE+XPLC9FkShILjkQhVVXP43T/9GYeOemHDP5tlnZ7DzGjb5+d3PrOP/W1DzG5aCELZrsPveQlSHISAyffdu5KyiGDCLRBSz0/1uhPMqJ/LG10R/t2fvhOms4RkWj23oI9P9vcW5DERNvobiwk+fP9aTvWcwVERP0LkTrLEgr3jpsZZ1rycv/3pAf7HD1JhCfLV30N2hMO2SPiv3+zgX/ccZPGslYyn0ohsMyHASJmsA8y4dPcd4xMfuBkjQEub0hDBn8DOPV2YSA1IZcHZ5GNbpM/do2gb6OS2NS046mL4jcCc8L8hfx58eGFLs2TLrXM539uGklH7j1lzbITVh8I/iCtLy23DU6HC3k3ZBo/20iiRpneojXu3rQqve5mdYiaN0WiorBBsunUF3X1nUMZFkqlWCsaZPQ115TVEI7HQeMhO1wgf66WNoLP/AlvXz6epyWKastfj5cY1jdAhJGrHlhVMJIfxjA0EeNoL7acMpxi4CCrLaigqyhSABHQKmYHa59A11MVNC+eyeL66rHLzSSJMGAWPReH2W5dxuvckmARCikwFnv/MlVQo6aCMR3NlI7tfOkkiZcJIZOZ7mY7AaY7c4Lh5YN1bmvGvfOEWHlw+i2PnDuBI2/V8KjFC+zw7Go8I81tupjdVzae+9C986j/u48DbLq5rLcaAkfPdKiZj4K7bZxFN96FITQJlhg5eEBrUhmi8FOEUo2QEoXVeqByC5R5Y5zFHcaLtbe5eXM9ffX4+juNHFvKrKvK+ocBoMQJWLFE0V0i8dOKiDU0VgrTrUVc9i0Ndw/z5Vw6RTptpUuQ+/kzbUs0//eIBDrQN0FQ7F89I9HQe9sZ26K2uEHzgntUc6zyJcxkJaNdoGmpnMSLq+Ogf/pK9+11Sqcl9cK58PP660zA8bPitz+zjZ6+fYcmsFX4EyUNMd5z2GktgR6xf57Bx2Vwu9JzwTdkCBk8ISBS4WrFo1hp++NI7fPrzezHG4Kav3liwmBXfSEhDe4fm8DEPL9j3ZB/mWcPzMV6/+uFm1syoZnCoK7yPfE9dSWlBm8IQi5Uxo2El/+Fvf8w/fK8XzzWZKPLVPEoN2rUG8Z995TRf/ZedtM5YASoOBKn/QgzCoFSUCz3n2LF4BvdttUzoyjf6NICAgRHNzr1vMKO2NdSpElA5DHwW+JpKJ5ldXsr/8uGlFiD7Lg6ccL59vb55w0I8LzHZ6TLaZzQWIYdZgC3R2sMU4vURDhNjg8wvg+0bMxiTSeO8gmfiKME9mxpJjl/ARpOmPneEdBBK+UbN1I5aRClGE4NsuX0xTlS865M2aA3iOIK7N9fQVBYjmRzzfzdZvwkh8Yy21CbyYsUPtgorPdHJA9sWEsDBrjy5nNlhQgnu3VLJrJiH6yWxeMTJ6zbtWjhHbXUDe946zb433GnJxFxKbqCx4x/2WG9RKBte/qev387C4l7aOk8gVBTtKyCb2rJKVOtgk1gyKLTGS09QU1HHknkb+NkrF/jYZx7hT/78DIeOeqTSBu1OVkqayQth8sKwsLX7tzusmlXC8MgAShaFYwnfFeai7cO3pYjaIkcEYerIRjODa0iEUMSdCOe6zjCjyOU7f7OZ4rgoGJYtKIZJG1tIqK2W3LxiBp2DXQinCKEieFm8B9kihMHoJItaVvKNn7/JP/4gheeTwdnp1YAJ8QVBtj5/q3vZgzCE4f502vBnf32Bbz95lMXNSzE6aT8tc4nSCm1K5UPaDOaSilcIiEYFv/3xVlrLYgyO9FjuDZHJZwfPIeArcbVH0tPMnTGPESr5+Gcf4js/TOO5lgiyoDqbtEQySjn7/VrDW+94fOR/e5ZHDrRzU+taS0ngY1ouvvmmB9Ny1RJUkwEI/IZ/8Ie/dRMq2U4qNYxQk7FsoT/sHwoGl0UtK/mn3e187JP76ejWmegI5KzhgNgtG4+TMVwya0/7gOe285rPfukU9//2o9zz2z/ms188atNMHiEAMnttBSOtKBH83q/exYkLB4iItJ8WArL4tNzQmLEp9OJ4EXOaVvC5v9/JH//5aUZGjYVeicnRhamA58H2066frHENnd2a3/z0a3zj5y/TOudW4rFShHF93E0Qxcl3miSuhs6Bdv7o97ZRWiyIZp1/gUP91K4hTvWPEotXhHdvwfgaR0asThISKTSdfWdZvbCFObMyvDWFVmHm3/2fRO7vIJPeuGd7GSubGxgd7bcQYGGdPC8vESp8TqfstgzZ1xE4IKN09F/gA9uXM2+OCnXCJDvwMiMDQtrzZ/0ah/XzaxkaHcIIB2MEikwEXovMWkZnOI68LK4jGY4bOgc62LJsCfdtK+JdIBGyxH6pUjaFvH39TVzoO+WTNWaiSrYnowrPmBCf42OJ7Ev5e8dG8RITw8yrcNmxySEkaM6Sy4m5C6EQQoVwx9VLFTtuaaWt9wKaSMZ5ENLvAamRQqDReDgMR+p56vmBTHHRNcDqBPIe0KYZERLKywT/+NWPU2q6ONvxDkURa+S4Jqs31aQISebnlI7SOmsdsfKl/Pen3+I3/v0v+eP//Co796Tp6rFkS6k0pD18fI/IRH806Py/e1bZGwMfft89dI8MkNYuhRqXFpbJ6kJKy0MgpUQKydmO48RT5/l/vvog9bWZJn/vrn2DDA/4HVtuone0B4HB89IFeA+ygX82kjZnxmq+9O1f8DffOhNWcRhtt6vWk+8lOJBsqsryCmXmDgaGNJ/7wn7+9mfPs6DlZoyITsIfTJsIe92GWsmf/N6DnOk8iEMag+O3+5h83cC7dT1DY80cSqqW8Plv/pw/+vwrHDzsWo87bSMFrp+NNDoLF6YBofCC9eTZKEN3r+br3zrFx/7dLzjY4bGy9WbSOpj/DHnkv0WRAtavdfjI1uWc7jyGwJbdujmeuMwxUOz6irK09Q52H+nnI3/wC3708Biua6xh7QZ4KWwvOrC4KZ+rSvt70CDtXHtwvkPz5W8c40O//1P+x863GHVaKalZyzcefpmvfvssOouSotBekhJ+86MRti+q52znSaTKJw3NF2tsROMVLJyzke/teocP/OYveOjRMSb8AgkdrA2duaZBhLgEN21TN55r02kjI4bv/qSf9/3uw+w8eIElc9fjRCpwjWdLnoM0TTAC7YUGmRSa4+1v8rHbVrD9jgxWJzws/Gs+tesQpUUZnh4hJEK74aEoZSQsQXYTXdy1aaFlS5im5RlxBKuXtXCh7yS2i7PE9TQRNXUEZbLYyJM0kE4Os33TIkJKh6sUz0BJqeBX7l7LyZ4zFnMzVZfOi4wPCLuwt/Wd5ra1C2wq590HdrK+20I4PnLfLIq9QbQfObmkZBnGwf8D4/ZCXxvbbltATZWclm4EQYbmjvXzGZ8YRIggoJAx1rPF4DCrtpWdL77O2ITBnaZ+iVOJ+sIXvvCFa3uJi4v2/Xbp49ql8qMSNy3hmaf3cn44TVVFEzay4IN4fSVohPL3tgxTAsYYBIZYJEpjZR1pith39AK/fPZtnny2m7ePxujtj9HbZy3g8hLrTbjaKiXPmFBhBQfYyXOag+94HD9rOHx2iGisFJsusle+uGS7rDr8WSBxpORM12li6Q6+/7WPsnq5Y5vE+Wnty7J1BJO8GIP9bHNThJdeGOHswARlsVgmkS8yOJowA+f/UBwtJhYr56HnX+P1l8doqGmguUmCyYClg2cVfFYIkRM1MxomJgw/fiTNf/ryHh5/4zyLZ9+EcmLWy/eBFRr8SpOM0Zh7KEkQDgNDbWxdM4N1qyqyQHRZ4YbsefB/s3Kp5J3XOnn5ZBeNNXNJe2mM0GH1RPh2A0ZrGwbAUBIvprS4mr1H23j4qaO0t5XhekXUVAricYGnM3TuAReKq+3Uep7h1dc9fvJ4mi9+/QV+9PxxSstamFk/m2Q6hVLK9noTtuvxxRVM+GQAGB4fZdGMUh7YXpPX/2eyGP9/7xxL8PjeM5SVzWRy+5CMGyox9A53c/ctC1m9XOV2Y86a12DNSF+prVreyE8fPsq4G6UkGkcFYNPw+01eqs52nK4rr6Z7VPPTp19l3/4UrltLVYWgtFTgeQZhLFZE6wzmxBhLzplO207T339omD//+i4eefUc0eIWZje0EnEciqJR6suq+cmuF1jVupzWOYWxCBlbU7B88Vz+/id7icRriTmR8F4NPsFa1h6WQUmtMdRXNtAxlOKhZ1/j5f1Jhkdr0Abqa4QfEbWrLaB00AY8Y5X6/gMeP30yzRe/tpfvPfkmJtpIS0MrnhHo7IaSQoQvI3wcmVSgYnT2tdEoO/jO13dQUSYnAUyNgaPHPL72zweormqxZG8EA7L3pRyFQeCiSCYGqFX9fOFPVlBcbFN3V9svL9B4TbVlPPLEAWLxKiKRMhB2bVyJE28w9A33ctOsCv7kf23BiYjJ/D/vQgw2clJaUswjTxwnVtwIxrPP+hIjzJ4d40dXUqkRyr0ePv+p1TQ12OdydaMDi6mC2hrBnt1naR/wiJfUI7LOlEIiCfjnQRiN9CNUnmdIjbfzl5/dQn1dxsHOvbdgx19Mguv7a11Ay8w4TzzVwagbJxZRNqouRY5tanWfJBYt4lT7EW5qXcDieRGr8sXlXPfK5UpM62svwg/5SsG6mxy+/81P8Ouf/jln2w/S0jAPpINHrvmXD5AMNqfWlo9HRatoaa7HAL1jg3x/9zH+aec+KlWaxvIYLQ2lzGiqorhIEYkoIo4i7XqkUi6plODshX7OdQzQM+oRKaqloXo2Sc+69FfIhxla2UJIIsrwztk3mFch+fbXPsqq5Q7S8R2fzFvflUgs5XosJvidj67nt/7qh8ysuAUtiyz47yKf9LRLNF7J8gWbeOnMcd74/ENsW9vKLWtmsuWORma3yJw+QcbYijpPw0TScPAdj70vt/HCvjPsPtxObc1CFs9diCaN56VQIpu3dfpFSLuojRD89RfuYvOv/ZDu/nNUVdTieor8ighjDEpJ38NVeFojVZyWGWtJpcf556cP8Z1Hn+WWeQ2sXDKLxtoSamtKqawqJaIEQ0NJ+gaH6OoZ4p8eNqgAACAASURBVNS5IfYebKPfjVNd2cLCuYswxiPlpqwh7aWy1oz0jfRCCcH3tthePIKGOskXPv0An/iz71FZdCvIooLpjLA+FRC4pLSgsno2dTVzOHDuHLv++mesaCzl1pvm0FAXY/asembNLMbnlKN/0NB2vo/2CyMcPt7NvsPtDHolzKyby4I5NgqS9lOtrpsiEi2juWk1n/zij3li9sdYtkj5DoRGZJ2OApuWW75U8fXPfoLPfO0hls1egyHqj30yHkkIYUGyKoprDJU186isnsv+c23s+rtHaYqlWbe4hQWzq6mqiFFcHCXiKFJpl9GxJD39I5xpH2L/4U560xGqKmYyZ85GhNGktA7xKp7nhuXhk0WTTAwxMHCCf/jKx5nRZF2uHNC3n0b+3k+7OTsmWFlThGsmA8o9bQn/lIpzrv88v7N9MdVVgeF09QdOAGFeulixblE9e0920dhQYwsWfILPyxENKFwu9J/kk79yH44qQHT4LiXAey+ar9i8dgW/fP0U8+tnX9mX+GvcEw4DQ91sXFTHiiXONB3Zwd6BeFTwvnvW8ZlvPkdVzYIrGx92zpWE3pFe1iyYw8rFisi7ASYXEmHxYhUVkvU3LeC7u49R2jQvhJ4Ak3ohGiSlxTV870fP8MBdD6CmKVpXSG64sTM51Wo71woJyxYpHv2nD/Crv/9D3mybYNHsm4kqieulQtR7sB8zGaWMcjD+5vZ0EoCKoiKqimchdBPapJlIjPNqW4KJk11ooxFGo42woUf/m6qKKohHm2loKEYLh2RQrWMuzypRwsHVni07l45NqeDx6qnXWVsv+d7/dQ+zZ6lMqFPm3sWl9vNU7wtAih99MMIvH29i55HjtM5ai5T4Bo9v5YfzllHv6DRaSGbVN4NXzTNvdfCTV04z50c1zJlRQ3V5EcXFxSgMUimSKZfRiQQ9fcOcuNDN+dFR6svqWNS6Dm2i4fUUthw4SN9prcmtZHgXqzwvwJN9/zObJF///If50H/8B0pjdxIvqsHzK8CkCT7qh/CEH4I2YIREmjRFjqK1aR7aa+b0wCBv7DxLMp3AkZqIFCipGE97pBHEnCgRFaO5YRm1OHjCweikX6FnB6iF9XJsiiBKMp0iIjSOygD5LgZ6vCGSNb/BnkD4UVgJH7wnwh+/toavPvIGaxdsweik3xoC/+BOZ04TLF5ACAPGxTXQUN3AjOpaBscH+Zddp0m4SeJKUhJxcPzTLJFKM+ZpPKOoKCqltn4pdTJuqxr9OfbjLggl8YDqilrGxmr4/c/9kse++34qygTSmby+DH4zww9FOHliOV/5yT7WLtmOMOks7IgM9YzneUghLWu6kKAtcefMqgZEVQ3aTbL/5BBPv3UCYzwL+vWjeUpIHOlQWlRGVd0SamUUD/sdQQIwOBSCCFJAwip98K6QDqnkEIdO7+X//OSH2H57JNcr951FjMUCvfDaUZpq5qJlBLyMoxNy3RjQfqsU7U6wbZPl9jIQXvtqxGg7nIgU3LVpOY8f3E2jkGjPQ0l1aWCqNpYMTzikU8PMLTXct60IVeBZvhsJdpuQgAsbb57DD/a8CnVNaBknH994cZFIoRgc6+euzVst9OsqhxkUbQeYGOnAnRvrafrHCJ6bRGAs5jWsutJ5nw/Rc/ZPqZDC40L/Kf6PX/+A5VGa8pC5HGsy7z3G+pO/cvcs/vWZl1DMxiPuBzL8rvFZn3G9FHXVM3ntxNscOuKycpmFrWjthjij6ZIbbuxMEhFsdkBKZjZKfvyPH+PT//kVHnrtWVa2LKeoqIL0ZRfy6JyfjDYI4eCoIiJFpdSURtFGWNBUVl5BSftwtHZRGLx36YEHZFNCKJSA4dFOTnUe4f1r5vONv7iZuhqZZVlnzNrLd1ouYhZJUI7gTz+zmV2/810mxnspjpdbQKmXtgpNkEd2pcOhaCTKKae2vpIqFGkvzYHz/y975x0v6VXX//c555mZ2/febXdLtmU3m55NJY0kQAKhKEhHERGxgBpEQMGAIBoUlaaoiKgUEYIV8AeIhhQEEkLaprft2b57d/fu3jIzzznf3x/nPM88M7dsu1tz3nnNK3vvnZnnPOcp5/N86wDp2p3U7FaM4IOedYmSSWirdNAx7SzO7W8nTUdD6mbhO5UXOaO1Ear1Ufq6eo5YR+wsfuGl1yZ89O2v48bPfYuzFz+HUrkdMICEBn7NbjOn/HHOfmsFlOmke1ovnT3+ppIiKPHB8dO1QZyP/VGSkrp6HjyY3WqKR0aZComC4eHtjNZG6Zw2O2/YetwJHZj0Zq20bwvwJ+9fweoN+/h/j9zJBUsuwEoJkXpzTNuYO2oQPwJWNB2d85jfcUqI/UnzIG6lFO1aMVMnOIGS8uX7bXBX0/LQkc1hPbUsnnc6D6y+jw989HH+8o/PxKHG1Mg1CqzyxeU+/Lvn8MymUf79nv/jgiUXhiaUYbTOu9vHWnMLD1eUMeVOevr66O5L8sDQLMbPoEIyQIqvcxPuKcG9MN7R98UmDdYpDIpadS8Prbmbd7z8Sm54yzRfrbgpbNEHSjgH37ltlIc3bWXZqWfg0olqhPkCdQP7dnD+wnlcfmFScJMevqBQWeyyghdf28+ffb5MrTpMOQmB1/t7WNQG65UzWwe2cO05/SxdolHGJ0RMVXkIjb8XvvCqhHO/3Mm+kUHaOzsoSPwDwDE6uo/5PR1c/4KZh+m+GgflT/fliw1XX3g2335gHUtmL8QWO2pO+nnf5yu1QyztFK6+xBxCxeT9Y4zvPHDmnE627dtJZ/cCEBsCpBviDaCcGJRrY8B28vX/GeTsM6b7Pmc6ObB9OgiOwwhJnb+y3iBzZmn+6W8u449/8TK2b3+EDds2kJgyvpsuFHM1Wr+rOWuAvNOsj+1xGLEoV0W5KiVq+ctIFSV1NDakSPsnb9+bJlykB+BrkuCaKyVl1m1Zxa5tD3HTL72AL336OcyaqdGmWPX54C/csSHDjRnJ4i3OOSPhj97xczy1/m7E1XBiEFFN1aazOkat32slxUqVhDpt2jFnWh+nzJjD4pnzWDBrHov7F7Fk9kLm9s5kRmcXHSWDS0dJtAoRpy1BadaCrbJ83iykPlgQBodIS7xSEa19yuYNb53B7//C9Tyy5keMVodxmBDz1cgtK9apaMxgo6S+s6P+nHBVjKthVJ1EW7QbpaRTEqlhWuNiCpkS2ROWFU2tOsTI4JO87VUXsLi/l+HRkXFKExz/ZCI5KSk+/8kr+emzunlg9X0onWBMmayT+xgKGYF+nzW4ug8mdzUMNZR2aGNJjCPBX6NGqljr+70pY8a5FWbHDJQSak5x+qKL+cItd/K9HwzlAZPZ87Jfxlxeo6dkFF/41MW8+sI+7l51N0IQLNn1HrLLxrv2s/PH2lGUpGgZxaUjiB3FuDqJG0W5EZSroUnJGtg2enLndz0aHbCyBy4fRDxSH2Hl6h/yjp++nI998AzKZdVIMW+dBQffu/0RnK40goagkDVK2HtHolLWbHuaF1y5gq5OVTBmHP5ik2fTWZg7W3Ptcy5g48A6XwH4AAKUnQKlDakTRqqDvPS6c31ZDjc1dbAa5wGgfLPbi8+azbbd25ADUAKOxrlsJGXn7o087+Lz6J+pJ7w3HxyFtS2EXApw7XOXMrRvI1DDmGTC+0ce2B7OfasMG7Y/wwsuWcrSU/VU6NlmlO+23tGueNnzz2Hbnu3+YTipjL9fziIk9PWewu0/figIN4pBdVPG8Xt3DTGBWfpiuaT47V9fyj9/7PWcOm2YB566g+rwtsJiGXalKbW6dfEKbxGfRm20QSTFKAkF9BzWVrG2irNVlKt505uSQ16IfD0Vy67dmzlvwUy+9qmf54a3zqFSUZS0hKceCS6doollamI5lPbxjL/4ujI3/MwV3PfU/6GohSyk4Loa94T329faB3+L+Bu0cz5hVGvdWACAkk7Q0nCRAYX98T2/jKTc9/QdvP1VZ/DuN89my45npjAza5zvCbGcpZLid97ez++/+SU8vvZOhvdtwS+K+7+ZSWbpURKC/FJ/zrkU51Jv83M1nKsW4qGazxV/Iw0Lmhth5aof8Tu//DLe9qYy23duJHXNpeYbn8qsbEc2rqe1ZcCYv0/0h/Aw4gS6uhRf/PQLedm587nvqTtI63ubUqTHZCRCnpGmtWlct+LdjL7auBePhkacbmYJsdlctwgPCVlMjZgooZpWGR0dzgtGNo/DX/cmXCempPiHv7yOt11/Efc9eSujIwPBQqMP6Hzx1iZ/rRgdMoiU9WOXFOeqiAstY8bJDizOj5+bEiWlGBnawkOr7uD333g9N914Wr7otSIhwWL1esttP1nN0v4lWFcfe/8qpExXa0MsaKvzoud2FOZ56nDO+XhE4PprTqE2tOmAs4mySu9pbR+Leju4/gXT80yxqam423DzKAUqgZe/+GJwwz5xYT80Kud7P9jefc9w/fPn+8KCUzC6pitH+TXCaPipa0usmNPF0NAenJOQsj/+Fou/FWD38E6uee7pGON9062Or8MdeXZJvuCaxSTiXW1OJJzvzd/vU+Q1vV0zeWDdJr7zvWGfGCRTdXwbHAdiZwL92/LEboCyUVz9nIRv/OP1vO/1FzG6+1Ee2fA49VShTIUUg9LaN9hsqUmRV2AGstYJtvDkaW3NN/XUBqMb35N12c3qsyTK+LiOUAtES3bDDOSxCf6lTULdDrNveCMfe//ZXHqR8ZWR/ZvR+CcUHbY1VfOnCy+joJwoPnrjGbz5mrN44MnvU62OoLSvAqq1wSLNxRGzl3P5/kmo9mzFkeYXs78Z2fCU6IWRUHept55I8LnrEj9Zcz8/e9k83vyGMvUUhmvDuGJfI2mIyiylPRWLDvZbJY0naF//pcl+P/70SNj/suJ9vzmPj9/wCgZ3PMj6LWvQSQeYBEGwZDVdGvMpImQ1NZTSeeXrbHsa75pobNnl++szvFSwBmpU0km1Xmflqjt5xyuey1tf3wkORocHcChSZ5sqKjd1o9YaJRTqM01MGmIk/GmYCVVvYbTjpX9pnde+AMI15/KHjdaZbT3bNF4kaAMdHYqvfuYy3vLceTy85m527d2dP9F5EeLy6yWby+y6corgKi5u0bdxsDRanGRuJCPihbLWIQ6oWEBNI7pCtTbC/U9+nzddcwEvfv5ML2jG7FHWRdyFVDPv+v34Hyznwz9/KRs2rWT9to3eBJ/Nnzis2KYlIT8vwp1eZfsaKshKCGDNxp+934b/tBDuLV7c+fOohDbtrNq6lt3bV/KXN7yC9//WfMpl5YWZGns8siagt95peXKvw5Ta0GHumqxR4UFFVIUtA1u47uIlXHh+4oVO4Rw/XPKeb94TxeUXGM6f183eocFgOduPdUccJWV5ZvtTXHv5Cnq6FEnWfWEqVFlWR0rCdwpc8ZyEpdO7GR7eTWbRH1OfrPiz0qDKDA7tYcX8Ti493xyxldUn8EB3B1x2Xj8bd2wgMW0+mEcnwe9QbETjSLQKVk3H0PAeLjhlLi95QbcPQmfcx5DDGmP24HDB2QlXnXs6m3esw8+jPxf8WudfWRC+0QbRFW7/4ROEXAMma690KBwHYufAySyfvdMU73vHcv7lr1/PL1y9nG1b7ubxNT+E+h60EsS5vDEn4UZ4KE0WG3aJZopPeWOeilXz7VThMMZQTes8ucaRJD6F+6hNfLZgGX8T/9s/vZQb3/ACVq2/i1271lJOFCIqFKTa/81jwnG3BBobXcGoBGMS6tU93P/E93jT5cv4/F+9BK1gyzbBKB0aDfpg5WKn3LznUWFM+b1NDnL2lL8AEwNvf9NMvvLJN3HGzDr3PnkbaXWQSqnsj6cq5Zd6diE2yvLvJ6amMG7nLCiDTnx5/JKBHdufZu36O/nAG67lTz9wOsbA7kHxQbjKW9l8TMc4zVoP4mxR2ld/zp58BeX9305ItEGpYPLWiS/45bLA6EOvZq3BW3mCFe0zf34Vf/HO16OHV/HYmh+TUEMhaJ0EW40Kc5U5EFzrtx34/orGoYL5W1MplakY4ZnND7Ntyz2862cu5zN/fqlPU1bjHb+G8yjsBsb42jDve+cZfP6mn2dJzwgPP/1/SH2AkibEPhgmWxgmbJuVW6L854w2vs6N1l74K59i3JZohoe28PDTd3DBPMPNf/Emfu0XZmMSCqINxsyfgLPC/7vlfvqnL8VXTB7/vBV8DN3gyABXPmdJ7lo7Uihgep/imouXsH7HehS+IN1453z+0j7BoUcGeeMr50251anJjRPuE50dihdedRHbdq0LQpVwXApvLtznDf4aXr9jA6996SVM75ualHhgzAOdt7R79/wbX3MJvWVDtV7DhWbU2UOiSJY2r6k7RypCohWrtz3BZSuW0tnWEMtHAo1fr6++5HS27l5LghfvrWTFD8XWWTBzEbf9eBVr19vCt0ztmI5r8su08MQh+Cf1c89O+PRNp3Hzx1/FL117KqO7H+WeVfeza3gYnXTiVAmnEiQsGCq4WnRBCOWGtaB8fRsKR1ZlssnKAcEC4j9r85oijvFufBpIncXodpLKbL76HyvzRptHuulZTmHelIK2NsUHf3sBf/+B19NeX8s9qx+gagVlKo1KuIW4hGy+miwNhVf+FJHFAuQ3ci8e1m97hs2bH+KP33Ilf//xi0iCS7JWg1FrUSoJqa/lpo7YSvnFuJRUGLWWfUO+269ThX3KrBCTvQrxCZlYvvKShG9+/oW8/7Ur2LntEe5e8zCpVSRJBYvGis2FTfYUMpZxzL3i8puxMiVEJaQWfvz0fcxMNvGFP3ojv/fb8yklvraT0VCtp2hTRmtf+FCFbIbMsKIElHNYgVo9yIRJTh2Dyvd5dHSIwbrFKY02pYJYaxxBXylWUa3XqNayFLWDvy3kR137gNdf+dk2vv6ZV/LK58znibU/ZsP2TWhV9n3vdCkUsnNN59W4FK8/ceiW//y2NTppB13hmYEd/OSpu7h8oeVLf/xa/uTGpVTyeizj7Jc0XrnQxV8rWsPLri3xnS++kPe89mL27nyUleseZrQuKN1GkrQFy1LzPSIjq7zrVPGKKYgr5W2D4BdUi0Yl7YzWqty9+n7UyFr+8M2X8K0vXs3lFyWUSoSsq/HEi7fGWedr+Nz79Ab6euaG7M/x/wMYHNnLspmz+OnrZzYWvym8NRVHmsVFXX/dWXRoR2otNhRJdE7GvKxTOFVh48B2LjxtFuedlUxBgb5xRqhck+gRJ7zoqj5kxLu7RVXwQqMocLX3eYXjaK3QoYVrrphLuaSmTpQpCtv06OCeP/+chBWnLWbDzmcwWR8qsnNYoyTxD5y6hFBmtDZEv9nHz71yPqXSVA1wEjT81HUVzu4rsXd4N6JKvkCty9xUYEyCuBSthK7O6awaVHz3jvSIZJ8ff9lYLYx3YoeHK2+CM3DVpQmXX3ghP/vgCv7jO5u4+6H1PLzuCcS0MaN7JpVyB+1tnfjyaQSV3vzNquX3+d8LiyWEGBzlQEI/haSSS52mMRZ8uaIS+nvnc9+T9/Pkmgs4c5nJfQ1T/qQyCVl6qtHwmpe1cf45r+eTf/c4373rXgatYsHMBXRUurAkuWixquGkG/f5MLsYJcULCoetD7Fzz2q27t7IlcsW8p5ffS3XXV3KTe8OOHOpRo9uZveuNZTa+ygnJZSTvOWEQqG0YV+1xujedSxf9rxDaFRXOCqi/U1NHEkpocsoPvg7Z/O85y7nS//6NLfe8xMGrWbe9Hl0tHUhOgTUFQNTGd+6owqiyrtCheHhHazdsYFulfKrzz+PG9+xnLn9CoxCGT+Uni5Fmx5k3cb7OWf+adSdGxN0qbXGuTo7tz/IskWvPICbgKBF4RScvqyfcn07+/asortSxiCk3saSv9toze7B7bTVt7LirMMxvzeuAmP864zTDH/755dy/Xcu5F++uZI7HroDU+pgzvR5VNq6vcWp8OAhhXnOYnPIrT8tAwtxTGJHcOkom3ZtYWh4BxctOYV3vfrl3PCWHnS+MjqcY//W3ZAMqfFCxWRurS7F779rOS963lI+/7XHuOOBh1k7NMop0xfS1dlDYireklyw2GRxWir/feu2vHBNbUrJaGrpPvYO7WH9zg0smdbOb1x/Ab/yxgWcudRgSuBSPzYvzPSEgaVGwZq169iycy39/edg7ShuAoukwrFq1b3c8DPPo69H51lTU0m+58rl83HFJQnXnrOAf73vds5fcDqizLjF+wTNyIhj06b7eM2v/yJHYHhjHKfgXf4XX2B48YUL+Ld7vs/Ziy8JsaFjz0OlIHWOlesf5+cuW855ZyZZQtwRRyl42QvO4b/u+ixzuzSJqfiipZAHV4silHNJeHDVnbz+OQu48JykqWzLkRzfolMML7nyVP7s5ts574xrmxJSLJnr2rt3q1iG921jzbo1iDuDMamThzseOWomhiNIsJZkinFgt+OOOwe55/61/Oi+tWzeY9ldS1ClaXS3dWNK7VRKbZSTMjYLPhTxJ6ng688AqViMLmFdnbRepZ6OUK+PMjIyCHaI9ko7vT1zSSpdZI1xstlsEggqQVSJVet/xHtfexa/c8MZlEpZjMpEZ9x4l+EhUDy6qvA78fEdqRPuud/yb19fya13P8WmYQNJH12dfbS191JOOjBKB5eS30fnHKUkwTofa6FE2Deyh+HhXQzs28bsUo2Ll0/nZdedx5teMwtlVF7dNaw91C184eZ1fPwz38JUZlMul4P7UUKlYUdqq9Trg/ziq6/m3b9xus+uMsW5Ofj5kRDAItofKyWQ1oUf3Wv51v88xO13r2bdLsuo7qancybTOvqolCsoVQoFuUxTnJGPdXFU61VGqvvYs28n9dHtzO9yvPCK5bzmZedy+UVJ/jSWHQMHiIUf3pty44e/zPa9UC71hDixwv6phH2Dm7n07H4+/pGX+ywPk31H43265V8OXz7oH768lU/9/TcolXu8BSn4m7JPWuuojWziHW+5jl/7xeUY0xDFB8Yk56nz15PDu1b++7YRbrnjEe74ySo2Dxlquofujl46Kj20VbrQSQXnBK19KQhxFotgU4tJDAmK1Nap1oao1UcZ3LcD0j3Mardcdu48XvT8c/ip66bRXlFkLXkyF9uh7ocr/CPr2/TAIynfvmU1//v9R1m7s85u2053x3Q62nuplNpoK1eCa9iXKSi6IrRW3mqRjlKvDzM4vJuR4Z1ML42ytL/C9c87i2uft5izlxsQ8W7vlvhFYHzri/LPX5u3On71nf/KIxtGmN41rakGSxZTltqUanWAS89dwJ/+wYtCmxopuBgnPKqHSGN+bR2eWmN5x/tuZv32KuXKNBKTkNqUxCT5OJ1YRkb28JoXX8iHf/cCyuWiG2nKBjZmnA6NONiyzfH2d/8nj6/bR2eHL5Nhgns4uwc4EVx9D8sXTONTf/IqFi7QB3n9HMZInc98+tCf/oT/+O4DlCozcl2tAZFwLxFHrTbCqf1l/vwPX8MZp4VHKn34dZQmRXx/wW07He/90P/y40c30dXeg6Bzn4jSSYiFU9RHBugoD/PpP/kVLr0wQU3x+E4wsVNQ1rnlhMbPWdCfjw3FpbBzwLF2vePulZaHHlvH9l172bVnL5t37mbH8AhKl0hFMDqhZAxpISvK18iwlLUwo6ONWb3TmNnbyay+bi67cBHLFmlu/ORDDIxAe6Uj7zJbvEWICEqXsBj27VnHkmkDfOMLL6WjTSGTlmM/AmJnnPnKFl1nhTXrHXfdb/n+nat5ZttuNmzfxeY9Q9QwlI0hyUq3KUXdWlLna4V0VcosntXHnOndnHP6Ip53xTSuuDgB7WM4mtziQeBZn83Phk2Onbscic7idLJ580Kss0tx6gKDSaBRvv4wxU42lnxj/qaROmHzFsf9Dztu/cE6nl6/jZ27h3lmYIBhq0h0ggnWAScK53xdHa1gTncn82dMY37/DK65bBmXXmw4daGmreSDScWGB/zCZLggBoaGhCeesrSVFa4lKM+K/8g5ZyS+eJhuuDLGn4WG2Anx1Tyz0TEw4Hy8R0uAbOqE3h7FwlOMd/Ucppug6awtXJNZOxFrYc0Gy8rHLLf98BnWb9zO9t372Dywl4HRUSrBlai1IlE+jkXhGLUpRlJ6KiXm9k5jVl8P82b18vwrF3HWcsPpy338l9HeYiFKN8R167gmHPV47wh/k0wwNITkjp2Oh5+w3H7nTh5/eiM7dg+zecdOBkZGqQuUTMXfzMN1kyChYrFlZmc7p8zoY8b0bs5aOpfnX9HL+Wcburr9hOn9GdkmEDvg73+jVeHhxy1tpnGeZw9X+S1Hw2nLNKVgbRyvjtBhi538HPDnqxLlY1+c70f3yBM+OFvlyQxZM1B/4rd1NK7/JhFxhNZokUZVZ+v8M+yjj6chYNbPXXHFdMpnv51zusEkKrcGTh0Tn7kO8j59a9Zahkckn6RiMoNzvnDmGadpnxyT7cMUtAM5oD0IbZcef8rirDRdbaE7MyrcG05dbOjuUKhk6ipkZxz3YmfszbP55pP/XDgZ/JMk+Y07d/kr7xvetUdYu96xdsNuBnYPMTqaMjpaw1oJBQaFcrlMqaRoby/R29vBkkW9LJqvmdHnTchK+15IH/mrIT7xL7dw9sJzQv2axniyeB6f4m5IZJTV6+/h7z74Gn7mJSWULqwGk+/5oTOR2GnZUt4hOsxTrSas2+h4/Kl9bNqym9HRlDS11EZ92roxiraKoWtaB4sWzebMZYbZ05VvJREu+CyzQxcWZt0qVqVRZ6gpuUE1/u0s+ULcZEiebPrG2UdovglkzamU9hcjQVhIbvkSNmx0PPb0CJs2DTA8bBkaGvHmeARjFJVKiRkzOzlz+UyWLzW0t6uGZ89BOQ8CGWdQEiyJNMRAFo+diZH8FMmmtdWtmsetTLzPhLiYkCAW5oGQoeVdH8a0nnEHdv61GvZbP5UtsJlHnyNpBwAAIABJREFUKg1ppTjfcsKKsH1AeGqVZfXqrQwP1xmtOeq1lNS5cC0mtLWV6OkqsWjhbBYvMJwyz1s+lFaNudG5dxin/cI9kdhpvUon3dcW62j2hG/DQqPwPa8G9whPPu1YvW4bO3fto1aDtG6pW4fRikqpRFtFM2NmN8uXTWfZEkN3p/JxWTpbgMjdnPuvdjHWrSIiPgsynM/FJKzs38XrTBQkOojqKbfmjCW3rAaXnFAYjyq+L4zFeAt0SXFkFuf8oXmc8z38rVj4tNX9I+H4ZzFe+XV+lKw71vltZc9Irat57r0P97asOnZWn+lIHms/AD8+mxUcb8mDGHOOh2tB6/15Pg6eE1vsFJ4Y9ATKd9zntGxhyRYXaSxw+c1ZJJwUvnBX9j3Fg2MtPLHK8tNv/Vd6pp9BUp5G6yIkeNeHEk2C5eENj/HW687lYx9ciClNdrIdLbHjt+PN7o0/SrA6qLAgZhe1hsbTjfJ+18SvO7mJVxWCZBvzke3N/p+1m09yfzVLeLKaKrHjnzDDfpjM7OufMHJ/pvINTiX7giBOoPkpU8LEZO6GYpTJ2PkojD1sX2W+PSehSWpD7JjwRuujmFokPWTL9fhnP/m10TynzRPnCvMiKtvGoYmd1t9lWXb5NRW+X0QQp/K5J5jkobF4QDj38Atyk2jMjXLSMi8HOK587/aznxNeP+IzSXSSH+8syDn1pUNwlryKbrbgZA9KKL+PmdBxzjXFFBWtyxMz4R0u/32r2MkW6+J9zJ/a48/jkcSfk83nYjEb049tYjE/NYMI/28VO/nB8+PL7z8TtTHIbpYZR0vsIHkbHqCQrt1s4c063ott9Ic7KmIn1NHJbphjHoZaRH3rz1PJcS92jhjSbLyezCyc/bvVEJOZOd/6W3dw6yNV+uecg5KsqF5m9m7aCrVaFRl+kq9/7mWcutgUApmL73IFy9XB79qUsb85Kiw8R/MmeVQRGm0vJjtHTuY5ONKEeXUtPzdRnOeDELlHHTmI/Tg6I4pEIjybrzdF3kBPBxPkmFfx7+EzTV8RHth/6vqL2LFvW8sGHK0ImkpbD6sG9vKf31mHTWm2VuUcJ4dlf3NUnJuTlbB/+z1HjvU4T2Qyi9iBXIvZ+49XDmY/IpHIUSNec4eBBpISXH15B2f3z2RoZLDxN6GlFYIvp+ZcnTl9c/nRj1djU2l0/R3PajJuEbRIJBKJRCIHQxQ7h0OIZ5neq3jB5eexbttToY7ARNPqQCwzps3mB49s4K777LiW7obEiYcnEolEIpHDJa6mh4lRvmLsi6+ZxSy9F5sO+2aZExTyMgjatJOWZvOd27b6OiQhoj4jHpRIJBKJRKaOuK4eJlljtqsuTVixdAa7BrejTMk3NnShmEwBpTQKQ//0xXzvRw+yd1+Wd3psxh+JRCKRyMlOFDuHiS8MCGjF869YxsbdW3wRQQfKZOmJjkbXEhAUnZ29rNq+m+99f9AXhmoVOxNl/0QikUgkEjkootg5TDS+nHti4OdevYQzZ01ncGg3RutQ4KkhchzglCYVsKJob5/GN7/1g7wAWBMTFaKLRCKRSCRyUESxc9h4RaIVzOjTXHHeGazbvgYAhwGd+K7HSqN0GacSnCqhdMK0zhms27iboRFf3vLZWvIoEolEIpEjyXHf9fyEIdTVeNOrT+Gr3/0Wa9fvYXp3Pym+tw/Q6Kguvib8us0rmX9aF0loMt7al+aoVLiMRCKRSOQk59lbQfkI4EKfp/+9dQ9f/MptONUZGsN5EdNoRaGo1+tUzAjvePtLuPTCNoSpb3wWiUQikUgkip0pJ+tE61Ivbhz45pj4ZoEm9AjKrDZJ4rtiRyKRSCQSOTJEsXMkkEanXJX1VSrSWlMnBiNHIpFIJHLEiDE7U44L8TtZF9qJzDYxIicSiUQikaNBFDtTxZju5RqlFHlRQWkRNtGSE4lEIpHIUSGaFo4Qbn9ipiB+xjaWiA1AI5FIJBKZKmLMTiQSiUQikZOaaNmJRCKRSCRyUhPFTiQSiUQikZOaKHYikUgkEomc1ESxE4lEIpFI5KQmip1IJBKJRCInNVHsRCKRSCQSOamJRQUzJFS3kVAfsPCzVr4ruY6FACORSCQSOeF41oud1DVaUznrBY5zwsNPWlavc9x93xZm9Qnv+vVFYE5gU1ixmpIqtqrIChgW98w1ih7uV+A1vtgCBoUDlAjgJmmXcXSwkqKURo85ci2FG1v3d0xF7EgkEomcqMSigsDeIWHVGstP7tvOmg3beXrtTh5es5OtwzBQ08zRu/m/f3kzSxYZlDpBBc+EzUinQuwIoJu+yQEicCylTlbFWsIQVfFnQIu32KEOZn8jkUgkcqLxrLbsOEAcfOGf7+Vdn/hfOvvOxoowu6uPnu7lLOmrsFh18MiqO7jtB9tZOH8OSUKLUDhBpM9Ei/i4i7w+4EVfxCGZ9UbAZVMyXrf3Y0AmbJTyxxrC/wWvxAQOZn8jkUgkcuLxrBY7Geedez4zZqxn1txLKGuNUY7U1bw7RhkWTF/Id255kDe+ph9jVFgYT6D+VQJOwsKfDdtMTRySUhoFVGvCyoeHGNwLJqmglMJai1Z6ctGjQI6g0FAQxiKMjKYMD9cZHBxm7dqN9PaU+K23n4fReBdlyzhOICkbiUQikUl4VosdDaQCV1yccMnpp3Lvho3M752BOIcBnNLgqvR093HvU4/w6GOWFecliHMkWiMiuWvkeMSPT2EdWCs8udrx5t/8J97yxtfxqz/XTrmscMrH1yil8vcfDA4FAtt2Cm979+d5Zm8bHZ39IXIH1H7kglNHUE6IQ5Qfh3UgJKQCo/UqGsPo6AA/fGCQj37gcpYsNCRJJni830uJwDGOOYpEIpHI4fOsFjsAiYG6wEXnLuA7D9/KKX09oAwKA87iFCSmjQHbzr9/ZzvnnT0HU/YL9MEKg6OFcw6tNQqFTb3Que3OlF9//xfYWJvOe//66+zZdRm/e8OpPgYpUYgFbQ5tfyQEeXdMW0pvZQbtXafQbPmaWNC4I+zryqw1Lg849vOSaIOhxv88fj+PvfVr/MUfvJYXXFlCG3wwTyQSiUROGqKVHjAaXvWSXpZ1CSOjgzgSnAIXFmyrEmZOW8id9z+NzeI9Au4Yv8ZDa39YXXBffeN/6rz5fTdTb1vORaddwrL55/GBL9/J735kLeJAUtDGi6SDjVfXNAJ/E+XnUiuL1g6tHUY5jEonfJWUPaIvgyVRQklZykZIVJ2SThEZwbk65y9ZwT41m597zz/zqc9uIbUgohBRxzyTLBKJRCJTwzEXO9mCfKxe1oEVWLpYc+6yfgYGd/q/OVsYpWZ672zuX7eB/7696j+TKQ05Ri/GP3iZWBEHIyPCpz77DG/78Ffo7D2debNPZ6SWkpQ7WbHsaj71X3fxhl/9NtsHHLWa4JwGUQcteCDUIlIWJSkaC+IwOHRB7Gjlml6twmeyv7f+baJX6/uROorUvyQFSXGu5i0+WpM6xcxp/QwM7WXztq04J4g7Pi12kUgkEjk0jrwbK3cfNId72tbFW4WMmaPsQXCAdYLR8IZXXMF3b/oWszGYYDtxzqK1xuIwpS6+e+sTvPT55/nV/RjFKCsdMorybCLC/PqAYfBC7mv//gi/++lvc96Zr6C90kGtPoxSgkMwUuOiUy/gu489yqt/+bv8w8dexNIlBnHerQVgEYyvQER+7MKxcvnOawRILWzcupFN6ShdNR/PpFWWnhUOs1K44E8ySqEQXPGAK93i1HJh+36/SiYhbXlHbn2xFnBoBR1t7fR29VIXUMZgncvPPCUWpQzOOSpJiZ17drFxy/38xXteza/8/FySkvJCSLXsdyQSiUROWI58nZ0JirNZB9t3OL77vbWUyzPRRvxCnAuI1qJ3h0ZrXE1xd0X5xVJhcCph23bhs/9xP+W2uZS0QwUBIQ5EJ9h0L6q2mTe/8mq626vghtBGN9K3x+FwprdoYMjCSFIHQ/s2cdVlC7hoxYywk+RiR0ShUDiBdRss7/vIPfzbAxu5ZPH51CVbwPNvBV1hw+ZHmak28NmPvonLLkrQphGX21w9h4LYKYzTwr4h4cMf/T+27irT0dWf/QUVDmi2L762jfaCQwRcOuk+K+WtbHUr1OsWpYv74EUVQbxo3UapbTqDwylPb9pKUmpHa40Wl8fsiAhaG0pGsWnbOkaGNvOJ97yK172iTFIqhOuo8eoPRSKRSORE5KiLHeccKlgD/u/OIZ73i5+ka8a5dCa+EIocxeIs+ZbCyt7Z1sOcWYtJnV9ERdJ8cbTiqBhNtTrE+u0bSO0IOsvYmWRBrB/A/kz06dYQX0EjqsS+HQ/ykbdfx3t+8xLKiRordpTKLWejo8Kv/Pat/Nt9uzhnyRUoqVIUCw5oSxTrN61GRp7hHz/6szzvyoREK0ziBehko3TOgdb5V2YxTSKCNqpR2yYc/9x6ZwWlVaN69QRbEQlaUpgwW8wfI0U9FWwKN35ihK/c+mMW9Z+KkiwrzJEKaDTlxPDo+keZV9nHX37wFTz/qhCYnG/f5XMTpU4kEomc+Bz1bCytNc769bGjvcLShc8hmbaC9rLBumruhpkqRJotQ63f3/R3l1J3grg6SiVBODTeU7WgS9NYOLcHbUrUnfOtCCbQM1MZ+qEFnEpwqswabeidsYjx8t4zMaCCiqhUFF/8q2uRG+7hP+79ASsWrUBUOYgLR6INdas4Zf7Z7Bjo4hd+9wv85QffzKtfXMZZhUomSB7P4oZCMDTai45S4gWOCmlQbpwYX1/zR/HkKsvpS/0bjPLf0VTrJtQzkiAos/T4xhiUF1HOJ7pv3S780Sce4JZ717F49hmIc7nIFhKMcmBHuO/JB7j6tHl8+qYXsmyJ8ZYsByibz+kJVEUpEolEIvvhmKSeK9UIEBZbxVAHW6ekBFyt6b0y1c/WLcIksxYorXHK+QUSL3C8cGixbEiKUSDWUgJExnZdylBTbKRSoSuplTriUj+PjF8YUEPezFRr+NKnL6b8zn3cfPdKzj/tGqgP+/gZ8crT2Soze/tR6jx+/Y++yp7B1/OW11bQSvkChEFk5JaVcbaZC63ChDTNTQgIr9WFX3nXPXz7rpW85LLncN3VZ3DNpYaF840v7lcQSF5w6hA/5ON+cgen8sO3qfAPX6vxqc9/h51VzdL55yBKY12KE0GpEkmpjV27N7F28/289UUX8mcfWkGlrNA6tLfQAKb1aEcikUjkJOCYiZ0sBlQIwapK4VtJHjuKNoys2J2WzH3kfxZxHMtnf1+VWI3rzhmDAqOD60fB5z5xDSO/+WP+8/7vc8GpF5IkZZyt+5YPLsWZhN5pCyiZCr/9ia8g8kZ+6Q0VABKjvAsy3+6BxbSIiLfA4IXJzj2OX3v3d/nmo0Ocu+RabntiI9+4+984c2aZl193PlddvojnXloidUJiFMYorA2WouACy/pu2VRYvd7x8b/+Cf/0/adZ0L+Cpf3TqdsU41IvYpShrB2rN6ykXXbxyXe8gV/62XZKFUUywRRGoROJRCInF8emqGAwmFgL6BJOV0ixiHNo0+bfIoIoNcYNNdUIPqDXiEYK1WuKmeXFn332kW7IMuWOqBur+N0Og1JlnBjSbAD7aV1RtLaYRPHFT19K5+/U+PKP7uHsxZdhdGjbqbTPnFJ1ujqns/iUS3jnp24mMa/jja9qA6cwiSpYxrKeWq2RLVmQjg4ZdoJTirQqPPaU49duvIWHt9e4ZOlFWDEsmDkPPXMug0M7+fN/W8nnvr6SC89YwhWXnMnLry2zZKEmSZR3c4l3d9nUt6f4zJd286X//AFP765xwbJLqUtCamuo4O4rGcPQ8D4efOZ+XnBqGx95/6tZcXaSt8lwuLwbehQ4kUgkcvJybMROcGc4W2XNhrvpHhmlPUl8dbv8PVnK8pGteZKKIlEKrRQiNt92ZsnJt56JrlCBN7PvqKNg4ckEj1Uaq8qMbn+AocFZCPP2+9ncTRcChstK8dmPXQXvfYgvfP+HXLrsMqwqIWK9hUdSRDQdnbNYPPc8fvvPv4Rzb+Qtr+tCTXgsMsFTmIvwVhtStz7/1cd435/ejO29kPNOvYxqvY64eh783dY5n9M65+PEcdfqdXz7wW9y8zc6OG9pLy994QU877IOZvT5Plv/8Z1B/vErP+TOVTuZNftszlzST91VEXFYpyklQqId6zY/iUl3897XXc17f3MOHRUV4oL8WWXFNfvcYMLswUgkEomcuBz5bKwWslYG4mDL9pTv3bYGVZ6OMQnixrqxsjUnX4Na3TdTENA8XmxNnj10xGdnohT7gi0ppLY75dPc9+zZwKWXzOXMM6aRmAO1SoQMI/Gp4qkV3vauO/jSXVu4cNnVGFJSVy8EcHvxMjS8h6c3/IR//MCbef3LS5QS5adctWZHjW0Pkf0mTeGfvvIAX/v6Stbt6mbdSIXFs5fS2TENcSnirK/JA2htcK6OUZbhkd1sGdiKkRqn9fdx/TVXsnHrbm6+5X/p7eqnf+ZCrCqH2kx+/6yqMFLdw+qNK7l0Xjt/8J6XctWlCcYo37G+JXV+srmL2ViRSCRycnDUxU4R63zsxYE8RBfrtIz38wmLgzz/egIywdWSiIQyIYtpMlqKOqbOoZX2MS914YYPPME/3rqSC0+9EKcrDesWQEh1H963mb07VvLx972BV7+sg6Tkx5sJ16bt5INuxNaoEIxerwt332f5r1u2cdtdD/LI1l3M6Z3DzN5+dNKGdSGNX2uUpIjSiCSICHuHdrF57y66yu0snDnXT11BHGutEFdl1ean6WaIt/zM83nPr82ko11hgv2yaMhpFTuxqk4kEomcvBxTsQNe8BxMP81WsXMi0xSPM8n+FN+XHa3DadvkwGdqWV/J+rfe/2M+d+tqzl10GYnxFh0tgNJYlVAxjp88+UPOnraXH3zjl2lvA2NCtHCWCjZG7DTsIuKyAo5QT7342bjFccvt2/j2rY9y1xNb2ad6mT9jMZ0d0wBI01ESrUJWnEZc6i2CaJRzhfnSaK1I0ypbtz3K1WdO47fedjUXnZv4Fhba9+tqrdEzVuy47NsmrPodiUQikROTYyp2DnrT0ogaOVnqoKhg2ZHgGmplbJG98QvrHShZC4g0sygBaSq88wOP83f/ew8XLbsMoZy/32hYu+lJ+ttH+YsPvYSrLkkwJny01SI1ieDJ/UcEi4/1P9VS4bYfpnzrlg3cfu9jrN89zNwZC+np7AWV4MTXRvLxRBaF8rWacmuXom7r7N43wB/+8kW89mUlyhWFMX7sfn+9xWjiuSucTa3VsE8CUR2JRCLPdo65ZeegyDK4sho9R7Ha8pEgW0d1SA1XGu/FOYLbbBWJgo8LT63w7g/+mL+/ZTVnnfpcjNFoLKs2P8XcZDdf/vQrOft0E7qat3xHaw2e/eDbbwS3kgpVlx2s22j5/D8/xK0/eoqHtqXMnrGUWb1zqVuHcymJ0Y3svOCTcnh3mkurXLNiGa+5PuGKiw1oRVLKxKQ0B1fnFqnwXa5ooYpiJxKJRE42TiCx43BOM7DLcdOffYOBwTJdXbMLPYxOQERjnWJg5zqec/5M3nXDNXla9JFijNgJMVPiG5Xz3j9ezV98804uXHYJT258nNP7NF/81EtYdqpBqbExQhJKBBB6fuY1B7MKy6qhJXJrTKvuCO0gUgvOCkPD8OWv1/jmbU/xyDM7OWXWYoxSVNM6plUJhpghI471m59CjW7klc87n7e/5XzOXO7biGrVEFVGN7tOi2e/yVyDxVqSUexEIpHICc+xFzsHuvWwWG3e6rjutX/F1toMSm2zsrXuBEWDKrF160pec+k8vvK513jLifYVYMI7DgvXEp0yxi2WZdTjrWYi8HsfuZuPfeV7XH7Wedz8Ny/hlLk6uKwsGpV/S2ZV0UrjnHeHtZ5NSjUCg7P/uywoXXmBlCSKNBW08sJEnH/Pzt3CX3+5xte+dz+9XTMxpoxIc+NQpQ2pSykphUGo1oZYt2UVC/s6uPayFTz3opmce5amf5amVPZxSvV6I4ZISUNwGQOVNp9tdkKfVpFIJBJp4tjU2TlUwsI0e/ZyGJ1NuXPu+JnnBVeEHAdP5lktnqzlggSzgqCRcAj6prcXUp2P3lLb2tpBgJtuvIRyKeGNr1vBKXN1EJRSeMdYvvGtnXz8r7/G3LkLKY5fqQQnQRCJw5jQ7TxgnaBDnSMgN7VoDdN651M3c+lub/eWIVfHZHE/yo9YaLio6qLQ5emctngmwyN7+Yf/eZCv/vceFk5vZ9b0DsplqNVqVGt1EB/YDA6NQmnF3l2r+Ngf/wIXn99bKNYYZU8kEomc6Bx7sXOgqdPZ2xUYZdGqTqJSn9bsLFobH8+hSggOrROsTTGHEcwL5MUFDxUnFpwl0ZIXTcysNr4NhcNIDVSp8RmmbomduHPXWJT2lo5SSfGHv3dh+GX+15b/+zFqrUlrsGlbhTvXpyxLK6AScoeZKuGcy9tNiFa+J5fy+59/q1JNdZYEQa3fQbk0QmfHNJT2dZjyOCfJ4n78bOYuMlen7qBUSlg6ZwlGUoZrQzy2rYa1dYxux6jO0A7EZ505hLpV7NoOg4Mal/psN3Vimw0jkUgkEjj2YudQEIc387jQRiDF5NaCETZv34h1VYxy2Cnw0h1qM9LMouNEMWPabLo7e6lbhxYXyutowEChTcUxRx18zJBSYHSJnr7l9E5fhlVJUwXsrFu51j4vyuUtQBr58z6mp7mopAFwdRKtScX6StCFYzHekdX54A1gUKqNtqQbL78MWkmTK0yjQWlqTiH1PSjdjtYHVw4hEolEIsc3J6bYKeAAtMECLh2iXY9wzblz6K6M4GTvYaVp57Rm6BzU+IRSZSZPrrds2ztCqdyOiMuX7GPb+vTwERGUVsHJZUHSZmOdiO9pFSxvShVtTY2991nsrimw2SA4pJDtpVEIThQWECeFis+NzRVxYv17BDQOFRq5ioh3p+nMlWi8mIrGnEgkEjnpOPHFTnBhOWcZGd1HV8cwn/rQRXR2KtQhWCmOBKmDm/6yyl998wecNnfJsR7OlKKUj5qppZC6NFizGlYqZTRaHCMjO3ydnGDlGfs9QThJcGkpRWLaKJc7EOdy75kThXV1nwUmdWy+zfGxAkYpHIITMKaNUqmCaOM7ihKEVkhPl1DV278KFaIjkUgkcsJywoudLFZHtPGBv24E53yFX3McuCMEcHXB2hGS4Ho7ucwHOq+XU2oSBqGRqmjEDtFl9qLdcLDVuKbGqv7tvkqyFzUJynSAUVjXhlXlXNBYHEYJSoYYHtmFZoSJ7GPFApQ+Bb0NJ71QLvtc+/yv3kokYn1WVqh3pGJwciQSiZwUnPBipxmH0Y56qKdiDqSlwv5Ceg5TLDl8HImSyS0QJzoiNGVZZWHW1XoNV93Nx3/nSk5b4lPUpeVzEFLTJfzfevH0qX/YytfvfJrZM5dgxOGcoHSZbbs2c/6iXj704Wu8mJ3EfNfUyFXg5m/X+dy3fsjCWQtQWc8NSQHfg8vHFIUAaA6vWnUkEolEjg9OMrEDypTIk3oaHQom+cCRHU9uG1Cu8bOE+jcnhYUndFN3oJRpCeZ2WBTKjXDOGYZZszTGjI2rAR9ObPF1d7T2TUr7uqvsGRlgllqGdXV0eE+1Psy0zjZOP81QMmrSWkvFhrHOwoL7Ugar+ygphaCxkqJ04mN6lORFCFE0V12ORCKRyAnLCS12GpaShrnAOmmUg5HjJMfJyQEFOZ94Hdy9gygVIbU2rx8EFNx1GiRlYI8wd04o5BcOVrH5qUZQIkjirS1WQb26k/ZQMjkrIaCVoZIYxO0jCda7ycROdo74U0IzUoU2HXptZS4sCYItWnYikUjkpOT4FzvKNQsF1SgU6IDE+zEQ5/OBlBimT1NYadRemYyjITCUUnR29TBiU1+7RXTIItK5B0ZJaFR50JEiLU0sVaP3FBxevR4RwQULhxrTRLOx3SzdW+FQOLToggwVtJOQRg7aEKKRQdnwc2OLvmYOoV8YGqMSDBqtDdbWKDrBVPieychyv/LxZNHHOK/FmkToyWBpi0QikUgrx7/Y2Q/WpiilMEpTKXfglOOrX6/T2wNIDaX2r2YO4C2HhOhQOVl18MTq7fT3TD8yG8oILTWUhjRtbvF0sHhXk0/FFhXq5TRlJ2WyZHLLh0FhkgRrQ+Bv4SPNn1SICnV4LD4+Rxmss1gEwnEWQOsEUFgJZQkPZCfD28paBdGmQ5aXDhIrWnAikUjkZOX4FzstVh2kIU4U2rtFlHdLtJU7qLqEGz9zO0pqiKsfkBviiImdrKigLjOjdx6z+uYgzqGUd5s0tbIoNjQtxBrt3w3XsF248Nl7H0h5YrWjp+PQQqKzmBoBbM1yxaVl5swea/VwB1KfWRy2XmdOvyK1+FiYUCLaZu4i8cYeF2pFGv9n2tq6SJ3DIChjfHdzZxlNa2jTl7spJzt++d/CudPepqi5cFxOipipSCQSieyP41/sTEDmfsqLyjkLpkSKYX7/GVh1IKlYRx6lNM7WKCUKK7alu1RhsT2MwoWN7/Df/aWvfo+/+vpK5s45D+2qTC6ZmrebVTd2ImgZYefOp/nm397InFkapQtWlAM0hCRKQaWH/7495dQFmmpNfFsKgtgpZFI555uBEsTP+k1Vejv7AMFaX6NHK6G93MWefZr7HvSp4hMprlYXpRN4en2dvrYeRCcodIjXiUQikcjJzIkldiTrip25hzQiqRc82mDFhXAQiwmr8pGy2hwoGrDK4axtye5xvqKwLqHROFdYdAtWnQOSQBK2JOCs0N3Tz6zppzJn1nLEVVGk439OZbVwxv+zS/fSXda0VbyFyLTEyBTHNpEFrVwukZTncdNnf4Cr7/X9wEQQXFOAssL4+B7xWV1OJfR2z2DOzAXUbQ2NQyt/jKf39rN2YJCf/73bMa5GUxEc6Vl9AAAgAElEQVTDCcYhItRF0dk1h4VzFjNqrXernXBB4ZFIJBI5WE4osaMglP2v4+wIxg1jxSK48JQu4d8tnzmWKJ9lhKg85qQxpgTEomUUTanR+ftgaG2UqhVKlcC0gekAbZp6QbUymSNKiUUoM2ZCD1QgiMO5OnWV0NG9OE9NF/GqtWhT0Uo1mnmK8wX+Eo0VBdQL73Q4EnS5j85pPfg8rmKX9YnFTlksRjuq1qHwjUmjIysSiUROfk4osQPeFbF951q2DO2gY3gQlMVI0QbiLQZyUP2+jxwaweL7MOlQ2yUfl2jQFTZsfYw9u08J7yeP2Tmg8avCvudKyoVeU/53k0uoydw4zguTPE4qbKsoePbbtd7hpE6S+ErXRgUxo7L072BdUhqnHFpprAgmdCV3zo/Bt5DQ/u+uTqIMZR3qCxR7bLX2ykJ7IQX4bD1Cpebj4eyIRCKRyNHgxBI7CnqnKT5+0w1Uaz5tO3uQz1wxLrzveHFP+J5Pk9c3HB29lnn9+jD6eDUEj7W+caZ1Duts+O1EC/v+41V8nEw2z4c2QKN96456vY6EWKoseFuFsfuUdYeTLJ5HfD0e5/JKx86laJ1gvF0mdEm3LfvXvE8i4vtgKX+OKOfQKsldaDFmJxKJRE5+jj+x02QxaK4yrBV0tCuuvaqSFw084fHlgXzTUjgAc062OE/8xnrdsnN0H32jo2hJkWD5kNxi0vguEaGtXKFUSvzC39KzyoV6RVZorgE0ju6RccakQqr6loHtTQ1A0+zgBSGjlAGx+XuMMfS0d9Hd1s5ozQdZJ9pgbR1jyohYBof3UU1HsdZixZGOU1hJ44OgRSkSFDM6e+ns6MTaKHIikUjk2cLxJ3Ym4zjpYn7conzsS3f7MEsqg8ypbEMrixaXWzCKbh6nNKbUxvBojWq9DVPqBOULA0pQYHKY852KkEiV8xd2UUl87I04hyjf60pCnRujFCIahaBNBScltu8ZYU9VMEkn4qo+xkaXMZJSrQ5wSjfMnNZBKXFUKhWMMSSm+ZRWAnWXUktTrK3wzPYq+2qj6KQMMRsrEolEnhUc52InxlWMcTVlKeqqxcITumQkCbzzN67grW++PO/6rig03CyIF4cvGPjZf9rO3/znShbMPQcldcChZaJe4gfHyGidaXo3H/vAZSxaYLy7UTUMSBm5uy/4/KyDmz75DH/77YdZNG8FxpRxzuLQbN65livP6ObjHzqfvmkKcwAK2CI4B5/5Yo0PfeF7nHnK6SeFYTASiUQi++e4EDuuUcE/d03F5+2MZjdeHj8zQYCtQujpUnR1NQRAJixEmtsziINUYMY0R702jBOVW4E0oJwcduq+1hpkhM4OH/uTd6LPGo4HFaaUCu20lG8G6qBc2odIHaUNaVrz54gx1NMRZvR2MX26xigwhYI6E2VjGRQ2hUoZDOIz1FT58HYuEolEIicEx1zs+MVO8egTlvff9F90dM1HJ+2I2ND7aHLrTjEOZDxO6EaOqrF/Vgz1vWu46QMv5vRlBqXAZLtWiH7Oavk0zdoEU+jwoqI2MorWyqe+S/MHtfItI/KYooPE4Y/B8LA0rEoF647KrDLSsDpp5WOE6qn17SAAHVRaHcFoTb1aQ6ygS2ryY9wSGV6rg4jFWoc55md/JBKJRI4Gx8ftXmDLdse3H9zI7BndqJL49GD2v8DqkziF2CovFJwohlMY2vkM79hhOfN004hdOlzLC94a1ORXUjp3cbnD1IrWufwgNmXJ78d0J9m+t2w/UQbrHII9MPFVbMQetJxSCmM0ztkTWwxHIpFI5IA45mJHhSAOY2DxjDlMmz4TlfTkYufZXg/F4TC6RJoq9tpZVMoakawzeOGNraLnANdw35dKhaJ+ghZB8N3OJWRHiaOxzYMcfyUxpHXbNFZvzPO1c/LvLMYS5fviN5yKw4jPHDOJdz0ZrQ84Wr2oq5IkWIfQIYE9EolEIic7x1zsgMaFxbRuHc46lLb5IpxH1k6wzGo9eQ+sEzPbpqVWTKYETOJTwEPsTkPwuEPrrZVrhcb2JO9mPjXUbUqb0rS3eWEhWTNQQoyO8oHQWWyQCEFoAarTFwUUMDgcgrV1BI0yPYgTLIr9eDJz65CzgtbgRPlWHSqZ0n2NRCKRyPHJcSB2/Jo7WvX/MknJP3GHp3aXF50zuXsFGtInZXKxs7+H//0tdUfOrmTD9k3T7wwgrooohVGgxVf9tcHCpQsD0sV/HaI3RnRwVxXStZSfbdzhNFMN4zXiULqDrTuEtoqEOCQoV8AG4ZOEoOtazf/OGEitUEt7SJIO72bDV6NGCaVyB4MjFdY+s3+hIhKCooOG27YTusudwQkWhU4kEok8GzguxA4wTuyJX4wERZuG4ZFdDOwdwKjxEqInliT7Eyv7qyMzZY1Ei+64YG3K4lJEFKmzlJJ2+qbNQqkSDuurCIvCF/9T3qUkDesHHEkxpg9VPzXR2d5JIsK7/+gHlBjxdXyUUEpKgMM652NolMFaS+oEJwZHhaF6OwtmzKekffBQCiAp/X39PL5uJ7/wrvXgRiZ1RnlLoUIhiOkkVX0s6V+EizV2IpFI5FnD8SN2Alplz/GZRQeGq3vo76pyweI+xA3BmC7erUt+KKAnIAcQwTtO4d0wloMZ+X4ouplav1c02iTsGdKsHdiLS/pItAm9o078ajBOt7NpbxvWNluKnJNQvrAxITqbdFWivdJFW1sb1o4GYeiDilEaq7sZtWWEnkm3LcW0dGdISp0kOvHFuZWetElqJBKJRE4OjiuxI+MEI1vRrNu2gde/4Wp+65d7MD59qInJNMlxUXF5PL1SyKZSWmGdsHOX8Kq33cVAdYSetrajOcIjhlKK1GraO+d5N6SzKJVgxQWx0fh/yWhS5y13Rmmcrfu2Dj5HPc+ecgIm6UbpDt9FfZJjrGi2qDmXEjtFRCKRyLOL40LsiEA9xfc4cmCSBCQNgahllDi6O6qUS77mS6uAMYXGny58X/6WYy12pPE/owtWpGIPMPEWrVl90NtVZtuOOlJpRymFUl4M+H8f652ZmKSkx615ZK3Lxy3iQkC5YJTfcYegleC0wooFHEY1XExZY1eNa1RKVgYVmpwWg5vHp1nZaJW5BQ9nbyORSCRyInFciJ39oXBoqj4LyTTrl+y5PVu8dFZLhSyt+uiOdQxhgC4E405kaRIHI1VA6ihdOq6FzcHgRRqMDG9HpB5+21AaItK0r04sWhmsU3S096BL7T5bD+3LESgNro5LhxmtjYbSBRPj45zENxEVMKV22iudod5OEuN2IpFI5FnAcSB2Jq7eMl7gqXKNjCRX+KzoEPdbaDlhNOO7kI4iLhuvmTz3RyuwKYBDiUOLw4kEF83YAGW/6y3lgY9DtDYou5cZbf+/vXMPkuyq7/vnd87tnvdrZ2d3VvuWdiXtStqVYCUQNsZCMUZgIITYElhgGTu4UnFRVOGquOLEJIodOyblGMnGLrlwAghKSoyJLIWHVVjYrhJIAQmQLGEB0uqxK2mf8+7p6XvOL3+cc293z87urPaheXA+Vbs109N9+557u+p8+/f6TlORGt43IKauII4GaGkxU/V4FaztYVY9s04xtgf1OWKy0F1FToedpb+nBr6GOVXdjTE4lyPWYLN+ZvIqDVcHqeDIk/taIpFI/BiwDMTOApzmt+3W5uHcwUxNefAbh8H0Ya3Fe8WYpVM7ojA1PclF29Zw2S5LtoDgMQRrBARsRlnDImLiUJqVxIn3bao2TbeZ4uP/4Vq2bjbkcUlFhMtre7SrSPNlFu64a5ZP/tWDjK67BIsBDJiMZ196mn9+7Q4+9pHNJ7y+FZWm2MxzqFTh0/+rwcfveoAdF+zA+eUvFhOJRCJx9iwDsdP+3VpEw7d9ASTDIoSepLALqmmNBRkMHo/BWnhmv+MDv/EZ6N5OZxYGxhWdPioGUU+OxiOaBd79TM4+zgOa50Iegi6e51/ez79593X84X++Cn+SsTVFzZF3IGoQDLkqYuwJgkfiTBqZP3Z4CREJtTkFTYsHgxeD1Vku3GYYHjRNX6xTHM/H/wZ7GszUZ9Ai3RSjQHN5jb6uOkODQpbJokXoRUlXwyvrhoWJ+iTeOzKppjRWIpFI/BiwDMTO2WMI3+BtJqxbv4e8ZzfdWZit4mI9SBHgcW2b29mLhcLIUloqXjW+p1XHIR2mo2f78qkhOg+Ih47MYPyJkShrLK5RZ2JSGRmmvTD7FMfLAdcYo3U6tBImIFaNQd0k1grWtA9abL275cNRYHkVGg46rY0dXme64kQikUisJFaB2DFtYQJrFDEOKyYWNhculPHvLTN6/Dnw3Zp//EA4IRFHr1EqWSiStatR6USyk3ySvHqqlUqzzug0LoGJbVbeNSNzBQ6N7ewOkZiqoilsFryjLYfo74aerAqqiPeLDpVMJBKJxMpnFYidE1HvEBu/47cWr6oHdTGNdW6mD4sIBoPOu5TB38mDzzHi4qRkXTVdVq2IhEtrzYlXVFVx3pFlclqRreIahc47E+/UqXkl99EreO9CC7oky4hEIpH4cWDViR2vwTBSo81CSF95KtUqLx45wOTUEYQ8dnLB2UoeKwJSobd7mPVDo+QEURO2aU+urpm5aW2xPs13Dxv/8p6z4z04D86fwrbB62ml8Io1Bg/YMF3ZGCmsxID4ePG8ogaoRUi2icp5Nci1WZjzDq+Kx2FthvMtfrM0f16u1zuRSCQSr4xVJ3bmt6t7dVhRjhx7kZuufw2XXWSC83XrPnamDVvxGJnAw497/vofHmVoYB3Byd2vyvqchRCBrg7BLUGff1mcrFJWInsnbVZkRcebesU7aKigYjDGBvsJMmxmUVW8O/kMoEQikUisTFad2AGaHUyxGNn5OcYmD/DWN+3jdVdZrJX22pGzEDvqQ9SivyfnU/cdZLBvECfV0vhzIQuM1YgxYJeg4jcvpmVLyFi6PESQilrpLBOcg9wrExPKD57N6ekYILwkzDIqTltEMLa5hiR0EolEYnWwLMWOP4d7TDAWFToExicVmwmVk7SAnwnOKuKE4+NKtwlpNBVFWjZ+PSfVQcsT9SHDlCsg2pIePAWnfX/bVajg27reIIgsQ5iz9KnPPsgX73uC4ZGdZFbo6MpQVSqVCmPj0xw65jg228+Wkc1YG1zWIbSu1/O58JpqiAqt1s65RCKR+HFkWYkdPcX8FR//LqcYIlciFjCh3RjAKznQaMQW9LKI5uTTm08Xi4IKNgvdXZlkuJhME3wUAO6ErqHFWbh1ycSN+LT12kJz8zTU2SDg5u3qNrqt5+owoljTTAktdO4SO6c6qmAktlxF406I0Z7i4RMERLOtnJY5Rc6FX733GFFEfSgqV8VpKPY2xuC8YpyADcft6Bzmq48dZtOWSzB+jtzXcN5jjaGaVahUuunp6sPYCh7wEmSoiFCfm2ZkoJdLLjTNS+Zd8CdJJBKJxIpmWYmdgrORIPOjKKHuwiJiTtoefS7wnrIY+nxSDBU84/LqwkPMxKLiHDq6LmDafQdBUXWo+iBSxDKbw+CAhCnEUWiG9wx3qahrqVaLx6C1YMZpe/FvEbU75XnHNVpr8bG+BgyKYmwW39dgYtdWw4X1vPWf7eQ1d13LMb2Aoa6usgPOx7SmRCHmvAtDKtWQi6GK58DRZ3jD1Rvp7ws+6bLUPiOJRCKROGes3vxKxMdBKm2FyxL/nYPlewxeChHgkJahhYohxJg8Mu/dTHz8ldJaAqSnsyHPr01SBxrsE3Kn3Hd/g7u/9BgXrt8GfhbVvBzAiHRgO0f5xF8cZHqmxb4dohkZUVCEOTuZFKsqxElcYcw1qQmCsLkEE0I40nodws+q4J3isDi1eDLEVFE1YaKymNCeLlCJkZ01g4af2LuDw8eeQXwdn9cRX8dqjtW8dEo3GCwWlYzMdjE2NUZ94gfc9I7dZZdXeX6JRCKRWPEsy8jOucQaEBUaHob6BOc0So9zh3NKb68w5bQsSF58gsvZR4D0VMZQC74AnLd4hW9+O+cTdzzA/Y8fZu2aHawbWsNc7mizEhPDujUbufvvv8kzHzD8/m+/i6suy1Ab02gmpJqsGDqrgtUamk+DNErBY30DrzPoaQZKQqQoXJ25uTGmxn/ExPG1GG0gEsZEHjr2A6YmGih7cR6MCa3oYmDfFev47Ff+DvGjVGwX+Lw0Hc01iFEjSu4aTE6N89zxl1ljprn9o+/nzW/Mwo2TpoxMZTuJRCKx8lkWYse59p1QFyw0OTNEDKrCyNBW7rx3lm88UkHEN9Mpi2zCusguLWJxCj96IWf90BZcyyW1haDRhSIEpxc1COcfXM+NmDZtI6chdIo0U6hRgTmn/NfbX+KOL3yNPFvDzs1XIlLB5YpR8KqhTib6UeXq2b3tKr7/0jPc9Otf5CO//HY+dHMXUpEQlMGgCt1dMHH8aaoWkE6MgkOYaTRocCjYWhUmVQtSXI/g7G4yGB5yXLulwvrRGcTEiI+HjRlsuSDUZNmiFSse4YbrMn7vtkm+/cOHGerdhKoDYs2Pd3RlimidgU5h14YBfvln9/DW63dw1Z4s1EMJaMvxEolEIrHyWRZix5jQESPnoU07GD1a+rrX8JWHv8dEbaycoAyLSyq/iNjxKhiT0d89wMbhURru/NbsvFJEhNyHWtunn3P8xn/6Ol967AUu3rKPvu41+HwWUY9TxUSndS9Fiioj9w2MqbJ5wxWMTR7i3//ZF/nWdy7mw79yFXt2WbLYxr93l+V//8lvttdF+RChsQbWjRicL8TJfJr3XUTK59xy8z7ef9Nrm5mzGMgSuR5jJQjVlo+MCAwNGn7z19/F40+OMzi4BecbVCoVerosPd1Cby/0dAvrRoTLL7FUor+W0F4LFU8/CZ5EIpFYBSwLsROsAc7PXBMRUwqWtf3DjA4Oh/boQlgt4np9yshOOdk4XMaGm994vbRbpScUTudO+drf53z0d+/l5RnD1TveQI5B3VxwLNdQjKymwlTtOGO1Kfq6Bhjo6UPU0/BzZKL09fTRv/0a/upbT/D17z7PzW/7Sf7VTcNsvMAwNGR4y0/F2ULFpS0mEWu4v2bBwuqFLSZUhCwDawTnQ02Qtkw6NqY5Pbk8UiyMuvlfbsCzAeZ1ranG5rTiLSUIMfXNLrEkbhKJRGL1seRip/RC4vxsNKpgbZVGPoc1GW5+YfJiXk2LFQGbSuisdqElur0g2OPJolv36Z1vkW5qP4czuDKxC0o9fO4L4/y7P/oyHb3buXTbJurOYWMPfu4hs4bZ2lH2H3qGPRvXse+ijTx34GUe2/9dNgxvY7B/hIb3qBg83ezadg1TMxPcfs/DfOlv67zzut284607ueqKDHw08pRm87zYwhX+NMSsd4iRMpVkTfjnfY41prR29d4j8724gkMI1gIaanVEo31HfK4r2t/j/XDR/Lxwuij1diGqimL2VLyTSCQSK5YlFzsi4Zt7mEbsQJVMbKxT8ThR7Gmmt0TDnBjEhKIPPOoaeA/WVmg4H7t5ij4oWbTuZbGancKzSTXDGAlFwyWGOhVEq2EDbjtwcdLF62FqRpmtzwXxZ23cgU3pjdVcaCHXFjr3ZvKl0VA+/qeH+Z077+ei9RfT0ztCrjnqQwGxqlDNujh46IfY+rP8lw+9nXffMMC6tYbDR7bx5a9dwn//Hw/wj88fY+eGS8iyKnN5HVWhu1rl0s27mJo6yifueYK7vvok111zJVdevpEbfipjdIMhy0LRsAG8hORhMWW59bq2mqQWrg9lBU98njFZvKLxyppgyWHmCx4bRVaMtoXUVHjPYtqy+pYpRnn4uGi8J44wERuF6SnFGGFoMJqYmpTYSiQSiZXIkosdiDNVDPPafs+cYoMMQ+nC130rnuOTL1Kvj4Nv0FCHV8Eae8rtyy+S5mo+T8mMnfd8z+zRFxg71gl6NYtNx7GGWJRi8R4yEwSPEYNBgslpHNAXh8EsQKiN8Tn8we0/4GN3Psiu7T9Jd6XwgQpCQSSjYj3PvvSP9OlRbvvdG3nzGzJsFg46us5wy3vXsG/vu/i9P36Mex7+B7aNXsrQ4AZmGz7M5JGM/v7N9PRtIm/M8n8eepbPP/AQd/7lINfs2cyWTd1csXsTl+7MWLtWyEzoigNApCwONxacKxZjy8GJqu2pTee1nK0TnNbDAMK2tFmY8VimLo0I9brSaMDEtHLkqGdqCg4fnWZsfJrZmQb1umOqVmO27pip1ZmcqnN8bJannnqIj33057jxPXtLY9I0VTmRSCRWHstC7EAxLO/Md5JSPqjDS0h7gMd5qErO2NgBbvm5n2DvboPQCMPmfHTUPgd4r1hr2iIWKp5abZrtWwbCIN4y6tNi4R27uayE9Iu1MSKhGnMsJlhQLNq77cPMHwdzDeUPbn+ZWz/3IFdu34fJJEbKHNZYnBdMVuXJ5x/l4oEx/vy/3chlO2w5LFgMUWzBnssyPnv7lXz67m384af+L98bP84lm/dgJETNcjdLZixqha2jWzG6kePTx/nc1/dTb9QYrD7ClpFh1gz10tvVSW93F709PQwM9NHXXWGgT+jphq5OoaMDqhWoZFKeS7HsYl1eYXYWZmrKzCzU68pMHSanZpmaqlGrzVLPPfW5OnnDMTvXoF6vU5/LmazVGJ+uUW94arkn94qqICYL4ksEYyydNiPH0texhX37Li8/XILlLMY5JhKJRGKJWHKxU9bsnKXmKDdFMXHqboaqI8sq5I0JJqaO8I7rMy692GJN5exPfIH3LyISBaH2pgcA1wAp1QRlGkuju4KPYm98ahYMGGNDeIbWDiFfRkO8LLzdeg+3/v4D3P7XB9hz0XUxfeZRnyNi8U7prAiP7n+YvaNV7rztRrZtsmTzrr8pN/hgpvlLvzDItVe/l1v/6Ht84eEH2DqylXWDG3AOIDiGOy84KnT1XMAFPZuxRvCuwaHaJPufnwKdoj53DO8beO9RbeD9LD2ZiW36hbVDiO5473HOlwKw3shLcZh7Zc55lAyVDIwhM1m4t2Ix1mKMJROLNVVs1ktmhsn6O+myFfqNJUPwzmGsJY8pNoPH+wYvHH2RK3a/li2bbGmvkZwjEolEYmWy5GKnqNk5G7HjW4pIc19BpQOHIGQhpeOFvq5u5qIj9vkwIi9Ov3UdNv5hYkKbiiWeZ5Htit3eHD7uueveGi9Oe9aPdOG9i634oQXJYOnKMjo6WupgmCd4NESYvv/UM+TSRUdHN3Nz0wgu1rwY1Bp+dOAxLhuY5O5Pvo8N60xbwW7bYuL5iUJWEXbtsNx525W88TPDfO6e7/DID5/nwg2X0909TBhUrRjxQJhWDBbRnJ7ODno7q+GaGIP66DaOJzOKqi8nXRcRuSbNFfbCvBodgxFbFnB7gsVEaxTMex+75kwpRBWH9Q4FKgacnyMYRIRy9Ao5M9MvsvuinRiINhUpf5VIJBIrlSUXO1D4IJ1ZGkuju6T3kDeU5174FvSN05tZUIfz0Kgfo1/G6Om5oeyueVWSENGW4Yv3PMTHP/l3bNt2NUg9DrojDAo0Bq+WI5M5x2qGzesuwosgavG+gTEWY4Ta7CxdmWWgP6z1RCfQMCwms8Jf/MkHefst9/OjF5/kotFtzOUWr4bOiuHAof0M2nE+/2fvZXTEhNQZtEWbTpjpKM2uJJsJH3r/Zt75lk185i+P8oW/eYj9z/0TXZ0DjK4ZRbJOkErzMKYSTTzzeOwgPEKJuA0pR/VggkO5qbSmilojZb48ZvghiJim0PHRB6tQvuH5xjSfUwxobFqHeIp5lhXJykW7uRobOj1ve/NAWMP8HvdEIpFIrCiWjdgJQ91e+YZStq1nsHWT5Y7/eBMmW4MxinMOawXXmKajMsemDaaMirxaGAt79+zjUO1h6oczKraKhq0Z1GCMIGLo6uhh7VBn8H/y4H0jpIF8Dibj2NQY12weYd2IkEWh01Y6XThHZNDfL/zxrW/mnR/6NBNTfXR0r8chHB8/yNzEP3HnbbewbXNIFUnrkU4W8mrtHFOoVIQtG4Xf+vAIH/iFt3HfVw/y5Qce54nnvs+hRpX+3o309QzT21ml4fPgECbBJ8xpjNxIccjiJHwpRlpXd9LycDFldEuLymTAzSsot+Uxo5t50aWlHqdSfuY0dqchFSZrB7ls6xB7L7NI4YuRanUSiURixbLkYqeo2TEiGDmxCLfVzkGKPa1tlk343TsYGBDe954tOI2vkzBXxdgBikO/qltVPM/LL7Xc8i/eyx1feZRLN+3CxQ3YYzECzucYY8nVo04RFGMqKD54aOoMhw7+P970879IZqU5K2Y+SpgvQ8be3Rm/9a/fzYdvu5e9O3+azHueOPg4//O3P8DrXpuVgqn9ejQTYws2WcdrKhrTW8CmDYZfu2UTH/zFjXzj2zn33f88Tz1zlKcPPslTB8bBVunKOujp7Kaz2kVXtQMxFpFgkRq65Yr2ei07xiCkJzMxbYMfW/9eXOJWwebaJlh7NLa1O08ppLw68EFw+jhgx/kGjdxTa+QceulRfuayKxEjKZ6TSCQSq4AlFzsignOQVUJkQuOYWxu/8c+FMEdzvgq0C55i8q0Nj3vaLQnKBZqmAHrVscJ7bhji0/e+iHPbIOsnJHU0OKObKhRF2jFvM9uo0ZibYWz6OIcOP8YHf2YXv3bzYBiyt9AaiusgWbgOAr/6viG+/s3Luf+7j+DyGT7y7jfx82+vlDN/TjXFuO2Ree/XGgCyJlzzalV40+srvPF1F6JuOz982vPI9w7zwqFJDh2Z5qWXx3nh5Zc4NDZHLYc5F4rInRae8AHvFReLhVWEXD0Vac7igTBOIBOwcayAqmJQrLWI+iCejQniWRVVxRqhWrFULHRYodqRUTUhRZUZT1dHla6qZe3aQRozl3LLzW8M16lca4roJBKJxEplycVOYQHQUYEu60FzjBZt40JHZhFyvHeLO2cvVk52FCMAAAMhSURBVIuzBELHEATBa/dYrr9ylLsf/Bs2rtuNFUXjhu29Y845VJVao0YHnuHeHgY6K7x+z2Z++g2/ws3vqYYoD5wY3ZpPrLGxVrjt1qt4/Q1/y8b1w/zOv92KtdKSyjsHQ/KKax5TUZaw4F0XWy7dOYpjFKeKy2FsQnn+Bc/UjDI5BfU5ZXYW8kbornI5zMzmdHdmVCvNyprMRnsI02zRL37PDIgJqT1joZK11oCFGiZjoFoNgqyjGv5WqQoVG1rdMyNkVahGewpVxWZBfCaJk0gkEiufpRc7cePt6xNeOryfY0em6ewcDukNsdTVUh8/yMTkEZDtoeU6bqznhvO/nVkBMuGXbtzH8aMHWb+hE7QB0nRFr1Y76ezM2Di6nZ07NnHhtk5G1hjWj5jgK9VWa9SsZzGnOH8xMLLG8Pk//VV6ervLTrRTRXTOjma/upg4+M+BsUI1g86qMLrWtNmRtdVBG8jzKrZl9lGsP6fIZklLe3/pvdUyhbpo1ircKcIwwOZry/dq5r9OOJ4hCELxLIlATiQSicS5RXTxaXXnFRc3olpN+czdB5ic6aCzqz/M34tTdCfGD/KW60Z53Wu6wsYPFOmLszcPPc9iJ26YnrDOuYaSGQku49C2maoGYRCHKOMdzWJk7+M8ovm369Tnry5u7ObEDX8pKNeBRDVx8hOaf3+bH9VmsfDCf28+J9QGnfz42vp6lKJKR+Kxzoc5bSKRSCReXZZc7EA0v3SUHlkSi2CBkLIx0UWhjOqsIIoC6uL3UwSkpLXwuCXy0M4riWjNMyBdjtfubD9952lNqfcqkUgkVg/LQuwUtI+SW22mi37eikz5ePl7mzBpprjC78x7/unQcv3mGY8uG5ap2IFzUtGUSCQSiWXAkoudU24oC2zQK/0bd/P8/bzfi2ITTp3eOdO7dd5EwULi69W+O2cuS074PC1XUZhIJBKJM2YZaAZPueW0buQL/nyuipJfPVpWd3rIq7XGV3xmiUQikUisSJY8spNIJBKJRCJxPlkGkZ1EIpFIJBKJ80cSO4lEIpFIJFY1SewkEolEIpFY1fx/Yoz0Z1SPS9EAAAAASUVORK5CYII=;" parent="1" vertex="1">
          <mxGeometry x="3982.21" y="988.5" width="99.59" height="37.5" as="geometry" />
        </mxCell>
        <mxCell id="Ttfk6c4jHyExXrdg_O_r-257" value="" style="shape=image;verticalLabelPosition=bottom;labelBackgroundColor=default;verticalAlign=top;aspect=fixed;imageAspect=0;image=data:image/png,iVBORw0KGgoAAAANSUhEUgAAAKEAAAArCAYAAAAQeugIAAAIhUlEQVR4nO2de3BUVx3Hv/fu3t29dzfkDYGAxDRpeSWQhICUh0ItVSuWTju1yAxQHcXqoFad6h8+ZtSxDipaO3WMDEO72rGdoR2dMiOMDzptQmhIyELLQJsSYyIEmmTzYvfe3b17r3+Evdnd+77ZzQzhfP46555zfr/fhi/n7Dn3/BJqbGxMxi26u7tBIMw2VLoICwsL8+ZIHLqE5NBlJG/eyJsPwu2Dq6AC7op6uIqr4Z4Nh5E3fgbh4quz4YpwG+EuuQuFu47lX4SjwQchTV7LtxvCbYgYvgIAoPPpZOK1J4gACbowFfUA8ihCIRREYjCUL/OEOYCvfheAPIkwOT6A6LkX82GaMEfw1NwPT+2nAORJhEJ3EDIfzodpwlyAcoFds0ep5lyE8f42CBeP5dosYQ7BNu6Fe8EqpZ5zEQrdwVybJMwhXMVVGbMgkGMRCu+8gsT/OnJpkjDHYBv2gfJlvhTJmQilyIfgu8lmhKCPp2oLvMsfUj3PmQj57iCkycFcmSPMQXxZy3CKnIgwcbULwvmXcmGKMEfxrd4NprJJsy0nr+2EkLPNCLduv+pZtKPFcjsAuBfUgalsAuX26voRw72If/APAADbPGWTojL7yMkEJD4MWRiHNHkd4tCljHamsglM5VqlnrjaicTVLl2fWrGnx88sXgf3wgZVe3Zc2eOAqWWNDlSA5op1/csywJ9tUcWR/fOjGBZswx5lDEWp+8wUumCh4kOLGYswdulviPe9aXscHahQBJEicbVzup0rM273z8e8z/0erpJqU1/jr31RKeuJIxvhwsuIvHUw41l6POmxZEP7y1WxZ4/h1n8N7luvrcyItv8OAOBZuhns+q/CXb7csL8sxhFu+ZilmLkNB+CrexwAIN54FxOvf91STHZgG/aC9s/XbZ/RciwL4+C7X3A0lrv3Gybt3zRsD2z/uSUBxntPQXTw+tBX/7hlwWbDbTD+bJ7q+ywLUIoMgz/3AihPANymp0wFCADR9t9asu1eUKcIEACE8y9Bjk1aGmsVZvE6+Oo+bxzHTBzwoSCSo322xzGL18F765WNZlAL18B7z4O67a7SWjCLGpV6cqQHkbZDgJRU9U3euqmhRbSjBeK16dmB8hbBU3OfEhvbvB/x/jMQr583/DzpMIsaDGMHADk2hom/fjnj2bydh5VydhsAeKo2w1VUpdTjPSchfnhR9bUBgOHXhHS49U8q5dj7JxDrOWlpnB18BstwCsciFG+8C97h+2Fu43cM2/0bv23Y7s6aASOnn0Vi4G3bcVCUxj+YlMj4D+K5a5stEXIbpmfw5GgfXMVVqj7ZPrW+sGf3cZXWKGU5NonIWwch8aOW48rGt+JhMEumlmw5EXX8vd7Qx8pH4fnIRtN+jkXIh4KArJ55zPCtegzustqpiiQCdGYI3uUPKa90ZGEMlK9IbcTlyaimrovp7b4A67NDvO9NSNEwaK4EAEBzpZbGAYB32Y6MZTbS+kvM2/G85fFGuBfUKWVx+D1FgOmbpRRSdNhwhaL95WDXTs+2woVXIA5dzkmcKSi2xNIsCDgUYbznhLLbtAPl8sD/8e8r9UjrIfi3PJ3Rx7/pu0qZ7zoKbuNTWpY07Qe2/0IlmuT4AMb+rD4gNUK6OTgtQrbE8jju3m8p5XjvKST62235tYt3xU4Etv5I9Xzi+AFDEbKNT4AuqAAw9VWG7/xjzmPjGvfCVbjEUl/bGxNZjDm+psWlLbPJ8AcQ3nlZ1Yfy+KfaR/vAh/5k2Tbb9CXNWSva+mvbcVKMXynLYszSGG79k6DZ6SOTiAO/tqBocM1fUT0WB0NI/LfNcKh087pSpv3loAMVOQ3NXbFa92Bas79dB0IoiOSw/anbVVoLX91jSj3SekjVJ31p4TsPq9qN4LuOgO86YjsuLehAuVKWLXzvohg2Y3njzx3N/41yWcLoi59xNJTvDoKp2gxmURMoXxF8DXsQOfXTnIVmdCaoha2ZUBzpAX/O2ZFMYNuPlXL8yr+QGDij72cwhNj7f3fkZ6Z4l+3ImAklC/ci/Z/4wXT/6Aii7c/lJbZcwncdVcq+FQ/DU7UlJ3a993wWnupttsbYmgmF7iDkRNSWAwDw1j4A9/wVSj3Spp4F04l2/MGWfff8VaC5MsM+eofLqc0MPW8J3GV3g1mauZsTLvzF0K6rtBbeuz+t1KPtz1oJecYYbcJSiMM9um2J/tMQLh6Db+WjAADfmt2I95+e2iw6hGI4y5uRdCyLMN77b8TeO27bAQAEtj+jlPnOI4YXHeL/ecP2dbDAJ39i2B7vOakpQrZ5v+abjRSTJ78HKTpi7HvrD5Vy4loXYped/YzswFSu1dwVpzN54mnIsQnDPvzZw/At3wnQbjCVzWBXfwH8DO6Dso374C6ttT3O8nLsNDj/pukzQSk6gujbxkcW0TO5OdJIISciiLT+ytYYcegSJo4fMD0B8FRvzbghHD09O7OgGbHLryN+5Z+m/aTIECJpMfvqd8FVUmMwQh9X2TJbm5F0LP0GBiEURKTtN7aN04EFcBUuznhmdlBrpZ3mSuEq/qilGCQ+jGS4V9deRt9oGBI/ClkYU7VZWf60ziLNPp+ebSsH2nokJwZ1z06dxmhGwfZnlMQlu5iKMDk+gPFX95HEJYIunpr7UfDAQfOOOpguxyRzjmBIVuacEwxFSDLnCGZkZ845wVCEJHOOYIRW5pwTdEVIMucIZmhlzjlBU4Qkc45ghl7mnBM0RUgy5whmOD0T1EIlQpI5RzDDKHPOCSoR5uOGLWHuYJY558hmesVp5hzhzsEsc84JmSJ0eEGBcGfArt5tmjnnhAwRWrnASbgz8a18BFxa6kUuyXh3zA51gD/bovxCa8KdjatoKZjKtfCufMRSvrNTZu3vmBAIeuT1t/cTCFb4P36LANIdWSEgAAAAAElFTkSuQmCC;" parent="1" vertex="1">
          <mxGeometry x="4113" y="996" width="91" height="24.31" as="geometry" />
        </mxCell>
        <mxCell id="Ttfk6c4jHyExXrdg_O_r-258" value="" style="shape=image;verticalLabelPosition=bottom;labelBackgroundColor=default;verticalAlign=top;aspect=fixed;imageAspect=0;image=data:image/png,iVBORw0KGgoAAAANSUhEUgAAARQAAAC3CAMAAADkUVG/AAAAb1BMVEX///8SfMEAd78AdL4AeL8Acb0Ac76ixOMEesC/1uxMk8vx9/schMcAcL2sy+bS4/I2i8mDsdnc6fT2+v3F2u3c6fXo8fizz+icweFwp9Wlx+Tk7/eKttx5rNc/j8tdndGRut5po9NXms8Aabs2jswcqd0jAAAQgklEQVR4nO2dCduqLBPHEwTRNJcstUWtc77/Z3y1xRjArdDsvM//uq+z3FniLxiGYYDVatna7iPfTg7p6Zxdro6TB3f9dZzrJTuf0k0S+8f1t0s5j9a7eHPKHJdhSjFGlUzTZIwZlW5/VX+YzKx+j6srqOk62WkT779d7Im09pPykjNSozBN40ahX8yoAFV4cHAp7eO3n0Gj1v4mdMwbDDaQhYJOxYbSPEx+n8w6Ti9u1U7Q+zQgmooMK6zdt5/rbfnWxfUoMrXQ4MGYiKBi83M1Zh2f8rq16ObBgcHEPfnffs7B2sZhULeXyYA0QtQ4/wIXv8zJcCCs7ltuQujZOd/658EfYBJ2WnQ72m8KNARI7YTcfBDMjMpXuxbZ+XwOa50rP66o3DiD4VvPPaS3Yoj+3Wy//exq7cqAYLPzEWoWFQrXuYTWpvZWOx6lcnfjxAovuVnR6WPDMAqX5935IaPtVYRV/Sgm2L2GVrwb7bdvozjNckRqNB3Vxbsuyrr4Z6OVSNVSKDWc8BB/2vCPdnmt/L92MCZxloLFDw2qLmjtZtHgbPkaK3a0yYz2RroMLFFZ1RFl8aqxSuWQT+J3Hitzrr5rjeX63a5ou3GIomx1BXEvh2m/sjg0iLrFMhJOeudO+RnGUqkqIF4Q2rN0BH5oUiUWhOw57i9pbblU8uCrJlMBmTMoFBfqZkSv84emdhnFEhDinmcFctc6NeT6Whcnmbccdk5Micj1EM1bipeSv4pWxMhlvhJspW+mHpPZ33WyY0eBBbkzdUP7EIF2w9BCRu9xQOXKQudoQlHm8b1gRSRIv9ZoRNmGaOYMg5ymvmtUAFNS1ZF0WSP2UjR1VS80rWGpkLwqCTOpUS6mjjQ65lJlwc50t4sK7/UtmNhcarTLkgwuyie61ZGvJYhcv+MvDtLRFZ25aaiss1ctMbGRLi+WA5SJ3RCaoAWVXsMe0SLWfwPdOnhCE8K6re0GPZGYmKW/Mdcdi3UFa+2Z/eDpvZqes2BLIigSYwqevrLvn/aVIZwtrwPu0FGcu/d0eVTpMzaAzfI32s1Le6GuMFfTB9+NCaPGQdMHzqlIcOOwpmhcXQUZDX7HlAD5BFIhetzNG5If6IJbtIFUNDUgRvLfRVLpDH1bnOr40L8/jaRSAIwtw7/WW0yioweqCvrizMeClMIuyFv4qG0mwQb0X1W5yYcNiCw0h+Vj+TGvPu+9AAFKpKUDWqByUqcZP348/intg9xdRtBZGeer2AmvZcWjoRzeTCCr+X1y8Y+xHO6BVYWOcmsNzEnjQFu/WqAk6X5z8Feh+NQ+iK2Y5zG3coHv94NQipVVHi929begnL+eoTG3+nUou8PqkKwsa1WKvkgCfJVR7efXofjJapM72WplSfYQtB9UjrjVr0NZhysr2earVSa9AZhaFoy41QRQjsCh0Jb71mJTzuskqVrQrpTeANuPN8J/mwBK6vEd2iiz36W2LrmorYWtmMxYg/aD+4b+uxe1KaDw4Qx9w442KKskO2fKgoMBUJ9TG/95/XsCKNbMUFp14gtidk+M2QS//vMvQ7F5o9JtaTceo6///QPNp1VHfvzT6b4dqiv/T6CswBwQaQ9KWnWggYPCCCG00u3PP/8YFGBpaatzcGNicDblCKQlFrMcKMB9a+2T71MijOgqqFKLMbSrM4DSkjFp34N0E0cIlgMF9Mloo7wmvltjMvEU8XKaDyyJ8i3RPVcOa3O8BxXlm1BgnVW5tOv7AkVzqqTBRkuFUiquCO5Wh00e7V8OlLQPSnG/wJs+DxZ8P2Y/lCg5FXnlRLpBcepYRPUGlLKn+ZT3cYCUwmIgTrBbohh1yHCvoXoJB4BSudfNp6u+jzhjt7XH9wXt9eqytqTDN6CEAIrUv8T3zlgeFbn8raCb37KA8fGs9fprTAvFg6bqNzJFmNSSl6syRM5KLB87b6Kfsn68SqSsvo6xTyeU5yMQeXlaCxQDi1A2TF5+cXtiquoo3oCSt3/j9at3KLiU3vchlKq+UNF9Hghln8sLdZpLc7myvAEFbAggVtSHQVElOn0MxWCeUC+HQYnl5ZmcTFMKzo+HsgdTpxTa8N1jCl6VEvc5FKlHGwTFIkx91UMMi1TGQ4lB60SwV3gYU2VATgcUwfexBkBJifoa/nKhdx4PBfTIwhz76QGMqnwALVAQGDkMgJJ46kt4mUJjHw/F4RuoCeZVo0cBkDJ5XwsUw+PtYn/zifrriSGifgMKbD0l/9Kj52FI6WnpgQKA90NxJXvCVNsOeaBfGw0lbp/3SR4vtWSTDoaCuBkuJG3AwFd1CIW95sWeUEKBmompkTu5tMsG7C1HQwEhJpgM2JRNPRAcCgWlh4es6icMhAbAB0ABFHZ9vu/wXFl2FDKiiZPcX9mnhpAWzMeFRkOBvjIP+OGitM66D4UiptL5EArmBhZ9kTchHc3le2pxydsHUOLWrJ3t8xXaMswaDEV8/xGaMe6ePVCglcVCsk0Js0o4QzAWSgEqCv9oz+bbmt70NhTYZM3r64WeeArInOff93iWtn50JBTozvI1vZl4p23ru96H0jop2QOF30WCmVKBtmCXCa6Cj4QCgtYA/vMV1hqDfB+KDyo6Z8e6oQCWWBFDB0/DjfdHQoE7ePBxg+cr7RutzA7lwjUP5fwuqPfc0GQclFLox16tx8IdN58MSreh5d9kyjlZKzjZyVjz61FQttCT4od9bufNwSVzQQF9j7oCg/bzGrCNgiL4h1wvFhP5dzNA6Ww+IBGNKjO84SVN0cdAEf1DrnRN88Xtb58bCqgGnrJI4INfTz8GigMDWJw9b/rjjtYzOxTghqBjtIseP7Xu/wKxodf7R0DZwNgvb1Kbl7pyceaGAgfIVCW491Pjvg2HshY21OLHwk0danPxJ4LSaWjH7vRsNtt9DIfiwHvwHuL2Gd3qTIGbG8qg8BL/RE3hB0MphYkT3kNsjLg65PYdKNv2aY0WNR88FEoshjr5oEHW9D1ducYz25T15FD24t6JlH+oZtMM0rUA9V+DshX3CmH8ODx63b6DydxQJm8+gTjFBqpE0yHLIYsvQllNDMURg+YwNN2YlE47++UuGfdrFBSJifkXvN6MNbE6K/BLUMD9WLLpVTNmHABFYsIQsKfbpshSBsTUUDqbDxiVdIzJFE/cB2WbSxNOBA7DX3ZWPRR9am4oILLbkS4vqw/K3pDSGMRE0FfUr3ud/9xQwIujloD2QPEVe5GLrvyrYVPx7UBzQwFDYFWItlXdUBRpDIyJZT696lLnreY2tMB7a4+nK9QFZXtVbV8szWA0Aaaetaezx2jBchM5B69dHVBipsiK8uTRTfMRPd/G7NF8EGZvdSwVFrgdylmV7SImndVqvhDWvf/o1DWFielTcGMGop578RULTdqg2EyV+kFU3tmrVLNDAcFAeXYF3FG9NV1CFF/0FQQyX1BcVUKhkgkHpbv5gCauBwrMv8NiP2HBcKNiN/es7kk8sWe6tEAJ5FielLApQek2tB35t+9CEeYXaAkdpa3gUNAL9C6tR3MgAk24oqkTCmmJICmLqxDgrweKGIdFOHCujnPNHy1FDBeaxNlEN3DrXcIdCOPB3CswHdQFxURtSyi5J+2EAjoDTVAysZXfj9ZrzIchysSUYMYIpRiMAsD4Hswxd0BBQevggfvoTjcfeph6oEi7Kj8+/QnFVkavFYfIUUCFf/p2KF2nCHBXde8+xbdwTVAU2Y8AyiobmnhJ+REd36u1QWFeV6CEK0v3Hhl8YpEuKLayqnAxDClo2CKU89Wcf0ENBQfdIYHm0u4gE+grdEER53IlKFt1XZLeAX0s++W5KqEwr2fz8/z1/p4Fa6fXw2mDslVNBPLRrrV0HoIsJm1IEzY1UAGF0aBvV5/XRHbvUDRvLtUGZXVUUIEhwKt6AdRLqnOuzs9qLUNBLYuxwdtfFbhvi7Nt8Hx8fVBWR0OqCkJcNPU6DQvOVeZh8zi0RoSCvNOAVbTcULV9O4inCqIdSv2tCrVFDBbvC/lYnocYZi1Zevv78UsACkNUvexQFOf/DUjEtd2b1yRA6d59pA/KKjpjcN64HEHfFdBbexaYuh0huX2aY8p5uwEdvLs/N0I3hxxeYheVOwkH7B7h9EeG8od72ZMTYlf1OdsnxyDeQ38UvsHecuqT2s3HMo7bIlxD2gdS+lx/87rkMvx8MD7sR4ctWvcP8ESj/ZqTYj4avP7B3tq+dXbcigcz3PxSTnrmJec1z31c4XLF+U/ds8n/T+LDD94HlfufEp8D/89u8TxWaxDi/nZpliJ+9DjLsZa/ID4moO3on18XjKn9V1XuApGe/6rKXXBLlfLbxVmGwMI0gyz5oIC3ZP/tv0YWGOZOv5XZvIocMmYv70ZweZSeU6IWovrY1VEbnDcSNp/QdMzaArQN66jde1DEoLqU7vSb2pb41gTehCJM1ZnvfcqyVCO528o3oYhTiujnYwj7kDbdx7tQYmHWFnesJvwBRRnhxy7vVnxxqu6XqcRXOCnyNpRIzJHTftj0XNq44sZwb0MRj7SU5md/Q8czGpBQPVziRxnI/bWe2XY81dz0B1BEW1unP/3S2aW7kMmV5FMoigwZ5pXayjyttodAnHzVA0WVV9ST3LIQ2VevpZJ8DkW1/55Jlj48jDOkmmfWBaVOYJaFgwWPD+OzKW1prBkKn6zEfSa5LPPE3PiM+ol8DmVVKNOGTBou7XTYdXIZRkQDFHkd5l2IDkkAmktR6hA8kIgOKCt5JeYTy3kRHdHWPrsEDcwkvTPBn0dCgrZ0RESv33bm/NLBPV2NXGwt4dW2ulLbFqP8WnXZWVdMx241U32TpZ7bdyVpIpofZu+Ltn56RXRUm7mJIayvhxD3NYV3wiSXD02dTHv75NR5gmOriFFvkFDq7B1Sr7MMDBG35XwNnVrHaYEIHt1kHt8d0+2Lx73mDGEahPZUwYWjXRbG/UCSt2SSYIJMgX3Ql/19a7LEvVi+VjJH28pyXNWP0RaEK5c3VT8ZDtiy3rgfyWIUp8T/0Pyud/EhLFz6QfV4IMFmOJ3Ji+Ws+Q4ymLDgcrLs3X6MrdlHfnIoz9eAVTQ+qR1PIohO0W54Zd32ViwQM1EFhxLkOkV2Kg+bJI5jfxcd93dFke9Xv0k2Vno6X66Ba9aLAWsWpmIJ3BsyMQpHrP9/U77bFbxppVMvkETosYH+fUtDct/Y8LmdfsWhPtRJB4nmrpgWM52CnuIR5yd8T5WTEBzmi7Ovs56zZL6vypC46czDj+jautxmAaodyXJ6QyLLd7oXZ31NJiZB+g0iN+2K9hmEb8nE1Jl/cAq0P6N+H3c2VY3GyKYfffVre5Cmrr+ienThpL3rHWeTn40OfGkHUo1Dvx0AFLVNruRLXNi0A/PPtN6MiqXrAkLy00KBPLS1L8Yb4cG3cJi3AEW64GlKTrfI+rRgah7mddp1pfpVg6mbkva2VEdpvKp+/BiPRlFyDhDVVWfMGgd2i1OyW4AX8pkiuyxcSur29Fa1eYZiDOec2tHP4+B1jK1TERjeLYp2Cx21EbqtzDfvJCihbl6E6ccRzUVre/TtTRlm17/BzbkghD9Bo/pfPWvhBk5xPqUb248W3dFOo+16vT9G0e6u43G/Xi+9efwPs6XuIxBCFQUAAAAASUVORK5CYII=;" parent="1" vertex="1">
          <mxGeometry x="3687" y="984.45" width="65" height="43.1" as="geometry" />
        </mxCell>
        <mxCell id="Ttfk6c4jHyExXrdg_O_r-259" value="" style="shape=image;verticalLabelPosition=bottom;labelBackgroundColor=default;verticalAlign=top;aspect=fixed;imageAspect=0;image=data:image/png,iVBORw0KGgoAAAANSUhEUgAAAVQAAACUCAMAAAD70yGHAAAAkFBMVEX///8iHh8AAAAgHh/8/Pz29vYjHR8bGRodGxyko6QUDhAHAAB8enojIyM5Nzi+vL12cnPk5OTa2NmamZqysbEZFRZta2zEwsObm5sOCgzt7e2CgIEcHBxycHERERFOTE3Ozs4oKCg1NTVEREQwLi9jYWKSkpJZWFmJiYng3uAeGBooIyWrqqq0s7QuKCrq5udowQQsAAAHd0lEQVR4nO2ba3uivBaGQxIOhWqLFjVU0Rar1bbT///vdk6csdJ594fB67mv+TASQLlZWVmElBAAAAAAAAAAAAAAAAAAAAAAAAAAAAAAAAAAAAAAAAAAAAAAAAAAAACA/wt82F582H7gN0DqcPjz/RAeHwZG9D9HvYv99hKaR/YdfeGMM5+GIrwGvfvl7/ln4Nyt6OluqW3q64ouT2sHNs5kN5tv6Lo9+QljzhWi8UolzyEzrPOuOD5dT1TbJOVu1+p7xpQb+qA/uS9rVid4mW4Xq53bzY2cn5h/y1Jd3w8sdNdtfjWtybTjlJM7ug4Cx/EKqZP1OqjBgsDPIhptlqQVrFLyjPm3K5U80TK0/GOnlU99HXROdmwFHCcPVMdpXSrrI6P5krTuCSenILldqblfXT6dtdOflGquMIgeW714RwMjtez+k6CRKLVwiTyYLtJW0cl5/NLNAHJnVp5jrFJlN6wClTnhpp3+VKTaa6QH4pabOYmToFDRkVqekDlaquOJadwKdBmrE3Vu3X5jUh9Dz/GMBXkd4ttt7VBJdehT6UUO9K/V+N2WmlBDpM+t/3nhn7h9v0hsMkAtU3j649ilutQzPdRex4FcjFTZiZeFVc6PWdXVW1KT41LzsHrc06TYSw11rQTA44lsrqdfp54QxiqVfApzMWfrLfghUp1zFBdl/kYwdilSw/vq+N2bzLymj4tN+4Ypq7RN6I1cKid5oqWetx86Xhn9bO1Rl+okL6na6JJ3umYXI1VJtQEtx/yHzDdSmazYOvVqejqd4orT6XsejlyqGqaMltlbopNbsG+NJw2pTpK7ahT/pE6dttTH6nBVkWa2Ski2HamtfqH4oqOWKi/4PjO9fk+W1IwYVd40+zSlOmIhW5c0GChVPbvKetZY9WTF1voFZNn5VU9jl5qGxpiQ49PU1OL+9kepDn2W4R3YbTYD/CBVx+qbyjEyBYj31veTQ/dx44mOevRXz5lajUNjQlaRtdZ4ACilBsmH0Ujne9/KFNcjVavbmUcvL5m2nslWdNH5VaOXOvV1NXVWyS6NdKHuJZs+qcnmaAYQNhF2jArEIbweqfokLzq0PUbT2kblNLs5qTKCHF1t0y9l+F6X6vLK4x6p4b27T5ygVqk79PNEB0SqYqGLWo9VMzYqKxwou0Gpi1BJZYHQg/DMKmpkvlLqhpxEOTzpEe0gj/CGSJUhKWykftU2zumHE96c1G+hHyGZ0MW6rFnPVljt0acmVaXGSqpYVLfhaqR+UivVVsEqTufq4BuTKrXdmaHJdkpeFDOM3pE+qbwqIRnLtnoyZlCkqtrTdv9Squr7NyiVkz865BzfjMkyekIjzH/tj1Rlwkr19+lvpN6JhlRenunmpC6pmWeL5sUD/XtoujatXmPWI1W62NjgTk5qh8FSnwupX6Ts++wWpZKFqvaZ50VlnfMd2VDd9kpVEWYKK/UUz3+RU7dJ8TRMdJzOTdlxe1JTE2beOV8W7HITqbWXVQ2p6qFzmplINpE6rE5Ni1ys61Q1dTCxG25MKpmb5yFZ8FfTboGR6iSLcuK0IZW4PP4I6cquFhgmVQamMPvJHqA/HwS7Tal8X73NLOv5Ehr3S1XPnPlz8RZvkFTO0+LEYqU3kEN0USof8YSKmmmaOBfxwnfSL5WYZRPmLNelcjVL9WZnSO2zmo5cazVpSdXTiiONVDNzZKO0LVS/XqFur1StiReLfIZIJfy5CD2VVEhHKq/jurW52rFJJTG1/d5vrl8q3sUX65g6UutckJo8ll/DySmnrJj5j+3tOJRSy3eElnXM49fEMblodFIPwkj1j/ePNe43Ztba8fcXIrXO1UiNH96onieUTj/o3IxvDak2MWgmWa6WbKWvYaCtjkwqcfeBuZj6ZJzmaGJ1Yuc+/kaq82ebK14FpUn59puWCeSSVOVUeU+n2WSE3V+t2NEXk721Vk/wB1O+smSr8+ZfSXXO/tn3fTOJavpyQBfFC6lLUkXu2gIjzUOVMMYm9WhU6TdS9e0yTgJ7mXTH/1qqnvyyC61M5qbv5bKfC1LFtlquKa2OTaocPeybu2DSXjyqikhznYkO4mIt1TCpay2r+QJLTb/Q6a7qER2pOpizrVtp5ypWxyZVXZV5E9ddOfpNmQw4VVXFOlLNSr5LUs26tqbU+usBFsjxfftFaqtb21L1Gx3b94sfIWM1c8a0kloGBI0MdNazfnxBIyHbBFVz13xPhYIueqTuqNxRNZpZLTdT66cU+hAR6fVUb3exqW7L7zf3tLF+KszbPcZ9FWOKVM5nh5VkPp/f9ZgisnWuGlcHFan6/3Lnr55d08NKNx70veGuOa5k9fm1M8VF69CmVBm0Mp92VgS5+agitdnRus31xh93rR10eYeezfOoIZV1nJoMMF398I3/GM2/R+mxWo0opLLar4zXG3v+YqD/mPfWmrRt2nv6tK93gF44j5vM1N++9OzWs9AKXGBg9CFI/xPQBwAAAAAAAAAAAAAAAAAAAAAAAAAAAAAAAAAAAAAAAAAAAAAAAAAAAAAAAAAAcJ3/AX3+dL4IXi9YAAAAAElFTkSuQmCC;" parent="1" vertex="1">
          <mxGeometry x="3818.89" y="984.5" width="102.23" height="44.5" as="geometry" />
        </mxCell>
        <mxCell id="Ttfk6c4jHyExXrdg_O_r-260" value="" style="shape=image;verticalLabelPosition=bottom;labelBackgroundColor=default;verticalAlign=top;aspect=fixed;imageAspect=0;image=data:image/png,iVBORw0KGgoAAAANSUhEUgAAASwAAACoCAMAAABt9SM9AAAAtFBMVEX///8AAAB2uQCdnZ1ytwB+fn7n5+en0HZrtACm0GuayllvtgCFhYXR0dGmpqZtbW0TExOvr6+/3JwYGBi6urqWlpZDQ0Pv7+/d3d2w1X9RUVF3d3f8/veIwjP5+fmsrKz3++7s9d4zMzPj8M/JycnU6LfX6b9ISEidzF7z+elaWlqXyU+32Yk8PDyZmZksLCy93JOAviDh78vN5KyQxkNjY2Ojz2hubm6Sx0gkJCSEwCqz14VpYjZMAAAI2klEQVR4nO2b7VbiPBRGa40SDOqIKKJFy1RQBh35cBwG7/++3jZfpKXQPB3Wcs16z/5F06S0m+TkNC1BQPhy+NUn8C9BsgBIFgDJAiBZACQLgGQBkCwAkgVAsgBIFgDJAiBZACQLgGQBkCwAkgVAsgBIFgDJAiBZACQLgGQBkCwAkgVAsgBIFgDJAiBZACQLgGQBkCwAkgVAsgBIFgDJAiBZACQLgGQBkCwAkgVAsgBIFgDJAiBZACQLgGQBkCwAkgVAsgBIFgDJAiBZACQLgGQBkCwAkgVAsgBIFgDJAqgtazg58WQy3ecJfyW1ZbU580Q09nnCX0l9WSL0hJEskgVAsgDanHMhGCNZFUSDYbvXXizaL88rxkWFsP+zrEF7Eqa9qqc341Fvxnfq+t/Kitt91ZNEzymdf4gdEcyVdX9a4Pj43j3+sSH/taa0W/gc3B/n6N4HBbrlBwycRhtttgLJGjRF1olYGq3C5mg0msdmz7i3fTC6sk4PNvn24+rU7H8zhQ/u9z6a0rN0w3w+kqe/cbCnu4uu0/SX2ZG/Evc8jryvH5A1+EgdpabC50USyQDP+aw50nvHH9sGY5WsjO8dfTqm4If7zXemNNNgPreyPWelR/t1Y5ueG4n5azl3q3t3LW9ZcVN1qskoktsqdWCpu5dY1ZjPyseijyxj59huu999qcueAj9ZBwdXu2V1c5Uv9i2rLWSveh7Ygux2R8oQwtz8NXl9WQevssKr2XxcN7oxZQ/esg7Od8rKN3vdr6xBP9PAV4ktiV/6y2WWN2Q6+EzvWJQNRU9ZB7+yCj9zLhS2rOsvy0Sicllv+bo3gR9esqbSAX8xoobNmUodonkvzHQxrjtXEm7a8pUlO5Mdh2/rRqa3XQeALN01S2WZszDD2zfEe8iKTriMTjqUJx8sHYE2dYimch7kz2pzPNuw5S3rNqthf3Q72dsAc7ZD1kPK2dUP52h/tsv6rQvt2XiG+GpZieo7oYpWgxMZ5wVf51njZSZTvKvAH2/YKpV1phOgm4vv6+vLhtmVvXzT5sLdvU2Wrnv/sD7a4zZZ9/bHedKfPEN8payhHIIsHMutF6Vq2R72pnNbpydt9dVGVLRVKss5vZa9vCx/sNHcJg+mu+g4XC7L9o3uH1P0e5ss06hjf4fr/ciaqgmOSVexivNySkzzrJnVNc06n5iojbFPz3J/S/P7qthhL9Zcv9k+9JJVyD7KZL3ZNqaPeYb4ClmRciXkbDeQ0Zsv5J40z2J8qKsNZGfiOq/oM0yWLZTzoe1oOq236fuxn6zgyG1QIsv03Ttnt1+Ir+pZPZUbSFkrKUFnCTIp1XqGqlJb7ZkUctNKWfb6X91rMcmDufbvhcpbZdkDdMplmfuB7Mewv8ReZI1l12LN7LMcbGHgyGIyTqmhyhvlrjxk3epClS5c5raCb3rzp68sW+OhVJYZen9ydb1CfGWAb8prF3H6MZYRa+jIkr1J5e0md9hw5SHLdJ5LuWXHoRx3N7ktL1km6l2VyjJB/TD3ZV5ZfKUs1bVUWtUQpjPZZWU2eFfWTmRppF0xSJZJFy7zdWTyYG6tzSj0kGWSkaNSWWavSkTsb+ET4qvzrBdlK5sOY5EL8EqFiu0fsjDuq1LeCEVtWVaHTB6unW6yD1k37sGdys7t1V/ICmQ3YXKUtWUuH7uylJxPWVNNl3KWjBv2NhGWZaezwEnf7S9fLctEudJhaA6u14Q20tq/lDVXMUne7SyZGYiOLCZUHBuqBUCmJkyV69eRZaeoNAfv6I/rW8VKWbnbow1ZRTe2tkeI97mRbigv2e1MlPUdeWdjZTG+VNm9XqDh77FuN+/zWrJcH+Zi7SislmX8lqYOFxvHM2upHlm816qDTLCYTNDHmS02S2yA56HqVole+tMjUtFmtWSZTOjPWs06/lbKunbbFGWZFYzXa83Tm1t9D7LGKojLGXG8UquADZEtK7OJUhXpECXCkdtwXq9nrZP208IeD1nrW+lgU5ad/EqozuL9Fv8SFbbUgpZcX+a9OBmOErXSEE315MdPYrdZr+YwXKeKJg1y5qoKWesVLjnfFWTZuaOMSg2ey8oj11byzoXzKGz8olWJcOi2GeqBWUOWWXA6N6PmdF25XJba1+3YMai/oiBrl6vqEO+7Bq9tqXQqGHyulIEoaS+5ViVeIqdBsjS5Qw1ZncJluGsG5bJuU75/yzW635RVPG6ep33JChKZfYqVeWLRDvv995l5eM+E+Iyd2vPJejW+hqxiD3AzxnJZm6h7ybwssxjU6rjY9dWqEO//3FBG9jS0N5SUtmDm8Q4TfDZ1VEWLvvvgoo4s+2xU4YxCX1m6m+Rk2fDuPoZ1+lt2yO7d+dG2VWbkibSa8YRoJIFZdWCpKL7qJU6tpBfmn/HUkVUYL25lP1m3QYmsVmFn8ZDZ9zw9tDrF/Qbo8X2yUmvMfNZc9DIPs/fn6XDs1BhMVxxfotmUZZcwJblJ3UuWHbc5WaVfHjhPvDvB6c/D21ar+GaEBnwxZKHfmGFp0hVFUW5fNP9clb1/VCor9y6DfUixLjJLXBJ3FObfdSiV9e1o8/F9dmj75KM4zGxe9xrctA5fH8+7QSnwK0fDieBprGK9XGk2K4Zb3tRyZR3fHUnuctff0aVOHH/URZLcV5kjXGxUy7g67OS6xZlz6EP9+WdQxLT+3Q3OWze/tqWnNV5mixcfM2YfhUXxfNHs73ql7R97P+viqLNtV83XJOPB50mj0XxerkLOK16W/Mdk7eCv34PfpYlkaehtZQCSBeD/dxROsoYfTU8+2vs84a+E/kIHQLIASBYAyQIgWQAkC4BkAZAsAJIFQLIASBYAyQIgWQAkC4BkAZAsAJIFQLIASBYAyQIgWQAkC4BkAZAsAJIFQLIASBYAyQIgWQAkC4BkAZAsAJIFQLIASBYAyQIgWQAkC4BkAZAsAJIFQLIASBYAyQIgWQAkC4BkAZAsAJIFQLIASBYAyQIgWQAkC4BkAZAsAJIFQLIASBYAyQIgWQCH/wFArIye7hP3rwAAAABJRU5ErkJggg==;" parent="1" vertex="1">
          <mxGeometry x="3556.25" y="986" width="71.43" height="40" as="geometry" />
        </mxCell>
        <mxCell id="Ttfk6c4jHyExXrdg_O_r-261" value="" style="rounded=1;whiteSpace=wrap;html=1;glass=0;arcSize=3;fillColor=none;" parent="1" vertex="1">
          <mxGeometry x="3541" y="338" width="680" height="120" as="geometry" />
        </mxCell>
        <mxCell id="Ttfk6c4jHyExXrdg_O_r-262" value="" style="rounded=1;whiteSpace=wrap;html=1;glass=0;arcSize=3;fillColor=none;" parent="1" vertex="1">
          <mxGeometry x="3541.5" y="919" width="678.5" height="120" as="geometry" />
        </mxCell>
        <mxCell id="Ttfk6c4jHyExXrdg_O_r-266" value="" style="rounded=1;whiteSpace=wrap;html=1;glass=0;arcSize=3;fillColor=none;" parent="1" vertex="1">
          <mxGeometry x="3541.5" y="470" width="680" height="442" as="geometry" />
        </mxCell>
      </root>
    </mxGraphModel>
  </diagram>
</mxfile>
